<?xml version="1.0" encoding="UTF-8" standalone="no"?>
<svg
   width="357.12pt"
   height="266.112pt"
   viewBox="0 0 357.12 266.11199"
   version="1.1"
   id="svg184"
   sodipodi:docname="J.svg"
   xmlns:inkscape="http://www.inkscape.org/namespaces/inkscape"
   xmlns:sodipodi="http://sodipodi.sourceforge.net/DTD/sodipodi-0.dtd"
   xmlns:xlink="http://www.w3.org/1999/xlink"
   xmlns="http://www.w3.org/2000/svg"
   xmlns:svg="http://www.w3.org/2000/svg"
   xmlns:rdf="http://www.w3.org/1999/02/22-rdf-syntax-ns#"
   xmlns:cc="http://creativecommons.org/ns#"
   xmlns:dc="http://purl.org/dc/elements/1.1/">
  <sodipodi:namedview
     id="namedview184"
     pagecolor="#ffffff"
     bordercolor="#000000"
     borderopacity="0.25"
     inkscape:showpageshadow="2"
     inkscape:pageopacity="0.0"
     inkscape:pagecheckerboard="0"
     inkscape:deskcolor="#d1d1d1"
     inkscape:document-units="pt" />
  <metadata
     id="metadata1">
    <rdf:RDF>
      <cc:Work>
        <dc:type
           rdf:resource="http://purl.org/dc/dcmitype/StillImage" />
        <dc:date>2024-04-08T13:54:20.494773</dc:date>
        <dc:format>image/svg+xml</dc:format>
        <dc:creator>
          <cc:Agent>
            <dc:title>Matplotlib v3.8.3, https://matplotlib.org/</dc:title>
          </cc:Agent>
        </dc:creator>
      </cc:Work>
    </rdf:RDF>
  </metadata>
  <defs
     id="defs1">
    <style
       type="text/css"
       id="style1">*{stroke-linejoin: round; stroke-linecap: butt}</style>
  </defs>
  <g
     id="figure_1"
     transform="translate(-57.600003,-41.472002)">
    <g
       id="patch_1">
      <path
         d="M 0,345.6 H 460.8 V 0 H 0 Z"
         style="fill:none"
         id="path1" />
    </g>
    <g
       id="axes_1">
      <g
         id="patch_2">
        <path
           d="M 57.6,307.584 H 414.72 V 41.472 H 57.6 Z"
           style="fill:none"
           id="path2" />
      </g>
      <g
         id="EdgeCollection_1">
        <path
           d="m 125.76226,195.84301 -15.31349,-20.68643 15.31349,20.68643 1.20561,-0.89248 0.57933,3.30369 -2.99055,-1.51874 1.20561,-0.89247"
           clip-path="url(#p93ffee1ff4)"
           style="fill:#444444;stroke:#444444;stroke-width:1.5"
           id="path3" />
        <path
           d="m 144.19408,150.89744 -32.34138,17.82679 32.34138,-17.82679 -0.7241,-1.31366 3.3514,-0.13453 -1.90321,2.76184 -0.72409,-1.31365"
           clip-path="url(#p93ffee1ff4)"
           style="fill:#444444;stroke:#444444;stroke-width:1.5"
           id="path4" />
        <path
           d="m 154.21154,139.62398 17.42032,-42.875988 -17.42032,42.875988 1.38967,0.56462 -2.51891,2.21474 -0.26044,-3.34398 1.38968,0.56462"
           clip-path="url(#p93ffee1ff4)"
           style="fill:#444444;stroke:#444444;stroke-width:1.5"
           id="path5" />
        <path
           d="m 170.4127,251.53471 38.45694,6.67575 -38.45694,-6.67575 -0.25655,1.47789 -2.69925,-1.99099 3.21235,-0.9648 -0.25655,1.4779"
           clip-path="url(#p93ffee1ff4)"
           style="fill:#444444;stroke:#444444;stroke-width:1.5"
           id="path6" />
        <path
           d="m 215.33713,179.20979 10.53756,35.09204 -10.53756,-35.09204 -1.43663,0.4314 0.57384,-3.30465 2.29942,2.44186 -1.43663,0.43139"
           clip-path="url(#p93ffee1ff4)"
           style="fill:#444444;stroke:#444444;stroke-width:1.5"
           id="path7" />
        <path
           d="m 216.35847,251.48713 9.35264,-27.65998 -9.35264,27.65998 1.42097,0.48047 -2.38191,2.36147 -0.46003,-3.32241 1.42097,0.48047"
           clip-path="url(#p93ffee1ff4)"
           style="fill:#444444;stroke:#444444;stroke-width:1.5"
           id="path8" />
        <path
           d="m 144.22705,143.11453 -35.00824,-19.68537 35.00824,19.68537 0.7352,-1.30747 1.87974,2.77787 -3.35014,-0.16293 0.7352,-1.30747"
           clip-path="url(#p93ffee1ff4)"
           style="fill:#444444;stroke:#444444;stroke-width:1.5"
           id="path9" />
        <path
           d="m 344.20723,179.12201 30.11059,10.33092 -30.11059,-10.33092 -0.48679,1.41881 -2.35084,-2.3924 3.32442,-0.44523 -0.48679,1.41882"
           clip-path="url(#p93ffee1ff4)"
           style="fill:#444444;stroke:#444444;stroke-width:1.5"
           id="path10" />
        <path
           d="m 376.69419,223.35585 1.98951,-27.2935 -1.98951,27.2935 1.49603,0.10905 -1.71413,2.88301 -1.27793,-3.10111 1.49603,0.10905"
           clip-path="url(#p93ffee1ff4)"
           style="fill:#444444;stroke:#444444;stroke-width:1.5"
           id="path11" />
        <path
           d="m 123.62043,206.31852 -30.246512,17.72978 30.246512,-17.72978 -0.75855,-1.29407 3.34668,-0.22303 -1.82958,2.81116 -0.75855,-1.29406"
           clip-path="url(#p93ffee1ff4)"
           style="fill:#444444;stroke:#444444;stroke-width:1.5"
           id="path12" />
        <path
           d="m 157.38112,141.95657 22.06978,-18.13541 -22.06978,18.13541 0.95232,1.15891 -3.27015,0.74572 1.36552,-3.06355 0.95231,1.15892"
           clip-path="url(#p93ffee1ff4)"
           style="fill:#444444;stroke:#444444;stroke-width:1.5"
           id="path13" />
        <path
           d="m 167.38017,256.52894 17.93655,23.53208 -17.93655,-23.53208 -1.19296,0.9093 -0.62564,-3.29524 3.01157,1.47664 -1.19297,0.9093"
           clip-path="url(#p93ffee1ff4)"
           style="fill:#444444;stroke:#444444;stroke-width:1.5"
           id="path14" />
        <path
           d="m 208.08593,264.66879 -16.16943,15.86681 16.16943,-15.86681 -1.0506,-1.07063 3.19186,-1.03055 -1.09067,3.17182 -1.05059,-1.07064"
           clip-path="url(#p93ffee1ff4)"
           style="fill:#444444;stroke:#444444;stroke-width:1.5"
           id="path15" />
        <path
           d="m 148.39551,154.52783 -16.12045,43.06244 16.12045,-43.06244 -1.40479,-0.52589 2.45656,-2.2837 0.35302,3.33547 -1.40479,-0.52588"
           clip-path="url(#p93ffee1ff4)"
           style="fill:#444444;stroke:#444444;stroke-width:1.5"
           id="path16" />
        <path
           d="m 180.16547,87.670852 29.74103,-19.874382 -29.74103,19.874382 0.83342,1.247164 -3.32775,0.419666 1.66092,-2.913994 0.83341,1.247164"
           clip-path="url(#p93ffee1ff4)"
           style="fill:#444444;stroke:#444444;stroke-width:1.5"
           id="path17" />
        <path
           d="m 379.87525,183.11855 2.86685,-27.54852 -2.86685,27.54852 1.49195,0.15526 -1.80247,2.82862 -1.18142,-3.13914 1.49194,0.15526"
           clip-path="url(#p93ffee1ff4)"
           style="fill:#444444;stroke:#444444;stroke-width:1.5"
           id="path18" />
        <path
           d="m 352.74637,137.72892 25.90618,10.92508 -25.90618,-10.92508 -0.58286,1.38212 -2.18139,-2.54785 3.34712,-0.2164 -0.58287,1.38213"
           clip-path="url(#p93ffee1ff4)"
           style="fill:#444444;stroke:#444444;stroke-width:1.5"
           id="path19" />
        <path
           d="m 338.27267,168.6941 6.0821,-29.179 -6.0821,29.179 1.46844,0.30608 -2.08061,2.63079 -0.85627,-3.24296 1.46844,0.30609"
           clip-path="url(#p93ffee1ff4)"
           style="fill:#444444;stroke:#444444;stroke-width:1.5"
           id="path20" />
        <path
           d="m 246.97348,145.74128 -29.95712,22.78002 29.95712,-22.78002 -0.90794,-1.194 3.29595,-0.62189 -1.48006,3.00989 -0.90795,-1.194"
           clip-path="url(#p93ffee1ff4)"
           style="fill:#444444;stroke:#444444;stroke-width:1.5"
           id="path21" />
        <path
           d="m 158.63723,149.98366 49.751,19.72158 -49.751,-19.72158 -0.55277,1.39444 -2.23611,-2.49996 3.34164,-0.28891 -0.55276,1.39443"
           clip-path="url(#p93ffee1ff4)"
           style="fill:#444444;stroke:#444444;stroke-width:1.5"
           id="path22" />
        <path
           d="m 333.1917,183.74434 -12.91828,27.04096 12.91828,-27.04096 -1.35348,-0.6466 2.64668,-2.06037 0.0603,3.35357 -1.35348,-0.6466"
           clip-path="url(#p93ffee1ff4)"
           style="fill:#444444;stroke:#444444;stroke-width:1.5"
           id="path23" />
        <path
           d="m 134.96735,208.92422 24.78495,37.08516 -24.78495,-37.08516 -1.24712,0.83349 -0.41985,-3.32772 2.91409,1.66075 -1.24712,0.83348"
           clip-path="url(#p93ffee1ff4)"
           style="fill:#444444;stroke:#444444;stroke-width:1.5"
           id="path24" />
      </g>
      <g
         id="VertexCollection_1">
        <path
           d="m 107.47386,176.13788 c 1.32601,0 2.5979,-0.52683 3.53553,-1.46447 0.93764,-0.93763 1.46447,-2.20951 1.46447,-3.53553 0,-1.32601 -0.52683,-2.5979 -1.46447,-3.53553 -0.93763,-0.93764 -2.20952,-1.46447 -3.53553,-1.46447 -1.32602,0 -2.5979,0.52683 -3.53553,1.46447 -0.93764,0.93763 -1.46447,2.20952 -1.46447,3.53553 0,1.32602 0.52683,2.5979 1.46447,3.53553 0.93763,0.93764 2.20951,1.46447 3.53553,1.46447 z"
           clip-path="url(#p93ffee1ff4)"
           id="path25" />
        <path
           d="m 173.51393,97.115733 c 1.32602,0 2.5979,-0.526831 3.53553,-1.464466 0.93764,-0.937634 1.46447,-2.209518 1.46447,-3.535534 0,-1.326015 -0.52683,-2.597899 -1.46447,-3.535534 -0.93763,-0.937634 -2.20951,-1.464466 -3.53553,-1.464466 -1.32602,0 -2.5979,0.526832 -3.53553,1.464466 -0.93764,0.937635 -1.46447,2.209519 -1.46447,3.535534 0,1.326016 0.52683,2.5979 1.46447,3.535534 0.93763,0.937635 2.20951,1.464466 3.53553,1.464466 z"
           clip-path="url(#p93ffee1ff4)"
           id="path26" />
        <path
           d="m 213.79597,264.06563 c 1.32601,0 2.59789,-0.52683 3.53553,-1.46447 0.93763,-0.93763 1.46447,-2.20952 1.46447,-3.53553 0,-1.32602 -0.52684,-2.5979 -1.46447,-3.53554 -0.93764,-0.93763 -2.20952,-1.46446 -3.53553,-1.46446 -1.32602,0 -2.5979,0.52683 -3.53554,1.46446 -0.93763,0.93764 -1.46446,2.20952 -1.46446,3.53554 0,1.32601 0.52683,2.5979 1.46446,3.53553 0.93764,0.93764 2.20952,1.46447 3.53554,1.46447 z"
           clip-path="url(#p93ffee1ff4)"
           id="path27" />
        <path
           d="m 227.31268,224.09059 c 1.32601,0 2.5979,-0.52683 3.53553,-1.46447 0.93764,-0.93763 1.46447,-2.20951 1.46447,-3.53553 0,-1.32602 -0.52683,-2.5979 -1.46447,-3.53553 -0.93763,-0.93764 -2.20952,-1.46447 -3.53553,-1.46447 -1.32602,0 -2.5979,0.52683 -3.53554,1.46447 -0.93763,0.93763 -1.46446,2.20951 -1.46446,3.53553 0,1.32602 0.52683,2.5979 1.46446,3.53553 0.93764,0.93764 2.20952,1.46447 3.53554,1.46447 z"
           clip-path="url(#p93ffee1ff4)"
           id="path28" />
        <path
           d="m 104.86057,125.97849 c 1.32602,0 2.5979,-0.52683 3.53553,-1.46446 0.93764,-0.93763 1.46447,-2.20952 1.46447,-3.53554 0,-1.32601 -0.52683,-2.59789 -1.46447,-3.53553 -0.93763,-0.93763 -2.20951,-1.46447 -3.53553,-1.46447 -1.32602,0 -2.5979,0.52684 -3.53553,1.46447 -0.93764,0.93764 -1.46447,2.20952 -1.46447,3.53553 0,1.32602 0.52683,2.59791 1.46447,3.53554 0.93763,0.93763 2.20951,1.46446 3.53553,1.46446 z"
           clip-path="url(#p93ffee1ff4)"
           id="path29" />
        <path
           d="m 379.0472,196.07558 c 1.32602,0 2.5979,-0.52683 3.53554,-1.46447 0.93763,-0.93763 1.46446,-2.20952 1.46446,-3.53553 0,-1.32602 -0.52683,-2.5979 -1.46446,-3.53554 -0.93764,-0.93763 -2.20952,-1.46446 -3.53554,-1.46446 -1.32601,0 -2.5979,0.52683 -3.53553,1.46446 -0.93764,0.93764 -1.46447,2.20952 -1.46447,3.53554 0,1.32601 0.52683,2.5979 1.46447,3.53553 0.93763,0.93764 2.20952,1.46447 3.53553,1.46447 z"
           clip-path="url(#p93ffee1ff4)"
           id="path30" />
        <path
           d="m 376.11259,236.33468 c 1.32602,0 2.5979,-0.52683 3.53553,-1.46447 0.93764,-0.93763 1.46447,-2.20952 1.46447,-3.53553 0,-1.32602 -0.52683,-2.5979 -1.46447,-3.53554 -0.93763,-0.93763 -2.20951,-1.46446 -3.53553,-1.46446 -1.32601,0 -2.5979,0.52683 -3.53553,1.46446 -0.93764,0.93764 -1.46447,2.20952 -1.46447,3.53554 0,1.32601 0.52683,2.5979 1.46447,3.53553 0.93763,0.93764 2.20952,1.46447 3.53553,1.46447 z"
           clip-path="url(#p93ffee1ff4)"
           id="path31" />
        <path
           d="m 89.06037,231.5768 c 1.326015,0 2.597899,-0.52683 3.535534,-1.46447 0.937634,-0.93763 1.464466,-2.20952 1.464466,-3.53553 0,-1.32602 -0.526832,-2.5979 -1.464466,-3.53554 -0.937635,-0.93763 -2.209519,-1.46446 -3.535534,-1.46446 -1.326016,0 -2.597899,0.52683 -3.535534,1.46446 -0.937635,0.93764 -1.464466,2.20952 -1.464466,3.53554 0,1.32601 0.526831,2.5979 1.464466,3.53553 0.937635,0.93764 2.209518,1.46447 3.535534,1.46447 z"
           clip-path="url(#p93ffee1ff4)"
           id="path32" />
        <path
           d="m 183.31396,125.64677 c 1.32601,0 2.59789,-0.52684 3.53553,-1.46447 0.93763,-0.93764 1.46447,-2.20952 1.46447,-3.53553 0,-1.32602 -0.52684,-2.5979 -1.46447,-3.53554 -0.93764,-0.93763 -2.20952,-1.46446 -3.53553,-1.46446 -1.32602,0 -2.5979,0.52683 -3.53554,1.46446 -0.93763,0.93764 -1.46446,2.20952 -1.46446,3.53554 0,1.32601 0.52683,2.59789 1.46446,3.53553 0.93764,0.93763 2.20952,1.46447 3.53554,1.46447 z"
           clip-path="url(#p93ffee1ff4)"
           id="path33" />
        <path
           d="m 188.34772,289.03758 c 1.32602,0 2.5979,-0.52683 3.53554,-1.46447 0.93763,-0.93763 1.46446,-2.20951 1.46446,-3.53553 0,-1.32602 -0.52683,-2.5979 -1.46446,-3.53553 -0.93764,-0.93764 -2.20952,-1.46447 -3.53554,-1.46447 -1.32601,0 -2.5979,0.52683 -3.53553,1.46447 -0.93764,0.93763 -1.46447,2.20951 -1.46447,3.53553 0,1.32602 0.52683,2.5979 1.46447,3.53553 0.93763,0.93764 2.20952,1.46447 3.53553,1.46447 z"
           clip-path="url(#p93ffee1ff4)"
           id="path34" />
        <path
           d="m 130.52211,207.27292 c 1.32602,0 2.5979,-0.52683 3.53553,-1.46447 0.93764,-0.93763 1.46447,-2.20952 1.46447,-3.53553 0,-1.32602 -0.52683,-2.5979 -1.46447,-3.53553 -0.93763,-0.93764 -2.20951,-1.46447 -3.53553,-1.46447 -1.32601,0 -2.5979,0.52683 -3.53553,1.46447 -0.93764,0.93763 -1.46447,2.20951 -1.46447,3.53553 0,1.32601 0.52683,2.5979 1.46447,3.53553 0.93763,0.93764 2.20952,1.46447 3.53553,1.46447 z"
           clip-path="url(#p93ffee1ff4)"
           id="path35" />
        <path
           d="m 214.06371,70.01842 c 1.32602,0 2.5979,-0.526832 3.53553,-1.464467 0.93764,-0.937634 1.46447,-2.209518 1.46447,-3.535533 0,-1.326016 -0.52683,-2.5979 -1.46447,-3.535534 -0.93763,-0.937635 -2.20951,-1.464466 -3.53553,-1.464466 -1.32602,0 -2.5979,0.526831 -3.53553,1.464466 -0.93764,0.937634 -1.46447,2.209518 -1.46447,3.535534 0,1.326015 0.52683,2.597899 1.46447,3.535533 0.93763,0.937635 2.20951,1.464467 3.53553,1.464467 z"
           clip-path="url(#p93ffee1ff4)"
           id="path36" />
        <path
           d="m 253.34149,145.89892 c 1.32602,0 2.5979,-0.52684 3.53553,-1.46447 0.93764,-0.93763 1.46447,-2.20952 1.46447,-3.53553 0,-1.32602 -0.52683,-2.5979 -1.46447,-3.53554 -0.93763,-0.93763 -2.20951,-1.46446 -3.53553,-1.46446 -1.32602,0 -2.5979,0.52683 -3.53553,1.46446 -0.93764,0.93764 -1.46447,2.20952 -1.46447,3.53554 0,1.32601 0.52683,2.5979 1.46447,3.53553 0.93763,0.93763 2.20951,1.46447 3.53553,1.46447 z"
           clip-path="url(#p93ffee1ff4)"
           id="path37" />
        <path
           d="m 383.25963,155.59689 c 1.32602,0 2.5979,-0.52683 3.53553,-1.46447 0.93764,-0.93763 1.46447,-2.20951 1.46447,-3.53553 0,-1.32602 -0.52683,-2.5979 -1.46447,-3.53553 -0.93763,-0.93764 -2.20951,-1.46447 -3.53553,-1.46447 -1.32602,0 -2.5979,0.52683 -3.53553,1.46447 -0.93764,0.93763 -1.46447,2.20951 -1.46447,3.53553 0,1.32602 0.52683,2.5979 1.46447,3.53553 0.93763,0.93764 2.20951,1.46447 3.53553,1.46447 z"
           clip-path="url(#p93ffee1ff4)"
           id="path38" />
        <path
           d="m 151.20023,152.0356 c 1.32602,0 2.5979,-0.52683 3.53553,-1.46447 0.93764,-0.93763 1.46447,-2.20952 1.46447,-3.53553 0,-1.32602 -0.52683,-2.5979 -1.46447,-3.53554 -0.93763,-0.93763 -2.20951,-1.46446 -3.53553,-1.46446 -1.32602,0 -2.5979,0.52683 -3.53553,1.46446 -0.93764,0.93764 -1.46447,2.20952 -1.46447,3.53554 0,1.32601 0.52683,2.5979 1.46447,3.53553 0.93763,0.93764 2.20951,1.46447 3.53553,1.46447 z"
           clip-path="url(#p93ffee1ff4)"
           id="path39" />
        <path
           d="m 345.37504,139.6203 c 1.32602,0 2.5979,-0.52683 3.53554,-1.46447 0.93763,-0.93763 1.46446,-2.20951 1.46446,-3.53553 0,-1.32601 -0.52683,-2.5979 -1.46446,-3.53553 -0.93764,-0.93764 -2.20952,-1.46447 -3.53554,-1.46447 -1.32601,0 -2.59789,0.52683 -3.53553,1.46447 -0.93763,0.93763 -1.46447,2.20952 -1.46447,3.53553 0,1.32602 0.52684,2.5979 1.46447,3.53553 0.93764,0.93764 2.20952,1.46447 3.53553,1.46447 z"
           clip-path="url(#p93ffee1ff4)"
           id="path40" />
        <path
           d="m 336.64022,181.52577 c 1.32602,0 2.5979,-0.52683 3.53554,-1.46447 0.93763,-0.93763 1.46446,-2.20951 1.46446,-3.53553 0,-1.32601 -0.52683,-2.5979 -1.46446,-3.53553 -0.93764,-0.93764 -2.20952,-1.46447 -3.53554,-1.46447 -1.32601,0 -2.59789,0.52683 -3.53553,1.46447 -0.93763,0.93763 -1.46447,2.20952 -1.46447,3.53553 0,1.32602 0.52684,2.5979 1.46447,3.53553 0.93764,0.93764 2.20952,1.46447 3.53553,1.46447 z"
           clip-path="url(#p93ffee1ff4)"
           id="path41" />
        <path
           d="m 213.03635,176.54778 c 1.32602,0 2.5979,-0.52683 3.53554,-1.46446 0.93763,-0.93764 1.46446,-2.20952 1.46446,-3.53554 0,-1.32601 -0.52683,-2.5979 -1.46446,-3.53553 -0.93764,-0.93764 -2.20952,-1.46447 -3.53554,-1.46447 -1.32601,0 -2.5979,0.52683 -3.53553,1.46447 -0.93764,0.93763 -1.46447,2.20952 -1.46447,3.53553 0,1.32602 0.52683,2.5979 1.46447,3.53554 0.93763,0.93763 2.20952,1.46446 3.53553,1.46446 z"
           clip-path="url(#p93ffee1ff4)"
           id="path42" />
        <path
           d="m 318.1181,220.2969 c 1.32601,0 2.5979,-0.52683 3.53553,-1.46447 0.93763,-0.93763 1.46447,-2.20951 1.46447,-3.53553 0,-1.32602 -0.52684,-2.5979 -1.46447,-3.53553 -0.93763,-0.93764 -2.20952,-1.46447 -3.53553,-1.46447 -1.32602,0 -2.5979,0.52683 -3.53554,1.46447 -0.93763,0.93763 -1.46446,2.20951 -1.46446,3.53553 0,1.32602 0.52683,2.5979 1.46446,3.53553 0.93764,0.93764 2.20952,1.46447 3.53554,1.46447 z"
           clip-path="url(#p93ffee1ff4)"
           id="path43" />
        <path
           d="m 162.53057,255.16644 c 1.32602,0 2.5979,-0.52683 3.53554,-1.46446 0.93763,-0.93764 1.46446,-2.20952 1.46446,-3.53554 0,-1.32601 -0.52683,-2.5979 -1.46446,-3.53553 -0.93764,-0.93763 -2.20952,-1.46447 -3.53554,-1.46447 -1.32601,0 -2.5979,0.52684 -3.53553,1.46447 -0.93764,0.93763 -1.46447,2.20952 -1.46447,3.53553 0,1.32602 0.52683,2.5979 1.46447,3.53554 0.93763,0.93763 2.20952,1.46446 3.53553,1.46446 z"
           clip-path="url(#p93ffee1ff4)"
           id="path44" />
      </g>
      <g
         id="text_1">
        <g
           clip-path="url(#p93ffee1ff4)"
           id="g51">
          <!-- ECM2433 -->
          <g
             transform="matrix(0.07,0,0,-0.07,90.890968,183.06944)"
             id="g50">
            <defs
               id="defs44">
              <path
                 id="DejaVuSans-45"
                 d="M 628,4666 H 3578 V 4134 H 1259 V 2753 H 3481 V 2222 H 1259 V 531 H 3634 V 0 H 628 Z"
                 transform="scale(0.015625)" />
              <path
                 id="DejaVuSans-43"
                 d="m 4122,4306 v -665 q -319,297 -680,443 -361,147 -767,147 -800,0 -1225,-489 -425,-489 -425,-1414 0,-922 425,-1411 425,-489 1225,-489 406,0 767,147 361,147 680,444 V 359 Q 3791,134 3420,21 3050,-91 2638,-91 1578,-91 968,557 359,1206 359,2328 q 0,1125 609,1773 610,649 1670,649 418,0 788,-111 371,-111 696,-333 z"
                 transform="scale(0.015625)" />
              <path
                 id="DejaVuSans-4d"
                 d="m 628,4666 h 941 L 2759,1491 3956,4666 h 941 V 0 H 4281 V 4097 L 3078,897 H 2444 L 1241,4097 V 0 H 628 Z"
                 transform="scale(0.015625)" />
              <path
                 id="DejaVuSans-32"
                 d="M 1228,531 H 3431 V 0 H 469 v 531 q 359,372 979,998 621,627 780,809 303,340 423,576 121,236 121,464 0,372 -261,606 -261,235 -680,235 -297,0 -627,-103 -329,-103 -704,-313 v 638 q 381,153 712,231 332,78 607,78 725,0 1156,-363 431,-362 431,-968 0,-288 -108,-546 -107,-257 -392,-607 -78,-91 -497,-524 Q 1991,1309 1228,531 Z"
                 transform="scale(0.015625)" />
              <path
                 id="DejaVuSans-34"
                 d="M 2419,4116 825,1625 h 1594 z m -166,550 h 794 V 1625 h 666 V 1100 H 3047 V 0 H 2419 V 1100 H 313 v 609 z"
                 transform="scale(0.015625)" />
              <path
                 id="DejaVuSans-33"
                 d="m 2597,2516 q 453,-97 707,-404 255,-306 255,-756 0,-690 -475,-1069 -475,-378 -1350,-378 -293,0 -604,58 -311,58 -642,174 v 609 q 262,-153 574,-231 313,-78 654,-78 593,0 904,234 311,234 311,681 0,413 -289,645 -289,233 -804,233 h -544 v 519 h 569 q 465,0 712,186 247,186 247,536 0,359 -255,551 -254,193 -729,193 -260,0 -557,-57 -297,-56 -653,-174 v 562 q 360,100 674,150 314,50 592,50 719,0 1137,-327 419,-326 419,-882 0,-388 -222,-655 -222,-267 -631,-370 z"
                 transform="scale(0.015625)" />
            </defs>
            <use
               xlink:href="#DejaVuSans-45"
               id="use44" />
            <use
               xlink:href="#DejaVuSans-43"
               x="63.183594"
               id="use45" />
            <use
               xlink:href="#DejaVuSans-4d"
               x="133.00781"
               id="use46" />
            <use
               xlink:href="#DejaVuSans-32"
               x="219.28711"
               id="use47" />
            <use
               xlink:href="#DejaVuSans-34"
               x="282.91016"
               id="use48" />
            <use
               xlink:href="#DejaVuSans-33"
               x="346.5332"
               id="use49" />
            <use
               xlink:href="#DejaVuSans-33"
               x="410.15625"
               id="use50" />
          </g>
        </g>
      </g>
      <g
         id="text_2">
        <g
           clip-path="url(#p93ffee1ff4)"
           id="g58">
          <!-- ECM2418 -->
          <g
             transform="matrix(0.07,0,0,-0.07,156.93104,104.0473)"
             id="g57">
            <defs
               id="defs51">
              <path
                 id="DejaVuSans-31"
                 d="M 794,531 H 1825 V 4091 L 703,3866 v 575 l 1116,225 h 631 V 531 H 3481 V 0 H 794 Z"
                 transform="scale(0.015625)" />
              <path
                 id="DejaVuSans-38"
                 d="m 2034,2216 q -450,0 -708,-241 -257,-241 -257,-662 0,-422 257,-663 258,-241 708,-241 450,0 709,242 260,243 260,662 0,421 -258,662 -257,241 -711,241 z m -631,268 q -406,100 -633,378 -226,279 -226,679 0,559 398,884 399,325 1092,325 697,0 1094,-325 397,-325 397,-884 0,-400 -227,-679 -226,-278 -629,-378 456,-106 710,-416 255,-309 255,-755 Q 3634,634 3220,271 2806,-91 2034,-91 1263,-91 848,271 434,634 434,1313 q 0,446 256,755 257,310 713,416 z m -231,997 q 0,-362 226,-565 227,-203 636,-203 407,0 636,203 230,203 230,565 0,363 -230,566 -229,203 -636,203 -409,0 -636,-203 -226,-203 -226,-566 z"
                 transform="scale(0.015625)" />
            </defs>
            <use
               xlink:href="#DejaVuSans-45"
               id="use51" />
            <use
               xlink:href="#DejaVuSans-43"
               x="63.183594"
               id="use52" />
            <use
               xlink:href="#DejaVuSans-4d"
               x="133.00781"
               id="use53" />
            <use
               xlink:href="#DejaVuSans-32"
               x="219.28711"
               id="use54" />
            <use
               xlink:href="#DejaVuSans-34"
               x="282.91016"
               id="use55" />
            <use
               xlink:href="#DejaVuSans-31"
               x="346.5332"
               id="use56" />
            <use
               xlink:href="#DejaVuSans-38"
               x="410.15625"
               id="use57" />
          </g>
        </g>
      </g>
      <g
         id="text_3">
        <g
           clip-path="url(#p93ffee1ff4)"
           id="g65">
          <!-- ECM2434 -->
          <g
             transform="matrix(0.07,0,0,-0.07,197.21307,270.99719)"
             id="g64">
            <use
               xlink:href="#DejaVuSans-45"
               id="use58" />
            <use
               xlink:href="#DejaVuSans-43"
               x="63.183594"
               id="use59" />
            <use
               xlink:href="#DejaVuSans-4d"
               x="133.00781"
               id="use60" />
            <use
               xlink:href="#DejaVuSans-32"
               x="219.28711"
               id="use61" />
            <use
               xlink:href="#DejaVuSans-34"
               x="282.91016"
               id="use62" />
            <use
               xlink:href="#DejaVuSans-33"
               x="346.5332"
               id="use63" />
            <use
               xlink:href="#DejaVuSans-34"
               x="410.15625"
               id="use64" />
          </g>
        </g>
      </g>
      <g
         id="text_4">
        <g
           clip-path="url(#p93ffee1ff4)"
           id="g72">
          <!-- ECM3408 -->
          <g
             transform="matrix(0.07,0,0,-0.07,210.72979,231.02215)"
             id="g71">
            <defs
               id="defs65">
              <path
                 id="DejaVuSans-30"
                 d="m 2034,4250 q -487,0 -733,-480 -245,-479 -245,-1442 0,-959 245,-1439 246,-480 733,-480 491,0 736,480 246,480 246,1439 0,963 -246,1442 -245,480 -736,480 z m 0,500 q 785,0 1199,-621 414,-620 414,-1801 0,-1178 -414,-1799 -414,-620 -1199,-620 -784,0 -1198,620 -414,621 -414,1799 0,1181 414,1801 414,621 1198,621 z"
                 transform="scale(0.015625)" />
            </defs>
            <use
               xlink:href="#DejaVuSans-45"
               id="use65" />
            <use
               xlink:href="#DejaVuSans-43"
               x="63.183594"
               id="use66" />
            <use
               xlink:href="#DejaVuSans-4d"
               x="133.00781"
               id="use67" />
            <use
               xlink:href="#DejaVuSans-33"
               x="219.28711"
               id="use68" />
            <use
               xlink:href="#DejaVuSans-34"
               x="282.91016"
               id="use69" />
            <use
               xlink:href="#DejaVuSans-30"
               x="346.5332"
               id="use70" />
            <use
               xlink:href="#DejaVuSans-38"
               x="410.15625"
               id="use71" />
          </g>
        </g>
      </g>
      <g
         id="text_5">
        <g
           clip-path="url(#p93ffee1ff4)"
           id="g79">
          <!-- ECM3420 -->
          <g
             transform="matrix(0.07,0,0,-0.07,88.27768,132.91006)"
             id="g78">
            <use
               xlink:href="#DejaVuSans-45"
               id="use72" />
            <use
               xlink:href="#DejaVuSans-43"
               x="63.183594"
               id="use73" />
            <use
               xlink:href="#DejaVuSans-4d"
               x="133.00781"
               id="use74" />
            <use
               xlink:href="#DejaVuSans-33"
               x="219.28711"
               id="use75" />
            <use
               xlink:href="#DejaVuSans-34"
               x="282.91016"
               id="use76" />
            <use
               xlink:href="#DejaVuSans-32"
               x="346.5332"
               id="use77" />
            <use
               xlink:href="#DejaVuSans-30"
               x="410.15625"
               id="use78" />
          </g>
        </g>
      </g>
      <g
         id="text_6">
        <g
           clip-path="url(#p93ffee1ff4)"
           id="g86">
          <!-- MTH2008 -->
          <g
             transform="matrix(0.07,0,0,-0.07,362.35001,203.00714)"
             id="g85">
            <defs
               id="defs79">
              <path
                 id="DejaVuSans-54"
                 d="M -19,4666 H 3928 V 4134 H 2272 V 0 H 1638 V 4134 H -19 Z"
                 transform="scale(0.015625)" />
              <path
                 id="DejaVuSans-48"
                 d="m 628,4666 h 631 V 2753 h 2294 v 1913 h 631 V 0 H 3553 V 2222 H 1259 V 0 H 628 Z"
                 transform="scale(0.015625)" />
            </defs>
            <use
               xlink:href="#DejaVuSans-4d"
               id="use79" />
            <use
               xlink:href="#DejaVuSans-54"
               x="86.279297"
               id="use80" />
            <use
               xlink:href="#DejaVuSans-48"
               x="147.36328"
               id="use81" />
            <use
               xlink:href="#DejaVuSans-32"
               x="222.55859"
               id="use82" />
            <use
               xlink:href="#DejaVuSans-30"
               x="286.18164"
               id="use83" />
            <use
               xlink:href="#DejaVuSans-30"
               x="349.80469"
               id="use84" />
            <use
               xlink:href="#DejaVuSans-38"
               x="413.42773"
               id="use85" />
          </g>
        </g>
      </g>
      <g
         id="text_7">
        <g
           clip-path="url(#p93ffee1ff4)"
           id="g93">
          <!-- MTH1002 -->
          <g
             transform="matrix(0.07,0,0,-0.07,359.4154,243.26624)"
             id="g92">
            <use
               xlink:href="#DejaVuSans-4d"
               id="use86" />
            <use
               xlink:href="#DejaVuSans-54"
               x="86.279297"
               id="use87" />
            <use
               xlink:href="#DejaVuSans-48"
               x="147.36328"
               id="use88" />
            <use
               xlink:href="#DejaVuSans-31"
               x="222.55859"
               id="use89" />
            <use
               xlink:href="#DejaVuSans-30"
               x="286.18164"
               id="use90" />
            <use
               xlink:href="#DejaVuSans-30"
               x="349.80469"
               id="use91" />
            <use
               xlink:href="#DejaVuSans-32"
               x="413.42773"
               id="use92" />
          </g>
        </g>
      </g>
      <g
         id="text_8">
        <g
           clip-path="url(#p93ffee1ff4)"
           id="g100">
          <!-- ECM3423 -->
          <g
             transform="matrix(0.07,0,0,-0.07,72.477479,238.50836)"
             id="g99">
            <use
               xlink:href="#DejaVuSans-45"
               id="use93" />
            <use
               xlink:href="#DejaVuSans-43"
               x="63.183594"
               id="use94" />
            <use
               xlink:href="#DejaVuSans-4d"
               x="133.00781"
               id="use95" />
            <use
               xlink:href="#DejaVuSans-33"
               x="219.28711"
               id="use96" />
            <use
               xlink:href="#DejaVuSans-34"
               x="282.91016"
               id="use97" />
            <use
               xlink:href="#DejaVuSans-32"
               x="346.5332"
               id="use98" />
            <use
               xlink:href="#DejaVuSans-33"
               x="410.15625"
               id="use99" />
          </g>
        </g>
      </g>
      <g
         id="text_9">
        <g
           clip-path="url(#p93ffee1ff4)"
           id="g107">
          <!-- ECM1414 -->
          <g
             transform="matrix(0.07,0,0,-0.07,166.73106,132.57833)"
             id="g106">
            <use
               xlink:href="#DejaVuSans-45"
               id="use100" />
            <use
               xlink:href="#DejaVuSans-43"
               x="63.183594"
               id="use101" />
            <use
               xlink:href="#DejaVuSans-4d"
               x="133.00781"
               id="use102" />
            <use
               xlink:href="#DejaVuSans-31"
               x="219.28711"
               id="use103" />
            <use
               xlink:href="#DejaVuSans-34"
               x="282.91016"
               id="use104" />
            <use
               xlink:href="#DejaVuSans-31"
               x="346.5332"
               id="use105" />
            <use
               xlink:href="#DejaVuSans-34"
               x="410.15625"
               id="use106" />
          </g>
        </g>
      </g>
      <g
         id="text_10">
        <g
           clip-path="url(#p93ffee1ff4)"
           id="g114">
          <!-- ECM3401 -->
          <g
             transform="matrix(0.07,0,0,-0.07,171.76483,295.96914)"
             id="g113">
            <use
               xlink:href="#DejaVuSans-45"
               id="use107" />
            <use
               xlink:href="#DejaVuSans-43"
               x="63.183594"
               id="use108" />
            <use
               xlink:href="#DejaVuSans-4d"
               x="133.00781"
               id="use109" />
            <use
               xlink:href="#DejaVuSans-33"
               x="219.28711"
               id="use110" />
            <use
               xlink:href="#DejaVuSans-34"
               x="282.91016"
               id="use111" />
            <use
               xlink:href="#DejaVuSans-30"
               x="346.5332"
               id="use112" />
            <use
               xlink:href="#DejaVuSans-31"
               x="410.15625"
               id="use113" />
          </g>
        </g>
      </g>
      <g
         id="text_11">
        <g
           clip-path="url(#p93ffee1ff4)"
           id="g121">
          <!-- ECM1410 -->
          <g
             transform="matrix(0.07,0,0,-0.07,113.93922,214.20448)"
             id="g120">
            <use
               xlink:href="#DejaVuSans-45"
               id="use114" />
            <use
               xlink:href="#DejaVuSans-43"
               x="63.183594"
               id="use115" />
            <use
               xlink:href="#DejaVuSans-4d"
               x="133.00781"
               id="use116" />
            <use
               xlink:href="#DejaVuSans-31"
               x="219.28711"
               id="use117" />
            <use
               xlink:href="#DejaVuSans-34"
               x="282.91016"
               id="use118" />
            <use
               xlink:href="#DejaVuSans-31"
               x="346.5332"
               id="use119" />
            <use
               xlink:href="#DejaVuSans-30"
               x="410.15625"
               id="use120" />
          </g>
        </g>
      </g>
      <g
         id="text_12">
        <g
           clip-path="url(#p93ffee1ff4)"
           id="g128">
          <!-- ECM2423 -->
          <g
             transform="matrix(0.07,0,0,-0.07,197.48082,76.949982)"
             id="g127">
            <use
               xlink:href="#DejaVuSans-45"
               id="use121" />
            <use
               xlink:href="#DejaVuSans-43"
               x="63.183594"
               id="use122" />
            <use
               xlink:href="#DejaVuSans-4d"
               x="133.00781"
               id="use123" />
            <use
               xlink:href="#DejaVuSans-32"
               x="219.28711"
               id="use124" />
            <use
               xlink:href="#DejaVuSans-34"
               x="282.91016"
               id="use125" />
            <use
               xlink:href="#DejaVuSans-32"
               x="346.5332"
               id="use126" />
            <use
               xlink:href="#DejaVuSans-33"
               x="410.15625"
               id="use127" />
          </g>
        </g>
      </g>
      <g
         id="text_13">
        <g
           clip-path="url(#p93ffee1ff4)"
           id="g135">
          <!-- ECM1413 -->
          <g
             transform="matrix(0.07,0,0,-0.07,236.7586,152.83048)"
             id="g134">
            <use
               xlink:href="#DejaVuSans-45"
               id="use128" />
            <use
               xlink:href="#DejaVuSans-43"
               x="63.183594"
               id="use129" />
            <use
               xlink:href="#DejaVuSans-4d"
               x="133.00781"
               id="use130" />
            <use
               xlink:href="#DejaVuSans-31"
               x="219.28711"
               id="use131" />
            <use
               xlink:href="#DejaVuSans-34"
               x="282.91016"
               id="use132" />
            <use
               xlink:href="#DejaVuSans-31"
               x="346.5332"
               id="use133" />
            <use
               xlink:href="#DejaVuSans-33"
               x="410.15625"
               id="use134" />
          </g>
        </g>
      </g>
      <g
         id="text_14">
        <g
           clip-path="url(#p93ffee1ff4)"
           id="g142">
          <!-- MTH3022 -->
          <g
             transform="matrix(0.07,0,0,-0.07,366.56244,162.52845)"
             id="g141">
            <use
               xlink:href="#DejaVuSans-4d"
               id="use135" />
            <use
               xlink:href="#DejaVuSans-54"
               x="86.279297"
               id="use136" />
            <use
               xlink:href="#DejaVuSans-48"
               x="147.36328"
               id="use137" />
            <use
               xlink:href="#DejaVuSans-33"
               x="222.55859"
               id="use138" />
            <use
               xlink:href="#DejaVuSans-30"
               x="286.18164"
               id="use139" />
            <use
               xlink:href="#DejaVuSans-32"
               x="349.80469"
               id="use140" />
            <use
               xlink:href="#DejaVuSans-32"
               x="413.42773"
               id="use141" />
          </g>
        </g>
      </g>
      <g
         id="text_15">
        <g
           clip-path="url(#p93ffee1ff4)"
           id="g149">
          <!-- ECM1400 -->
          <g
             transform="matrix(0.07,0,0,-0.07,134.61734,158.96716)"
             id="g148">
            <use
               xlink:href="#DejaVuSans-45"
               id="use142" />
            <use
               xlink:href="#DejaVuSans-43"
               x="63.183594"
               id="use143" />
            <use
               xlink:href="#DejaVuSans-4d"
               x="133.00781"
               id="use144" />
            <use
               xlink:href="#DejaVuSans-31"
               x="219.28711"
               id="use145" />
            <use
               xlink:href="#DejaVuSans-34"
               x="282.91016"
               id="use146" />
            <use
               xlink:href="#DejaVuSans-30"
               x="346.5332"
               id="use147" />
            <use
               xlink:href="#DejaVuSans-30"
               x="410.15625"
               id="use148" />
          </g>
        </g>
      </g>
      <g
         id="text_16">
        <g
           clip-path="url(#p93ffee1ff4)"
           id="g156">
          <!-- MTH2011 -->
          <g
             transform="matrix(0.07,0,0,-0.07,328.67786,146.55186)"
             id="g155">
            <use
               xlink:href="#DejaVuSans-4d"
               id="use149" />
            <use
               xlink:href="#DejaVuSans-54"
               x="86.279297"
               id="use150" />
            <use
               xlink:href="#DejaVuSans-48"
               x="147.36328"
               id="use151" />
            <use
               xlink:href="#DejaVuSans-32"
               x="222.55859"
               id="use152" />
            <use
               xlink:href="#DejaVuSans-30"
               x="286.18164"
               id="use153" />
            <use
               xlink:href="#DejaVuSans-31"
               x="349.80469"
               id="use154" />
            <use
               xlink:href="#DejaVuSans-31"
               x="413.42773"
               id="use155" />
          </g>
        </g>
      </g>
      <g
         id="text_17">
        <g
           clip-path="url(#p93ffee1ff4)"
           id="g163">
          <!-- MTH1001 -->
          <g
             transform="matrix(0.07,0,0,-0.07,319.94304,188.45733)"
             id="g162">
            <use
               xlink:href="#DejaVuSans-4d"
               id="use156" />
            <use
               xlink:href="#DejaVuSans-54"
               x="86.279297"
               id="use157" />
            <use
               xlink:href="#DejaVuSans-48"
               x="147.36328"
               id="use158" />
            <use
               xlink:href="#DejaVuSans-31"
               x="222.55859"
               id="use159" />
            <use
               xlink:href="#DejaVuSans-30"
               x="286.18164"
               id="use160" />
            <use
               xlink:href="#DejaVuSans-30"
               x="349.80469"
               id="use161" />
            <use
               xlink:href="#DejaVuSans-31"
               x="413.42773"
               id="use162" />
          </g>
        </g>
      </g>
      <g
         id="text_18">
        <g
           clip-path="url(#p93ffee1ff4)"
           id="g170">
          <!-- ECM2419 -->
          <g
             transform="matrix(0.07,0,0,-0.07,196.45346,183.47934)"
             id="g169">
            <defs
               id="defs163">
              <path
                 id="DejaVuSans-39"
                 d="m 703,97 v 575 q 238,-113 481,-172 244,-59 479,-59 625,0 954,420 330,420 377,1277 -181,-269 -460,-413 -278,-144 -615,-144 -700,0 -1108,423 -408,424 -408,1159 0,718 425,1152 425,435 1131,435 810,0 1236,-621 427,-620 427,-1801 Q 3622,1225 3098,567 2575,-91 1691,-91 1453,-91 1209,-44 966,3 703,97 Z m 1256,1978 q 425,0 673,290 249,291 249,798 0,503 -249,795 -248,292 -673,292 -425,0 -673,-292 -248,-292 -248,-795 0,-507 248,-798 248,-290 673,-290 z"
                 transform="scale(0.015625)" />
            </defs>
            <use
               xlink:href="#DejaVuSans-45"
               id="use163" />
            <use
               xlink:href="#DejaVuSans-43"
               x="63.183594"
               id="use164" />
            <use
               xlink:href="#DejaVuSans-4d"
               x="133.00781"
               id="use165" />
            <use
               xlink:href="#DejaVuSans-32"
               x="219.28711"
               id="use166" />
            <use
               xlink:href="#DejaVuSans-34"
               x="282.91016"
               id="use167" />
            <use
               xlink:href="#DejaVuSans-31"
               x="346.5332"
               id="use168" />
            <use
               xlink:href="#DejaVuSans-39"
               x="410.15625"
               id="use169" />
          </g>
        </g>
      </g>
      <g
         id="text_19">
        <g
           clip-path="url(#p93ffee1ff4)"
           id="g177">
          <!-- MTH3019 -->
          <g
             transform="matrix(0.07,0,0,-0.07,301.42091,227.22846)"
             id="g176">
            <use
               xlink:href="#DejaVuSans-4d"
               id="use170" />
            <use
               xlink:href="#DejaVuSans-54"
               x="86.279297"
               id="use171" />
            <use
               xlink:href="#DejaVuSans-48"
               x="147.36328"
               id="use172" />
            <use
               xlink:href="#DejaVuSans-33"
               x="222.55859"
               id="use173" />
            <use
               xlink:href="#DejaVuSans-30"
               x="286.18164"
               id="use174" />
            <use
               xlink:href="#DejaVuSans-31"
               x="349.80469"
               id="use175" />
            <use
               xlink:href="#DejaVuSans-39"
               x="413.42773"
               id="use176" />
          </g>
        </g>
      </g>
      <g
         id="text_20">
        <g
           clip-path="url(#p93ffee1ff4)"
           id="g184">
          <!-- ECM2414 -->
          <g
             transform="matrix(0.07,0,0,-0.07,145.94768,262.09801)"
             id="g183">
            <use
               xlink:href="#DejaVuSans-45"
               id="use177" />
            <use
               xlink:href="#DejaVuSans-43"
               x="63.183594"
               id="use178" />
            <use
               xlink:href="#DejaVuSans-4d"
               x="133.00781"
               id="use179" />
            <use
               xlink:href="#DejaVuSans-32"
               x="219.28711"
               id="use180" />
            <use
               xlink:href="#DejaVuSans-34"
               x="282.91016"
               id="use181" />
            <use
               xlink:href="#DejaVuSans-31"
               x="346.5332"
               id="use182" />
            <use
               xlink:href="#DejaVuSans-34"
               x="410.15625"
               id="use183" />
          </g>
        </g>
      </g>
      <g
         id="matplotlib.axis_1" />
      <g
         id="matplotlib.axis_2" />
    </g>
  </g>
  <defs
     id="defs184">
    <clipPath
       id="p93ffee1ff4">
      <rect
         x="57.599998"
         y="41.472"
         width="357.12"
         height="266.112"
         id="rect184" />
    </clipPath>
  </defs>
</svg>
