<?xml version="1.0" encoding="utf-8" standalone="no"?>
<!DOCTYPE svg PUBLIC "-//W3C//DTD SVG 1.1//EN"
  "http://www.w3.org/Graphics/SVG/1.1/DTD/svg11.dtd">
<svg xmlns:xlink="http://www.w3.org/1999/xlink" width="460.8pt" height="345.6pt" viewBox="0 0 460.8 345.6" xmlns="http://www.w3.org/2000/svg" version="1.1">
 <metadata>
  <rdf:RDF xmlns:dc="http://purl.org/dc/elements/1.1/" xmlns:cc="http://creativecommons.org/ns#" xmlns:rdf="http://www.w3.org/1999/02/22-rdf-syntax-ns#">
   <cc:Work>
    <dc:type rdf:resource="http://purl.org/dc/dcmitype/StillImage"/>
    <dc:date>2024-05-02T14:47:51.671909</dc:date>
    <dc:format>image/svg+xml</dc:format>
    <dc:creator>
     <cc:Agent>
      <dc:title>Matplotlib v3.8.3, https://matplotlib.org/</dc:title>
     </cc:Agent>
    </dc:creator>
   </cc:Work>
  </rdf:RDF>
 </metadata>
 <defs>
  <style type="text/css">*{stroke-linejoin: round; stroke-linecap: butt}</style>
 </defs>
 <g id="figure_1">
  <g id="patch_1">
   <path d="M 0 345.6 
L 460.8 345.6 
L 460.8 0 
L 0 0 
L 0 345.6 
z
" style="fill: none"/>
  </g>
  <g id="axes_1">
   <g id="patch_2">
    <path d="M 57.6 307.584 
L 414.72 307.584 
L 414.72 41.472 
L 57.6 41.472 
L 57.6 307.584 
z
" style="fill: none"/>
   </g>
   <g id="EdgeCollection_1">
    <path d="M 202.453926 248.178952 
L 166.018186 248.213699 
L 202.453926 248.178952 
L 202.452496 246.678953 
L 205.453925 248.176091 
L 202.455357 249.678951 
L 202.453926 248.178952 
" clip-path="url(#p7e582cd09e)" style="fill: #444444; stroke: #444444; stroke-width: 1.5"/>
    <path d="M 325.893479 159.810648 
L 324.205595 168.074028 
L 325.893479 159.810648 
L 324.423825 159.510455 
L 326.493865 156.871339 
L 327.363134 160.110841 
L 325.893479 159.810648 
" clip-path="url(#p7e582cd09e)" style="fill: #444444; stroke: #444444; stroke-width: 1.5"/>
    <path d="M 214.022403 245.938943 
L 247.161964 232.642083 
L 214.022403 245.938943 
L 214.580974 247.331063 
L 211.238163 247.056086 
L 213.463831 244.546823 
L 214.022403 245.938943 
" clip-path="url(#p7e582cd09e)" style="fill: #444444; stroke: #444444; stroke-width: 1.5"/>
    <path d="M 205.778057 253.543494 
L 198.463038 268.224189 
L 205.778057 253.543494 
L 204.435491 252.874527 
L 207.11599 250.858362 
L 207.120623 254.212461 
L 205.778057 253.543494 
" clip-path="url(#p7e582cd09e)" style="fill: #444444; stroke: #444444; stroke-width: 1.5"/>
    <path d="M 157.044821 247.651852 
L 136.63914 245.722746 
L 157.044821 247.651852 
L 157.185998 246.158511 
L 160.031504 247.934206 
L 156.903644 249.145194 
L 157.044821 247.651852 
" clip-path="url(#p7e582cd09e)" style="fill: #444444; stroke: #444444; stroke-width: 1.5"/>
    <path d="M 317.984117 146.355156 
L 294.245529 138.84303 
L 317.984117 146.355156 
L 318.436676 144.925054 
L 320.844321 147.260273 
L 317.531559 147.785258 
L 317.984117 146.355156 
" clip-path="url(#p7e582cd09e)" style="fill: #444444; stroke: #444444; stroke-width: 1.5"/>
    <path d="M 240.550398 124.853692 
L 279.822287 134.74793 
L 240.550398 124.853692 
L 240.183937 126.308239 
L 237.641305 124.12077 
L 240.91686 123.399146 
L 240.550398 124.853692 
" clip-path="url(#p7e582cd09e)" style="fill: #444444; stroke: #444444; stroke-width: 1.5"/>
    <path d="M 291.571962 146.077974 
L 296.154852 155.800478 
L 291.571962 146.077974 
L 290.215143 146.717537 
L 290.292836 143.364335 
L 292.928782 145.438411 
L 291.571962 146.077974 
" clip-path="url(#p7e582cd09e)" style="fill: #444444; stroke: #444444; stroke-width: 1.5"/>
    <path d="M 316.031609 169.431246 
L 303.43159 163.210353 
L 316.031609 169.431246 
L 316.695665 168.086244 
L 318.721613 170.759357 
L 315.367553 170.776248 
L 316.031609 169.431246 
" clip-path="url(#p7e582cd09e)" style="fill: #444444; stroke: #444444; stroke-width: 1.5"/>
    <path d="M 243.576732 278.375741 
L 242.297807 266.982743 
L 243.576732 278.375741 
L 245.067369 278.208409 
L 243.911396 281.357016 
L 242.086094 278.543073 
L 243.576732 278.375741 
" clip-path="url(#p7e582cd09e)" style="fill: #444444; stroke: #444444; stroke-width: 1.5"/>
    <path d="M 213.789682 250.917256 
L 240.796535 264.806099 
L 213.789682 250.917256 
L 213.103676 252.251196 
L 211.121803 249.545243 
L 214.475689 249.583316 
L 213.789682 250.917256 
" clip-path="url(#p7e582cd09e)" style="fill: #444444; stroke: #444444; stroke-width: 1.5"/>
    <path d="M 243.948284 231.682937 
L 226.811397 232.134358 
L 243.948284 231.682937 
L 243.908785 230.183457 
L 246.947244 231.603938 
L 243.987783 233.182417 
L 243.948284 231.682937 
" clip-path="url(#p7e582cd09e)" style="fill: #444444; stroke: #444444; stroke-width: 1.5"/>
    <path d="M 212.614332 243.849921 
L 221.732233 234.375011 
L 212.614332 243.849921 
L 213.69516 244.890023 
L 210.534128 246.011576 
L 211.533505 242.809819 
L 212.614332 243.849921 
" clip-path="url(#p7e582cd09e)" style="fill: #444444; stroke: #444444; stroke-width: 1.5"/>
    <path d="M 202.466573 248.562636 
L 186.504238 249.600797 
L 202.466573 248.562636 
L 202.369222 247.065799 
L 205.460248 248.367933 
L 202.563925 250.059474 
L 202.466573 248.562636 
" clip-path="url(#p7e582cd09e)" style="fill: #444444; stroke: #444444; stroke-width: 1.5"/>
    <path d="M 296.43447 239.946793 
L 316.897383 242.040809 
L 296.43447 239.946793 
L 296.281769 241.439 
L 293.450056 239.641391 
L 296.587171 238.454586 
L 296.43447 239.946793 
" clip-path="url(#p7e582cd09e)" style="fill: #444444; stroke: #444444; stroke-width: 1.5"/>
    <path d="M 308.692314 252.503793 
L 317.660528 244.362633 
L 308.692314 252.503793 
L 309.700525 253.614428 
L 306.471044 254.520216 
L 307.684103 251.393158 
L 308.692314 252.503793 
" clip-path="url(#p7e582cd09e)" style="fill: #444444; stroke: #444444; stroke-width: 1.5"/>
    <path d="M 255.837733 232.660667 
L 287.519876 238.768126 
L 255.837733 232.660667 
L 255.553801 234.133549 
L 252.891968 232.092803 
L 256.121665 231.187784 
L 255.837733 232.660667 
" clip-path="url(#p7e582cd09e)" style="fill: #444444; stroke: #444444; stroke-width: 1.5"/>
    <path d="M 255.097494 228.448545 
L 273.375117 217.532993 
L 255.097494 228.448545 
L 255.866593 229.736368 
L 252.521849 229.986742 
L 254.328395 227.160722 
L 255.097494 228.448545 
" clip-path="url(#p7e582cd09e)" style="fill: #444444; stroke: #444444; stroke-width: 1.5"/>
    <path d="M 237.685367 136.894567 
L 233.72772 128.994141 
L 237.685367 136.894567 
L 239.026503 136.222737 
L 239.029027 139.576838 
L 236.344232 137.566397 
L 237.685367 136.894567 
" clip-path="url(#p7e582cd09e)" style="fill: #444444; stroke: #444444; stroke-width: 1.5"/>
    <path d="M 249.101054 121.049681 
L 237.852225 121.793568 
L 249.101054 121.049681 
L 249.002075 119.552951 
L 252.094515 120.851723 
L 249.200033 122.546412 
L 249.101054 121.049681 
" clip-path="url(#p7e582cd09e)" style="fill: #444444; stroke: #444444; stroke-width: 1.5"/>
    <path d="M 197.954764 126.384476 
L 222.927745 123.228733 
L 197.954764 126.384476 
L 198.142818 127.872641 
L 194.978434 126.760584 
L 197.76671 124.896311 
L 197.954764 126.384476 
" clip-path="url(#p7e582cd09e)" style="fill: #444444; stroke: #444444; stroke-width: 1.5"/>
    <path d="M 200.069379 113.269771 
L 223.180251 120.148826 
L 200.069379 113.269771 
L 199.641452 114.707435 
L 197.194051 112.413916 
L 200.497306 111.832106 
L 200.069379 113.269771 
" clip-path="url(#p7e582cd09e)" style="fill: #444444; stroke: #444444; stroke-width: 1.5"/>
    <path d="M 216.445266 131.428044 
L 224.09871 126.404145 
L 216.445266 131.428044 
L 217.268402 132.682016 
L 213.937321 133.074317 
L 215.622129 130.174072 
L 216.445266 131.428044 
" clip-path="url(#p7e582cd09e)" style="fill: #444444; stroke: #444444; stroke-width: 1.5"/>
    <path d="M 335.194626 141.880232 
L 343.490334 133.074051 
L 335.194626 141.880232 
L 336.28646 142.908775 
L 333.137541 144.063899 
L 334.102793 140.85169 
L 335.194626 141.880232 
" clip-path="url(#p7e582cd09e)" style="fill: #444444; stroke: #444444; stroke-width: 1.5"/>
    <path d="M 246.623208 265.747733 
L 274.413496 267.328946 
L 246.623208 265.747733 
L 246.537999 267.245311 
L 243.628052 265.577314 
L 246.708417 264.250155 
L 246.623208 265.747733 
" clip-path="url(#p7e582cd09e)" style="fill: #444444; stroke: #444444; stroke-width: 1.5"/>
    <path d="M 298.695208 258.805291 
L 280.185935 266.365038 
L 298.695208 258.805291 
L 298.128044 257.41665 
L 301.472491 257.670965 
L 299.262371 260.193933 
L 298.695208 258.805291 
" clip-path="url(#p7e582cd09e)" style="fill: #444444; stroke: #444444; stroke-width: 1.5"/>
    <path d="M 294.217729 244.018065 
L 302.37373 254.1956 
L 294.217729 244.018065 
L 293.047211 244.956087 
L 292.341685 241.677027 
L 295.388248 243.080043 
L 294.217729 244.018065 
" clip-path="url(#p7e582cd09e)" style="fill: #444444; stroke: #444444; stroke-width: 1.5"/>
    <path d="M 184.011996 243.81649 
L 184.889494 233.353317 
L 184.011996 243.81649 
L 185.506748 243.941848 
L 183.761279 246.805995 
L 182.517243 243.691131 
L 184.011996 243.81649 
" clip-path="url(#p7e582cd09e)" style="fill: #444444; stroke: #444444; stroke-width: 1.5"/>
    <path d="M 203.529401 244.745537 
L 186.245983 232.715487 
L 203.529401 244.745537 
L 204.386324 243.514406 
L 205.991662 246.459383 
L 202.672478 245.976668 
L 203.529401 244.745537 
" clip-path="url(#p7e582cd09e)" style="fill: #444444; stroke: #444444; stroke-width: 1.5"/>
    <path d="M 248.088749 225.819691 
L 243.063822 210.385423 
L 248.088749 225.819691 
L 249.515061 225.355327 
L 249.017476 228.672315 
L 246.662436 226.284054 
L 248.088749 225.819691 
" clip-path="url(#p7e582cd09e)" style="fill: #444444; stroke: #444444; stroke-width: 1.5"/>
    <path d="M 336.561627 155.594307 
L 350.204153 165.262687 
L 336.561627 155.594307 
L 335.694307 156.818136 
L 334.113971 153.859667 
L 337.428947 154.370479 
L 336.561627 155.594307 
" clip-path="url(#p7e582cd09e)" style="fill: #444444; stroke: #444444; stroke-width: 1.5"/>
    <path d="M 362.181618 166.880567 
L 376.669743 164.545039 
L 362.181618 166.880567 
L 362.42034 168.361449 
L 359.219854 167.358012 
L 361.942895 165.399685 
L 362.181618 166.880567 
" clip-path="url(#p7e582cd09e)" style="fill: #444444; stroke: #444444; stroke-width: 1.5"/>
    <path d="M 229.949377 111.796834 
L 229.193532 92.879469 
L 229.949377 111.796834 
L 231.448181 111.736949 
L 230.069147 114.794442 
L 228.450573 111.856719 
L 229.949377 111.796834 
" clip-path="url(#p7e582cd09e)" style="fill: #444444; stroke: #444444; stroke-width: 1.5"/>
    <path d="M 220.349403 84.245873 
L 200.057831 78.023975 
L 220.349403 84.245873 
L 220.789133 82.811774 
L 223.2176 85.125332 
L 219.909673 85.679971 
L 220.349403 84.245873 
" clip-path="url(#p7e582cd09e)" style="fill: #444444; stroke: #444444; stroke-width: 1.5"/>
    <path d="M 224.034518 130.662814 
L 208.967804 150.582753 
L 224.034518 130.662814 
L 222.838182 129.75795 
L 225.844247 128.270143 
L 225.230854 131.567679 
L 224.034518 130.662814 
" clip-path="url(#p7e582cd09e)" style="fill: #444444; stroke: #444444; stroke-width: 1.5"/>
    <path d="M 237.166663 83.202942 
L 252.34413 76.39968 
L 237.166663 83.202942 
L 237.780215 84.571721 
L 234.429106 84.430046 
L 236.553112 81.834164 
L 237.166663 83.202942 
" clip-path="url(#p7e582cd09e)" style="fill: #444444; stroke: #444444; stroke-width: 1.5"/>
    <path d="M 256.185996 87.475748 
L 255.349883 78.160564 
L 256.185996 87.475748 
L 257.67999 87.34165 
L 256.454192 90.463736 
L 254.692002 87.609846 
L 256.185996 87.475748 
" clip-path="url(#p7e582cd09e)" style="fill: #444444; stroke: #444444; stroke-width: 1.5"/>
    <path d="M 200.266149 158.688962 
L 186.259544 169.256863 
L 200.266149 158.688962 
L 199.362709 157.49155 
L 202.660973 156.882082 
L 201.16959 159.886375 
L 200.266149 158.688962 
" clip-path="url(#p7e582cd09e)" style="fill: #444444; stroke: #444444; stroke-width: 1.5"/>
    <path d="M 237.599651 114.675219 
L 254.05709 97.348003 
L 237.599651 114.675219 
L 238.687258 115.708231 
L 235.533629 116.850432 
L 236.512045 113.642208 
L 237.599651 114.675219 
" clip-path="url(#p7e582cd09e)" style="fill: #444444; stroke: #444444; stroke-width: 1.5"/>
    <path d="M 281.387486 87.053951 
L 260.642187 93.295317 
L 281.387486 87.053951 
L 280.955336 85.617551 
L 284.260287 86.18965 
L 281.819637 88.490352 
L 281.387486 87.053951 
" clip-path="url(#p7e582cd09e)" style="fill: #444444; stroke: #444444; stroke-width: 1.5"/>
    <path d="M 237.639561 89.242408 
L 252.951534 93.399651 
L 237.639561 89.242408 
L 237.246535 90.690003 
L 234.744372 88.456356 
L 238.032587 87.794813 
L 237.639561 89.242408 
" clip-path="url(#p7e582cd09e)" style="fill: #444444; stroke: #444444; stroke-width: 1.5"/>
    <path d="M 111.834232 192.152426 
L 111.222859 186.712449 
L 111.834232 192.152426 
L 113.324848 191.984903 
L 112.169278 195.133658 
L 110.343616 192.319949 
L 111.834232 192.152426 
" clip-path="url(#p7e582cd09e)" style="fill: #444444; stroke: #444444; stroke-width: 1.5"/>
    <path d="M 103.627174 179.803862 
L 92.577697 176.007971 
L 103.627174 179.803862 
L 104.114521 178.385238 
L 106.46442 180.778557 
L 103.139826 181.222485 
L 103.627174 179.803862 
" clip-path="url(#p7e582cd09e)" style="fill: #444444; stroke: #444444; stroke-width: 1.5"/>
    <path d="M 381.297065 157.594541 
L 383.382946 146.215 
L 381.297065 157.594541 
L 382.772483 157.864986 
L 380.756174 160.545377 
L 379.821647 157.324095 
L 381.297065 157.594541 
" clip-path="url(#p7e582cd09e)" style="fill: #444444; stroke: #444444; stroke-width: 1.5"/>
    <path d="M 111.629332 210.014407 
L 111.136439 213.647153 
L 111.629332 210.014407 
L 110.142951 209.812734 
L 112.032678 207.041645 
L 113.115713 210.21608 
L 111.629332 210.014407 
" clip-path="url(#p7e582cd09e)" style="fill: #444444; stroke: #444444; stroke-width: 1.5"/>
    <path d="M 351.048115 175.470294 
L 346.309021 186.187074 
L 351.048115 175.470294 
L 349.676264 174.863644 
L 352.261414 172.726591 
L 352.419966 176.076944 
L 351.048115 175.470294 
" clip-path="url(#p7e582cd09e)" style="fill: #444444; stroke: #444444; stroke-width: 1.5"/>
    <path d="M 329.917579 177.324962 
L 344.443754 186.742909 
L 329.917579 177.324962 
L 329.101563 178.583579 
L 327.400344 175.692929 
L 330.733595 176.066344 
L 329.917579 177.324962 
" clip-path="url(#p7e582cd09e)" style="fill: #444444; stroke: #444444; stroke-width: 1.5"/>
    <path d="M 295.400173 130.155719 
L 309.513366 119.238343 
L 295.400173 130.155719 
L 296.317962 131.342169 
L 293.027273 131.991295 
L 294.482385 128.969268 
L 295.400173 130.155719 
" clip-path="url(#p7e582cd09e)" style="fill: #444444; stroke: #444444; stroke-width: 1.5"/>
    <path d="M 222.708264 115.107258 
L 213.869926 106.821701 
L 222.708264 115.107258 
L 223.734151 114.012929 
L 224.896924 117.159031 
L 221.682378 116.201588 
L 222.708264 115.107258 
" clip-path="url(#p7e582cd09e)" style="fill: #444444; stroke: #444444; stroke-width: 1.5"/>
    <path d="M 116.522375 177.488147 
L 124.916331 170.612708 
L 116.522375 177.488147 
L 117.472865 178.648564 
L 114.201541 179.389129 
L 115.571884 176.327731 
L 116.522375 177.488147 
" clip-path="url(#p7e582cd09e)" style="fill: #444444; stroke: #444444; stroke-width: 1.5"/>
    <path d="M 226.190174 78.319131 
L 222.7225 67.57275 
L 226.190174 78.319131 
L 227.617694 77.858494 
L 227.111447 81.174171 
L 224.762654 78.779767 
L 226.190174 78.319131 
" clip-path="url(#p7e582cd09e)" style="fill: #444444; stroke: #444444; stroke-width: 1.5"/>
   </g>
   <g id="VertexCollection_1">
    <path d="M 163.018187 251.21656 
C 163.813797 251.21656 164.576927 250.900462 165.139508 250.337881 
C 165.702089 249.7753 166.018187 249.01217 166.018187 248.21656 
C 166.018187 247.420951 165.702089 246.657821 165.139508 246.09524 
C 164.576927 245.532659 163.813797 245.21656 163.018187 245.21656 
C 162.222578 245.21656 161.459448 245.532659 160.896867 246.09524 
C 160.334286 246.657821 160.018187 247.420951 160.018187 248.21656 
C 160.018187 249.01217 160.334286 249.7753 160.896867 250.337881 
C 161.459448 250.900462 162.222578 251.21656 163.018187 251.21656 
z
" clip-path="url(#p7e582cd09e)"/>
    <path d="M 323.204953 177.972876 
C 324.530968 177.972876 325.802852 177.446044 326.740486 176.50841 
C 327.678121 175.570775 328.204953 174.298891 328.204953 172.972876 
C 328.204953 171.64686 327.678121 170.374976 326.740486 169.437342 
C 325.802852 168.499707 324.530968 167.972876 323.204953 167.972876 
C 321.878937 167.972876 320.607053 168.499707 319.669419 169.437342 
C 318.731784 170.374976 318.204953 171.64686 318.204953 172.972876 
C 318.204953 174.298891 318.731784 175.570775 319.669419 176.50841 
C 320.607053 177.446044 321.878937 177.972876 323.204953 177.972876 
z
" clip-path="url(#p7e582cd09e)"/>
    <path d="M 249.946203 234.524939 
C 250.741813 234.524939 251.504943 234.208841 252.067524 233.64626 
C 252.630104 233.083679 252.946203 232.320549 252.946203 231.524939 
C 252.946203 230.72933 252.630104 229.9662 252.067524 229.403619 
C 251.504943 228.841038 250.741813 228.524939 249.946203 228.524939 
C 249.150594 228.524939 248.387464 228.841038 247.824883 229.403619 
C 247.262302 229.9662 246.946203 230.72933 246.946203 231.524939 
C 246.946203 232.320549 247.262302 233.083679 247.824883 233.64626 
C 248.387464 234.208841 249.150594 234.524939 249.946203 234.524939 
z
" clip-path="url(#p7e582cd09e)"/>
    <path d="M 197.125104 273.909322 
C 197.920714 273.909322 198.683844 273.593223 199.246425 273.030642 
C 199.809005 272.468061 200.125104 271.704931 200.125104 270.909322 
C 200.125104 270.113712 199.809005 269.350582 199.246425 268.788001 
C 198.683844 268.22542 197.920714 267.909322 197.125104 267.909322 
C 196.329495 267.909322 195.566365 268.22542 195.003784 268.788001 
C 194.441203 269.350582 194.125104 270.113712 194.125104 270.909322 
C 194.125104 271.704931 194.441203 272.468061 195.003784 273.030642 
C 195.566365 273.593223 196.329495 273.909322 197.125104 273.909322 
z
" clip-path="url(#p7e582cd09e)"/>
    <path d="M 135.145798 247.081569 
C 135.543603 247.081569 135.925168 246.923519 136.206459 246.642229 
C 136.487749 246.360939 136.645798 245.979373 136.645798 245.581569 
C 136.645798 245.183764 136.487749 244.802199 136.206459 244.520909 
C 135.925168 244.239618 135.543603 244.081569 135.145798 244.081569 
C 134.747994 244.081569 134.366429 244.239618 134.085138 244.520909 
C 133.803848 244.802199 133.645798 245.183764 133.645798 245.581569 
C 133.645798 245.979373 133.803848 246.360939 134.085138 246.642229 
C 134.366429 246.923519 134.747994 247.081569 135.145798 247.081569 
z
" clip-path="url(#p7e582cd09e)"/>
    <path d="M 244.24606 287.33829 
C 245.041669 287.33829 245.804799 287.022191 246.36738 286.459611 
C 246.929961 285.89703 247.24606 285.1339 247.24606 284.33829 
C 247.24606 283.542681 246.929961 282.779551 246.36738 282.21697 
C 245.804799 281.654389 245.041669 281.33829 244.24606 281.33829 
C 243.45045 281.33829 242.68732 281.654389 242.124739 282.21697 
C 241.562159 282.779551 241.24606 283.542681 241.24606 284.33829 
C 241.24606 285.1339 241.562159 285.89703 242.124739 286.459611 
C 242.68732 287.022191 243.45045 287.33829 244.24606 287.33829 
z
" clip-path="url(#p7e582cd09e)"/>
    <path d="M 287.095021 144.080237 
C 289.084044 144.080237 290.99187 143.28999 292.398322 141.883538 
C 293.804773 140.477086 294.595021 138.569261 294.595021 136.580237 
C 294.595021 134.591214 293.804773 132.683388 292.398322 131.276936 
C 290.99187 129.870485 289.084044 129.080237 287.095021 129.080237 
C 285.105997 129.080237 283.198172 129.870485 281.79172 131.276936 
C 280.385268 132.683388 279.595021 134.591214 279.595021 136.580237 
C 279.595021 138.569261 280.385268 140.477086 281.79172 141.883538 
C 283.198172 143.28999 285.105997 144.080237 287.095021 144.080237 
z
" clip-path="url(#p7e582cd09e)"/>
    <path d="M 298.499917 166.275483 
C 299.958534 166.275483 301.357606 165.695968 302.389004 164.66457 
C 303.420402 163.633172 303.999917 162.2341 303.999917 160.775483 
C 303.999917 159.316866 303.420402 157.917793 302.389004 156.886395 
C 301.357606 155.854997 299.958534 155.275483 298.499917 155.275483 
C 297.0413 155.275483 295.642227 155.854997 294.610829 156.886395 
C 293.579431 157.917793 292.999917 159.316866 292.999917 160.775483 
C 292.999917 162.2341 293.579431 163.633172 294.610829 164.66457 
C 295.642227 165.695968 297.0413 166.275483 298.499917 166.275483 
z
" clip-path="url(#p7e582cd09e)"/>
    <path d="M 242.130475 266.992105 
C 242.528279 266.992105 242.909844 266.834056 243.191135 266.552765 
C 243.472425 266.271475 243.630475 265.88991 243.630475 265.492105 
C 243.630475 265.094301 243.472425 264.712735 243.191135 264.431445 
C 242.909844 264.150155 242.528279 263.992105 242.130475 263.992105 
C 241.73267 263.992105 241.351105 264.150155 241.069814 264.431445 
C 240.788524 264.712735 240.630475 265.094301 240.630475 265.492105 
C 240.630475 265.88991 240.788524 266.271475 241.069814 266.552765 
C 241.351105 266.834056 241.73267 266.992105 242.130475 266.992105 
z
" clip-path="url(#p7e582cd09e)"/>
    <path d="M 223.812438 235.213357 
C 224.608047 235.213357 225.371177 234.897258 225.933758 234.334677 
C 226.496339 233.772097 226.812438 233.008966 226.812438 232.213357 
C 226.812438 231.417748 226.496339 230.654617 225.933758 230.092037 
C 225.371177 229.529456 224.608047 229.213357 223.812438 229.213357 
C 223.016829 229.213357 222.253698 229.529456 221.691117 230.092037 
C 221.128537 230.654617 220.812438 231.417748 220.812438 232.213357 
C 220.812438 233.008966 221.128537 233.772097 221.691117 234.334677 
C 222.253698 234.897258 223.016829 235.213357 223.812438 235.213357 
z
" clip-path="url(#p7e582cd09e)"/>
    <path d="M 183.510563 252.7955 
C 184.306172 252.7955 185.069303 252.479401 185.631883 251.91682 
C 186.194464 251.35424 186.510563 250.591109 186.510563 249.7955 
C 186.510563 248.999891 186.194464 248.23676 185.631883 247.67418 
C 185.069303 247.111599 184.306172 246.7955 183.510563 246.7955 
C 182.714954 246.7955 181.951824 247.111599 181.389243 247.67418 
C 180.826662 248.23676 180.510563 248.999891 180.510563 249.7955 
C 180.510563 250.591109 180.826662 251.35424 181.389243 251.91682 
C 181.951824 252.479401 182.714954 252.7955 183.510563 252.7955 
z
" clip-path="url(#p7e582cd09e)"/>
    <path d="M 319.881798 245.346211 
C 320.677407 245.346211 321.440538 245.030112 322.003118 244.467531 
C 322.565699 243.90495 322.881798 243.14182 322.881798 242.346211 
C 322.881798 241.550601 322.565699 240.787471 322.003118 240.22489 
C 321.440538 239.66231 320.677407 239.346211 319.881798 239.346211 
C 319.086189 239.346211 318.323058 239.66231 317.760478 240.22489 
C 317.197897 240.787471 316.881798 241.550601 316.881798 242.346211 
C 316.881798 243.14182 317.197897 243.90495 317.760478 244.467531 
C 318.323058 245.030112 319.086189 245.346211 319.881798 245.346211 
z
" clip-path="url(#p7e582cd09e)"/>
    <path d="M 327.994829 157.023066 
C 329.983852 157.023066 331.891678 156.232819 333.29813 154.826367 
C 334.704582 153.419915 335.494829 151.51209 335.494829 149.523066 
C 335.494829 147.534043 334.704582 145.626217 333.29813 144.219766 
C 331.891678 142.813314 329.983852 142.023066 327.994829 142.023066 
C 326.005806 142.023066 324.09798 142.813314 322.691528 144.219766 
C 321.285076 145.626217 320.494829 147.534043 320.494829 149.523066 
C 320.494829 151.51209 321.285076 153.419915 322.691528 154.826367 
C 324.09798 156.232819 326.005806 157.023066 327.994829 157.023066 
z
" clip-path="url(#p7e582cd09e)"/>
    <path d="M 290.465641 242.335989 
C 291.26125 242.335989 292.024381 242.01989 292.586961 241.45731 
C 293.149542 240.894729 293.465641 240.131599 293.465641 239.335989 
C 293.465641 238.54038 293.149542 237.77725 292.586961 237.214669 
C 292.024381 236.652088 291.26125 236.335989 290.465641 236.335989 
C 289.670032 236.335989 288.906901 236.652088 288.344321 237.214669 
C 287.78174 237.77725 287.465641 238.54038 287.465641 239.335989 
C 287.465641 240.131599 287.78174 240.894729 288.344321 241.45731 
C 288.906901 242.01989 289.670032 242.335989 290.465641 242.335989 
z
" clip-path="url(#p7e582cd09e)"/>
    <path d="M 274.66294 218.263894 
C 275.060744 218.263894 275.44231 218.105845 275.7236 217.824554 
C 276.00489 217.543264 276.16294 217.161699 276.16294 216.763894 
C 276.16294 216.36609 276.00489 215.984524 275.7236 215.703234 
C 275.44231 215.421944 275.060744 215.263894 274.66294 215.263894 
C 274.265135 215.263894 273.88357 215.421944 273.60228 215.703234 
C 273.320989 215.984524 273.16294 216.36609 273.16294 216.763894 
C 273.16294 217.161699 273.320989 217.543264 273.60228 217.824554 
C 273.88357 218.105845 274.265135 218.263894 274.66294 218.263894 
z
" clip-path="url(#p7e582cd09e)"/>
    <path d="M 230.368571 129.788463 
C 232.357595 129.788463 234.26542 128.998215 235.671872 127.591764 
C 237.078324 126.185312 237.868571 124.277486 237.868571 122.288463 
C 237.868571 120.29944 237.078324 118.391614 235.671872 116.985162 
C 234.26542 115.57871 232.357595 114.788463 230.368571 114.788463 
C 228.379548 114.788463 226.471722 115.57871 225.06527 116.985162 
C 223.658819 118.391614 222.868571 120.29944 222.868571 122.288463 
C 222.868571 124.277486 223.658819 126.185312 225.06527 127.591764 
C 226.471722 128.998215 228.379548 129.788463 230.368571 129.788463 
z
" clip-path="url(#p7e582cd09e)"/>
    <path d="M 346.575961 134.298551 
C 347.769375 134.298551 348.914071 133.824402 349.757942 132.980531 
C 350.601813 132.13666 351.075961 130.991965 351.075961 129.798551 
C 351.075961 128.605137 350.601813 127.460441 349.757942 126.61657 
C 348.914071 125.772699 347.769375 125.298551 346.575961 125.298551 
C 345.382547 125.298551 344.237852 125.772699 343.393981 126.61657 
C 342.55011 127.460441 342.075961 128.605137 342.075961 129.798551 
C 342.075961 130.991965 342.55011 132.13666 343.393981 132.980531 
C 344.237852 133.824402 345.382547 134.298551 346.575961 134.298551 
z
" clip-path="url(#p7e582cd09e)"/>
    <path d="M 277.408652 270.499364 
C 278.204261 270.499364 278.967392 270.183265 279.529972 269.620684 
C 280.092553 269.058104 280.408652 268.294973 280.408652 267.499364 
C 280.408652 266.703755 280.092553 265.940625 279.529972 265.378044 
C 278.967392 264.815463 278.204261 264.499364 277.408652 264.499364 
C 276.613043 264.499364 275.849912 264.815463 275.287332 265.378044 
C 274.724751 265.940625 274.408652 266.703755 274.408652 267.499364 
C 274.408652 268.294973 274.724751 269.058104 275.287332 269.620684 
C 275.849912 270.183265 276.613043 270.499364 277.408652 270.499364 
z
" clip-path="url(#p7e582cd09e)"/>
    <path d="M 304.249774 259.536638 
C 305.045384 259.536638 305.808514 259.220539 306.371095 258.657959 
C 306.933676 258.095378 307.249774 257.332248 307.249774 256.536638 
C 307.249774 255.741029 306.933676 254.977899 306.371095 254.415318 
C 305.808514 253.852737 305.045384 253.536638 304.249774 253.536638 
C 303.454165 253.536638 302.691035 253.852737 302.128454 254.415318 
C 301.565873 254.977899 301.249774 255.741029 301.249774 256.536638 
C 301.249774 257.332248 301.565873 258.095378 302.128454 258.657959 
C 302.691035 259.220539 303.454165 259.536638 304.249774 259.536638 
z
" clip-path="url(#p7e582cd09e)"/>
    <path d="M 208.453923 251.17323 
C 209.249533 251.17323 210.012663 250.857131 210.575244 250.29455 
C 211.137825 249.731969 211.453923 248.968839 211.453923 248.17323 
C 211.453923 247.377621 211.137825 246.61449 210.575244 246.05191 
C 210.012663 245.489329 209.249533 245.17323 208.453923 245.17323 
C 207.658314 245.17323 206.895184 245.489329 206.332603 246.05191 
C 205.770022 246.61449 205.453923 247.377621 205.453923 248.17323 
C 205.453923 248.968839 205.770022 249.731969 206.332603 250.29455 
C 206.895184 250.857131 207.658314 251.17323 208.453923 251.17323 
z
" clip-path="url(#p7e582cd09e)"/>
    <path d="M 242.388176 153.782516 
C 244.377199 153.782516 246.285025 152.992269 247.691477 151.585817 
C 249.097929 150.179365 249.888176 148.27154 249.888176 146.282516 
C 249.888176 144.293493 249.097929 142.385667 247.691477 140.979215 
C 246.285025 139.572764 244.377199 138.782516 242.388176 138.782516 
C 240.399153 138.782516 238.491327 139.572764 237.084875 140.979215 
C 235.678423 142.385667 234.888176 144.293493 234.888176 146.282516 
C 234.888176 148.27154 235.678423 150.179365 237.084875 151.585817 
C 238.491327 152.992269 240.399153 153.782516 242.388176 153.782516 
z
" clip-path="url(#p7e582cd09e)"/>
    <path d="M 259.57817 127.856828 
C 261.567193 127.856828 263.475019 127.066581 264.88147 125.660129 
C 266.287922 124.253677 267.07817 122.345852 267.07817 120.356828 
C 267.07817 118.367805 266.287922 116.459979 264.88147 115.053528 
C 263.475019 113.647076 261.567193 112.856828 259.57817 112.856828 
C 257.589146 112.856828 255.681321 113.647076 254.274869 115.053528 
C 252.868417 116.459979 252.07817 118.367805 252.07817 120.356828 
C 252.07817 122.345852 252.868417 124.253677 254.274869 125.660129 
C 255.681321 127.066581 257.589146 127.856828 259.57817 127.856828 
z
" clip-path="url(#p7e582cd09e)"/>
    <path d="M 187.537608 135.200854 
C 189.526631 135.200854 191.434457 134.410607 192.840909 133.004155 
C 194.24736 131.597703 195.037608 129.689877 195.037608 127.700854 
C 195.037608 125.711831 194.24736 123.804005 192.840909 122.397553 
C 191.434457 120.991101 189.526631 120.200854 187.537608 120.200854 
C 185.548584 120.200854 183.640759 120.991101 182.234307 122.397553 
C 180.827855 123.804005 180.037608 125.711831 180.037608 127.700854 
C 180.037608 129.689877 180.827855 131.597703 182.234307 133.004155 
C 183.640759 134.410607 185.548584 135.200854 187.537608 135.200854 
z
" clip-path="url(#p7e582cd09e)"/>
    <path d="M 190.00573 117.77428 
C 191.994753 117.77428 193.902579 116.984032 195.309031 115.577581 
C 196.715483 114.171129 197.50573 112.263303 197.50573 110.27428 
C 197.50573 108.285256 196.715483 106.377431 195.309031 104.970979 
C 193.902579 103.564527 191.994753 102.77428 190.00573 102.77428 
C 188.016707 102.77428 186.108881 103.564527 184.702429 104.970979 
C 183.295977 106.377431 182.50573 108.285256 182.50573 110.27428 
C 182.50573 112.263303 183.295977 114.171129 184.702429 115.577581 
C 186.108881 116.984032 188.016707 117.77428 190.00573 117.77428 
z
" clip-path="url(#p7e582cd09e)"/>
    <path d="M 207.66746 144.689999 
C 209.656483 144.689999 211.564309 143.899752 212.970761 142.4933 
C 214.377213 141.086848 215.16746 139.179023 215.16746 137.189999 
C 215.16746 135.200976 214.377213 133.29315 212.970761 131.886698 
C 211.564309 130.480247 209.656483 129.689999 207.66746 129.689999 
C 205.678437 129.689999 203.770611 130.480247 202.364159 131.886698 
C 200.957707 133.29315 200.16746 135.200976 200.16746 137.189999 
C 200.16746 139.179023 200.957707 141.086848 202.364159 142.4933 
C 203.770611 143.899752 205.678437 144.689999 207.66746 144.689999 
z
" clip-path="url(#p7e582cd09e)"/>
    <path d="M 185.014852 233.358564 
C 185.412657 233.358564 185.794222 233.200515 186.075513 232.919224 
C 186.356803 232.637934 186.514852 232.256369 186.514852 231.858564 
C 186.514852 231.46076 186.356803 231.079194 186.075513 230.797904 
C 185.794222 230.516614 185.412657 230.358564 185.014852 230.358564 
C 184.617048 230.358564 184.235483 230.516614 183.954192 230.797904 
C 183.672902 231.079194 183.514852 231.46076 183.514852 231.858564 
C 183.514852 232.256369 183.672902 232.637934 183.954192 232.919224 
C 184.235483 233.200515 184.617048 233.358564 185.014852 233.358564 
z
" clip-path="url(#p7e582cd09e)"/>
    <path d="M 242.599459 210.459111 
C 242.997263 210.459111 243.378829 210.301061 243.660119 210.019771 
C 243.941409 209.738481 244.099459 209.356916 244.099459 208.959111 
C 244.099459 208.561306 243.941409 208.179741 243.660119 207.898451 
C 243.378829 207.61716 242.997263 207.459111 242.599459 207.459111 
C 242.201654 207.459111 241.820089 207.61716 241.538799 207.898451 
C 241.257508 208.179741 241.099459 208.561306 241.099459 208.959111 
C 241.099459 209.356916 241.257508 209.738481 241.538799 210.019771 
C 241.820089 210.301061 242.201654 210.459111 242.599459 210.459111 
z
" clip-path="url(#p7e582cd09e)"/>
    <path d="M 354.28358 173.153754 
C 355.609596 173.153754 356.88148 172.626922 357.819114 171.689288 
C 358.756749 170.751653 359.28358 169.479769 359.28358 168.153754 
C 359.28358 166.827738 358.756749 165.555854 357.819114 164.61822 
C 356.88148 163.680585 355.609596 163.153754 354.28358 163.153754 
C 352.957565 163.153754 351.685681 163.680585 350.748046 164.61822 
C 349.810412 165.555854 349.28358 166.827738 349.28358 168.153754 
C 349.28358 169.479769 349.810412 170.751653 350.748046 171.689288 
C 351.685681 172.626922 352.957565 173.153754 354.28358 173.153754 
z
" clip-path="url(#p7e582cd09e)"/>
    <path d="M 380.125134 167.48802 
C 381.053345 167.48802 381.943664 167.119238 382.600008 166.462894 
C 383.256352 165.80655 383.625134 164.916231 383.625134 163.98802 
C 383.625134 163.059809 383.256352 162.169491 382.600008 161.513146 
C 381.943664 160.856802 381.053345 160.48802 380.125134 160.48802 
C 379.196923 160.48802 378.306605 160.856802 377.65026 161.513146 
C 376.993916 162.169491 376.625134 163.059809 376.625134 163.98802 
C 376.625134 164.916231 376.993916 165.80655 377.65026 166.462894 
C 378.306605 167.119238 379.196923 167.48802 380.125134 167.48802 
z
" clip-path="url(#p7e582cd09e)"/>
    <path d="M 112.83937 207.096122 
C 114.430588 207.096122 115.956849 206.463924 117.08201 205.338763 
C 118.207172 204.213601 118.83937 202.68734 118.83937 201.096122 
C 118.83937 199.504903 118.207172 197.978643 117.08201 196.853481 
C 115.956849 195.72832 114.430588 195.096122 112.83937 195.096122 
C 111.248151 195.096122 109.72189 195.72832 108.596729 196.853481 
C 107.471568 197.978643 106.83937 199.504903 106.83937 201.096122 
C 106.83937 202.68734 107.471568 204.213601 108.596729 205.338763 
C 109.72189 206.463924 111.248151 207.096122 112.83937 207.096122 
z
" clip-path="url(#p7e582cd09e)"/>
    <path d="M 228.953992 92.884252 
C 230.545211 92.884252 232.071472 92.252054 233.196633 91.126893 
C 234.321795 90.001731 234.953992 88.475471 234.953992 86.884252 
C 234.953992 85.293033 234.321795 83.766773 233.196633 82.641611 
C 232.071472 81.51645 230.545211 80.884252 228.953992 80.884252 
C 227.362774 80.884252 225.836513 81.51645 224.711352 82.641611 
C 223.58619 83.766773 222.953992 85.293033 222.953992 86.884252 
C 222.953992 88.475471 223.58619 90.001731 224.711352 91.126893 
C 225.836513 92.252054 227.362774 92.884252 228.953992 92.884252 
z
" clip-path="url(#p7e582cd09e)"/>
    <path d="M 128.631056 102.791699 
C 130.089673 102.791699 131.488745 102.212184 132.520143 101.180786 
C 133.551541 100.149388 134.131056 98.750316 134.131056 97.291699 
C 134.131056 95.833082 133.551541 94.434009 132.520143 93.402611 
C 131.488745 92.371213 130.089673 91.791699 128.631056 91.791699 
C 127.172439 91.791699 125.773366 92.371213 124.741968 93.402611 
C 123.71057 94.434009 123.131056 95.833082 123.131056 97.291699 
C 123.131056 98.750316 123.71057 100.149388 124.741968 101.180786 
C 125.773366 102.212184 127.172439 102.791699 128.631056 102.791699 
z
" clip-path="url(#p7e582cd09e)"/>
    <path d="M 290.005888 90.461046 
C 291.597106 90.461046 293.123367 89.828848 294.248528 88.703687 
C 295.37369 87.578525 296.005888 86.052265 296.005888 84.461046 
C 296.005888 82.869827 295.37369 81.343567 294.248528 80.218405 
C 293.123367 79.093244 291.597106 78.461046 290.005888 78.461046 
C 288.414669 78.461046 286.888409 79.093244 285.763247 80.218405 
C 284.638086 81.343567 284.005888 82.869827 284.005888 84.461046 
C 284.005888 86.052265 284.638086 87.578525 285.763247 88.703687 
C 286.888409 89.828848 288.414669 90.461046 290.005888 90.461046 
z
" clip-path="url(#p7e582cd09e)"/>
    <path d="M 94.820718 145.731422 
C 96.146734 145.731422 97.418617 145.204591 98.356252 144.266956 
C 99.293887 143.329322 99.820718 142.057438 99.820718 140.731422 
C 99.820718 139.405407 99.293887 138.133523 98.356252 137.195888 
C 97.418617 136.258254 96.146734 135.731422 94.820718 135.731422 
C 93.494703 135.731422 92.222819 136.258254 91.285184 137.195888 
C 90.34755 138.133523 89.820718 139.405407 89.820718 140.731422 
C 89.820718 142.057438 90.34755 143.329322 91.285184 144.266956 
C 92.222819 145.204591 93.494703 145.731422 94.820718 145.731422 
z
" clip-path="url(#p7e582cd09e)"/>
    <path d="M 195.277503 81.558209 
C 196.603519 81.558209 197.875403 81.031378 198.813037 80.093743 
C 199.750672 79.156108 200.277503 77.884225 200.277503 76.558209 
C 200.277503 75.232194 199.750672 73.96031 198.813037 73.022675 
C 197.875403 72.085041 196.603519 71.558209 195.277503 71.558209 
C 193.951488 71.558209 192.679604 72.085041 191.74197 73.022675 
C 190.804335 73.96031 190.277503 75.232194 190.277503 76.558209 
C 190.277503 77.884225 190.804335 79.156108 191.74197 80.093743 
C 192.679604 81.031378 193.951488 81.558209 195.277503 81.558209 
z
" clip-path="url(#p7e582cd09e)"/>
    <path d="M 206.25321 158.671761 
C 207.446624 158.671761 208.591319 158.197613 209.43519 157.353742 
C 210.279061 156.509871 210.75321 155.365175 210.75321 154.171761 
C 210.75321 152.978347 210.279061 151.833652 209.43519 150.989781 
C 208.591319 150.14591 207.446624 149.671761 206.25321 149.671761 
C 205.059796 149.671761 203.9151 150.14591 203.071229 150.989781 
C 202.227358 151.833652 201.75321 152.978347 201.75321 154.171761 
C 201.75321 155.365175 202.227358 156.509871 203.071229 157.353742 
C 203.9151 158.197613 205.059796 158.671761 206.25321 158.671761 
z
" clip-path="url(#p7e582cd09e)"/>
    <path d="M 255.081687 78.172577 
C 255.877296 78.172577 256.640427 77.856478 257.203007 77.293897 
C 257.765588 76.731316 258.081687 75.968186 258.081687 75.172577 
C 258.081687 74.376967 257.765588 73.613837 257.203007 73.051256 
C 256.640427 72.488676 255.877296 72.172577 255.081687 72.172577 
C 254.286078 72.172577 253.522947 72.488676 252.960367 73.051256 
C 252.397786 73.613837 252.081687 74.376967 252.081687 75.172577 
C 252.081687 75.968186 252.397786 76.731316 252.960367 77.293897 
C 253.522947 77.856478 254.286078 78.172577 255.081687 78.172577 
z
" clip-path="url(#p7e582cd09e)"/>
    <path d="M 183.465582 174.86489 
C 184.393793 174.86489 185.284112 174.496108 185.940456 173.839764 
C 186.5968 173.18342 186.965582 172.293101 186.965582 171.36489 
C 186.965582 170.436679 186.5968 169.54636 185.940456 168.890016 
C 185.284112 168.233672 184.393793 167.86489 183.465582 167.86489 
C 182.537372 167.86489 181.647053 168.233672 180.990709 168.890016 
C 180.334365 169.54636 179.965582 170.436679 179.965582 171.36489 
C 179.965582 172.293101 180.334365 173.18342 180.990709 173.839764 
C 181.647053 174.496108 182.537372 174.86489 183.465582 174.86489 
z
" clip-path="url(#p7e582cd09e)"/>
    <path d="M 256.811787 98.44772 
C 257.872599 98.44772 258.890106 98.026255 259.640214 97.276147 
C 260.390322 96.526039 260.811787 95.508532 260.811787 94.44772 
C 260.811787 93.386908 260.390322 92.3694 259.640214 91.619293 
C 258.890106 90.869185 257.872599 90.44772 256.811787 90.44772 
C 255.750974 90.44772 254.733467 90.869185 253.98336 91.619293 
C 253.233252 92.3694 252.811787 93.386908 252.811787 94.44772 
C 252.811787 95.508532 253.233252 96.526039 253.98336 97.276147 
C 254.733467 98.026255 255.750974 98.44772 256.811787 98.44772 
z
" clip-path="url(#p7e582cd09e)"/>
    <path d="M 110.72029 186.740601 
C 111.913704 186.740601 113.058399 186.266452 113.902271 185.422581 
C 114.746142 184.57871 115.22029 183.434015 115.22029 182.240601 
C 115.22029 181.047187 114.746142 179.902491 113.902271 179.05862 
C 113.058399 178.214749 111.913704 177.740601 110.72029 177.740601 
C 109.526876 177.740601 108.382181 178.214749 107.53831 179.05862 
C 106.694438 179.902491 106.22029 181.047187 106.22029 182.240601 
C 106.22029 183.434015 106.694438 184.57871 107.53831 185.422581 
C 108.382181 186.266452 109.526876 186.740601 110.72029 186.740601 
z
" clip-path="url(#p7e582cd09e)"/>
    <path d="M 88.794702 178.708377 
C 89.855514 178.708377 90.873021 178.286912 91.623129 177.536804 
C 92.373237 176.786697 92.794702 175.76919 92.794702 174.708377 
C 92.794702 173.647565 92.373237 172.630058 91.623129 171.87995 
C 90.873021 171.129842 89.855514 170.708377 88.794702 170.708377 
C 87.73389 170.708377 86.716382 171.129842 85.966275 171.87995 
C 85.216167 172.630058 84.794702 173.647565 84.794702 174.708377 
C 84.794702 175.76919 85.216167 176.786697 85.966275 177.536804 
C 86.716382 178.286912 87.73389 178.708377 88.794702 178.708377 
z
" clip-path="url(#p7e582cd09e)"/>
    <path d="M 383.653392 146.239582 
C 384.051196 146.239582 384.432762 146.081532 384.714052 145.800242 
C 384.995342 145.518952 385.153392 145.137386 385.153392 144.739582 
C 385.153392 144.341777 384.995342 143.960212 384.714052 143.678922 
C 384.432762 143.397631 384.051196 143.239582 383.653392 143.239582 
C 383.255587 143.239582 382.874022 143.397631 382.592732 143.678922 
C 382.311441 143.960212 382.153392 144.341777 382.153392 144.739582 
C 382.153392 145.137386 382.311441 145.518952 382.592732 145.800242 
C 382.874022 146.081532 383.255587 146.239582 383.653392 146.239582 
z
" clip-path="url(#p7e582cd09e)"/>
    <path d="M 110.598645 221.610835 
C 111.659457 221.610835 112.676964 221.18937 113.427072 220.439262 
C 114.17718 219.689155 114.598645 218.671648 114.598645 217.610835 
C 114.598645 216.550023 114.17718 215.532516 113.427072 214.782408 
C 112.676964 214.0323 111.659457 213.610835 110.598645 213.610835 
C 109.537833 213.610835 108.520325 214.0323 107.770218 214.782408 
C 107.02011 215.532516 106.598645 216.550023 106.598645 217.610835 
C 106.598645 218.671648 107.02011 219.689155 107.770218 220.439262 
C 108.520325 221.18937 109.537833 221.610835 110.598645 221.610835 
z
" clip-path="url(#p7e582cd09e)"/>
    <path d="M 363.940433 225.023884 
C 364.338238 225.023884 364.719803 224.865834 365.001094 224.584544 
C 365.282384 224.303253 365.440433 223.921688 365.440433 223.523884 
C 365.440433 223.126079 365.282384 222.744514 365.001094 222.463223 
C 364.719803 222.181933 364.338238 222.023884 363.940433 222.023884 
C 363.542629 222.023884 363.161064 222.181933 362.879773 222.463223 
C 362.598483 222.744514 362.440433 223.126079 362.440433 223.523884 
C 362.440433 223.921688 362.598483 224.303253 362.879773 224.584544 
C 363.161064 224.865834 363.542629 225.023884 363.940433 225.023884 
z
" clip-path="url(#p7e582cd09e)"/>
    <path d="M 345.702372 189.058925 
C 346.100176 189.058925 346.481741 188.900876 346.763032 188.619586 
C 347.044322 188.338295 347.202372 187.95673 347.202372 187.558925 
C 347.202372 187.161121 347.044322 186.779556 346.763032 186.498265 
C 346.481741 186.216975 346.100176 186.058925 345.702372 186.058925 
C 345.304567 186.058925 344.923002 186.216975 344.641711 186.498265 
C 344.360421 186.779556 344.202372 187.161121 344.202372 187.558925 
C 344.202372 187.95673 344.360421 188.338295 344.641711 188.619586 
C 344.923002 188.900876 345.304567 189.058925 345.702372 189.058925 
z
" clip-path="url(#p7e582cd09e)"/>
    <path d="M 310.699816 119.820555 
C 311.097621 119.820555 311.479186 119.662505 311.760476 119.381215 
C 312.041766 119.099925 312.199816 118.718359 312.199816 118.320555 
C 312.199816 117.92275 312.041766 117.541185 311.760476 117.259895 
C 311.479186 116.978604 311.097621 116.820555 310.699816 116.820555 
C 310.302011 116.820555 309.920446 116.978604 309.639156 117.259895 
C 309.357865 117.541185 309.199816 117.92275 309.199816 118.320555 
C 309.199816 118.718359 309.357865 119.099925 309.639156 119.381215 
C 309.920446 119.662505 310.302011 119.820555 310.699816 119.820555 
z
" clip-path="url(#p7e582cd09e)"/>
    <path d="M 118.852416 125.268669 
C 119.250221 125.268669 119.631786 125.110619 119.913076 124.829329 
C 120.194367 124.548038 120.352416 124.166473 120.352416 123.768669 
C 120.352416 123.370864 120.194367 122.989299 119.913076 122.708009 
C 119.631786 122.426718 119.250221 122.268669 118.852416 122.268669 
C 118.454612 122.268669 118.073046 122.426718 117.791756 122.708009 
C 117.510466 122.989299 117.352416 123.370864 117.352416 123.768669 
C 117.352416 124.166473 117.510466 124.548038 117.791756 124.829329 
C 118.073046 125.110619 118.454612 125.268669 118.852416 125.268669 
z
" clip-path="url(#p7e582cd09e)"/>
    <path d="M 212.775596 107.295814 
C 213.173401 107.295814 213.554966 107.137765 213.836257 106.856474 
C 214.117547 106.575184 214.275596 106.193619 214.275596 105.795814 
C 214.275596 105.39801 214.117547 105.016444 213.836257 104.735154 
C 213.554966 104.453864 213.173401 104.295814 212.775596 104.295814 
C 212.377792 104.295814 211.996227 104.453864 211.714936 104.735154 
C 211.433646 105.016444 211.275596 105.39801 211.275596 105.795814 
C 211.275596 106.193619 211.433646 106.575184 211.714936 106.856474 
C 211.996227 107.137765 212.377792 107.295814 212.775596 107.295814 
z
" clip-path="url(#p7e582cd09e)"/>
    <path d="M 127.237165 171.711727 
C 128.032774 171.711727 128.795904 171.395628 129.358485 170.833047 
C 129.921066 170.270466 130.237165 169.507336 130.237165 168.711727 
C 130.237165 167.916117 129.921066 167.152987 129.358485 166.590406 
C 128.795904 166.027825 128.032774 165.711727 127.237165 165.711727 
C 126.441555 165.711727 125.678425 166.027825 125.115844 166.590406 
C 124.553263 167.152987 124.237165 167.916117 124.237165 168.711727 
C 124.237165 169.507336 124.553263 170.270466 125.115844 170.833047 
C 125.678425 171.395628 126.441555 171.711727 127.237165 171.711727 
z
" clip-path="url(#p7e582cd09e)"/>
    <path d="M 221.801227 67.71771 
C 222.596836 67.71771 223.359967 67.401611 223.922547 66.83903 
C 224.485128 66.276449 224.801227 65.513319 224.801227 64.71771 
C 224.801227 63.9221 224.485128 63.15897 223.922547 62.596389 
C 223.359967 62.033809 222.596836 61.71771 221.801227 61.71771 
C 221.005618 61.71771 220.242488 62.033809 219.679907 62.596389 
C 219.117326 63.15897 218.801227 63.9221 218.801227 64.71771 
C 218.801227 65.513319 219.117326 66.276449 219.679907 66.83903 
C 220.242488 67.401611 221.005618 67.71771 221.801227 67.71771 
z
" clip-path="url(#p7e582cd09e)"/>
   </g>
   <g id="text_1">
    <g clip-path="url(#p7e582cd09e)">
     <!-- ECM2418 -->
     <g transform="translate(151.173266 255.596248) scale(0.05 -0.05)">
      <defs>
       <path id="DejaVuSans-45" d="M 628 4666 
L 3578 4666 
L 3578 4134 
L 1259 4134 
L 1259 2753 
L 3481 2753 
L 3481 2222 
L 1259 2222 
L 1259 531 
L 3634 531 
L 3634 0 
L 628 0 
L 628 4666 
z
" transform="scale(0.015625)"/>
       <path id="DejaVuSans-43" d="M 4122 4306 
L 4122 3641 
Q 3803 3938 3442 4084 
Q 3081 4231 2675 4231 
Q 1875 4231 1450 3742 
Q 1025 3253 1025 2328 
Q 1025 1406 1450 917 
Q 1875 428 2675 428 
Q 3081 428 3442 575 
Q 3803 722 4122 1019 
L 4122 359 
Q 3791 134 3420 21 
Q 3050 -91 2638 -91 
Q 1578 -91 968 557 
Q 359 1206 359 2328 
Q 359 3453 968 4101 
Q 1578 4750 2638 4750 
Q 3056 4750 3426 4639 
Q 3797 4528 4122 4306 
z
" transform="scale(0.015625)"/>
       <path id="DejaVuSans-4d" d="M 628 4666 
L 1569 4666 
L 2759 1491 
L 3956 4666 
L 4897 4666 
L 4897 0 
L 4281 0 
L 4281 4097 
L 3078 897 
L 2444 897 
L 1241 4097 
L 1241 0 
L 628 0 
L 628 4666 
z
" transform="scale(0.015625)"/>
       <path id="DejaVuSans-32" d="M 1228 531 
L 3431 531 
L 3431 0 
L 469 0 
L 469 531 
Q 828 903 1448 1529 
Q 2069 2156 2228 2338 
Q 2531 2678 2651 2914 
Q 2772 3150 2772 3378 
Q 2772 3750 2511 3984 
Q 2250 4219 1831 4219 
Q 1534 4219 1204 4116 
Q 875 4013 500 3803 
L 500 4441 
Q 881 4594 1212 4672 
Q 1544 4750 1819 4750 
Q 2544 4750 2975 4387 
Q 3406 4025 3406 3419 
Q 3406 3131 3298 2873 
Q 3191 2616 2906 2266 
Q 2828 2175 2409 1742 
Q 1991 1309 1228 531 
z
" transform="scale(0.015625)"/>
       <path id="DejaVuSans-34" d="M 2419 4116 
L 825 1625 
L 2419 1625 
L 2419 4116 
z
M 2253 4666 
L 3047 4666 
L 3047 1625 
L 3713 1625 
L 3713 1100 
L 3047 1100 
L 3047 0 
L 2419 0 
L 2419 1100 
L 313 1100 
L 313 1709 
L 2253 4666 
z
" transform="scale(0.015625)"/>
       <path id="DejaVuSans-31" d="M 794 531 
L 1825 531 
L 1825 4091 
L 703 3866 
L 703 4441 
L 1819 4666 
L 2450 4666 
L 2450 531 
L 3481 531 
L 3481 0 
L 794 0 
L 794 531 
z
" transform="scale(0.015625)"/>
       <path id="DejaVuSans-38" d="M 2034 2216 
Q 1584 2216 1326 1975 
Q 1069 1734 1069 1313 
Q 1069 891 1326 650 
Q 1584 409 2034 409 
Q 2484 409 2743 651 
Q 3003 894 3003 1313 
Q 3003 1734 2745 1975 
Q 2488 2216 2034 2216 
z
M 1403 2484 
Q 997 2584 770 2862 
Q 544 3141 544 3541 
Q 544 4100 942 4425 
Q 1341 4750 2034 4750 
Q 2731 4750 3128 4425 
Q 3525 4100 3525 3541 
Q 3525 3141 3298 2862 
Q 3072 2584 2669 2484 
Q 3125 2378 3379 2068 
Q 3634 1759 3634 1313 
Q 3634 634 3220 271 
Q 2806 -91 2034 -91 
Q 1263 -91 848 271 
Q 434 634 434 1313 
Q 434 1759 690 2068 
Q 947 2378 1403 2484 
z
M 1172 3481 
Q 1172 3119 1398 2916 
Q 1625 2713 2034 2713 
Q 2441 2713 2670 2916 
Q 2900 3119 2900 3481 
Q 2900 3844 2670 4047 
Q 2441 4250 2034 4250 
Q 1625 4250 1398 4047 
Q 1172 3844 1172 3481 
z
" transform="scale(0.015625)"/>
      </defs>
      <use xlink:href="#DejaVuSans-45"/>
      <use xlink:href="#DejaVuSans-43" x="63.183594"/>
      <use xlink:href="#DejaVuSans-4d" x="133.007812"/>
      <use xlink:href="#DejaVuSans-32" x="219.287109"/>
      <use xlink:href="#DejaVuSans-34" x="282.910156"/>
      <use xlink:href="#DejaVuSans-31" x="346.533203"/>
      <use xlink:href="#DejaVuSans-38" x="410.15625"/>
     </g>
    </g>
   </g>
   <g id="text_2">
    <g clip-path="url(#p7e582cd09e)">
     <!-- MTH2011 -->
     <g transform="translate(311.27839 184.352563) scale(0.05 -0.05)">
      <defs>
       <path id="DejaVuSans-54" d="M -19 4666 
L 3928 4666 
L 3928 4134 
L 2272 4134 
L 2272 0 
L 1638 0 
L 1638 4134 
L -19 4134 
L -19 4666 
z
" transform="scale(0.015625)"/>
       <path id="DejaVuSans-48" d="M 628 4666 
L 1259 4666 
L 1259 2753 
L 3553 2753 
L 3553 4666 
L 4184 4666 
L 4184 0 
L 3553 0 
L 3553 2222 
L 1259 2222 
L 1259 0 
L 628 0 
L 628 4666 
z
" transform="scale(0.015625)"/>
       <path id="DejaVuSans-30" d="M 2034 4250 
Q 1547 4250 1301 3770 
Q 1056 3291 1056 2328 
Q 1056 1369 1301 889 
Q 1547 409 2034 409 
Q 2525 409 2770 889 
Q 3016 1369 3016 2328 
Q 3016 3291 2770 3770 
Q 2525 4250 2034 4250 
z
M 2034 4750 
Q 2819 4750 3233 4129 
Q 3647 3509 3647 2328 
Q 3647 1150 3233 529 
Q 2819 -91 2034 -91 
Q 1250 -91 836 529 
Q 422 1150 422 2328 
Q 422 3509 836 4129 
Q 1250 4750 2034 4750 
z
" transform="scale(0.015625)"/>
      </defs>
      <use xlink:href="#DejaVuSans-4d"/>
      <use xlink:href="#DejaVuSans-54" x="86.279297"/>
      <use xlink:href="#DejaVuSans-48" x="147.363281"/>
      <use xlink:href="#DejaVuSans-32" x="222.558594"/>
      <use xlink:href="#DejaVuSans-30" x="286.181641"/>
      <use xlink:href="#DejaVuSans-31" x="349.804688"/>
      <use xlink:href="#DejaVuSans-31" x="413.427734"/>
     </g>
    </g>
   </g>
   <g id="text_3">
    <g clip-path="url(#p7e582cd09e)">
     <!-- ECM1410 -->
     <g transform="translate(238.101282 238.904627) scale(0.05 -0.05)">
      <use xlink:href="#DejaVuSans-45"/>
      <use xlink:href="#DejaVuSans-43" x="63.183594"/>
      <use xlink:href="#DejaVuSans-4d" x="133.007812"/>
      <use xlink:href="#DejaVuSans-31" x="219.287109"/>
      <use xlink:href="#DejaVuSans-34" x="282.910156"/>
      <use xlink:href="#DejaVuSans-31" x="346.533203"/>
      <use xlink:href="#DejaVuSans-30" x="410.15625"/>
     </g>
    </g>
   </g>
   <g id="text_4">
    <g clip-path="url(#p7e582cd09e)">
     <!-- ECM3420 -->
     <g transform="translate(185.280182 278.289009) scale(0.05 -0.05)">
      <defs>
       <path id="DejaVuSans-33" d="M 2597 2516 
Q 3050 2419 3304 2112 
Q 3559 1806 3559 1356 
Q 3559 666 3084 287 
Q 2609 -91 1734 -91 
Q 1441 -91 1130 -33 
Q 819 25 488 141 
L 488 750 
Q 750 597 1062 519 
Q 1375 441 1716 441 
Q 2309 441 2620 675 
Q 2931 909 2931 1356 
Q 2931 1769 2642 2001 
Q 2353 2234 1838 2234 
L 1294 2234 
L 1294 2753 
L 1863 2753 
Q 2328 2753 2575 2939 
Q 2822 3125 2822 3475 
Q 2822 3834 2567 4026 
Q 2313 4219 1838 4219 
Q 1578 4219 1281 4162 
Q 984 4106 628 3988 
L 628 4550 
Q 988 4650 1302 4700 
Q 1616 4750 1894 4750 
Q 2613 4750 3031 4423 
Q 3450 4097 3450 3541 
Q 3450 3153 3228 2886 
Q 3006 2619 2597 2516 
z
" transform="scale(0.015625)"/>
      </defs>
      <use xlink:href="#DejaVuSans-45"/>
      <use xlink:href="#DejaVuSans-43" x="63.183594"/>
      <use xlink:href="#DejaVuSans-4d" x="133.007812"/>
      <use xlink:href="#DejaVuSans-33" x="219.287109"/>
      <use xlink:href="#DejaVuSans-34" x="282.910156"/>
      <use xlink:href="#DejaVuSans-32" x="346.533203"/>
      <use xlink:href="#DejaVuSans-30" x="410.15625"/>
     </g>
    </g>
   </g>
   <g id="text_5">
    <g clip-path="url(#p7e582cd09e)">
     <!-- ECM2423 -->
     <g transform="translate(123.300877 249.961256) scale(0.05 -0.05)">
      <use xlink:href="#DejaVuSans-45"/>
      <use xlink:href="#DejaVuSans-43" x="63.183594"/>
      <use xlink:href="#DejaVuSans-4d" x="133.007812"/>
      <use xlink:href="#DejaVuSans-32" x="219.287109"/>
      <use xlink:href="#DejaVuSans-34" x="282.910156"/>
      <use xlink:href="#DejaVuSans-32" x="346.533203"/>
      <use xlink:href="#DejaVuSans-33" x="410.15625"/>
     </g>
    </g>
   </g>
   <g id="text_6">
    <g clip-path="url(#p7e582cd09e)">
     <!-- ECM1413 -->
     <g transform="translate(232.401138 291.717978) scale(0.05 -0.05)">
      <use xlink:href="#DejaVuSans-45"/>
      <use xlink:href="#DejaVuSans-43" x="63.183594"/>
      <use xlink:href="#DejaVuSans-4d" x="133.007812"/>
      <use xlink:href="#DejaVuSans-31" x="219.287109"/>
      <use xlink:href="#DejaVuSans-34" x="282.910156"/>
      <use xlink:href="#DejaVuSans-31" x="346.533203"/>
      <use xlink:href="#DejaVuSans-33" x="410.15625"/>
     </g>
    </g>
   </g>
   <g id="text_7">
    <g clip-path="url(#p7e582cd09e)">
     <!-- MTH2008 -->
     <g transform="translate(275.168458 152.959925) scale(0.05 -0.05)">
      <use xlink:href="#DejaVuSans-4d"/>
      <use xlink:href="#DejaVuSans-54" x="86.279297"/>
      <use xlink:href="#DejaVuSans-48" x="147.363281"/>
      <use xlink:href="#DejaVuSans-32" x="222.558594"/>
      <use xlink:href="#DejaVuSans-30" x="286.181641"/>
      <use xlink:href="#DejaVuSans-30" x="349.804688"/>
      <use xlink:href="#DejaVuSans-38" x="413.427734"/>
     </g>
    </g>
   </g>
   <g id="text_8">
    <g clip-path="url(#p7e582cd09e)">
     <!-- MTH3022 -->
     <g transform="translate(286.573354 173.15517) scale(0.05 -0.05)">
      <use xlink:href="#DejaVuSans-4d"/>
      <use xlink:href="#DejaVuSans-54" x="86.279297"/>
      <use xlink:href="#DejaVuSans-48" x="147.363281"/>
      <use xlink:href="#DejaVuSans-33" x="222.558594"/>
      <use xlink:href="#DejaVuSans-30" x="286.181641"/>
      <use xlink:href="#DejaVuSans-32" x="349.804688"/>
      <use xlink:href="#DejaVuSans-32" x="413.427734"/>
     </g>
    </g>
   </g>
   <g id="text_9">
    <g clip-path="url(#p7e582cd09e)">
     <!-- ECM2419 -->
     <g transform="translate(230.285553 269.871793) scale(0.05 -0.05)">
      <defs>
       <path id="DejaVuSans-39" d="M 703 97 
L 703 672 
Q 941 559 1184 500 
Q 1428 441 1663 441 
Q 2288 441 2617 861 
Q 2947 1281 2994 2138 
Q 2813 1869 2534 1725 
Q 2256 1581 1919 1581 
Q 1219 1581 811 2004 
Q 403 2428 403 3163 
Q 403 3881 828 4315 
Q 1253 4750 1959 4750 
Q 2769 4750 3195 4129 
Q 3622 3509 3622 2328 
Q 3622 1225 3098 567 
Q 2575 -91 1691 -91 
Q 1453 -91 1209 -44 
Q 966 3 703 97 
z
M 1959 2075 
Q 2384 2075 2632 2365 
Q 2881 2656 2881 3163 
Q 2881 3666 2632 3958 
Q 2384 4250 1959 4250 
Q 1534 4250 1286 3958 
Q 1038 3666 1038 3163 
Q 1038 2656 1286 2365 
Q 1534 2075 1959 2075 
z
" transform="scale(0.015625)"/>
      </defs>
      <use xlink:href="#DejaVuSans-45"/>
      <use xlink:href="#DejaVuSans-43" x="63.183594"/>
      <use xlink:href="#DejaVuSans-4d" x="133.007812"/>
      <use xlink:href="#DejaVuSans-32" x="219.287109"/>
      <use xlink:href="#DejaVuSans-34" x="282.910156"/>
      <use xlink:href="#DejaVuSans-31" x="346.533203"/>
      <use xlink:href="#DejaVuSans-39" x="410.15625"/>
     </g>
    </g>
   </g>
   <g id="text_10">
    <g clip-path="url(#p7e582cd09e)">
     <!-- ECM2433 -->
     <g transform="translate(211.967516 239.593044) scale(0.05 -0.05)">
      <use xlink:href="#DejaVuSans-45"/>
      <use xlink:href="#DejaVuSans-43" x="63.183594"/>
      <use xlink:href="#DejaVuSans-4d" x="133.007812"/>
      <use xlink:href="#DejaVuSans-32" x="219.287109"/>
      <use xlink:href="#DejaVuSans-34" x="282.910156"/>
      <use xlink:href="#DejaVuSans-33" x="346.533203"/>
      <use xlink:href="#DejaVuSans-33" x="410.15625"/>
     </g>
    </g>
   </g>
   <g id="text_11">
    <g clip-path="url(#p7e582cd09e)">
     <!-- ECM1414 -->
     <g transform="translate(171.665641 257.175187) scale(0.05 -0.05)">
      <use xlink:href="#DejaVuSans-45"/>
      <use xlink:href="#DejaVuSans-43" x="63.183594"/>
      <use xlink:href="#DejaVuSans-4d" x="133.007812"/>
      <use xlink:href="#DejaVuSans-31" x="219.287109"/>
      <use xlink:href="#DejaVuSans-34" x="282.910156"/>
      <use xlink:href="#DejaVuSans-31" x="346.533203"/>
      <use xlink:href="#DejaVuSans-34" x="410.15625"/>
     </g>
    </g>
   </g>
   <g id="text_12">
    <g clip-path="url(#p7e582cd09e)">
     <!-- ECM3401 -->
     <g transform="translate(308.036876 249.725898) scale(0.05 -0.05)">
      <use xlink:href="#DejaVuSans-45"/>
      <use xlink:href="#DejaVuSans-43" x="63.183594"/>
      <use xlink:href="#DejaVuSans-4d" x="133.007812"/>
      <use xlink:href="#DejaVuSans-33" x="219.287109"/>
      <use xlink:href="#DejaVuSans-34" x="282.910156"/>
      <use xlink:href="#DejaVuSans-30" x="346.533203"/>
      <use xlink:href="#DejaVuSans-31" x="410.15625"/>
     </g>
    </g>
   </g>
   <g id="text_13">
    <g clip-path="url(#p7e582cd09e)">
     <!-- MTH1001 -->
     <g transform="translate(316.068266 165.902754) scale(0.05 -0.05)">
      <use xlink:href="#DejaVuSans-4d"/>
      <use xlink:href="#DejaVuSans-54" x="86.279297"/>
      <use xlink:href="#DejaVuSans-48" x="147.363281"/>
      <use xlink:href="#DejaVuSans-31" x="222.558594"/>
      <use xlink:href="#DejaVuSans-30" x="286.181641"/>
      <use xlink:href="#DejaVuSans-30" x="349.804688"/>
      <use xlink:href="#DejaVuSans-31" x="413.427734"/>
     </g>
    </g>
   </g>
   <g id="text_14">
    <g clip-path="url(#p7e582cd09e)">
     <!-- ECM2414 -->
     <g transform="translate(278.620719 246.715677) scale(0.05 -0.05)">
      <use xlink:href="#DejaVuSans-45"/>
      <use xlink:href="#DejaVuSans-43" x="63.183594"/>
      <use xlink:href="#DejaVuSans-4d" x="133.007812"/>
      <use xlink:href="#DejaVuSans-32" x="219.287109"/>
      <use xlink:href="#DejaVuSans-34" x="282.910156"/>
      <use xlink:href="#DejaVuSans-31" x="346.533203"/>
      <use xlink:href="#DejaVuSans-34" x="410.15625"/>
     </g>
    </g>
   </g>
   <g id="text_15">
    <g clip-path="url(#p7e582cd09e)">
     <!-- ECM3423 -->
     <g transform="translate(262.818018 221.143582) scale(0.05 -0.05)">
      <use xlink:href="#DejaVuSans-45"/>
      <use xlink:href="#DejaVuSans-43" x="63.183594"/>
      <use xlink:href="#DejaVuSans-4d" x="133.007812"/>
      <use xlink:href="#DejaVuSans-33" x="219.287109"/>
      <use xlink:href="#DejaVuSans-34" x="282.910156"/>
      <use xlink:href="#DejaVuSans-32" x="346.533203"/>
      <use xlink:href="#DejaVuSans-33" x="410.15625"/>
     </g>
    </g>
   </g>
   <g id="text_16">
    <g clip-path="url(#p7e582cd09e)">
     <!-- MTH1002 -->
     <g transform="translate(218.442009 138.66815) scale(0.05 -0.05)">
      <use xlink:href="#DejaVuSans-4d"/>
      <use xlink:href="#DejaVuSans-54" x="86.279297"/>
      <use xlink:href="#DejaVuSans-48" x="147.363281"/>
      <use xlink:href="#DejaVuSans-31" x="222.558594"/>
      <use xlink:href="#DejaVuSans-30" x="286.181641"/>
      <use xlink:href="#DejaVuSans-30" x="349.804688"/>
      <use xlink:href="#DejaVuSans-32" x="413.427734"/>
     </g>
    </g>
   </g>
   <g id="text_17">
    <g clip-path="url(#p7e582cd09e)">
     <!-- MTH3019 -->
     <g transform="translate(334.649399 140.178238) scale(0.05 -0.05)">
      <use xlink:href="#DejaVuSans-4d"/>
      <use xlink:href="#DejaVuSans-54" x="86.279297"/>
      <use xlink:href="#DejaVuSans-48" x="147.363281"/>
      <use xlink:href="#DejaVuSans-33" x="222.558594"/>
      <use xlink:href="#DejaVuSans-30" x="286.181641"/>
      <use xlink:href="#DejaVuSans-31" x="349.804688"/>
      <use xlink:href="#DejaVuSans-39" x="413.427734"/>
     </g>
    </g>
   </g>
   <g id="text_18">
    <g clip-path="url(#p7e582cd09e)">
     <!-- ECM3408 -->
     <g transform="translate(265.56373 274.879052) scale(0.05 -0.05)">
      <use xlink:href="#DejaVuSans-45"/>
      <use xlink:href="#DejaVuSans-43" x="63.183594"/>
      <use xlink:href="#DejaVuSans-4d" x="133.007812"/>
      <use xlink:href="#DejaVuSans-33" x="219.287109"/>
      <use xlink:href="#DejaVuSans-34" x="282.910156"/>
      <use xlink:href="#DejaVuSans-30" x="346.533203"/>
      <use xlink:href="#DejaVuSans-38" x="410.15625"/>
     </g>
    </g>
   </g>
   <g id="text_19">
    <g clip-path="url(#p7e582cd09e)">
     <!-- ECM2434 -->
     <g transform="translate(292.404853 263.916326) scale(0.05 -0.05)">
      <use xlink:href="#DejaVuSans-45"/>
      <use xlink:href="#DejaVuSans-43" x="63.183594"/>
      <use xlink:href="#DejaVuSans-4d" x="133.007812"/>
      <use xlink:href="#DejaVuSans-32" x="219.287109"/>
      <use xlink:href="#DejaVuSans-34" x="282.910156"/>
      <use xlink:href="#DejaVuSans-33" x="346.533203"/>
      <use xlink:href="#DejaVuSans-34" x="410.15625"/>
     </g>
    </g>
   </g>
   <g id="text_20">
    <g clip-path="url(#p7e582cd09e)">
     <!-- ECM1400 -->
     <g transform="translate(196.609002 255.552917) scale(0.05 -0.05)">
      <use xlink:href="#DejaVuSans-45"/>
      <use xlink:href="#DejaVuSans-43" x="63.183594"/>
      <use xlink:href="#DejaVuSans-4d" x="133.007812"/>
      <use xlink:href="#DejaVuSans-31" x="219.287109"/>
      <use xlink:href="#DejaVuSans-34" x="282.910156"/>
      <use xlink:href="#DejaVuSans-30" x="346.533203"/>
      <use xlink:href="#DejaVuSans-30" x="410.15625"/>
     </g>
    </g>
   </g>
   <g id="text_21">
    <g clip-path="url(#p7e582cd09e)">
     <!-- 26A06 -->
     <g transform="translate(234.31552 162.662204) scale(0.05 -0.05)">
      <defs>
       <path id="DejaVuSans-36" d="M 2113 2584 
Q 1688 2584 1439 2293 
Q 1191 2003 1191 1497 
Q 1191 994 1439 701 
Q 1688 409 2113 409 
Q 2538 409 2786 701 
Q 3034 994 3034 1497 
Q 3034 2003 2786 2293 
Q 2538 2584 2113 2584 
z
M 3366 4563 
L 3366 3988 
Q 3128 4100 2886 4159 
Q 2644 4219 2406 4219 
Q 1781 4219 1451 3797 
Q 1122 3375 1075 2522 
Q 1259 2794 1537 2939 
Q 1816 3084 2150 3084 
Q 2853 3084 3261 2657 
Q 3669 2231 3669 1497 
Q 3669 778 3244 343 
Q 2819 -91 2113 -91 
Q 1303 -91 875 529 
Q 447 1150 447 2328 
Q 447 3434 972 4092 
Q 1497 4750 2381 4750 
Q 2619 4750 2861 4703 
Q 3103 4656 3366 4563 
z
" transform="scale(0.015625)"/>
       <path id="DejaVuSans-41" d="M 2188 4044 
L 1331 1722 
L 3047 1722 
L 2188 4044 
z
M 1831 4666 
L 2547 4666 
L 4325 0 
L 3669 0 
L 3244 1197 
L 1141 1197 
L 716 0 
L 50 0 
L 1831 4666 
z
" transform="scale(0.015625)"/>
      </defs>
      <use xlink:href="#DejaVuSans-32"/>
      <use xlink:href="#DejaVuSans-36" x="63.623047"/>
      <use xlink:href="#DejaVuSans-41" x="127.246094"/>
      <use xlink:href="#DejaVuSans-30" x="195.654297"/>
      <use xlink:href="#DejaVuSans-36" x="259.277344"/>
     </g>
    </g>
   </g>
   <g id="text_22">
    <g clip-path="url(#p7e582cd09e)">
     <!-- 26B12 -->
     <g transform="translate(251.500435 136.736516) scale(0.05 -0.05)">
      <defs>
       <path id="DejaVuSans-42" d="M 1259 2228 
L 1259 519 
L 2272 519 
Q 2781 519 3026 730 
Q 3272 941 3272 1375 
Q 3272 1813 3026 2020 
Q 2781 2228 2272 2228 
L 1259 2228 
z
M 1259 4147 
L 1259 2741 
L 2194 2741 
Q 2656 2741 2882 2914 
Q 3109 3088 3109 3444 
Q 3109 3797 2882 3972 
Q 2656 4147 2194 4147 
L 1259 4147 
z
M 628 4666 
L 2241 4666 
Q 2963 4666 3353 4366 
Q 3744 4066 3744 3513 
Q 3744 3084 3544 2831 
Q 3344 2578 2956 2516 
Q 3422 2416 3680 2098 
Q 3938 1781 3938 1306 
Q 3938 681 3513 340 
Q 3088 0 2303 0 
L 628 0 
L 628 4666 
z
" transform="scale(0.015625)"/>
      </defs>
      <use xlink:href="#DejaVuSans-32"/>
      <use xlink:href="#DejaVuSans-36" x="63.623047"/>
      <use xlink:href="#DejaVuSans-42" x="127.246094"/>
      <use xlink:href="#DejaVuSans-31" x="195.849609"/>
      <use xlink:href="#DejaVuSans-32" x="259.472656"/>
     </g>
    </g>
   </g>
   <g id="text_23">
    <g clip-path="url(#p7e582cd09e)">
     <!-- 40A05 -->
     <g transform="translate(179.464951 144.080541) scale(0.05 -0.05)">
      <defs>
       <path id="DejaVuSans-35" d="M 691 4666 
L 3169 4666 
L 3169 4134 
L 1269 4134 
L 1269 2991 
Q 1406 3038 1543 3061 
Q 1681 3084 1819 3084 
Q 2600 3084 3056 2656 
Q 3513 2228 3513 1497 
Q 3513 744 3044 326 
Q 2575 -91 1722 -91 
Q 1428 -91 1123 -41 
Q 819 9 494 109 
L 494 744 
Q 775 591 1075 516 
Q 1375 441 1709 441 
Q 2250 441 2565 725 
Q 2881 1009 2881 1497 
Q 2881 1984 2565 2268 
Q 2250 2553 1709 2553 
Q 1456 2553 1204 2497 
Q 953 2441 691 2322 
L 691 4666 
z
" transform="scale(0.015625)"/>
      </defs>
      <use xlink:href="#DejaVuSans-34"/>
      <use xlink:href="#DejaVuSans-30" x="63.623047"/>
      <use xlink:href="#DejaVuSans-41" x="127.246094"/>
      <use xlink:href="#DejaVuSans-30" x="195.654297"/>
      <use xlink:href="#DejaVuSans-35" x="259.277344"/>
     </g>
    </g>
   </g>
   <g id="text_24">
    <g clip-path="url(#p7e582cd09e)">
     <!-- 34A30 -->
     <g transform="translate(181.933074 126.653967) scale(0.05 -0.05)">
      <use xlink:href="#DejaVuSans-33"/>
      <use xlink:href="#DejaVuSans-34" x="63.623047"/>
      <use xlink:href="#DejaVuSans-41" x="127.246094"/>
      <use xlink:href="#DejaVuSans-33" x="195.654297"/>
      <use xlink:href="#DejaVuSans-30" x="259.277344"/>
     </g>
    </g>
   </g>
   <g id="text_25">
    <g clip-path="url(#p7e582cd09e)">
     <!-- 15A04 -->
     <g transform="translate(199.594804 153.569687) scale(0.05 -0.05)">
      <use xlink:href="#DejaVuSans-31"/>
      <use xlink:href="#DejaVuSans-35" x="63.623047"/>
      <use xlink:href="#DejaVuSans-41" x="127.246094"/>
      <use xlink:href="#DejaVuSans-30" x="195.654297"/>
      <use xlink:href="#DejaVuSans-34" x="259.277344"/>
     </g>
    </g>
   </g>
   <g id="text_26">
    <g clip-path="url(#p7e582cd09e)">
     <!-- ECM3428 -->
     <g transform="translate(173.169931 236.238252) scale(0.05 -0.05)">
      <use xlink:href="#DejaVuSans-45"/>
      <use xlink:href="#DejaVuSans-43" x="63.183594"/>
      <use xlink:href="#DejaVuSans-4d" x="133.007812"/>
      <use xlink:href="#DejaVuSans-33" x="219.287109"/>
      <use xlink:href="#DejaVuSans-34" x="282.910156"/>
      <use xlink:href="#DejaVuSans-32" x="346.533203"/>
      <use xlink:href="#DejaVuSans-38" x="410.15625"/>
     </g>
    </g>
   </g>
   <g id="text_27">
    <g clip-path="url(#p7e582cd09e)">
     <!-- ECM2427 -->
     <g transform="translate(230.754537 213.338798) scale(0.05 -0.05)">
      <defs>
       <path id="DejaVuSans-37" d="M 525 4666 
L 3525 4666 
L 3525 4397 
L 1831 0 
L 1172 0 
L 2766 4134 
L 525 4134 
L 525 4666 
z
" transform="scale(0.015625)"/>
      </defs>
      <use xlink:href="#DejaVuSans-45"/>
      <use xlink:href="#DejaVuSans-43" x="63.183594"/>
      <use xlink:href="#DejaVuSans-4d" x="133.007812"/>
      <use xlink:href="#DejaVuSans-32" x="219.287109"/>
      <use xlink:href="#DejaVuSans-34" x="282.910156"/>
      <use xlink:href="#DejaVuSans-32" x="346.533203"/>
      <use xlink:href="#DejaVuSans-37" x="410.15625"/>
     </g>
    </g>
   </g>
   <g id="text_28">
    <g clip-path="url(#p7e582cd09e)">
     <!-- MTH2010 -->
     <g transform="translate(342.357018 179.533441) scale(0.05 -0.05)">
      <use xlink:href="#DejaVuSans-4d"/>
      <use xlink:href="#DejaVuSans-54" x="86.279297"/>
      <use xlink:href="#DejaVuSans-48" x="147.363281"/>
      <use xlink:href="#DejaVuSans-32" x="222.558594"/>
      <use xlink:href="#DejaVuSans-30" x="286.181641"/>
      <use xlink:href="#DejaVuSans-31" x="349.804688"/>
      <use xlink:href="#DejaVuSans-30" x="413.427734"/>
     </g>
    </g>
   </g>
   <g id="text_29">
    <g clip-path="url(#p7e582cd09e)">
     <!-- MTH3004 -->
     <g transform="translate(368.198572 172.367708) scale(0.05 -0.05)">
      <use xlink:href="#DejaVuSans-4d"/>
      <use xlink:href="#DejaVuSans-54" x="86.279297"/>
      <use xlink:href="#DejaVuSans-48" x="147.363281"/>
      <use xlink:href="#DejaVuSans-33" x="222.558594"/>
      <use xlink:href="#DejaVuSans-30" x="286.181641"/>
      <use xlink:href="#DejaVuSans-30" x="349.804688"/>
      <use xlink:href="#DejaVuSans-34" x="413.427734"/>
     </g>
    </g>
   </g>
   <g id="text_30">
    <g clip-path="url(#p7e582cd09e)">
     <!-- MTH1004 -->
     <g transform="translate(100.912807 214.475809) scale(0.05 -0.05)">
      <use xlink:href="#DejaVuSans-4d"/>
      <use xlink:href="#DejaVuSans-54" x="86.279297"/>
      <use xlink:href="#DejaVuSans-48" x="147.363281"/>
      <use xlink:href="#DejaVuSans-31" x="222.558594"/>
      <use xlink:href="#DejaVuSans-30" x="286.181641"/>
      <use xlink:href="#DejaVuSans-30" x="349.804688"/>
      <use xlink:href="#DejaVuSans-34" x="413.427734"/>
     </g>
    </g>
   </g>
   <g id="text_31">
    <g clip-path="url(#p7e582cd09e)">
     <!-- MTH2003 -->
     <g transform="translate(217.02743 100.26394) scale(0.05 -0.05)">
      <use xlink:href="#DejaVuSans-4d"/>
      <use xlink:href="#DejaVuSans-54" x="86.279297"/>
      <use xlink:href="#DejaVuSans-48" x="147.363281"/>
      <use xlink:href="#DejaVuSans-32" x="222.558594"/>
      <use xlink:href="#DejaVuSans-30" x="286.181641"/>
      <use xlink:href="#DejaVuSans-30" x="349.804688"/>
      <use xlink:href="#DejaVuSans-33" x="413.427734"/>
     </g>
    </g>
   </g>
   <g id="text_32">
    <g clip-path="url(#p7e582cd09e)">
     <!-- MTH2009 -->
     <g transform="translate(116.704493 109.671386) scale(0.05 -0.05)">
      <use xlink:href="#DejaVuSans-4d"/>
      <use xlink:href="#DejaVuSans-54" x="86.279297"/>
      <use xlink:href="#DejaVuSans-48" x="147.363281"/>
      <use xlink:href="#DejaVuSans-32" x="222.558594"/>
      <use xlink:href="#DejaVuSans-30" x="286.181641"/>
      <use xlink:href="#DejaVuSans-30" x="349.804688"/>
      <use xlink:href="#DejaVuSans-39" x="413.427734"/>
     </g>
    </g>
   </g>
   <g id="text_33">
    <g clip-path="url(#p7e582cd09e)">
     <!-- MTH1003 -->
     <g transform="translate(278.079325 97.840733) scale(0.05 -0.05)">
      <use xlink:href="#DejaVuSans-4d"/>
      <use xlink:href="#DejaVuSans-54" x="86.279297"/>
      <use xlink:href="#DejaVuSans-48" x="147.363281"/>
      <use xlink:href="#DejaVuSans-31" x="222.558594"/>
      <use xlink:href="#DejaVuSans-30" x="286.181641"/>
      <use xlink:href="#DejaVuSans-30" x="349.804688"/>
      <use xlink:href="#DejaVuSans-33" x="413.427734"/>
     </g>
    </g>
   </g>
   <g id="text_34">
    <g clip-path="url(#p7e582cd09e)">
     <!-- MTH3035 -->
     <g transform="translate(82.894156 152.11111) scale(0.05 -0.05)">
      <use xlink:href="#DejaVuSans-4d"/>
      <use xlink:href="#DejaVuSans-54" x="86.279297"/>
      <use xlink:href="#DejaVuSans-48" x="147.363281"/>
      <use xlink:href="#DejaVuSans-33" x="222.558594"/>
      <use xlink:href="#DejaVuSans-30" x="286.181641"/>
      <use xlink:href="#DejaVuSans-33" x="349.804688"/>
      <use xlink:href="#DejaVuSans-35" x="413.427734"/>
     </g>
    </g>
   </g>
   <g id="text_35">
    <g clip-path="url(#p7e582cd09e)">
     <!-- MTH3042 -->
     <g transform="translate(183.350941 87.937897) scale(0.05 -0.05)">
      <use xlink:href="#DejaVuSans-4d"/>
      <use xlink:href="#DejaVuSans-54" x="86.279297"/>
      <use xlink:href="#DejaVuSans-48" x="147.363281"/>
      <use xlink:href="#DejaVuSans-33" x="222.558594"/>
      <use xlink:href="#DejaVuSans-30" x="286.181641"/>
      <use xlink:href="#DejaVuSans-34" x="349.804688"/>
      <use xlink:href="#DejaVuSans-32" x="413.427734"/>
     </g>
    </g>
   </g>
   <g id="text_36">
    <g clip-path="url(#p7e582cd09e)">
     <!-- MTH2004 -->
     <g transform="translate(194.326647 164.551449) scale(0.05 -0.05)">
      <use xlink:href="#DejaVuSans-4d"/>
      <use xlink:href="#DejaVuSans-54" x="86.279297"/>
      <use xlink:href="#DejaVuSans-48" x="147.363281"/>
      <use xlink:href="#DejaVuSans-32" x="222.558594"/>
      <use xlink:href="#DejaVuSans-30" x="286.181641"/>
      <use xlink:href="#DejaVuSans-30" x="349.804688"/>
      <use xlink:href="#DejaVuSans-34" x="413.427734"/>
     </g>
    </g>
   </g>
   <g id="text_37">
    <g clip-path="url(#p7e582cd09e)">
     <!-- MTH3011 -->
     <g transform="translate(243.155124 82.552264) scale(0.05 -0.05)">
      <use xlink:href="#DejaVuSans-4d"/>
      <use xlink:href="#DejaVuSans-54" x="86.279297"/>
      <use xlink:href="#DejaVuSans-48" x="147.363281"/>
      <use xlink:href="#DejaVuSans-33" x="222.558594"/>
      <use xlink:href="#DejaVuSans-30" x="286.181641"/>
      <use xlink:href="#DejaVuSans-31" x="349.804688"/>
      <use xlink:href="#DejaVuSans-31" x="413.427734"/>
     </g>
    </g>
   </g>
   <g id="text_38">
    <g clip-path="url(#p7e582cd09e)">
     <!-- MTH3007 -->
     <g transform="translate(171.53902 179.744578) scale(0.05 -0.05)">
      <use xlink:href="#DejaVuSans-4d"/>
      <use xlink:href="#DejaVuSans-54" x="86.279297"/>
      <use xlink:href="#DejaVuSans-48" x="147.363281"/>
      <use xlink:href="#DejaVuSans-33" x="222.558594"/>
      <use xlink:href="#DejaVuSans-30" x="286.181641"/>
      <use xlink:href="#DejaVuSans-30" x="349.804688"/>
      <use xlink:href="#DejaVuSans-37" x="413.427734"/>
     </g>
    </g>
   </g>
   <g id="text_39">
    <g clip-path="url(#p7e582cd09e)">
     <!-- MTH2005 -->
     <g transform="translate(244.885224 103.827407) scale(0.05 -0.05)">
      <use xlink:href="#DejaVuSans-4d"/>
      <use xlink:href="#DejaVuSans-54" x="86.279297"/>
      <use xlink:href="#DejaVuSans-48" x="147.363281"/>
      <use xlink:href="#DejaVuSans-32" x="222.558594"/>
      <use xlink:href="#DejaVuSans-30" x="286.181641"/>
      <use xlink:href="#DejaVuSans-30" x="349.804688"/>
      <use xlink:href="#DejaVuSans-35" x="413.427734"/>
     </g>
    </g>
   </g>
   <g id="text_40">
    <g clip-path="url(#p7e582cd09e)">
     <!-- MTH2006 -->
     <g transform="translate(98.793728 192.620288) scale(0.05 -0.05)">
      <use xlink:href="#DejaVuSans-4d"/>
      <use xlink:href="#DejaVuSans-54" x="86.279297"/>
      <use xlink:href="#DejaVuSans-48" x="147.363281"/>
      <use xlink:href="#DejaVuSans-32" x="222.558594"/>
      <use xlink:href="#DejaVuSans-30" x="286.181641"/>
      <use xlink:href="#DejaVuSans-30" x="349.804688"/>
      <use xlink:href="#DejaVuSans-36" x="413.427734"/>
     </g>
    </g>
   </g>
   <g id="text_41">
    <g clip-path="url(#p7e582cd09e)">
     <!-- MTH3028 -->
     <g transform="translate(76.868139 184.088065) scale(0.05 -0.05)">
      <use xlink:href="#DejaVuSans-4d"/>
      <use xlink:href="#DejaVuSans-54" x="86.279297"/>
      <use xlink:href="#DejaVuSans-48" x="147.363281"/>
      <use xlink:href="#DejaVuSans-33" x="222.558594"/>
      <use xlink:href="#DejaVuSans-30" x="286.181641"/>
      <use xlink:href="#DejaVuSans-32" x="349.804688"/>
      <use xlink:href="#DejaVuSans-38" x="413.427734"/>
     </g>
    </g>
   </g>
   <g id="text_42">
    <g clip-path="url(#p7e582cd09e)">
     <!-- MTH3026 -->
     <g transform="translate(371.726829 149.119269) scale(0.05 -0.05)">
      <use xlink:href="#DejaVuSans-4d"/>
      <use xlink:href="#DejaVuSans-54" x="86.279297"/>
      <use xlink:href="#DejaVuSans-48" x="147.363281"/>
      <use xlink:href="#DejaVuSans-33" x="222.558594"/>
      <use xlink:href="#DejaVuSans-30" x="286.181641"/>
      <use xlink:href="#DejaVuSans-32" x="349.804688"/>
      <use xlink:href="#DejaVuSans-36" x="413.427734"/>
     </g>
    </g>
   </g>
   <g id="text_43">
    <g clip-path="url(#p7e582cd09e)">
     <!-- MTH3024 -->
     <g transform="translate(98.672082 226.990523) scale(0.05 -0.05)">
      <use xlink:href="#DejaVuSans-4d"/>
      <use xlink:href="#DejaVuSans-54" x="86.279297"/>
      <use xlink:href="#DejaVuSans-48" x="147.363281"/>
      <use xlink:href="#DejaVuSans-33" x="222.558594"/>
      <use xlink:href="#DejaVuSans-30" x="286.181641"/>
      <use xlink:href="#DejaVuSans-32" x="349.804688"/>
      <use xlink:href="#DejaVuSans-34" x="413.427734"/>
     </g>
    </g>
   </g>
   <g id="text_44">
    <g clip-path="url(#p7e582cd09e)">
     <!-- MTHM036 -->
     <g transform="translate(351.447465 227.903571) scale(0.05 -0.05)">
      <use xlink:href="#DejaVuSans-4d"/>
      <use xlink:href="#DejaVuSans-54" x="86.279297"/>
      <use xlink:href="#DejaVuSans-48" x="147.363281"/>
      <use xlink:href="#DejaVuSans-4d" x="222.558594"/>
      <use xlink:href="#DejaVuSans-30" x="308.837891"/>
      <use xlink:href="#DejaVuSans-33" x="372.460938"/>
      <use xlink:href="#DejaVuSans-36" x="436.083984"/>
     </g>
    </g>
   </g>
   <g id="text_45">
    <g clip-path="url(#p7e582cd09e)">
     <!-- MTH3038 -->
     <g transform="translate(333.775809 191.938613) scale(0.05 -0.05)">
      <use xlink:href="#DejaVuSans-4d"/>
      <use xlink:href="#DejaVuSans-54" x="86.279297"/>
      <use xlink:href="#DejaVuSans-48" x="147.363281"/>
      <use xlink:href="#DejaVuSans-33" x="222.558594"/>
      <use xlink:href="#DejaVuSans-30" x="286.181641"/>
      <use xlink:href="#DejaVuSans-33" x="349.804688"/>
      <use xlink:href="#DejaVuSans-38" x="413.427734"/>
     </g>
    </g>
   </g>
   <g id="text_46">
    <g clip-path="url(#p7e582cd09e)">
     <!-- MTH3040 -->
     <g transform="translate(298.773253 122.700242) scale(0.05 -0.05)">
      <use xlink:href="#DejaVuSans-4d"/>
      <use xlink:href="#DejaVuSans-54" x="86.279297"/>
      <use xlink:href="#DejaVuSans-48" x="147.363281"/>
      <use xlink:href="#DejaVuSans-33" x="222.558594"/>
      <use xlink:href="#DejaVuSans-30" x="286.181641"/>
      <use xlink:href="#DejaVuSans-34" x="349.804688"/>
      <use xlink:href="#DejaVuSans-30" x="413.427734"/>
     </g>
    </g>
   </g>
   <g id="text_47">
    <g clip-path="url(#p7e582cd09e)">
     <!-- BEM2007 -->
     <g transform="translate(107.037963 128.148356) scale(0.05 -0.05)">
      <use xlink:href="#DejaVuSans-42"/>
      <use xlink:href="#DejaVuSans-45" x="68.603516"/>
      <use xlink:href="#DejaVuSans-4d" x="131.787109"/>
      <use xlink:href="#DejaVuSans-32" x="218.066406"/>
      <use xlink:href="#DejaVuSans-30" x="281.689453"/>
      <use xlink:href="#DejaVuSans-30" x="345.3125"/>
      <use xlink:href="#DejaVuSans-37" x="408.935547"/>
     </g>
    </g>
   </g>
   <g id="text_48">
    <g clip-path="url(#p7e582cd09e)">
     <!-- MTH3030 -->
     <g transform="translate(200.849034 110.175502) scale(0.05 -0.05)">
      <use xlink:href="#DejaVuSans-4d"/>
      <use xlink:href="#DejaVuSans-54" x="86.279297"/>
      <use xlink:href="#DejaVuSans-48" x="147.363281"/>
      <use xlink:href="#DejaVuSans-33" x="222.558594"/>
      <use xlink:href="#DejaVuSans-30" x="286.181641"/>
      <use xlink:href="#DejaVuSans-33" x="349.804688"/>
      <use xlink:href="#DejaVuSans-30" x="413.427734"/>
     </g>
    </g>
   </g>
   <g id="text_49">
    <g clip-path="url(#p7e582cd09e)">
     <!-- MTH3045 -->
     <g transform="translate(115.310602 176.091414) scale(0.05 -0.05)">
      <use xlink:href="#DejaVuSans-4d"/>
      <use xlink:href="#DejaVuSans-54" x="86.279297"/>
      <use xlink:href="#DejaVuSans-48" x="147.363281"/>
      <use xlink:href="#DejaVuSans-33" x="222.558594"/>
      <use xlink:href="#DejaVuSans-30" x="286.181641"/>
      <use xlink:href="#DejaVuSans-34" x="349.804688"/>
      <use xlink:href="#DejaVuSans-35" x="413.427734"/>
     </g>
    </g>
   </g>
   <g id="text_50">
    <g clip-path="url(#p7e582cd09e)">
     <!-- MTH3006 -->
     <g transform="translate(209.874665 72.097397) scale(0.05 -0.05)">
      <use xlink:href="#DejaVuSans-4d"/>
      <use xlink:href="#DejaVuSans-54" x="86.279297"/>
      <use xlink:href="#DejaVuSans-48" x="147.363281"/>
      <use xlink:href="#DejaVuSans-33" x="222.558594"/>
      <use xlink:href="#DejaVuSans-30" x="286.181641"/>
      <use xlink:href="#DejaVuSans-30" x="349.804688"/>
      <use xlink:href="#DejaVuSans-36" x="413.427734"/>
     </g>
    </g>
   </g>
   <g id="matplotlib.axis_1"/>
   <g id="matplotlib.axis_2"/>
  </g>
 </g>
 <defs>
  <clipPath id="p7e582cd09e">
   <rect x="57.6" y="41.472" width="357.12" height="266.112"/>
  </clipPath>
 </defs>
</svg>
