<?xml version="1.0" encoding="utf-8" standalone="no"?>
<!DOCTYPE svg PUBLIC "-//W3C//DTD SVG 1.1//EN"
  "http://www.w3.org/Graphics/SVG/1.1/DTD/svg11.dtd">
<svg xmlns:xlink="http://www.w3.org/1999/xlink" width="460.8pt" height="345.6pt" viewBox="0 0 460.8 345.6" xmlns="http://www.w3.org/2000/svg" version="1.1">
 <metadata>
  <rdf:RDF xmlns:dc="http://purl.org/dc/elements/1.1/" xmlns:cc="http://creativecommons.org/ns#" xmlns:rdf="http://www.w3.org/1999/02/22-rdf-syntax-ns#">
   <cc:Work>
    <dc:type rdf:resource="http://purl.org/dc/dcmitype/StillImage"/>
    <dc:date>2024-05-02T16:12:11.188203</dc:date>
    <dc:format>image/svg+xml</dc:format>
    <dc:creator>
     <cc:Agent>
      <dc:title>Matplotlib v3.8.3, https://matplotlib.org/</dc:title>
     </cc:Agent>
    </dc:creator>
   </cc:Work>
  </rdf:RDF>
 </metadata>
 <defs>
  <style type="text/css">*{stroke-linejoin: round; stroke-linecap: butt}</style>
 </defs>
 <g id="figure_1">
  <g id="patch_1">
   <path d="M 0 345.6 
L 460.8 345.6 
L 460.8 0 
L 0 0 
L 0 345.6 
z
" style="fill: none"/>
  </g>
  <g id="axes_1">
   <g id="patch_2">
    <path d="M 57.6 307.584 
L 414.72 307.584 
L 414.72 41.472 
L 57.6 41.472 
L 57.6 307.584 
z
" style="fill: none"/>
   </g>
   <g id="EdgeCollection_1">
    <path d="M 197.336698 181.672928 
L 217.326434 224.497711 
L 197.336698 181.672928 
L 195.977483 182.307383 
L 196.06779 178.954497 
L 198.695914 181.038474 
L 197.336698 181.672928 
" clip-path="url(#p0b3331ac37)" style="fill: #444444; stroke: #444444; stroke-width: 1.5"/>
    <path d="M 238.635991 251.368773 
L 222.699722 232.820866 
L 238.635991 251.368773 
L 239.773721 250.39124 
L 240.591055 253.644233 
L 237.49826 252.346305 
L 238.635991 251.368773 
" clip-path="url(#p0b3331ac37)" style="fill: #444444; stroke: #444444; stroke-width: 1.5"/>
    <path d="M 247.515241 240.105631 
L 224.092319 230.8636 
L 247.515241 240.105631 
L 248.065792 238.71032 
L 250.305864 241.206733 
L 246.96469 241.500943 
L 247.515241 240.105631 
" clip-path="url(#p0b3331ac37)" style="fill: #444444; stroke: #444444; stroke-width: 1.5"/>
    <path d="M 206.994625 234.74322 
L 214.897351 231.114742 
L 206.994625 234.74322 
L 207.620518 236.106399 
L 204.268267 235.995007 
L 206.368731 233.380041 
L 206.994625 234.74322 
" clip-path="url(#p0b3331ac37)" style="fill: #444444; stroke: #444444; stroke-width: 1.5"/>
    <path d="M 240.590656 227.43061 
L 224.427073 228.651757 
L 240.590656 227.43061 
L 240.477654 225.934872 
L 243.58213 227.204606 
L 240.703657 228.926347 
L 240.590656 227.43061 
" clip-path="url(#p0b3331ac37)" style="fill: #444444; stroke: #444444; stroke-width: 1.5"/>
    <path d="M 222.336272 246.719873 
L 220.248732 233.962802 
L 222.336272 246.719873 
L 223.816583 246.477638 
L 222.820742 249.680496 
L 220.85596 246.962108 
L 222.336272 246.719873 
" clip-path="url(#p0b3331ac37)" style="fill: #444444; stroke: #444444; stroke-width: 1.5"/>
    <path d="M 353.64556 176.105685 
L 344.874384 175.388679 
L 353.64556 176.105685 
L 353.767771 174.610671 
L 356.635586 176.350106 
L 353.523349 177.600698 
L 353.64556 176.105685 
" clip-path="url(#p0b3331ac37)" style="fill: #444444; stroke: #444444; stroke-width: 1.5"/>
    <path d="M 187.540841 169.639955 
L 167.309352 154.546022 
L 187.540841 169.639955 
L 188.437807 168.437686 
L 189.945379 171.433888 
L 186.643874 170.842224 
L 187.540841 169.639955 
" clip-path="url(#p0b3331ac37)" style="fill: #444444; stroke: #444444; stroke-width: 1.5"/>
    <path d="M 179.451573 151.010832 
L 168.298941 151.387403 
L 179.451573 151.010832 
L 179.400954 149.511687 
L 182.449864 150.909594 
L 179.502192 152.509978 
L 179.451573 151.010832 
" clip-path="url(#p0b3331ac37)" style="fill: #444444; stroke: #444444; stroke-width: 1.5"/>
    <path d="M 187.817223 179.55729 
L 153.199133 208.520871 
L 187.817223 179.55729 
L 186.85469 178.406842 
L 190.118118 177.632222 
L 188.779757 180.707737 
L 187.817223 179.55729 
" clip-path="url(#p0b3331ac37)" style="fill: #444444; stroke: #444444; stroke-width: 1.5"/>
    <path d="M 162.342834 234.034379 
L 151.878926 216.050971 
L 162.342834 234.034379 
L 163.63933 233.279994 
L 163.851604 236.627372 
L 161.046337 234.788764 
L 162.342834 234.034379 
" clip-path="url(#p0b3331ac37)" style="fill: #444444; stroke: #444444; stroke-width: 1.5"/>
    <path d="M 130.257701 203.787796 
L 144.747247 209.810269 
L 130.257701 203.787796 
L 129.681987 205.172915 
L 127.487464 202.636368 
L 130.833415 202.402678 
L 130.257701 203.787796 
" clip-path="url(#p0b3331ac37)" style="fill: #444444; stroke: #444444; stroke-width: 1.5"/>
    <path d="M 142.830008 227.042816 
L 147.401978 216.328149 
L 142.830008 227.042816 
L 144.209658 227.631515 
L 141.652609 229.802115 
L 141.450358 226.454117 
L 142.830008 227.042816 
" clip-path="url(#p0b3331ac37)" style="fill: #444444; stroke: #444444; stroke-width: 1.5"/>
    <path d="M 118.993838 213.957163 
L 144.377707 212.095112 
L 118.993838 213.957163 
L 119.103577 215.453143 
L 116.001877 214.17664 
L 118.884099 212.461182 
L 118.993838 213.957163 
" clip-path="url(#p0b3331ac37)" style="fill: #444444; stroke: #444444; stroke-width: 1.5"/>
    <path d="M 126.274662 225.81292 
L 145.095702 214.332967 
L 126.274662 225.81292 
L 127.055757 227.093502 
L 123.713498 227.37511 
L 125.493567 224.532337 
L 126.274662 225.81292 
" clip-path="url(#p0b3331ac37)" style="fill: #444444; stroke: #444444; stroke-width: 1.5"/>
    <path d="M 214.424836 235.260226 
L 197.425321 256.378269 
L 214.424836 235.260226 
L 213.256374 234.319643 
L 216.306003 232.923303 
L 215.593298 236.20081 
L 214.424836 235.260226 
" clip-path="url(#p0b3331ac37)" style="fill: #444444; stroke: #444444; stroke-width: 1.5"/>
    <path d="M 172.944615 245.50147 
L 190.178547 257.427864 
L 172.944615 245.50147 
L 172.091032 246.734919 
L 170.477717 243.794304 
L 173.798198 244.268022 
L 172.944615 245.50147 
" clip-path="url(#p0b3331ac37)" style="fill: #444444; stroke: #444444; stroke-width: 1.5"/>
    <path d="M 186.065479 274.628659 
L 191.804471 264.611567 
L 186.065479 274.628659 
L 187.367006 275.37433 
L 184.574136 277.231714 
L 184.763951 273.882988 
L 186.065479 274.628659 
" clip-path="url(#p0b3331ac37)" style="fill: #444444; stroke: #444444; stroke-width: 1.5"/>
    <path d="M 206.407461 277.67659 
L 197.14706 264.376488 
L 206.407461 277.67659 
L 207.638464 276.819485 
L 208.121671 280.138598 
L 205.176457 278.533695 
L 206.407461 277.67659 
" clip-path="url(#p0b3331ac37)" style="fill: #444444; stroke: #444444; stroke-width: 1.5"/>
    <path d="M 252.896121 94.024851 
L 259.833586 102.333906 
L 252.896121 94.024851 
L 251.744692 94.986211 
L 250.973401 91.721994 
L 254.047549 93.063491 
L 252.896121 94.024851 
" clip-path="url(#p0b3331ac37)" style="fill: #444444; stroke: #444444; stroke-width: 1.5"/>
    <path d="M 284.038896 98.723073 
L 267.750467 104.500541 
L 284.038896 98.723073 
L 283.537459 97.309368 
L 286.866305 97.720197 
L 284.540334 100.136777 
L 284.038896 98.723073 
" clip-path="url(#p0b3331ac37)" style="fill: #444444; stroke: #444444; stroke-width: 1.5"/>
    <path d="M 358.766707 184.23174 
L 352.112756 201.668244 
L 358.766707 184.23174 
L 357.365282 183.696942 
L 359.836303 181.428891 
L 360.168131 184.766539 
L 358.766707 184.23174 
" clip-path="url(#p0b3331ac37)" style="fill: #444444; stroke: #444444; stroke-width: 1.5"/>
    <path d="M 339.127403 226.711901 
L 347.920838 210.720924 
L 339.127403 226.711901 
L 340.441782 227.434678 
L 337.681849 229.34066 
L 337.813024 225.989124 
L 339.127403 226.711901 
" clip-path="url(#p0b3331ac37)" style="fill: #444444; stroke: #444444; stroke-width: 1.5"/>
    <path d="M 344.677183 200.678866 
L 341.006441 197.003005 
L 344.677183 200.678866 
L 345.738582 199.618945 
L 346.797025 202.801663 
L 343.615784 201.738787 
L 344.677183 200.678866 
" clip-path="url(#p0b3331ac37)" style="fill: #444444; stroke: #444444; stroke-width: 1.5"/>
    <path d="M 338.853458 182.913743 
L 338.121839 188.507238 
L 338.853458 182.913743 
L 337.366127 182.719202 
L 339.242539 179.93908 
L 340.34079 183.108283 
L 338.853458 182.913743 
" clip-path="url(#p0b3331ac37)" style="fill: #444444; stroke: #444444; stroke-width: 1.5"/>
    <path d="M 257.465562 111.911914 
L 239.481018 130.436571 
L 257.465562 111.911914 
L 256.389328 110.867059 
L 259.555271 109.759446 
L 258.541795 112.956768 
L 257.465562 111.911914 
" clip-path="url(#p0b3331ac37)" style="fill: #444444; stroke: #444444; stroke-width: 1.5"/>
    <path d="M 199.721549 168.880928 
L 232.39279 137.488297 
L 199.721549 168.880928 
L 200.760834 169.962542 
L 197.558322 170.959497 
L 198.682265 167.799314 
L 199.721549 168.880928 
" clip-path="url(#p0b3331ac37)" style="fill: #444444; stroke: #444444; stroke-width: 1.5"/>
    <path d="M 263.208794 129.251967 
L 240.923009 133.160326 
L 263.208794 129.251967 
L 262.949686 127.774515 
L 266.163697 128.733752 
L 263.467901 130.729418 
L 263.208794 129.251967 
" clip-path="url(#p0b3331ac37)" style="fill: #444444; stroke: #444444; stroke-width: 1.5"/>
    <path d="M 247.626281 146.826147 
L 239.359921 137.725183 
L 247.626281 146.826147 
L 248.736631 145.817622 
L 249.643332 149.046847 
L 246.515931 147.834672 
L 247.626281 146.826147 
" clip-path="url(#p0b3331ac37)" style="fill: #444444; stroke: #444444; stroke-width: 1.5"/>
    <path d="M 155.302376 151.65307 
L 155.687023 151.648409 
L 155.302376 151.65307 
L 155.2842 150.153181 
L 158.302156 151.616719 
L 155.320552 153.15296 
L 155.302376 151.65307 
" clip-path="url(#p0b3331ac37)" style="fill: #444444; stroke: #444444; stroke-width: 1.5"/>
    <path d="M 186.869784 170.705059 
L 155.114364 154.033194 
L 186.869784 170.705059 
L 187.567044 169.376967 
L 189.525968 172.099578 
L 186.172524 172.033151 
L 186.869784 170.705059 
" clip-path="url(#p0b3331ac37)" style="fill: #444444; stroke: #444444; stroke-width: 1.5"/>
    <path d="M 137.802773 126.83067 
L 148.38795 147.26911 
L 137.802773 126.83067 
L 136.470808 127.520501 
L 136.423109 124.166739 
L 139.134739 126.140838 
L 137.802773 126.83067 
" clip-path="url(#p0b3331ac37)" style="fill: #444444; stroke: #444444; stroke-width: 1.5"/>
    <path d="M 149.142281 136.646265 
L 150.177176 146.735095 
L 149.142281 136.646265 
L 147.650111 136.799329 
L 148.836153 133.661925 
L 150.634451 136.493201 
L 149.142281 136.646265 
" clip-path="url(#p0b3331ac37)" style="fill: #444444; stroke: #444444; stroke-width: 1.5"/>
    <path d="M 158.882393 168.19896 
L 152.912594 156.186546 
L 158.882393 168.19896 
L 160.225659 167.531398 
L 160.217516 170.88549 
L 157.539128 168.866521 
L 158.882393 168.19896 
" clip-path="url(#p0b3331ac37)" style="fill: #444444; stroke: #444444; stroke-width: 1.5"/>
    <path d="M 201.947611 174.715792 
L 241.794874 176.171259 
L 201.947611 174.715792 
L 201.892858 176.214792 
L 198.94961 174.606286 
L 202.002364 173.216791 
L 201.947611 174.715792 
" clip-path="url(#p0b3331ac37)" style="fill: #444444; stroke: #444444; stroke-width: 1.5"/>
    <path d="M 272.774116 170.137583 
L 251.654311 175.190378 
L 272.774116 170.137583 
L 272.425099 168.678753 
L 275.691778 169.439549 
L 273.123133 171.596414 
L 272.774116 170.137583 
" clip-path="url(#p0b3331ac37)" style="fill: #444444; stroke: #444444; stroke-width: 1.5"/>
    <path d="M 250.968677 160.484488 
L 248.064296 171.518471 
L 250.968677 160.484488 
L 249.518088 160.102662 
L 251.732329 157.58331 
L 252.419266 160.866314 
L 250.968677 160.484488 
" clip-path="url(#p0b3331ac37)" style="fill: #444444; stroke: #444444; stroke-width: 1.5"/>
    <path d="M 252.033614 189.257772 
L 248.673372 180.986124 
L 252.033614 189.257772 
L 253.42332 188.693223 
L 253.162711 192.037185 
L 250.643907 189.822321 
L 252.033614 189.257772 
" clip-path="url(#p0b3331ac37)" style="fill: #444444; stroke: #444444; stroke-width: 1.5"/>
    <path d="M 271.191639 186.183917 
L 251.429316 178.222204 
L 271.191639 186.183917 
L 271.75217 184.792585 
L 273.974303 187.304979 
L 270.631108 187.57525 
L 271.191639 186.183917 
" clip-path="url(#p0b3331ac37)" style="fill: #444444; stroke: #444444; stroke-width: 1.5"/>
    <path d="M 171.653441 115.694252 
L 167.84209 112.827852 
L 171.653441 115.694252 
L 172.555028 114.495444 
L 174.051057 117.497426 
L 170.751854 116.89306 
L 171.653441 115.694252 
" clip-path="url(#p0b3331ac37)" style="fill: #444444; stroke: #444444; stroke-width: 1.5"/>
    <path d="M 178.642682 101.502882 
L 168.20437 107.372021 
L 178.642682 101.502882 
L 177.90752 100.19539 
L 181.257667 100.032558 
L 179.377845 102.810375 
L 178.642682 101.502882 
" clip-path="url(#p0b3331ac37)" style="fill: #444444; stroke: #444444; stroke-width: 1.5"/>
    <path d="M 141.713379 117.197761 
L 159.102494 111.403245 
L 141.713379 117.197761 
L 142.187584 118.620831 
L 138.867238 118.146171 
L 141.239174 115.77469 
L 141.713379 117.197761 
" clip-path="url(#p0b3331ac37)" style="fill: #444444; stroke: #444444; stroke-width: 1.5"/>
    <path d="M 182.651038 131.51233 
L 167.121429 113.600389 
L 182.651038 131.51233 
L 183.784386 130.52972 
L 184.616258 133.779026 
L 181.51769 132.494939 
L 182.651038 131.51233 
" clip-path="url(#p0b3331ac37)" style="fill: #444444; stroke: #444444; stroke-width: 1.5"/>
    <path d="M 166.733279 144.329455 
L 175.902403 125.019389 
L 166.733279 144.329455 
L 168.088281 144.97286 
L 165.44647 147.039459 
L 165.378277 143.686051 
L 166.733279 144.329455 
" clip-path="url(#p0b3331ac37)" style="fill: #444444; stroke: #444444; stroke-width: 1.5"/>
    <path d="M 156.038785 126.563879 
L 173.226556 121.830306 
L 156.038785 126.563879 
L 156.437063 128.010038 
L 153.146468 127.360434 
L 155.640508 125.117721 
L 156.038785 126.563879 
" clip-path="url(#p0b3331ac37)" style="fill: #444444; stroke: #444444; stroke-width: 1.5"/>
    <path d="M 185.07221 143.101474 
L 179.531339 125.277335 
L 185.07221 143.101474 
L 186.504596 142.656197 
L 185.962762 145.966245 
L 183.639824 143.54675 
L 185.07221 143.101474 
" clip-path="url(#p0b3331ac37)" style="fill: #444444; stroke: #444444; stroke-width: 1.5"/>
    <path d="M 195.930263 98.792198 
L 181.226037 116.643407 
L 195.930263 98.792198 
L 194.772471 97.838512 
L 197.837635 96.476613 
L 197.088056 99.745883 
L 195.930263 98.792198 
" clip-path="url(#p0b3331ac37)" style="fill: #444444; stroke: #444444; stroke-width: 1.5"/>
    <path d="M 155.319938 152.094701 
L 119.536714 154.509142 
L 155.319938 152.094701 
L 155.218956 150.598104 
L 158.313132 151.892738 
L 155.420919 153.591298 
L 155.319938 152.094701 
" clip-path="url(#p0b3331ac37)" style="fill: #444444; stroke: #444444; stroke-width: 1.5"/>
    <path d="M 97.123879 146.449747 
L 110.043714 152.675288 
L 97.123879 146.449747 
L 96.472741 147.80105 
L 94.421273 145.147472 
L 97.775017 145.098444 
L 97.123879 146.449747 
" clip-path="url(#p0b3331ac37)" style="fill: #444444; stroke: #444444; stroke-width: 1.5"/>
    <path d="M 95.953656 164.381664 
L 110.099002 157.127392 
L 95.953656 164.381664 
L 96.63815 165.71638 
L 93.284223 165.750651 
L 95.269163 163.046947 
L 95.953656 164.381664 
" clip-path="url(#p0b3331ac37)" style="fill: #444444; stroke: #444444; stroke-width: 1.5"/>
    <path d="M 369.194705 174.186844 
L 378.749995 170.944505 
L 369.194705 174.186844 
L 369.676698 175.607296 
L 366.353802 175.150831 
L 368.712711 172.766393 
L 369.194705 174.186844 
" clip-path="url(#p0b3331ac37)" style="fill: #444444; stroke: #444444; stroke-width: 1.5"/>
    <path d="M 232.97476 126.617331 
L 224.686504 106.312937 
L 232.97476 126.617331 
L 234.363513 126.050442 
L 234.108539 129.394838 
L 231.586006 127.184221 
L 232.97476 126.617331 
" clip-path="url(#p0b3331ac37)" style="fill: #444444; stroke: #444444; stroke-width: 1.5"/>
    <path d="M 193.567734 98.459243 
L 217.827023 101.135492 
L 193.567734 98.459243 
L 193.403254 99.950198 
L 190.585824 98.130283 
L 193.732214 96.968288 
L 193.567734 98.459243 
" clip-path="url(#p0b3331ac37)" style="fill: #444444; stroke: #444444; stroke-width: 1.5"/>
    <path d="M 208.402245 95.691723 
L 218.180836 99.762246 
L 208.402245 95.691723 
L 207.825792 97.076534 
L 205.632623 94.538816 
L 208.978699 94.306913 
L 208.402245 95.691723 
" clip-path="url(#p0b3331ac37)" style="fill: #444444; stroke: #444444; stroke-width: 1.5"/>
    <path d="M 240.766881 91.753292 
L 227.173114 99.265389 
L 240.766881 91.753292 
L 240.04137 90.440419 
L 243.392626 90.30227 
L 241.492392 93.066164 
L 240.766881 91.753292 
" clip-path="url(#p0b3331ac37)" style="fill: #444444; stroke: #444444; stroke-width: 1.5"/>
    <path d="M 180.555617 112.906186 
L 184.048143 102.329848 
L 180.555617 112.906186 
L 181.979966 113.376535 
L 179.614917 115.754884 
L 179.131267 112.435836 
L 180.555617 112.906186 
" clip-path="url(#p0b3331ac37)" style="fill: #444444; stroke: #444444; stroke-width: 1.5"/>
    <path d="M 189.566186 158.45508 
L 192.628461 169.602392 
L 189.566186 158.45508 
L 188.119771 158.852424 
L 188.771498 155.562249 
L 191.012602 158.057736 
L 189.566186 158.45508 
" clip-path="url(#p0b3331ac37)" style="fill: #444444; stroke: #444444; stroke-width: 1.5"/>
    <path d="M 170.439169 175.124681 
L 188.955162 174.572752 
L 170.439169 175.124681 
L 170.483861 176.624015 
L 167.440501 175.214066 
L 170.394476 173.625347 
L 170.439169 175.124681 
" clip-path="url(#p0b3331ac37)" style="fill: #444444; stroke: #444444; stroke-width: 1.5"/>
    <path d="M 189.189486 145.450872 
L 193.141779 169.490014 
L 189.189486 145.450872 
L 187.709357 145.694221 
L 188.702788 142.490615 
L 190.669615 145.207523 
L 189.189486 145.450872 
" clip-path="url(#p0b3331ac37)" style="fill: #444444; stroke: #444444; stroke-width: 1.5"/>
    <path d="M 330.201904 239.909665 
L 320.383555 251.890958 
L 330.201904 239.909665 
L 329.041703 238.958911 
L 332.103412 237.589263 
L 331.362106 240.860419 
L 330.201904 239.909665 
" clip-path="url(#p0b3331ac37)" style="fill: #444444; stroke: #444444; stroke-width: 1.5"/>
    <path d="M 360.821177 168.797354 
L 359.453561 155.151609 
L 360.821177 168.797354 
L 362.3137 168.647769 
L 361.120347 171.7824 
L 359.328654 168.946939 
L 360.821177 168.797354 
" clip-path="url(#p0b3331ac37)" style="fill: #444444; stroke: #444444; stroke-width: 1.5"/>
    <path d="M 357.120825 142.389621 
L 355.507615 135.540601 
L 357.120825 142.389621 
L 358.580871 142.045723 
L 357.808619 145.309713 
L 355.660778 142.733518 
L 357.120825 142.389621 
" clip-path="url(#p0b3331ac37)" style="fill: #444444; stroke: #444444; stroke-width: 1.5"/>
    <path d="M 312.729946 262.38324 
L 307.661508 269.870954 
L 312.729946 262.38324 
L 311.487768 261.54241 
L 314.411607 259.898886 
L 313.972123 263.224071 
L 312.729946 262.38324 
" clip-path="url(#p0b3331ac37)" style="fill: #444444; stroke: #444444; stroke-width: 1.5"/>
    <path d="M 339.422337 240.561488 
L 342.68613 245.940835 
L 339.422337 240.561488 
L 338.139919 241.339565 
L 337.866183 237.996652 
L 340.704755 239.783411 
L 339.422337 240.561488 
" clip-path="url(#p0b3331ac37)" style="fill: #444444; stroke: #444444; stroke-width: 1.5"/>
   </g>
   <g id="VertexCollection_1">
    <path d="M 219.441281 234.028431 
C 220.767297 234.028431 222.039181 233.501599 222.976815 232.563965 
C 223.91445 231.62633 224.441281 230.354446 224.441281 229.028431 
C 224.441281 227.702415 223.91445 226.430531 222.976815 225.492897 
C 222.039181 224.555262 220.767297 224.028431 219.441281 224.028431 
C 218.115266 224.028431 216.843382 224.555262 215.905747 225.492897 
C 214.968113 226.430531 214.441281 227.702415 214.441281 229.028431 
C 214.441281 230.354446 214.968113 231.62633 215.905747 232.563965 
C 216.843382 233.501599 218.115266 234.028431 219.441281 234.028431 
z
" clip-path="url(#p0b3331ac37)" style="fill: #00ff00"/>
    <path d="M 339.891007 179.98131 
C 341.217023 179.98131 342.488906 179.454478 343.426541 178.516844 
C 344.364176 177.579209 344.891007 176.307325 344.891007 174.98131 
C 344.891007 173.655294 344.364176 172.38341 343.426541 171.445776 
C 342.488906 170.508141 341.217023 169.98131 339.891007 169.98131 
C 338.564992 169.98131 337.293108 170.508141 336.355473 171.445776 
C 335.417839 172.38341 334.891007 173.655294 334.891007 174.98131 
C 334.891007 176.307325 335.417839 177.579209 336.355473 178.516844 
C 337.293108 179.454478 338.564992 179.98131 339.891007 179.98131 
z
" clip-path="url(#p0b3331ac37)" style="fill: #ff0000"/>
    <path d="M 163.301789 156.556133 
C 164.627804 156.556133 165.899688 156.029301 166.837323 155.091667 
C 167.774957 154.154032 168.301789 152.882149 168.301789 151.556133 
C 168.301789 150.230118 167.774957 148.958234 166.837323 148.020599 
C 165.899688 147.082965 164.627804 146.556133 163.301789 146.556133 
C 161.975773 146.556133 160.70389 147.082965 159.766255 148.020599 
C 158.82862 148.958234 158.301789 150.230118 158.301789 151.556133 
C 158.301789 152.882149 158.82862 154.154032 159.766255 155.091667 
C 160.70389 156.029301 161.975773 156.556133 163.301789 156.556133 
z
" clip-path="url(#p0b3331ac37)" style="fill: #00ff00"/>
    <path d="M 149.364309 216.729316 
C 150.690324 216.729316 151.962208 216.202485 152.899843 215.26485 
C 153.837477 214.327216 154.364309 213.055332 154.364309 211.729316 
C 154.364309 210.403301 153.837477 209.131417 152.899843 208.193782 
C 151.962208 207.256148 150.690324 206.729316 149.364309 206.729316 
C 148.038293 206.729316 146.766409 207.256148 145.828775 208.193782 
C 144.89114 209.131417 144.364309 210.403301 144.364309 211.729316 
C 144.364309 213.055332 144.89114 214.327216 145.828775 215.26485 
C 146.766409 216.202485 148.038293 216.729316 149.364309 216.729316 
z
" clip-path="url(#p0b3331ac37)" style="fill: #00ff00"/>
    <path d="M 194.290042 265.273142 
C 195.616058 265.273142 196.887942 264.74631 197.825576 263.808676 
C 198.763211 262.871041 199.290042 261.599157 199.290042 260.273142 
C 199.290042 258.947126 198.763211 257.675242 197.825576 256.737608 
C 196.887942 255.799973 195.616058 255.273142 194.290042 255.273142 
C 192.964027 255.273142 191.692143 255.799973 190.754508 256.737608 
C 189.816874 257.675242 189.290042 258.947126 189.290042 260.273142 
C 189.290042 261.599157 189.816874 262.871041 190.754508 263.808676 
C 191.692143 264.74631 192.964027 265.273142 194.290042 265.273142 
z
" clip-path="url(#p0b3331ac37)" style="fill: #00ff00"/>
    <path d="M 263.038119 111.172 
C 264.364135 111.172 265.636018 110.645169 266.573653 109.707534 
C 267.511288 108.7699 268.038119 107.498016 268.038119 106.172 
C 268.038119 104.845985 267.511288 103.574101 266.573653 102.636466 
C 265.636018 101.698832 264.364135 101.172 263.038119 101.172 
C 261.712104 101.172 260.44022 101.698832 259.502585 102.636466 
C 258.564951 103.574101 258.038119 104.845985 258.038119 106.172 
C 258.038119 107.498016 258.564951 108.7699 259.502585 109.707534 
C 260.44022 110.645169 261.712104 111.172 263.038119 111.172 
z
" clip-path="url(#p0b3331ac37)" style="fill: #00ff00"/>
    <path d="M 350.330095 211.33966 
C 351.65611 211.33966 352.927994 210.812828 353.865629 209.875193 
C 354.803263 208.937559 355.330095 207.665675 355.330095 206.33966 
C 355.330095 205.013644 354.803263 203.74176 353.865629 202.804126 
C 352.927994 201.866491 351.65611 201.33966 350.330095 201.33966 
C 349.004079 201.33966 347.732196 201.866491 346.794561 202.804126 
C 345.856926 203.74176 345.330095 205.013644 345.330095 206.33966 
C 345.330095 207.665675 345.856926 208.937559 346.794561 209.875193 
C 347.732196 210.812828 349.004079 211.33966 350.330095 211.33966 
z
" clip-path="url(#p0b3331ac37)" style="fill: #ff0000"/>
    <path d="M 337.473371 198.465009 
C 338.799386 198.465009 340.07127 197.938177 341.008905 197.000543 
C 341.946539 196.062908 342.473371 194.791024 342.473371 193.465009 
C 342.473371 192.138993 341.946539 190.867109 341.008905 189.929475 
C 340.07127 188.99184 338.799386 188.465009 337.473371 188.465009 
C 336.147355 188.465009 334.875471 188.99184 333.937837 189.929475 
C 333.000202 190.867109 332.473371 192.138993 332.473371 193.465009 
C 332.473371 194.791024 333.000202 196.062908 333.937837 197.000543 
C 334.875471 197.938177 336.147355 198.465009 337.473371 198.465009 
z
" clip-path="url(#p0b3331ac37)" style="fill: #ff0000"/>
    <path d="M 235.99817 139.024017 
C 237.324185 139.024017 238.596069 138.497185 239.533704 137.559551 
C 240.471338 136.621916 240.99817 135.350032 240.99817 134.024017 
C 240.99817 132.698001 240.471338 131.426118 239.533704 130.488483 
C 238.596069 129.550848 237.324185 129.024017 235.99817 129.024017 
C 234.672154 129.024017 233.40027 129.550848 232.462636 130.488483 
C 231.525001 131.426118 230.99817 132.698001 230.99817 134.024017 
C 230.99817 135.350032 231.525001 136.621916 232.462636 137.559551 
C 233.40027 138.497185 234.672154 139.024017 235.99817 139.024017 
z
" clip-path="url(#p0b3331ac37)" style="fill: #00ff00"/>
    <path d="M 150.68739 156.708995 
C 152.013405 156.708995 153.285289 156.182164 154.222924 155.244529 
C 155.160558 154.306894 155.68739 153.035011 155.68739 151.708995 
C 155.68739 150.38298 155.160558 149.111096 154.222924 148.173461 
C 153.285289 147.235827 152.013405 146.708995 150.68739 146.708995 
C 149.361374 146.708995 148.08949 147.235827 147.151856 148.173461 
C 146.214221 149.111096 145.68739 150.38298 145.68739 151.708995 
C 145.68739 153.035011 146.214221 154.306894 147.151856 155.244529 
C 148.08949 156.182164 149.361374 156.708995 150.68739 156.708995 
z
" clip-path="url(#p0b3331ac37)" style="fill: #00ff00"/>
    <path d="M 246.791542 181.353768 
C 248.117558 181.353768 249.389442 180.826937 250.327076 179.889302 
C 251.264711 178.951668 251.791542 177.679784 251.791542 176.353768 
C 251.791542 175.027753 251.264711 173.755869 250.327076 172.818234 
C 249.389442 171.8806 248.117558 171.353768 246.791542 171.353768 
C 245.465527 171.353768 244.193643 171.8806 243.256008 172.818234 
C 242.318374 173.755869 241.791542 175.027753 241.791542 176.353768 
C 241.791542 177.679784 242.318374 178.951668 243.256008 179.889302 
C 244.193643 180.826937 245.465527 181.353768 246.791542 181.353768 
z
" clip-path="url(#p0b3331ac37)" style="fill: #00ff00"/>
    <path d="M 163.846062 114.822562 
C 165.172078 114.822562 166.443962 114.295731 167.381596 113.358096 
C 168.319231 112.420462 168.846062 111.148578 168.846062 109.822562 
C 168.846062 108.496547 168.319231 107.224663 167.381596 106.287028 
C 166.443962 105.349394 165.172078 104.822562 163.846062 104.822562 
C 162.520047 104.822562 161.248163 105.349394 160.310528 106.287028 
C 159.372894 107.224663 158.846062 108.496547 158.846062 109.822562 
C 158.846062 111.148578 159.372894 112.420462 160.310528 113.358096 
C 161.248163 114.295731 162.520047 114.822562 163.846062 114.822562 
z
" clip-path="url(#p0b3331ac37)" style="fill: #00ff00"/>
    <path d="M 361.618964 181.757476 
C 362.944979 181.757476 364.216863 181.230644 365.154498 180.29301 
C 366.092132 179.355375 366.618964 178.083491 366.618964 176.757476 
C 366.618964 175.43146 366.092132 174.159577 365.154498 173.221942 
C 364.216863 172.284307 362.944979 171.757476 361.618964 171.757476 
C 360.292948 171.757476 359.021064 172.284307 358.08343 173.221942 
C 357.145795 174.159577 356.618964 175.43146 356.618964 176.757476 
C 356.618964 178.083491 357.145795 179.355375 358.08343 180.29301 
C 359.021064 181.230644 360.292948 181.757476 361.618964 181.757476 
z
" clip-path="url(#p0b3331ac37)" style="fill: #ff0000"/>
    <path d="M 178.047085 125.502716 
C 179.3731 125.502716 180.644984 124.975884 181.582619 124.038249 
C 182.520253 123.100615 183.047085 121.828731 183.047085 120.502716 
C 183.047085 119.1767 182.520253 117.904816 181.582619 116.967182 
C 180.644984 116.029547 179.3731 115.502716 178.047085 115.502716 
C 176.721069 115.502716 175.449185 116.029547 174.511551 116.967182 
C 173.573916 117.904816 173.047085 119.1767 173.047085 120.502716 
C 173.047085 121.828731 173.573916 123.100615 174.511551 124.038249 
C 175.449185 124.975884 176.721069 125.502716 178.047085 125.502716 
z
" clip-path="url(#p0b3331ac37)" style="fill: #00ff00"/>
    <path d="M 114.548057 159.845747 
C 115.874073 159.845747 117.145957 159.318916 118.083591 158.381281 
C 119.021226 157.443646 119.548057 156.171763 119.548057 154.845747 
C 119.548057 153.519732 119.021226 152.247848 118.083591 151.310213 
C 117.145957 150.372579 115.874073 149.845747 114.548057 149.845747 
C 113.222042 149.845747 111.950158 150.372579 111.012523 151.310213 
C 110.074889 152.247848 109.548057 153.519732 109.548057 154.845747 
C 109.548057 156.171763 110.074889 157.443646 111.012523 158.381281 
C 111.950158 159.318916 113.222042 159.845747 114.548057 159.845747 
z
" clip-path="url(#p0b3331ac37)" style="fill: #00ff00"/>
    <path d="M 335.272592 238.721925 
C 336.598608 238.721925 337.870492 238.195094 338.808126 237.257459 
C 339.745761 236.319825 340.272592 235.047941 340.272592 233.721925 
C 340.272592 232.39591 339.745761 231.124026 338.808126 230.186391 
C 337.870492 229.248757 336.598608 228.721925 335.272592 228.721925 
C 333.946577 228.721925 332.674693 229.248757 331.737058 230.186391 
C 330.799424 231.124026 330.272592 232.39591 330.272592 233.721925 
C 330.272592 235.047941 330.799424 236.319825 331.737058 237.257459 
C 332.674693 238.195094 333.946577 238.721925 335.272592 238.721925 
z
" clip-path="url(#p0b3331ac37)" style="fill: #ff0000"/>
    <path d="M 383.484833 174.33786 
C 384.810848 174.33786 386.082732 173.811028 387.020367 172.873394 
C 387.958001 171.935759 388.484833 170.663875 388.484833 169.33786 
C 388.484833 168.011844 387.958001 166.739961 387.020367 165.802326 
C 386.082732 164.864691 384.810848 164.33786 383.484833 164.33786 
C 382.158817 164.33786 380.886933 164.864691 379.949299 165.802326 
C 379.011664 166.739961 378.484833 168.011844 378.484833 169.33786 
C 378.484833 170.663875 379.011664 171.935759 379.949299 172.873394 
C 380.886933 173.811028 382.158817 174.33786 383.484833 174.33786 
z
" clip-path="url(#p0b3331ac37)" style="fill: #ff0000"/>
    <path d="M 222.796873 106.683759 
C 224.122888 106.683759 225.394772 106.156927 226.332407 105.219292 
C 227.270041 104.281658 227.796873 103.009774 227.796873 101.683759 
C 227.796873 100.357743 227.270041 99.085859 226.332407 98.148225 
C 225.394772 97.21059 224.122888 96.683759 222.796873 96.683759 
C 221.470857 96.683759 220.198973 97.21059 219.261339 98.148225 
C 218.323704 99.085859 217.796873 100.357743 217.796873 101.683759 
C 217.796873 103.009774 218.323704 104.281658 219.261339 105.219292 
C 220.198973 106.156927 221.470857 106.683759 222.796873 106.683759 
z
" clip-path="url(#p0b3331ac37)" style="fill: #00ff00"/>
    <path d="M 185.615975 102.582016 
C 186.94199 102.582016 188.213874 102.055185 189.151509 101.11755 
C 190.089143 100.179916 190.615975 98.908032 190.615975 97.582016 
C 190.615975 96.256001 190.089143 94.984117 189.151509 94.046483 
C 188.213874 93.108848 186.94199 92.582016 185.615975 92.582016 
C 184.289959 92.582016 183.018076 93.108848 182.080441 94.046483 
C 181.142806 94.984117 180.615975 96.256001 180.615975 97.582016 
C 180.615975 98.908032 181.142806 100.179916 182.080441 101.11755 
C 183.018076 102.055185 184.289959 102.582016 185.615975 102.582016 
z
" clip-path="url(#p0b3331ac37)" style="fill: #00ff00"/>
    <path d="M 193.952942 179.423777 
C 195.278958 179.423777 196.550842 178.896946 197.488476 177.959311 
C 198.426111 177.021676 198.952942 175.749793 198.952942 174.423777 
C 198.952942 173.097762 198.426111 171.825878 197.488476 170.888243 
C 196.550842 169.950609 195.278958 169.423777 193.952942 169.423777 
C 192.626927 169.423777 191.355043 169.950609 190.417409 170.888243 
C 189.479774 171.825878 188.952942 173.097762 188.952942 174.423777 
C 188.952942 175.749793 189.479774 177.021676 190.417409 177.959311 
C 191.355043 178.896946 192.626927 179.423777 193.952942 179.423777 
z
" clip-path="url(#p0b3331ac37)" style="fill: #00ff00"/>
    <path d="M 243.849496 262.436668 
C 245.175512 262.436668 246.447396 261.909837 247.38503 260.972202 
C 248.322665 260.034568 248.849496 258.762684 248.849496 257.436668 
C 248.849496 256.110653 248.322665 254.838769 247.38503 253.901134 
C 246.447396 252.9635 245.175512 252.436668 243.849496 252.436668 
C 242.523481 252.436668 241.251597 252.9635 240.313963 253.901134 
C 239.376328 254.838769 238.849496 256.110653 238.849496 257.436668 
C 238.849496 258.762684 239.376328 260.034568 240.313963 260.972202 
C 241.251597 261.909837 242.523481 262.436668 243.849496 262.436668 
z
" clip-path="url(#p0b3331ac37)" style="fill: #00ff00"/>
    <path d="M 254.956902 248.041903 
C 256.282917 248.041903 257.554801 247.515071 258.492436 246.577437 
C 259.43007 245.639802 259.956902 244.367918 259.956902 243.041903 
C 259.956902 241.715887 259.43007 240.444003 258.492436 239.506369 
C 257.554801 238.568734 256.282917 238.041903 254.956902 238.041903 
C 253.630886 238.041903 252.359002 238.568734 251.421368 239.506369 
C 250.483733 240.444003 249.956902 241.715887 249.956902 243.041903 
C 249.956902 244.367918 250.483733 245.639802 251.421368 246.577437 
C 252.359002 247.515071 253.630886 248.041903 254.956902 248.041903 
z
" clip-path="url(#p0b3331ac37)" style="fill: #00ff00"/>
    <path d="M 199.724336 243.081318 
C 201.050352 243.081318 202.322236 242.554487 203.25987 241.616852 
C 204.197505 240.679218 204.724336 239.407334 204.724336 238.081318 
C 204.724336 236.755303 204.197505 235.483419 203.25987 234.545784 
C 202.322236 233.60815 201.050352 233.081318 199.724336 233.081318 
C 198.398321 233.081318 197.126437 233.60815 196.188802 234.545784 
C 195.251168 235.483419 194.724336 236.755303 194.724336 238.081318 
C 194.724336 239.407334 195.251168 240.679218 196.188802 241.616852 
C 197.126437 242.554487 198.398321 243.081318 199.724336 243.081318 
z
" clip-path="url(#p0b3331ac37)" style="fill: #00ff00"/>
    <path d="M 248.567922 231.827933 
C 249.893937 231.827933 251.165821 231.301101 252.103456 230.363466 
C 253.04109 229.425832 253.567922 228.153948 253.567922 226.827933 
C 253.567922 225.501917 253.04109 224.230033 252.103456 223.292399 
C 251.165821 222.354764 249.893937 221.827933 248.567922 221.827933 
C 247.241906 221.827933 245.970023 222.354764 245.032388 223.292399 
C 244.094754 224.230033 243.567922 225.501917 243.567922 226.827933 
C 243.567922 228.153948 244.094754 229.425832 245.032388 230.363466 
C 245.970023 231.301101 247.241906 231.827933 248.567922 231.827933 
z
" clip-path="url(#p0b3331ac37)" style="fill: #00ff00"/>
    <path d="M 223.628192 259.614868 
C 224.954208 259.614868 226.226092 259.088036 227.163726 258.150402 
C 228.101361 257.212767 228.628192 255.940883 228.628192 254.614868 
C 228.628192 253.288852 228.101361 252.016969 227.163726 251.079334 
C 226.226092 250.1417 224.954208 249.614868 223.628192 249.614868 
C 222.302177 249.614868 221.030293 250.1417 220.092658 251.079334 
C 219.155024 252.016969 218.628192 253.288852 218.628192 254.614868 
C 218.628192 255.940883 219.155024 257.212767 220.092658 258.150402 
C 221.030293 259.088036 222.302177 259.614868 223.628192 259.614868 
z
" clip-path="url(#p0b3331ac37)" style="fill: #00ff00"/>
    <path d="M 187.447016 155.740865 
C 188.773032 155.740865 190.044916 155.214033 190.98255 154.276398 
C 191.920185 153.338764 192.447016 152.06688 192.447016 150.740865 
C 192.447016 149.414849 191.920185 148.142965 190.98255 147.205331 
C 190.044916 146.267696 188.773032 145.740865 187.447016 145.740865 
C 186.121001 145.740865 184.849117 146.267696 183.911483 147.205331 
C 182.973848 148.142965 182.447016 149.414849 182.447016 150.740865 
C 182.447016 152.06688 182.973848 153.338764 183.911483 154.276398 
C 184.849117 155.214033 186.121001 155.740865 187.447016 155.740865 
z
" clip-path="url(#p0b3331ac37)" style="fill: #00ff00"/>
    <path d="M 166.366222 245.949027 
C 167.692237 245.949027 168.964121 245.422195 169.901756 244.484561 
C 170.83939 243.546926 171.366222 242.275042 171.366222 240.949027 
C 171.366222 239.623011 170.83939 238.351127 169.901756 237.413493 
C 168.964121 236.475858 167.692237 235.949027 166.366222 235.949027 
C 165.040206 235.949027 163.768322 236.475858 162.830688 237.413493 
C 161.893053 238.351127 161.366222 239.623011 161.366222 240.949027 
C 161.366222 242.275042 161.893053 243.546926 162.830688 244.484561 
C 163.768322 245.422195 165.040206 245.949027 166.366222 245.949027 
z
" clip-path="url(#p0b3331ac37)" style="fill: #00ff00"/>
    <path d="M 122.870403 205.71732 
C 124.196418 205.71732 125.468302 205.190489 126.405937 204.252854 
C 127.343571 203.31522 127.870403 202.043336 127.870403 200.71732 
C 127.870403 199.391305 127.343571 198.119421 126.405937 197.181786 
C 125.468302 196.244152 124.196418 195.71732 122.870403 195.71732 
C 121.544387 195.71732 120.272503 196.244152 119.334869 197.181786 
C 118.397234 198.119421 117.870403 199.391305 117.870403 200.71732 
C 117.870403 202.043336 118.397234 203.31522 119.334869 204.252854 
C 120.272503 205.190489 121.544387 205.71732 122.870403 205.71732 
z
" clip-path="url(#p0b3331ac37)" style="fill: #00ff00"/>
    <path d="M 139.690279 239.400947 
C 141.016294 239.400947 142.288178 238.874116 143.225812 237.936481 
C 144.163447 236.998847 144.690279 235.726963 144.690279 234.400947 
C 144.690279 233.074932 144.163447 231.803048 143.225812 230.865414 
C 142.288178 229.927779 141.016294 229.400947 139.690279 229.400947 
C 138.364263 229.400947 137.092379 229.927779 136.154745 230.865414 
C 135.21711 231.803048 134.690279 233.074932 134.690279 234.400947 
C 134.690279 235.726963 135.21711 236.998847 136.154745 237.936481 
C 137.092379 238.874116 138.364263 239.400947 139.690279 239.400947 
z
" clip-path="url(#p0b3331ac37)" style="fill: #00ff00"/>
    <path d="M 111.015276 219.542436 
C 112.341291 219.542436 113.613175 219.015604 114.55081 218.07797 
C 115.488444 217.140335 116.015276 215.868451 116.015276 214.542436 
C 116.015276 213.21642 115.488444 211.944536 114.55081 211.006902 
C 113.613175 210.069267 112.341291 209.542436 111.015276 209.542436 
C 109.68926 209.542436 108.417376 210.069267 107.479742 211.006902 
C 106.542107 211.944536 106.015276 213.21642 106.015276 214.542436 
C 106.015276 215.868451 106.542107 217.140335 107.479742 218.07797 
C 108.417376 219.015604 109.68926 219.542436 111.015276 219.542436 
z
" clip-path="url(#p0b3331ac37)" style="fill: #00ff00"/>
    <path d="M 119.444891 234.97876 
C 120.770906 234.97876 122.04279 234.451928 122.980425 233.514294 
C 123.918059 232.576659 124.444891 231.304776 124.444891 229.97876 
C 124.444891 228.652745 123.918059 227.380861 122.980425 226.443226 
C 122.04279 225.505592 120.770906 224.97876 119.444891 224.97876 
C 118.118875 224.97876 116.846992 225.505592 115.909357 226.443226 
C 114.971722 227.380861 114.444891 228.652745 114.444891 229.97876 
C 114.444891 231.304776 114.971722 232.576659 115.909357 233.514294 
C 116.846992 234.451928 118.118875 234.97876 119.444891 234.97876 
z
" clip-path="url(#p0b3331ac37)" style="fill: #00ff00"/>
    <path d="M 182.088565 286.57014 
C 183.414581 286.57014 184.686464 286.043308 185.624099 285.105674 
C 186.561734 284.168039 187.088565 282.896155 187.088565 281.57014 
C 187.088565 280.244124 186.561734 278.97224 185.624099 278.034606 
C 184.686464 277.096971 183.414581 276.57014 182.088565 276.57014 
C 180.76255 276.57014 179.490666 277.096971 178.553031 278.034606 
C 177.615397 278.97224 177.088565 280.244124 177.088565 281.57014 
C 177.088565 282.896155 177.615397 284.168039 178.553031 285.105674 
C 179.490666 286.043308 180.76255 286.57014 182.088565 286.57014 
z
" clip-path="url(#p0b3331ac37)" style="fill: #00ff00"/>
    <path d="M 210.978689 289.241944 
C 212.304705 289.241944 213.576588 288.715112 214.514223 287.777478 
C 215.451858 286.839843 215.978689 285.567959 215.978689 284.241944 
C 215.978689 282.915928 215.451858 281.644044 214.514223 280.70641 
C 213.576588 279.768775 212.304705 279.241944 210.978689 279.241944 
C 209.652674 279.241944 208.38079 279.768775 207.443155 280.70641 
C 206.505521 281.644044 205.978689 282.915928 205.978689 284.241944 
C 205.978689 285.567959 206.505521 286.839843 207.443155 287.777478 
C 208.38079 288.715112 209.652674 289.241944 210.978689 289.241944 
z
" clip-path="url(#p0b3331ac37)" style="fill: #00ff00"/>
    <path d="M 247.768867 92.8839 
C 249.094883 92.8839 250.366767 92.357069 251.304401 91.419434 
C 252.242036 90.4818 252.768867 89.209916 252.768867 87.8839 
C 252.768867 86.557885 252.242036 85.286001 251.304401 84.348366 
C 250.366767 83.410732 249.094883 82.8839 247.768867 82.8839 
C 246.442852 82.8839 245.170968 83.410732 244.233334 84.348366 
C 243.295699 85.286001 242.768867 86.557885 242.768867 87.8839 
C 242.768867 89.209916 243.295699 90.4818 244.233334 91.419434 
C 245.170968 92.357069 246.442852 92.8839 247.768867 92.8839 
z
" clip-path="url(#p0b3331ac37)" style="fill: #00ff00"/>
    <path d="M 291.578653 101.048738 
C 292.904669 101.048738 294.176553 100.521907 295.114187 99.584272 
C 296.051822 98.646638 296.578653 97.374754 296.578653 96.048738 
C 296.578653 94.722723 296.051822 93.450839 295.114187 92.513204 
C 294.176553 91.57557 292.904669 91.048738 291.578653 91.048738 
C 290.252638 91.048738 288.980754 91.57557 288.043119 92.513204 
C 287.105485 93.450839 286.578653 94.722723 286.578653 96.048738 
C 286.578653 97.374754 287.105485 98.646638 288.043119 99.584272 
C 288.980754 100.521907 290.252638 101.048738 291.578653 101.048738 
z
" clip-path="url(#p0b3331ac37)" style="fill: #00ff00"/>
    <path d="M 271.088536 132.870061 
C 272.414551 132.870061 273.686435 132.343229 274.62407 131.405595 
C 275.561704 130.46796 276.088536 129.196076 276.088536 127.870061 
C 276.088536 126.544045 275.561704 125.272161 274.62407 124.334527 
C 273.686435 123.396892 272.414551 122.870061 271.088536 122.870061 
C 269.76252 122.870061 268.490636 123.396892 267.553002 124.334527 
C 266.615367 125.272161 266.088536 126.544045 266.088536 127.870061 
C 266.088536 129.196076 266.615367 130.46796 267.553002 131.405595 
C 268.490636 132.343229 269.76252 132.870061 271.088536 132.870061 
z
" clip-path="url(#p0b3331ac37)" style="fill: #00ff00"/>
    <path d="M 253.005083 157.748013 
C 254.331098 157.748013 255.602982 157.221181 256.540617 156.283547 
C 257.478251 155.345912 258.005083 154.074028 258.005083 152.748013 
C 258.005083 151.421997 257.478251 150.150113 256.540617 149.212479 
C 255.602982 148.274844 254.331098 147.748013 253.005083 147.748013 
C 251.679067 147.748013 250.407183 148.274844 249.469549 149.212479 
C 248.531914 150.150113 248.005083 151.421997 248.005083 152.748013 
C 248.005083 154.074028 248.531914 155.345912 249.469549 156.283547 
C 250.407183 157.221181 251.679067 157.748013 253.005083 157.748013 
z
" clip-path="url(#p0b3331ac37)" style="fill: #00ff00"/>
    <path d="M 134.12367 124.726854 
C 135.449685 124.726854 136.721569 124.200022 137.659203 123.262388 
C 138.596838 122.324753 139.12367 121.052869 139.12367 119.726854 
C 139.12367 118.400838 138.596838 117.128955 137.659203 116.19132 
C 136.721569 115.253685 135.449685 114.726854 134.12367 114.726854 
C 132.797654 114.726854 131.52577 115.253685 130.588136 116.19132 
C 129.650501 117.128955 129.12367 118.400838 129.12367 119.726854 
C 129.12367 121.052869 129.650501 122.324753 130.588136 123.262388 
C 131.52577 124.200022 132.797654 124.726854 134.12367 124.726854 
z
" clip-path="url(#p0b3331ac37)" style="fill: #00ff00"/>
    <path d="M 148.325939 133.688025 
C 149.651954 133.688025 150.923838 133.161193 151.861472 132.223559 
C 152.799107 131.285924 153.325939 130.01404 153.325939 128.688025 
C 153.325939 127.362009 152.799107 126.090126 151.861472 125.152491 
C 150.923838 124.214856 149.651954 123.688025 148.325939 123.688025 
C 146.999923 123.688025 145.728039 124.214856 144.790405 125.152491 
C 143.85277 126.090126 143.325939 127.362009 143.325939 128.688025 
C 143.325939 130.01404 143.85277 131.285924 144.790405 132.223559 
C 145.728039 133.161193 146.999923 133.688025 148.325939 133.688025 
z
" clip-path="url(#p0b3331ac37)" style="fill: #00ff00"/>
    <path d="M 162.442721 180.363042 
C 163.768736 180.363042 165.04062 179.83621 165.978255 178.898575 
C 166.915889 177.960941 167.442721 176.689057 167.442721 175.363042 
C 167.442721 174.037026 166.915889 172.765142 165.978255 171.827508 
C 165.04062 170.889873 163.768736 170.363042 162.442721 170.363042 
C 161.116705 170.363042 159.844821 170.889873 158.907187 171.827508 
C 157.969552 172.765142 157.442721 174.037026 157.442721 175.363042 
C 157.442721 176.689057 157.969552 177.960941 158.907187 178.898575 
C 159.844821 179.83621 161.116705 180.363042 162.442721 180.363042 
z
" clip-path="url(#p0b3331ac37)" style="fill: #00ff00"/>
    <path d="M 280.554547 173.276159 
C 281.880562 173.276159 283.152446 172.749327 284.090081 171.811693 
C 285.027715 170.874058 285.554547 169.602174 285.554547 168.276159 
C 285.554547 166.950143 285.027715 165.67826 284.090081 164.740625 
C 283.152446 163.802991 281.880562 163.276159 280.554547 163.276159 
C 279.228531 163.276159 277.956647 163.802991 277.019013 164.740625 
C 276.081378 165.67826 275.554547 166.950143 275.554547 168.276159 
C 275.554547 169.602174 276.081378 170.874058 277.019013 171.811693 
C 277.956647 172.749327 279.228531 173.276159 280.554547 173.276159 
z
" clip-path="url(#p0b3331ac37)" style="fill: #00ff00"/>
    <path d="M 255.044541 201.669541 
C 256.370557 201.669541 257.64244 201.142709 258.580075 200.205075 
C 259.51771 199.26744 260.044541 197.995556 260.044541 196.669541 
C 260.044541 195.343525 259.51771 194.071641 258.580075 193.134007 
C 257.64244 192.196372 256.370557 191.669541 255.044541 191.669541 
C 253.718526 191.669541 252.446642 192.196372 251.509007 193.134007 
C 250.571373 194.071641 250.044541 195.343525 250.044541 196.669541 
C 250.044541 197.995556 250.571373 199.26744 251.509007 200.205075 
C 252.446642 201.142709 253.718526 201.669541 255.044541 201.669541 
z
" clip-path="url(#p0b3331ac37)" style="fill: #00ff00"/>
    <path d="M 278.612077 194.173415 
C 279.938093 194.173415 281.209977 193.646583 282.147611 192.708948 
C 283.085246 191.771314 283.612077 190.49943 283.612077 189.173415 
C 283.612077 187.847399 283.085246 186.575515 282.147611 185.637881 
C 281.209977 184.700246 279.938093 184.173415 278.612077 184.173415 
C 277.286062 184.173415 276.014178 184.700246 275.076543 185.637881 
C 274.138909 186.575515 273.612077 187.847399 273.612077 189.173415 
C 273.612077 190.49943 274.138909 191.771314 275.076543 192.708948 
C 276.014178 193.646583 277.286062 194.173415 278.612077 194.173415 
z
" clip-path="url(#p0b3331ac37)" style="fill: #00ff00"/>
    <path d="M 187.891624 142.556852 
C 189.21764 142.556852 190.489524 142.030021 191.427158 141.092386 
C 192.364793 140.154752 192.891624 138.882868 192.891624 137.556852 
C 192.891624 136.230837 192.364793 134.958953 191.427158 134.021318 
C 190.489524 133.083684 189.21764 132.556852 187.891624 132.556852 
C 186.565609 132.556852 185.293725 133.083684 184.35609 134.021318 
C 183.418456 134.958953 182.891624 136.230837 182.891624 137.556852 
C 182.891624 138.882868 183.418456 140.154752 184.35609 141.092386 
C 185.293725 142.030021 186.565609 142.556852 187.891624 142.556852 
z
" clip-path="url(#p0b3331ac37)" style="fill: #00ff00"/>
    <path d="M 201.016587 97.617304 
C 202.342603 97.617304 203.614486 97.090473 204.552121 96.152838 
C 205.489756 95.215203 206.016587 93.94332 206.016587 92.617304 
C 206.016587 91.291289 205.489756 90.019405 204.552121 89.08177 
C 203.614486 88.144136 202.342603 87.617304 201.016587 87.617304 
C 199.690572 87.617304 198.418688 88.144136 197.481053 89.08177 
C 196.543419 90.019405 196.016587 91.291289 196.016587 92.617304 
C 196.016587 93.94332 196.543419 95.215203 197.481053 96.152838 
C 198.418688 97.090473 199.690572 97.617304 201.016587 97.617304 
z
" clip-path="url(#p0b3331ac37)" style="fill: #00ff00"/>
    <path d="M 89.91693 147.977013 
C 91.242946 147.977013 92.514829 147.450181 93.452464 146.512547 
C 94.390099 145.574912 94.91693 144.303028 94.91693 142.977013 
C 94.91693 141.650997 94.390099 140.379114 93.452464 139.441479 
C 92.514829 138.503844 91.242946 137.977013 89.91693 137.977013 
C 88.590915 137.977013 87.319031 138.503844 86.381396 139.441479 
C 85.443762 140.379114 84.91693 141.650997 84.91693 142.977013 
C 84.91693 144.303028 85.443762 145.574912 86.381396 146.512547 
C 87.319031 147.450181 88.590915 147.977013 89.91693 147.977013 
z
" clip-path="url(#p0b3331ac37)" style="fill: #00ff00"/>
    <path d="M 88.835167 173.032296 
C 90.161183 173.032296 91.433067 172.505464 92.370701 171.567829 
C 93.308336 170.630195 93.835167 169.358311 93.835167 168.032296 
C 93.835167 166.70628 93.308336 165.434396 92.370701 164.496762 
C 91.433067 163.559127 90.161183 163.032296 88.835167 163.032296 
C 87.509152 163.032296 86.237268 163.559127 85.299633 164.496762 
C 84.361999 165.434396 83.835167 166.70628 83.835167 168.032296 
C 83.835167 169.358311 84.361999 170.630195 85.299633 171.567829 
C 86.237268 172.505464 87.509152 173.032296 88.835167 173.032296 
z
" clip-path="url(#p0b3331ac37)" style="fill: #00ff00"/>
    <path d="M 133.954253 281.138164 
C 135.280268 281.138164 136.552152 280.611333 137.489786 279.673698 
C 138.427421 278.736064 138.954253 277.46418 138.954253 276.138164 
C 138.954253 274.812149 138.427421 273.540265 137.489786 272.60263 
C 136.552152 271.664996 135.280268 271.138164 133.954253 271.138164 
C 132.628237 271.138164 131.356353 271.664996 130.418719 272.60263 
C 129.481084 273.540265 128.954253 274.812149 128.954253 276.138164 
C 128.954253 277.46418 129.481084 278.736064 130.418719 279.673698 
C 131.356353 280.611333 132.628237 281.138164 133.954253 281.138164 
z
" clip-path="url(#p0b3331ac37)" style="fill: #0000ff"/>
    <path d="M 317.214375 260.758295 
C 318.54039 260.758295 319.812274 260.231464 320.749909 259.293829 
C 321.687543 258.356195 322.214375 257.084311 322.214375 255.758295 
C 322.214375 254.43228 321.687543 253.160396 320.749909 252.222762 
C 319.812274 251.285127 318.54039 250.758295 317.214375 250.758295 
C 315.888359 250.758295 314.616475 251.285127 313.678841 252.222762 
C 312.741206 253.160396 312.214375 254.43228 312.214375 255.758295 
C 312.214375 257.084311 312.741206 258.356195 313.678841 259.293829 
C 314.616475 260.231464 315.888359 260.758295 317.214375 260.758295 
z
" clip-path="url(#p0b3331ac37)" style="fill: #0000ff"/>
    <path d="M 336.023466 104.948109 
C 337.349481 104.948109 338.621365 104.421278 339.558999 103.483643 
C 340.496634 102.546009 341.023466 101.274125 341.023466 99.948109 
C 341.023466 98.622094 340.496634 97.35021 339.558999 96.412576 
C 338.621365 95.474941 337.349481 94.948109 336.023466 94.948109 
C 334.69745 94.948109 333.425566 95.474941 332.487932 96.412576 
C 331.550297 97.35021 331.023466 98.622094 331.023466 99.948109 
C 331.023466 101.274125 331.550297 102.546009 332.487932 103.483643 
C 333.425566 104.421278 334.69745 104.948109 336.023466 104.948109 
z
" clip-path="url(#p0b3331ac37)" style="fill: #0000ff"/>
    <path d="M 277.959265 69.814056 
C 279.28528 69.814056 280.557164 69.287225 281.494799 68.34959 
C 282.432433 67.411956 282.959265 66.140072 282.959265 64.814056 
C 282.959265 63.488041 282.432433 62.216157 281.494799 61.278522 
C 280.557164 60.340888 279.28528 59.814056 277.959265 59.814056 
C 276.633249 59.814056 275.361365 60.340888 274.423731 61.278522 
C 273.486096 62.216157 272.959265 63.488041 272.959265 64.814056 
C 272.959265 66.140072 273.486096 67.411956 274.423731 68.34959 
C 275.361365 69.287225 276.633249 69.814056 277.959265 69.814056 
z
" clip-path="url(#p0b3331ac37)" style="fill: #0000ff"/>
    <path d="M 376.374683 231.686525 
C 377.700698 231.686525 378.972582 231.159693 379.910217 230.222058 
C 380.847851 229.284424 381.374683 228.01254 381.374683 226.686525 
C 381.374683 225.360509 380.847851 224.088625 379.910217 223.150991 
C 378.972582 222.213356 377.700698 221.686525 376.374683 221.686525 
C 375.048667 221.686525 373.776784 222.213356 372.839149 223.150991 
C 371.901515 224.088625 371.374683 225.360509 371.374683 226.686525 
C 371.374683 228.01254 371.901515 229.284424 372.839149 230.222058 
C 373.776784 231.159693 375.048667 231.686525 376.374683 231.686525 
z
" clip-path="url(#p0b3331ac37)" style="fill: #0000ff"/>
    <path d="M 358.954944 155.176533 
C 360.280959 155.176533 361.552843 154.649702 362.490478 153.712067 
C 363.428112 152.774432 363.954944 151.502549 363.954944 150.176533 
C 363.954944 148.850518 363.428112 147.578634 362.490478 146.640999 
C 361.552843 145.703365 360.280959 145.176533 358.954944 145.176533 
C 357.628928 145.176533 356.357045 145.703365 355.41941 146.640999 
C 354.481776 147.578634 353.954944 148.850518 353.954944 150.176533 
C 353.954944 151.502549 354.481776 152.774432 355.41941 153.712067 
C 356.357045 154.649702 357.628928 155.176533 358.954944 155.176533 
z
" clip-path="url(#p0b3331ac37)" style="fill: #0000ff"/>
    <path d="M 354.361291 135.673781 
C 355.687306 135.673781 356.95919 135.14695 357.896825 134.209315 
C 358.834459 133.27168 359.361291 131.999797 359.361291 130.673781 
C 359.361291 129.347766 358.834459 128.075882 357.896825 127.138247 
C 356.95919 126.200613 355.687306 125.673781 354.361291 125.673781 
C 353.035275 125.673781 351.763391 126.200613 350.825757 127.138247 
C 349.888122 128.075882 349.361291 129.347766 349.361291 130.673781 
C 349.361291 131.999797 349.888122 133.27168 350.825757 134.209315 
C 351.763391 135.14695 353.035275 135.673781 354.361291 135.673781 
z
" clip-path="url(#p0b3331ac37)" style="fill: #0000ff"/>
    <path d="M 304.858739 279.011545 
C 306.184755 279.011545 307.456639 278.484713 308.394273 277.547079 
C 309.331908 276.609444 309.858739 275.33756 309.858739 274.011545 
C 309.858739 272.685529 309.331908 271.413646 308.394273 270.476011 
C 307.456639 269.538377 306.184755 269.011545 304.858739 269.011545 
C 303.532724 269.011545 302.26084 269.538377 301.323205 270.476011 
C 300.385571 271.413646 299.858739 272.685529 299.858739 274.011545 
C 299.858739 275.33756 300.385571 276.609444 301.323205 277.547079 
C 302.26084 278.484713 303.532724 279.011545 304.858739 279.011545 
z
" clip-path="url(#p0b3331ac37)" style="fill: #0000ff"/>
    <path d="M 345.27972 255.215562 
C 346.605736 255.215562 347.87762 254.688731 348.815254 253.751096 
C 349.752889 252.813461 350.27972 251.541578 350.27972 250.215562 
C 350.27972 248.889547 349.752889 247.617663 348.815254 246.680028 
C 347.87762 245.742394 346.605736 245.215562 345.27972 245.215562 
C 343.953705 245.215562 342.681821 245.742394 341.744187 246.680028 
C 340.806552 247.617663 340.27972 248.889547 340.27972 250.215562 
C 340.27972 251.541578 340.806552 252.813461 341.744187 253.751096 
C 342.681821 254.688731 343.953705 255.215562 345.27972 255.215562 
z
" clip-path="url(#p0b3331ac37)" style="fill: #0000ff"/>
   </g>
   <g id="text_1">
    <g clip-path="url(#p0b3331ac37)">
     <!-- ECM2418 -->
     <g transform="translate(202.858391 240.959993) scale(0.07 -0.07)">
      <defs>
       <path id="DejaVuSans-45" d="M 628 4666 
L 3578 4666 
L 3578 4134 
L 1259 4134 
L 1259 2753 
L 3481 2753 
L 3481 2222 
L 1259 2222 
L 1259 531 
L 3634 531 
L 3634 0 
L 628 0 
L 628 4666 
z
" transform="scale(0.015625)"/>
       <path id="DejaVuSans-43" d="M 4122 4306 
L 4122 3641 
Q 3803 3938 3442 4084 
Q 3081 4231 2675 4231 
Q 1875 4231 1450 3742 
Q 1025 3253 1025 2328 
Q 1025 1406 1450 917 
Q 1875 428 2675 428 
Q 3081 428 3442 575 
Q 3803 722 4122 1019 
L 4122 359 
Q 3791 134 3420 21 
Q 3050 -91 2638 -91 
Q 1578 -91 968 557 
Q 359 1206 359 2328 
Q 359 3453 968 4101 
Q 1578 4750 2638 4750 
Q 3056 4750 3426 4639 
Q 3797 4528 4122 4306 
z
" transform="scale(0.015625)"/>
       <path id="DejaVuSans-4d" d="M 628 4666 
L 1569 4666 
L 2759 1491 
L 3956 4666 
L 4897 4666 
L 4897 0 
L 4281 0 
L 4281 4097 
L 3078 897 
L 2444 897 
L 1241 4097 
L 1241 0 
L 628 0 
L 628 4666 
z
" transform="scale(0.015625)"/>
       <path id="DejaVuSans-32" d="M 1228 531 
L 3431 531 
L 3431 0 
L 469 0 
L 469 531 
Q 828 903 1448 1529 
Q 2069 2156 2228 2338 
Q 2531 2678 2651 2914 
Q 2772 3150 2772 3378 
Q 2772 3750 2511 3984 
Q 2250 4219 1831 4219 
Q 1534 4219 1204 4116 
Q 875 4013 500 3803 
L 500 4441 
Q 881 4594 1212 4672 
Q 1544 4750 1819 4750 
Q 2544 4750 2975 4387 
Q 3406 4025 3406 3419 
Q 3406 3131 3298 2873 
Q 3191 2616 2906 2266 
Q 2828 2175 2409 1742 
Q 1991 1309 1228 531 
z
" transform="scale(0.015625)"/>
       <path id="DejaVuSans-34" d="M 2419 4116 
L 825 1625 
L 2419 1625 
L 2419 4116 
z
M 2253 4666 
L 3047 4666 
L 3047 1625 
L 3713 1625 
L 3713 1100 
L 3047 1100 
L 3047 0 
L 2419 0 
L 2419 1100 
L 313 1100 
L 313 1709 
L 2253 4666 
z
" transform="scale(0.015625)"/>
       <path id="DejaVuSans-31" d="M 794 531 
L 1825 531 
L 1825 4091 
L 703 3866 
L 703 4441 
L 1819 4666 
L 2450 4666 
L 2450 531 
L 3481 531 
L 3481 0 
L 794 0 
L 794 531 
z
" transform="scale(0.015625)"/>
       <path id="DejaVuSans-38" d="M 2034 2216 
Q 1584 2216 1326 1975 
Q 1069 1734 1069 1313 
Q 1069 891 1326 650 
Q 1584 409 2034 409 
Q 2484 409 2743 651 
Q 3003 894 3003 1313 
Q 3003 1734 2745 1975 
Q 2488 2216 2034 2216 
z
M 1403 2484 
Q 997 2584 770 2862 
Q 544 3141 544 3541 
Q 544 4100 942 4425 
Q 1341 4750 2034 4750 
Q 2731 4750 3128 4425 
Q 3525 4100 3525 3541 
Q 3525 3141 3298 2862 
Q 3072 2584 2669 2484 
Q 3125 2378 3379 2068 
Q 3634 1759 3634 1313 
Q 3634 634 3220 271 
Q 2806 -91 2034 -91 
Q 1263 -91 848 271 
Q 434 634 434 1313 
Q 434 1759 690 2068 
Q 947 2378 1403 2484 
z
M 1172 3481 
Q 1172 3119 1398 2916 
Q 1625 2713 2034 2713 
Q 2441 2713 2670 2916 
Q 2900 3119 2900 3481 
Q 2900 3844 2670 4047 
Q 2441 4250 2034 4250 
Q 1625 4250 1398 4047 
Q 1172 3844 1172 3481 
z
" transform="scale(0.015625)"/>
      </defs>
      <use xlink:href="#DejaVuSans-45"/>
      <use xlink:href="#DejaVuSans-43" x="63.183594"/>
      <use xlink:href="#DejaVuSans-4d" x="133.007812"/>
      <use xlink:href="#DejaVuSans-32" x="219.287109"/>
      <use xlink:href="#DejaVuSans-34" x="282.910156"/>
      <use xlink:href="#DejaVuSans-31" x="346.533203"/>
      <use xlink:href="#DejaVuSans-38" x="410.15625"/>
     </g>
    </g>
   </g>
   <g id="text_2">
    <g clip-path="url(#p0b3331ac37)">
     <!-- MTH2011 -->
     <g transform="translate(323.19382 186.912872) scale(0.07 -0.07)">
      <defs>
       <path id="DejaVuSans-54" d="M -19 4666 
L 3928 4666 
L 3928 4134 
L 2272 4134 
L 2272 0 
L 1638 0 
L 1638 4134 
L -19 4134 
L -19 4666 
z
" transform="scale(0.015625)"/>
       <path id="DejaVuSans-48" d="M 628 4666 
L 1259 4666 
L 1259 2753 
L 3553 2753 
L 3553 4666 
L 4184 4666 
L 4184 0 
L 3553 0 
L 3553 2222 
L 1259 2222 
L 1259 0 
L 628 0 
L 628 4666 
z
" transform="scale(0.015625)"/>
       <path id="DejaVuSans-30" d="M 2034 4250 
Q 1547 4250 1301 3770 
Q 1056 3291 1056 2328 
Q 1056 1369 1301 889 
Q 1547 409 2034 409 
Q 2525 409 2770 889 
Q 3016 1369 3016 2328 
Q 3016 3291 2770 3770 
Q 2525 4250 2034 4250 
z
M 2034 4750 
Q 2819 4750 3233 4129 
Q 3647 3509 3647 2328 
Q 3647 1150 3233 529 
Q 2819 -91 2034 -91 
Q 1250 -91 836 529 
Q 422 1150 422 2328 
Q 422 3509 836 4129 
Q 1250 4750 2034 4750 
z
" transform="scale(0.015625)"/>
      </defs>
      <use xlink:href="#DejaVuSans-4d"/>
      <use xlink:href="#DejaVuSans-54" x="86.279297"/>
      <use xlink:href="#DejaVuSans-48" x="147.363281"/>
      <use xlink:href="#DejaVuSans-32" x="222.558594"/>
      <use xlink:href="#DejaVuSans-30" x="286.181641"/>
      <use xlink:href="#DejaVuSans-31" x="349.804688"/>
      <use xlink:href="#DejaVuSans-31" x="413.427734"/>
     </g>
    </g>
   </g>
   <g id="text_3">
    <g clip-path="url(#p0b3331ac37)">
     <!-- ECM1410 -->
     <g transform="translate(146.718898 163.487696) scale(0.07 -0.07)">
      <use xlink:href="#DejaVuSans-45"/>
      <use xlink:href="#DejaVuSans-43" x="63.183594"/>
      <use xlink:href="#DejaVuSans-4d" x="133.007812"/>
      <use xlink:href="#DejaVuSans-31" x="219.287109"/>
      <use xlink:href="#DejaVuSans-34" x="282.910156"/>
      <use xlink:href="#DejaVuSans-31" x="346.533203"/>
      <use xlink:href="#DejaVuSans-30" x="410.15625"/>
     </g>
    </g>
   </g>
   <g id="text_4">
    <g clip-path="url(#p0b3331ac37)">
     <!-- ECM3420 -->
     <g transform="translate(132.781418 223.660879) scale(0.07 -0.07)">
      <defs>
       <path id="DejaVuSans-33" d="M 2597 2516 
Q 3050 2419 3304 2112 
Q 3559 1806 3559 1356 
Q 3559 666 3084 287 
Q 2609 -91 1734 -91 
Q 1441 -91 1130 -33 
Q 819 25 488 141 
L 488 750 
Q 750 597 1062 519 
Q 1375 441 1716 441 
Q 2309 441 2620 675 
Q 2931 909 2931 1356 
Q 2931 1769 2642 2001 
Q 2353 2234 1838 2234 
L 1294 2234 
L 1294 2753 
L 1863 2753 
Q 2328 2753 2575 2939 
Q 2822 3125 2822 3475 
Q 2822 3834 2567 4026 
Q 2313 4219 1838 4219 
Q 1578 4219 1281 4162 
Q 984 4106 628 3988 
L 628 4550 
Q 988 4650 1302 4700 
Q 1616 4750 1894 4750 
Q 2613 4750 3031 4423 
Q 3450 4097 3450 3541 
Q 3450 3153 3228 2886 
Q 3006 2619 2597 2516 
z
" transform="scale(0.015625)"/>
      </defs>
      <use xlink:href="#DejaVuSans-45"/>
      <use xlink:href="#DejaVuSans-43" x="63.183594"/>
      <use xlink:href="#DejaVuSans-4d" x="133.007812"/>
      <use xlink:href="#DejaVuSans-33" x="219.287109"/>
      <use xlink:href="#DejaVuSans-34" x="282.910156"/>
      <use xlink:href="#DejaVuSans-32" x="346.533203"/>
      <use xlink:href="#DejaVuSans-30" x="410.15625"/>
     </g>
    </g>
   </g>
   <g id="text_5">
    <g clip-path="url(#p0b3331ac37)">
     <!-- ECM2423 -->
     <g transform="translate(177.707152 272.204704) scale(0.07 -0.07)">
      <use xlink:href="#DejaVuSans-45"/>
      <use xlink:href="#DejaVuSans-43" x="63.183594"/>
      <use xlink:href="#DejaVuSans-4d" x="133.007812"/>
      <use xlink:href="#DejaVuSans-32" x="219.287109"/>
      <use xlink:href="#DejaVuSans-34" x="282.910156"/>
      <use xlink:href="#DejaVuSans-32" x="346.533203"/>
      <use xlink:href="#DejaVuSans-33" x="410.15625"/>
     </g>
    </g>
   </g>
   <g id="text_6">
    <g clip-path="url(#p0b3331ac37)">
     <!-- ECM1413 -->
     <g transform="translate(246.455228 118.103563) scale(0.07 -0.07)">
      <use xlink:href="#DejaVuSans-45"/>
      <use xlink:href="#DejaVuSans-43" x="63.183594"/>
      <use xlink:href="#DejaVuSans-4d" x="133.007812"/>
      <use xlink:href="#DejaVuSans-31" x="219.287109"/>
      <use xlink:href="#DejaVuSans-34" x="282.910156"/>
      <use xlink:href="#DejaVuSans-31" x="346.533203"/>
      <use xlink:href="#DejaVuSans-33" x="410.15625"/>
     </g>
    </g>
   </g>
   <g id="text_7">
    <g clip-path="url(#p0b3331ac37)">
     <!-- MTH2008 -->
     <g transform="translate(333.632907 218.271222) scale(0.07 -0.07)">
      <use xlink:href="#DejaVuSans-4d"/>
      <use xlink:href="#DejaVuSans-54" x="86.279297"/>
      <use xlink:href="#DejaVuSans-48" x="147.363281"/>
      <use xlink:href="#DejaVuSans-32" x="222.558594"/>
      <use xlink:href="#DejaVuSans-30" x="286.181641"/>
      <use xlink:href="#DejaVuSans-30" x="349.804688"/>
      <use xlink:href="#DejaVuSans-38" x="413.427734"/>
     </g>
    </g>
   </g>
   <g id="text_8">
    <g clip-path="url(#p0b3331ac37)">
     <!-- MTH3022 -->
     <g transform="translate(320.776183 205.396571) scale(0.07 -0.07)">
      <use xlink:href="#DejaVuSans-4d"/>
      <use xlink:href="#DejaVuSans-54" x="86.279297"/>
      <use xlink:href="#DejaVuSans-48" x="147.363281"/>
      <use xlink:href="#DejaVuSans-33" x="222.558594"/>
      <use xlink:href="#DejaVuSans-30" x="286.181641"/>
      <use xlink:href="#DejaVuSans-32" x="349.804688"/>
      <use xlink:href="#DejaVuSans-32" x="413.427734"/>
     </g>
    </g>
   </g>
   <g id="text_9">
    <g clip-path="url(#p0b3331ac37)">
     <!-- ECM2419 -->
     <g transform="translate(219.415279 145.955579) scale(0.07 -0.07)">
      <defs>
       <path id="DejaVuSans-39" d="M 703 97 
L 703 672 
Q 941 559 1184 500 
Q 1428 441 1663 441 
Q 2288 441 2617 861 
Q 2947 1281 2994 2138 
Q 2813 1869 2534 1725 
Q 2256 1581 1919 1581 
Q 1219 1581 811 2004 
Q 403 2428 403 3163 
Q 403 3881 828 4315 
Q 1253 4750 1959 4750 
Q 2769 4750 3195 4129 
Q 3622 3509 3622 2328 
Q 3622 1225 3098 567 
Q 2575 -91 1691 -91 
Q 1453 -91 1209 -44 
Q 966 3 703 97 
z
M 1959 2075 
Q 2384 2075 2632 2365 
Q 2881 2656 2881 3163 
Q 2881 3666 2632 3958 
Q 2384 4250 1959 4250 
Q 1534 4250 1286 3958 
Q 1038 3666 1038 3163 
Q 1038 2656 1286 2365 
Q 1534 2075 1959 2075 
z
" transform="scale(0.015625)"/>
      </defs>
      <use xlink:href="#DejaVuSans-45"/>
      <use xlink:href="#DejaVuSans-43" x="63.183594"/>
      <use xlink:href="#DejaVuSans-4d" x="133.007812"/>
      <use xlink:href="#DejaVuSans-32" x="219.287109"/>
      <use xlink:href="#DejaVuSans-34" x="282.910156"/>
      <use xlink:href="#DejaVuSans-31" x="346.533203"/>
      <use xlink:href="#DejaVuSans-39" x="410.15625"/>
     </g>
    </g>
   </g>
   <g id="text_10">
    <g clip-path="url(#p0b3331ac37)">
     <!-- ECM2433 -->
     <g transform="translate(134.104499 163.640558) scale(0.07 -0.07)">
      <use xlink:href="#DejaVuSans-45"/>
      <use xlink:href="#DejaVuSans-43" x="63.183594"/>
      <use xlink:href="#DejaVuSans-4d" x="133.007812"/>
      <use xlink:href="#DejaVuSans-32" x="219.287109"/>
      <use xlink:href="#DejaVuSans-34" x="282.910156"/>
      <use xlink:href="#DejaVuSans-33" x="346.533203"/>
      <use xlink:href="#DejaVuSans-33" x="410.15625"/>
     </g>
    </g>
   </g>
   <g id="text_11">
    <g clip-path="url(#p0b3331ac37)">
     <!-- ECM1414 -->
     <g transform="translate(230.208652 188.285331) scale(0.07 -0.07)">
      <use xlink:href="#DejaVuSans-45"/>
      <use xlink:href="#DejaVuSans-43" x="63.183594"/>
      <use xlink:href="#DejaVuSans-4d" x="133.007812"/>
      <use xlink:href="#DejaVuSans-31" x="219.287109"/>
      <use xlink:href="#DejaVuSans-34" x="282.910156"/>
      <use xlink:href="#DejaVuSans-31" x="346.533203"/>
      <use xlink:href="#DejaVuSans-34" x="410.15625"/>
     </g>
    </g>
   </g>
   <g id="text_12">
    <g clip-path="url(#p0b3331ac37)">
     <!-- ECM3401 -->
     <g transform="translate(147.263172 121.754125) scale(0.07 -0.07)">
      <use xlink:href="#DejaVuSans-45"/>
      <use xlink:href="#DejaVuSans-43" x="63.183594"/>
      <use xlink:href="#DejaVuSans-4d" x="133.007812"/>
      <use xlink:href="#DejaVuSans-33" x="219.287109"/>
      <use xlink:href="#DejaVuSans-34" x="282.910156"/>
      <use xlink:href="#DejaVuSans-30" x="346.533203"/>
      <use xlink:href="#DejaVuSans-31" x="410.15625"/>
     </g>
    </g>
   </g>
   <g id="text_13">
    <g clip-path="url(#p0b3331ac37)">
     <!-- MTH1001 -->
     <g transform="translate(344.921776 188.689038) scale(0.07 -0.07)">
      <use xlink:href="#DejaVuSans-4d"/>
      <use xlink:href="#DejaVuSans-54" x="86.279297"/>
      <use xlink:href="#DejaVuSans-48" x="147.363281"/>
      <use xlink:href="#DejaVuSans-31" x="222.558594"/>
      <use xlink:href="#DejaVuSans-30" x="286.181641"/>
      <use xlink:href="#DejaVuSans-30" x="349.804688"/>
      <use xlink:href="#DejaVuSans-31" x="413.427734"/>
     </g>
    </g>
   </g>
   <g id="text_14">
    <g clip-path="url(#p0b3331ac37)">
     <!-- ECM2414 -->
     <g transform="translate(161.464194 132.434278) scale(0.07 -0.07)">
      <use xlink:href="#DejaVuSans-45"/>
      <use xlink:href="#DejaVuSans-43" x="63.183594"/>
      <use xlink:href="#DejaVuSans-4d" x="133.007812"/>
      <use xlink:href="#DejaVuSans-32" x="219.287109"/>
      <use xlink:href="#DejaVuSans-34" x="282.910156"/>
      <use xlink:href="#DejaVuSans-31" x="346.533203"/>
      <use xlink:href="#DejaVuSans-34" x="410.15625"/>
     </g>
    </g>
   </g>
   <g id="text_15">
    <g clip-path="url(#p0b3331ac37)">
     <!-- ECM3423 -->
     <g transform="translate(97.965167 166.77731) scale(0.07 -0.07)">
      <use xlink:href="#DejaVuSans-45"/>
      <use xlink:href="#DejaVuSans-43" x="63.183594"/>
      <use xlink:href="#DejaVuSans-4d" x="133.007812"/>
      <use xlink:href="#DejaVuSans-33" x="219.287109"/>
      <use xlink:href="#DejaVuSans-34" x="282.910156"/>
      <use xlink:href="#DejaVuSans-32" x="346.533203"/>
      <use xlink:href="#DejaVuSans-33" x="410.15625"/>
     </g>
    </g>
   </g>
   <g id="text_16">
    <g clip-path="url(#p0b3331ac37)">
     <!-- MTH1002 -->
     <g transform="translate(318.575405 245.653488) scale(0.07 -0.07)">
      <use xlink:href="#DejaVuSans-4d"/>
      <use xlink:href="#DejaVuSans-54" x="86.279297"/>
      <use xlink:href="#DejaVuSans-48" x="147.363281"/>
      <use xlink:href="#DejaVuSans-31" x="222.558594"/>
      <use xlink:href="#DejaVuSans-30" x="286.181641"/>
      <use xlink:href="#DejaVuSans-30" x="349.804688"/>
      <use xlink:href="#DejaVuSans-32" x="413.427734"/>
     </g>
    </g>
   </g>
   <g id="text_17">
    <g clip-path="url(#p0b3331ac37)">
     <!-- MTH3019 -->
     <g transform="translate(366.787645 181.269422) scale(0.07 -0.07)">
      <use xlink:href="#DejaVuSans-4d"/>
      <use xlink:href="#DejaVuSans-54" x="86.279297"/>
      <use xlink:href="#DejaVuSans-48" x="147.363281"/>
      <use xlink:href="#DejaVuSans-33" x="222.558594"/>
      <use xlink:href="#DejaVuSans-30" x="286.181641"/>
      <use xlink:href="#DejaVuSans-31" x="349.804688"/>
      <use xlink:href="#DejaVuSans-39" x="413.427734"/>
     </g>
    </g>
   </g>
   <g id="text_18">
    <g clip-path="url(#p0b3331ac37)">
     <!-- ECM3408 -->
     <g transform="translate(206.213982 113.615321) scale(0.07 -0.07)">
      <use xlink:href="#DejaVuSans-45"/>
      <use xlink:href="#DejaVuSans-43" x="63.183594"/>
      <use xlink:href="#DejaVuSans-4d" x="133.007812"/>
      <use xlink:href="#DejaVuSans-33" x="219.287109"/>
      <use xlink:href="#DejaVuSans-34" x="282.910156"/>
      <use xlink:href="#DejaVuSans-30" x="346.533203"/>
      <use xlink:href="#DejaVuSans-38" x="410.15625"/>
     </g>
    </g>
   </g>
   <g id="text_19">
    <g clip-path="url(#p0b3331ac37)">
     <!-- ECM2434 -->
     <g transform="translate(169.033084 109.513579) scale(0.07 -0.07)">
      <use xlink:href="#DejaVuSans-45"/>
      <use xlink:href="#DejaVuSans-43" x="63.183594"/>
      <use xlink:href="#DejaVuSans-4d" x="133.007812"/>
      <use xlink:href="#DejaVuSans-32" x="219.287109"/>
      <use xlink:href="#DejaVuSans-34" x="282.910156"/>
      <use xlink:href="#DejaVuSans-33" x="346.533203"/>
      <use xlink:href="#DejaVuSans-34" x="410.15625"/>
     </g>
    </g>
   </g>
   <g id="text_20">
    <g clip-path="url(#p0b3331ac37)">
     <!-- ECM1400 -->
     <g transform="translate(177.370052 186.35534) scale(0.07 -0.07)">
      <use xlink:href="#DejaVuSans-45"/>
      <use xlink:href="#DejaVuSans-43" x="63.183594"/>
      <use xlink:href="#DejaVuSans-4d" x="133.007812"/>
      <use xlink:href="#DejaVuSans-31" x="219.287109"/>
      <use xlink:href="#DejaVuSans-34" x="282.910156"/>
      <use xlink:href="#DejaVuSans-30" x="346.533203"/>
      <use xlink:href="#DejaVuSans-30" x="410.15625"/>
     </g>
    </g>
   </g>
   <g id="text_21">
    <g clip-path="url(#p0b3331ac37)">
     <!-- 68N18 -->
     <g transform="translate(232.323559 269.368231) scale(0.07 -0.07)">
      <defs>
       <path id="DejaVuSans-36" d="M 2113 2584 
Q 1688 2584 1439 2293 
Q 1191 2003 1191 1497 
Q 1191 994 1439 701 
Q 1688 409 2113 409 
Q 2538 409 2786 701 
Q 3034 994 3034 1497 
Q 3034 2003 2786 2293 
Q 2538 2584 2113 2584 
z
M 3366 4563 
L 3366 3988 
Q 3128 4100 2886 4159 
Q 2644 4219 2406 4219 
Q 1781 4219 1451 3797 
Q 1122 3375 1075 2522 
Q 1259 2794 1537 2939 
Q 1816 3084 2150 3084 
Q 2853 3084 3261 2657 
Q 3669 2231 3669 1497 
Q 3669 778 3244 343 
Q 2819 -91 2113 -91 
Q 1303 -91 875 529 
Q 447 1150 447 2328 
Q 447 3434 972 4092 
Q 1497 4750 2381 4750 
Q 2619 4750 2861 4703 
Q 3103 4656 3366 4563 
z
" transform="scale(0.015625)"/>
       <path id="DejaVuSans-4e" d="M 628 4666 
L 1478 4666 
L 3547 763 
L 3547 4666 
L 4159 4666 
L 4159 0 
L 3309 0 
L 1241 3903 
L 1241 0 
L 628 0 
L 628 4666 
z
" transform="scale(0.015625)"/>
      </defs>
      <use xlink:href="#DejaVuSans-36"/>
      <use xlink:href="#DejaVuSans-38" x="63.623047"/>
      <use xlink:href="#DejaVuSans-4e" x="127.246094"/>
      <use xlink:href="#DejaVuSans-31" x="202.050781"/>
      <use xlink:href="#DejaVuSans-38" x="265.673828"/>
     </g>
    </g>
   </g>
   <g id="text_22">
    <g clip-path="url(#p0b3331ac37)">
     <!-- 68N17 -->
     <g transform="translate(243.430964 254.973465) scale(0.07 -0.07)">
      <defs>
       <path id="DejaVuSans-37" d="M 525 4666 
L 3525 4666 
L 3525 4397 
L 1831 0 
L 1172 0 
L 2766 4134 
L 525 4134 
L 525 4666 
z
" transform="scale(0.015625)"/>
      </defs>
      <use xlink:href="#DejaVuSans-36"/>
      <use xlink:href="#DejaVuSans-38" x="63.623047"/>
      <use xlink:href="#DejaVuSans-4e" x="127.246094"/>
      <use xlink:href="#DejaVuSans-31" x="202.050781"/>
      <use xlink:href="#DejaVuSans-37" x="265.673828"/>
     </g>
    </g>
   </g>
   <g id="text_23">
    <g clip-path="url(#p0b3331ac37)">
     <!-- 68Q45 -->
     <g transform="translate(188.06168 250.012881) scale(0.07 -0.07)">
      <defs>
       <path id="DejaVuSans-51" d="M 2522 4238 
Q 1834 4238 1429 3725 
Q 1025 3213 1025 2328 
Q 1025 1447 1429 934 
Q 1834 422 2522 422 
Q 3209 422 3611 934 
Q 4013 1447 4013 2328 
Q 4013 3213 3611 3725 
Q 3209 4238 2522 4238 
z
M 3406 84 
L 4238 -825 
L 3475 -825 
L 2784 -78 
Q 2681 -84 2626 -87 
Q 2572 -91 2522 -91 
Q 1538 -91 948 567 
Q 359 1225 359 2328 
Q 359 3434 948 4092 
Q 1538 4750 2522 4750 
Q 3503 4750 4090 4092 
Q 4678 3434 4678 2328 
Q 4678 1516 4351 937 
Q 4025 359 3406 84 
z
" transform="scale(0.015625)"/>
       <path id="DejaVuSans-35" d="M 691 4666 
L 3169 4666 
L 3169 4134 
L 1269 4134 
L 1269 2991 
Q 1406 3038 1543 3061 
Q 1681 3084 1819 3084 
Q 2600 3084 3056 2656 
Q 3513 2228 3513 1497 
Q 3513 744 3044 326 
Q 2575 -91 1722 -91 
Q 1428 -91 1123 -41 
Q 819 9 494 109 
L 494 744 
Q 775 591 1075 516 
Q 1375 441 1709 441 
Q 2250 441 2565 725 
Q 2881 1009 2881 1497 
Q 2881 1984 2565 2268 
Q 2250 2553 1709 2553 
Q 1456 2553 1204 2497 
Q 953 2441 691 2322 
L 691 4666 
z
" transform="scale(0.015625)"/>
      </defs>
      <use xlink:href="#DejaVuSans-36"/>
      <use xlink:href="#DejaVuSans-38" x="63.623047"/>
      <use xlink:href="#DejaVuSans-51" x="127.246094"/>
      <use xlink:href="#DejaVuSans-34" x="205.957031"/>
      <use xlink:href="#DejaVuSans-35" x="269.580078"/>
     </g>
    </g>
   </g>
   <g id="text_24">
    <g clip-path="url(#p0b3331ac37)">
     <!-- 68Q70 -->
     <g transform="translate(236.905266 238.759495) scale(0.07 -0.07)">
      <use xlink:href="#DejaVuSans-36"/>
      <use xlink:href="#DejaVuSans-38" x="63.623047"/>
      <use xlink:href="#DejaVuSans-51" x="127.246094"/>
      <use xlink:href="#DejaVuSans-37" x="205.957031"/>
      <use xlink:href="#DejaVuSans-30" x="269.580078"/>
     </g>
    </g>
   </g>
   <g id="text_25">
    <g clip-path="url(#p0b3331ac37)">
     <!-- 68Q80 -->
     <g transform="translate(211.965536 266.54643) scale(0.07 -0.07)">
      <use xlink:href="#DejaVuSans-36"/>
      <use xlink:href="#DejaVuSans-38" x="63.623047"/>
      <use xlink:href="#DejaVuSans-51" x="127.246094"/>
      <use xlink:href="#DejaVuSans-38" x="205.957031"/>
      <use xlink:href="#DejaVuSans-30" x="269.580078"/>
     </g>
    </g>
   </g>
   <g id="text_26">
    <g clip-path="url(#p0b3331ac37)">
     <!-- 68N19 -->
     <g transform="translate(175.921079 162.672427) scale(0.07 -0.07)">
      <use xlink:href="#DejaVuSans-36"/>
      <use xlink:href="#DejaVuSans-38" x="63.623047"/>
      <use xlink:href="#DejaVuSans-4e" x="127.246094"/>
      <use xlink:href="#DejaVuSans-31" x="202.050781"/>
      <use xlink:href="#DejaVuSans-39" x="265.673828"/>
     </g>
    </g>
   </g>
   <g id="text_27">
    <g clip-path="url(#p0b3331ac37)">
     <!-- 68T01 -->
     <g transform="translate(155.320987 252.880589) scale(0.07 -0.07)">
      <use xlink:href="#DejaVuSans-36"/>
      <use xlink:href="#DejaVuSans-38" x="63.623047"/>
      <use xlink:href="#DejaVuSans-54" x="127.246094"/>
      <use xlink:href="#DejaVuSans-30" x="188.330078"/>
      <use xlink:href="#DejaVuSans-31" x="251.953125"/>
     </g>
    </g>
   </g>
   <g id="text_28">
    <g clip-path="url(#p0b3331ac37)">
     <!-- 68T07 -->
     <g transform="translate(111.825168 212.648883) scale(0.07 -0.07)">
      <use xlink:href="#DejaVuSans-36"/>
      <use xlink:href="#DejaVuSans-38" x="63.623047"/>
      <use xlink:href="#DejaVuSans-54" x="127.246094"/>
      <use xlink:href="#DejaVuSans-30" x="188.330078"/>
      <use xlink:href="#DejaVuSans-37" x="251.953125"/>
     </g>
    </g>
   </g>
   <g id="text_29">
    <g clip-path="url(#p0b3331ac37)">
     <!-- 68T09 -->
     <g transform="translate(128.645044 246.33251) scale(0.07 -0.07)">
      <use xlink:href="#DejaVuSans-36"/>
      <use xlink:href="#DejaVuSans-38" x="63.623047"/>
      <use xlink:href="#DejaVuSans-54" x="127.246094"/>
      <use xlink:href="#DejaVuSans-30" x="188.330078"/>
      <use xlink:href="#DejaVuSans-39" x="251.953125"/>
     </g>
    </g>
   </g>
   <g id="text_30">
    <g clip-path="url(#p0b3331ac37)">
     <!-- 62H30 -->
     <g transform="translate(99.475666 226.473998) scale(0.07 -0.07)">
      <use xlink:href="#DejaVuSans-36"/>
      <use xlink:href="#DejaVuSans-32" x="63.623047"/>
      <use xlink:href="#DejaVuSans-48" x="127.246094"/>
      <use xlink:href="#DejaVuSans-33" x="202.441406"/>
      <use xlink:href="#DejaVuSans-30" x="266.064453"/>
     </g>
    </g>
   </g>
   <g id="text_31">
    <g clip-path="url(#p0b3331ac37)">
     <!-- 62H20 -->
     <g transform="translate(107.905282 241.910323) scale(0.07 -0.07)">
      <use xlink:href="#DejaVuSans-36"/>
      <use xlink:href="#DejaVuSans-32" x="63.623047"/>
      <use xlink:href="#DejaVuSans-48" x="127.246094"/>
      <use xlink:href="#DejaVuSans-32" x="202.441406"/>
      <use xlink:href="#DejaVuSans-30" x="266.064453"/>
     </g>
    </g>
   </g>
   <g id="text_32">
    <g clip-path="url(#p0b3331ac37)">
     <!-- 68T27 -->
     <g transform="translate(171.043331 293.501702) scale(0.07 -0.07)">
      <use xlink:href="#DejaVuSans-36"/>
      <use xlink:href="#DejaVuSans-38" x="63.623047"/>
      <use xlink:href="#DejaVuSans-54" x="127.246094"/>
      <use xlink:href="#DejaVuSans-32" x="188.330078"/>
      <use xlink:href="#DejaVuSans-37" x="251.953125"/>
     </g>
    </g>
   </g>
   <g id="text_33">
    <g clip-path="url(#p0b3331ac37)">
     <!-- 68T05 -->
     <g transform="translate(199.933455 296.173506) scale(0.07 -0.07)">
      <use xlink:href="#DejaVuSans-36"/>
      <use xlink:href="#DejaVuSans-38" x="63.623047"/>
      <use xlink:href="#DejaVuSans-54" x="127.246094"/>
      <use xlink:href="#DejaVuSans-30" x="188.330078"/>
      <use xlink:href="#DejaVuSans-35" x="251.953125"/>
     </g>
    </g>
   </g>
   <g id="text_34">
    <g clip-path="url(#p0b3331ac37)">
     <!-- 68M10 -->
     <g transform="translate(235.841524 99.815463) scale(0.07 -0.07)">
      <use xlink:href="#DejaVuSans-36"/>
      <use xlink:href="#DejaVuSans-38" x="63.623047"/>
      <use xlink:href="#DejaVuSans-4d" x="127.246094"/>
      <use xlink:href="#DejaVuSans-31" x="213.525391"/>
      <use xlink:href="#DejaVuSans-30" x="277.148438"/>
     </g>
    </g>
   </g>
   <g id="text_35">
    <g clip-path="url(#p0b3331ac37)">
     <!-- 68M12 -->
     <g transform="translate(279.65131 107.980301) scale(0.07 -0.07)">
      <use xlink:href="#DejaVuSans-36"/>
      <use xlink:href="#DejaVuSans-38" x="63.623047"/>
      <use xlink:href="#DejaVuSans-4d" x="127.246094"/>
      <use xlink:href="#DejaVuSans-31" x="213.525391"/>
      <use xlink:href="#DejaVuSans-32" x="277.148438"/>
     </g>
    </g>
   </g>
   <g id="text_36">
    <g clip-path="url(#p0b3331ac37)">
     <!-- 68P15 -->
     <g transform="translate(260.070645 139.801623) scale(0.07 -0.07)">
      <defs>
       <path id="DejaVuSans-50" d="M 1259 4147 
L 1259 2394 
L 2053 2394 
Q 2494 2394 2734 2622 
Q 2975 2850 2975 3272 
Q 2975 3691 2734 3919 
Q 2494 4147 2053 4147 
L 1259 4147 
z
M 628 4666 
L 2053 4666 
Q 2838 4666 3239 4311 
Q 3641 3956 3641 3272 
Q 3641 2581 3239 2228 
Q 2838 1875 2053 1875 
L 1259 1875 
L 1259 0 
L 628 0 
L 628 4666 
z
" transform="scale(0.015625)"/>
      </defs>
      <use xlink:href="#DejaVuSans-36"/>
      <use xlink:href="#DejaVuSans-38" x="63.623047"/>
      <use xlink:href="#DejaVuSans-50" x="127.246094"/>
      <use xlink:href="#DejaVuSans-31" x="187.548828"/>
      <use xlink:href="#DejaVuSans-35" x="251.171875"/>
     </g>
    </g>
   </g>
   <g id="text_37">
    <g clip-path="url(#p0b3331ac37)">
     <!-- 68P10 -->
     <g transform="translate(241.987192 164.679575) scale(0.07 -0.07)">
      <use xlink:href="#DejaVuSans-36"/>
      <use xlink:href="#DejaVuSans-38" x="63.623047"/>
      <use xlink:href="#DejaVuSans-50" x="127.246094"/>
      <use xlink:href="#DejaVuSans-31" x="187.548828"/>
      <use xlink:href="#DejaVuSans-30" x="251.171875"/>
     </g>
    </g>
   </g>
   <g id="text_38">
    <g clip-path="url(#p0b3331ac37)">
     <!-- 68N99 -->
     <g transform="translate(122.597732 131.658416) scale(0.07 -0.07)">
      <use xlink:href="#DejaVuSans-36"/>
      <use xlink:href="#DejaVuSans-38" x="63.623047"/>
      <use xlink:href="#DejaVuSans-4e" x="127.246094"/>
      <use xlink:href="#DejaVuSans-39" x="202.050781"/>
      <use xlink:href="#DejaVuSans-39" x="265.673828"/>
     </g>
    </g>
   </g>
   <g id="text_39">
    <g clip-path="url(#p0b3331ac37)">
     <!-- 68-04 -->
     <g transform="translate(138.155704 140.619587) scale(0.07 -0.07)">
      <defs>
       <path id="DejaVuSans-2d" d="M 313 2009 
L 1997 2009 
L 1997 1497 
L 313 1497 
L 313 2009 
z
" transform="scale(0.015625)"/>
      </defs>
      <use xlink:href="#DejaVuSans-36"/>
      <use xlink:href="#DejaVuSans-38" x="63.623047"/>
      <use xlink:href="#DejaVuSans-2d" x="127.246094"/>
      <use xlink:href="#DejaVuSans-30" x="163.330078"/>
      <use xlink:href="#DejaVuSans-34" x="226.953125"/>
     </g>
    </g>
   </g>
   <g id="text_40">
    <g clip-path="url(#p0b3331ac37)">
     <!-- 68N01 -->
     <g transform="translate(150.916783 187.294604) scale(0.07 -0.07)">
      <use xlink:href="#DejaVuSans-36"/>
      <use xlink:href="#DejaVuSans-38" x="63.623047"/>
      <use xlink:href="#DejaVuSans-4e" x="127.246094"/>
      <use xlink:href="#DejaVuSans-30" x="202.050781"/>
      <use xlink:href="#DejaVuSans-31" x="265.673828"/>
     </g>
    </g>
   </g>
   <g id="text_41">
    <g clip-path="url(#p0b3331ac37)">
     <!-- 68P05 -->
     <g transform="translate(269.536656 180.207721) scale(0.07 -0.07)">
      <use xlink:href="#DejaVuSans-36"/>
      <use xlink:href="#DejaVuSans-38" x="63.623047"/>
      <use xlink:href="#DejaVuSans-50" x="127.246094"/>
      <use xlink:href="#DejaVuSans-30" x="187.548828"/>
      <use xlink:href="#DejaVuSans-35" x="251.171875"/>
     </g>
    </g>
   </g>
   <g id="text_42">
    <g clip-path="url(#p0b3331ac37)">
     <!-- 68Q25 -->
     <g transform="translate(243.381885 208.601103) scale(0.07 -0.07)">
      <use xlink:href="#DejaVuSans-36"/>
      <use xlink:href="#DejaVuSans-38" x="63.623047"/>
      <use xlink:href="#DejaVuSans-51" x="127.246094"/>
      <use xlink:href="#DejaVuSans-32" x="205.957031"/>
      <use xlink:href="#DejaVuSans-35" x="269.580078"/>
     </g>
    </g>
   </g>
   <g id="text_43">
    <g clip-path="url(#p0b3331ac37)">
     <!-- 68W01 -->
     <g transform="translate(266.243952 201.104977) scale(0.07 -0.07)">
      <defs>
       <path id="DejaVuSans-57" d="M 213 4666 
L 850 4666 
L 1831 722 
L 2809 4666 
L 3519 4666 
L 4500 722 
L 5478 4666 
L 6119 4666 
L 4947 0 
L 4153 0 
L 3169 4050 
L 2175 0 
L 1381 0 
L 213 4666 
z
" transform="scale(0.015625)"/>
      </defs>
      <use xlink:href="#DejaVuSans-36"/>
      <use xlink:href="#DejaVuSans-38" x="63.623047"/>
      <use xlink:href="#DejaVuSans-57" x="127.246094"/>
      <use xlink:href="#DejaVuSans-30" x="226.123047"/>
      <use xlink:href="#DejaVuSans-31" x="289.746094"/>
     </g>
    </g>
   </g>
   <g id="text_44">
    <g clip-path="url(#p0b3331ac37)">
     <!-- 68N15 -->
     <g transform="translate(176.365687 149.488415) scale(0.07 -0.07)">
      <use xlink:href="#DejaVuSans-36"/>
      <use xlink:href="#DejaVuSans-38" x="63.623047"/>
      <use xlink:href="#DejaVuSans-4e" x="127.246094"/>
      <use xlink:href="#DejaVuSans-31" x="202.050781"/>
      <use xlink:href="#DejaVuSans-35" x="265.673828"/>
     </g>
    </g>
   </g>
   <g id="text_45">
    <g clip-path="url(#p0b3331ac37)">
     <!-- 68M14 -->
     <g transform="translate(189.089243 104.548867) scale(0.07 -0.07)">
      <use xlink:href="#DejaVuSans-36"/>
      <use xlink:href="#DejaVuSans-38" x="63.623047"/>
      <use xlink:href="#DejaVuSans-4d" x="127.246094"/>
      <use xlink:href="#DejaVuSans-31" x="213.525391"/>
      <use xlink:href="#DejaVuSans-34" x="277.148438"/>
     </g>
    </g>
   </g>
   <g id="text_46">
    <g clip-path="url(#p0b3331ac37)">
     <!-- 65D18 -->
     <g transform="translate(78.31443 154.908575) scale(0.07 -0.07)">
      <defs>
       <path id="DejaVuSans-44" d="M 1259 4147 
L 1259 519 
L 2022 519 
Q 2988 519 3436 956 
Q 3884 1394 3884 2338 
Q 3884 3275 3436 3711 
Q 2988 4147 2022 4147 
L 1259 4147 
z
M 628 4666 
L 1925 4666 
Q 3281 4666 3915 4102 
Q 4550 3538 4550 2338 
Q 4550 1131 3912 565 
Q 3275 0 1925 0 
L 628 0 
L 628 4666 
z
" transform="scale(0.015625)"/>
      </defs>
      <use xlink:href="#DejaVuSans-36"/>
      <use xlink:href="#DejaVuSans-35" x="63.623047"/>
      <use xlink:href="#DejaVuSans-44" x="127.246094"/>
      <use xlink:href="#DejaVuSans-31" x="204.248047"/>
      <use xlink:href="#DejaVuSans-38" x="267.871094"/>
     </g>
    </g>
   </g>
   <g id="text_47">
    <g clip-path="url(#p0b3331ac37)">
     <!-- 68U05 -->
     <g transform="translate(77.366105 179.963858) scale(0.07 -0.07)">
      <defs>
       <path id="DejaVuSans-55" d="M 556 4666 
L 1191 4666 
L 1191 1831 
Q 1191 1081 1462 751 
Q 1734 422 2344 422 
Q 2950 422 3222 751 
Q 3494 1081 3494 1831 
L 3494 4666 
L 4128 4666 
L 4128 1753 
Q 4128 841 3676 375 
Q 3225 -91 2344 -91 
Q 1459 -91 1007 375 
Q 556 841 556 1753 
L 556 4666 
z
" transform="scale(0.015625)"/>
      </defs>
      <use xlink:href="#DejaVuSans-36"/>
      <use xlink:href="#DejaVuSans-38" x="63.623047"/>
      <use xlink:href="#DejaVuSans-55" x="127.246094"/>
      <use xlink:href="#DejaVuSans-30" x="200.439453"/>
      <use xlink:href="#DejaVuSans-35" x="264.0625"/>
     </g>
    </g>
   </g>
   <g id="text_48">
    <g clip-path="url(#p0b3331ac37)">
     <!-- MTH1004 -->
     <g transform="translate(117.257065 288.069727) scale(0.07 -0.07)">
      <use xlink:href="#DejaVuSans-4d"/>
      <use xlink:href="#DejaVuSans-54" x="86.279297"/>
      <use xlink:href="#DejaVuSans-48" x="147.363281"/>
      <use xlink:href="#DejaVuSans-31" x="222.558594"/>
      <use xlink:href="#DejaVuSans-30" x="286.181641"/>
      <use xlink:href="#DejaVuSans-30" x="349.804688"/>
      <use xlink:href="#DejaVuSans-34" x="413.427734"/>
     </g>
    </g>
   </g>
   <g id="text_49">
    <g clip-path="url(#p0b3331ac37)">
     <!-- MTH2003 -->
     <g transform="translate(300.517187 267.689858) scale(0.07 -0.07)">
      <use xlink:href="#DejaVuSans-4d"/>
      <use xlink:href="#DejaVuSans-54" x="86.279297"/>
      <use xlink:href="#DejaVuSans-48" x="147.363281"/>
      <use xlink:href="#DejaVuSans-32" x="222.558594"/>
      <use xlink:href="#DejaVuSans-30" x="286.181641"/>
      <use xlink:href="#DejaVuSans-30" x="349.804688"/>
      <use xlink:href="#DejaVuSans-33" x="413.427734"/>
     </g>
    </g>
   </g>
   <g id="text_50">
    <g clip-path="url(#p0b3331ac37)">
     <!-- MTH2009 -->
     <g transform="translate(319.326278 111.879672) scale(0.07 -0.07)">
      <use xlink:href="#DejaVuSans-4d"/>
      <use xlink:href="#DejaVuSans-54" x="86.279297"/>
      <use xlink:href="#DejaVuSans-48" x="147.363281"/>
      <use xlink:href="#DejaVuSans-32" x="222.558594"/>
      <use xlink:href="#DejaVuSans-30" x="286.181641"/>
      <use xlink:href="#DejaVuSans-30" x="349.804688"/>
      <use xlink:href="#DejaVuSans-39" x="413.427734"/>
     </g>
    </g>
   </g>
   <g id="text_51">
    <g clip-path="url(#p0b3331ac37)">
     <!-- MTH1003 -->
     <g transform="translate(261.262077 76.745619) scale(0.07 -0.07)">
      <use xlink:href="#DejaVuSans-4d"/>
      <use xlink:href="#DejaVuSans-54" x="86.279297"/>
      <use xlink:href="#DejaVuSans-48" x="147.363281"/>
      <use xlink:href="#DejaVuSans-31" x="222.558594"/>
      <use xlink:href="#DejaVuSans-30" x="286.181641"/>
      <use xlink:href="#DejaVuSans-30" x="349.804688"/>
      <use xlink:href="#DejaVuSans-33" x="413.427734"/>
     </g>
    </g>
   </g>
   <g id="text_52">
    <g clip-path="url(#p0b3331ac37)">
     <!-- MTH3035 -->
     <g transform="translate(359.677495 238.618087) scale(0.07 -0.07)">
      <use xlink:href="#DejaVuSans-4d"/>
      <use xlink:href="#DejaVuSans-54" x="86.279297"/>
      <use xlink:href="#DejaVuSans-48" x="147.363281"/>
      <use xlink:href="#DejaVuSans-33" x="222.558594"/>
      <use xlink:href="#DejaVuSans-30" x="286.181641"/>
      <use xlink:href="#DejaVuSans-33" x="349.804688"/>
      <use xlink:href="#DejaVuSans-35" x="413.427734"/>
     </g>
    </g>
   </g>
   <g id="text_53">
    <g clip-path="url(#p0b3331ac37)">
     <!-- MTH2010 -->
     <g transform="translate(342.257756 162.108096) scale(0.07 -0.07)">
      <use xlink:href="#DejaVuSans-4d"/>
      <use xlink:href="#DejaVuSans-54" x="86.279297"/>
      <use xlink:href="#DejaVuSans-48" x="147.363281"/>
      <use xlink:href="#DejaVuSans-32" x="222.558594"/>
      <use xlink:href="#DejaVuSans-30" x="286.181641"/>
      <use xlink:href="#DejaVuSans-31" x="349.804688"/>
      <use xlink:href="#DejaVuSans-30" x="413.427734"/>
     </g>
    </g>
   </g>
   <g id="text_54">
    <g clip-path="url(#p0b3331ac37)">
     <!-- MTH3004 -->
     <g transform="translate(337.664103 142.605344) scale(0.07 -0.07)">
      <use xlink:href="#DejaVuSans-4d"/>
      <use xlink:href="#DejaVuSans-54" x="86.279297"/>
      <use xlink:href="#DejaVuSans-48" x="147.363281"/>
      <use xlink:href="#DejaVuSans-33" x="222.558594"/>
      <use xlink:href="#DejaVuSans-30" x="286.181641"/>
      <use xlink:href="#DejaVuSans-30" x="349.804688"/>
      <use xlink:href="#DejaVuSans-34" x="413.427734"/>
     </g>
    </g>
   </g>
   <g id="text_55">
    <g clip-path="url(#p0b3331ac37)">
     <!-- MTH3042 -->
     <g transform="translate(288.161552 285.943107) scale(0.07 -0.07)">
      <use xlink:href="#DejaVuSans-4d"/>
      <use xlink:href="#DejaVuSans-54" x="86.279297"/>
      <use xlink:href="#DejaVuSans-48" x="147.363281"/>
      <use xlink:href="#DejaVuSans-33" x="222.558594"/>
      <use xlink:href="#DejaVuSans-30" x="286.181641"/>
      <use xlink:href="#DejaVuSans-34" x="349.804688"/>
      <use xlink:href="#DejaVuSans-32" x="413.427734"/>
     </g>
    </g>
   </g>
   <g id="text_56">
    <g clip-path="url(#p0b3331ac37)">
     <!-- MTH2004 -->
     <g transform="translate(328.582533 262.147125) scale(0.07 -0.07)">
      <use xlink:href="#DejaVuSans-4d"/>
      <use xlink:href="#DejaVuSans-54" x="86.279297"/>
      <use xlink:href="#DejaVuSans-48" x="147.363281"/>
      <use xlink:href="#DejaVuSans-32" x="222.558594"/>
      <use xlink:href="#DejaVuSans-30" x="286.181641"/>
      <use xlink:href="#DejaVuSans-30" x="349.804688"/>
      <use xlink:href="#DejaVuSans-34" x="413.427734"/>
     </g>
    </g>
   </g>
   <g id="matplotlib.axis_1"/>
   <g id="matplotlib.axis_2"/>
  </g>
 </g>
 <defs>
  <clipPath id="p0b3331ac37">
   <rect x="57.6" y="41.472" width="357.12" height="266.112"/>
  </clipPath>
 </defs>
</svg>
