<?xml version="1.0" encoding="utf-8" standalone="no"?>
<!DOCTYPE svg PUBLIC "-//W3C//DTD SVG 1.1//EN"
  "http://www.w3.org/Graphics/SVG/1.1/DTD/svg11.dtd">
<svg xmlns:xlink="http://www.w3.org/1999/xlink" width="460.8pt" height="345.6pt" viewBox="0 0 460.8 345.6" xmlns="http://www.w3.org/2000/svg" version="1.1">
 <metadata>
  <rdf:RDF xmlns:dc="http://purl.org/dc/elements/1.1/" xmlns:cc="http://creativecommons.org/ns#" xmlns:rdf="http://www.w3.org/1999/02/22-rdf-syntax-ns#">
   <cc:Work>
    <dc:type rdf:resource="http://purl.org/dc/dcmitype/StillImage"/>
    <dc:date>2024-05-02T14:47:51.316255</dc:date>
    <dc:format>image/svg+xml</dc:format>
    <dc:creator>
     <cc:Agent>
      <dc:title>Matplotlib v3.8.3, https://matplotlib.org/</dc:title>
     </cc:Agent>
    </dc:creator>
   </cc:Work>
  </rdf:RDF>
 </metadata>
 <defs>
  <style type="text/css">*{stroke-linejoin: round; stroke-linecap: butt}</style>
 </defs>
 <g id="figure_1">
  <g id="patch_1">
   <path d="M 0 345.6 
L 460.8 345.6 
L 460.8 0 
L 0 0 
L 0 345.6 
z
" style="fill: none"/>
  </g>
  <g id="axes_1">
   <g id="patch_2">
    <path d="M 57.6 307.584 
L 414.72 307.584 
L 414.72 41.472 
L 57.6 41.472 
L 57.6 307.584 
z
" style="fill: none"/>
   </g>
   <g id="EdgeCollection_1">
    <path d="M 180.859895 127.290903 
L 132.393399 125.924925 
L 180.859895 127.290903 
L 180.902154 125.791499 
L 183.858704 127.375422 
L 180.817636 128.790308 
L 180.859895 127.290903 
" clip-path="url(#pc310a8dc60)" style="fill: #444444; stroke: #444444; stroke-width: 1.5"/>
    <path d="M 233.80092 243.740159 
L 218.093082 232.941622 
L 233.80092 243.740159 
L 234.650681 242.504074 
L 236.27309 245.439681 
L 232.951159 244.976244 
L 233.80092 243.740159 
" clip-path="url(#pc310a8dc60)" style="fill: #444444; stroke: #444444; stroke-width: 1.5"/>
    <path d="M 181.002824 129.038233 
L 156.84308 133.719969 
L 181.002824 129.038233 
L 180.717459 127.565628 
L 183.948035 128.467503 
L 181.288189 130.510839 
L 181.002824 129.038233 
" clip-path="url(#pc310a8dc60)" style="fill: #444444; stroke: #444444; stroke-width: 1.5"/>
    <path d="M 193.634144 133.933155 
L 206.892352 151.741114 
L 193.634144 133.933155 
L 192.430981 134.828922 
L 191.84261 131.526829 
L 194.837307 133.037388 
L 193.634144 133.933155 
" clip-path="url(#pc310a8dc60)" style="fill: #444444; stroke: #444444; stroke-width: 1.5"/>
    <path d="M 119.652807 127.797143 
L 93.771567 134.526305 
L 119.652807 127.797143 
L 119.275354 126.34541 
L 122.556273 127.042238 
L 120.03026 129.248876 
L 119.652807 127.797143 
" clip-path="url(#pc310a8dc60)" style="fill: #444444; stroke: #444444; stroke-width: 1.5"/>
    <path d="M 246.809734 243.49411 
L 279.87446 218.871614 
L 246.809734 243.49411 
L 247.70563 244.697178 
L 244.403599 245.2859 
L 245.913839 242.291042 
L 246.809734 243.49411 
" clip-path="url(#pc310a8dc60)" style="fill: #444444; stroke: #444444; stroke-width: 1.5"/>
    <path d="M 331.958156 185.210716 
L 288.099719 213.195781 
L 331.958156 185.210716 
L 331.151301 183.946206 
L 334.487175 183.597006 
L 332.76501 186.475225 
L 331.958156 185.210716 
" clip-path="url(#pc310a8dc60)" style="fill: #444444; stroke: #444444; stroke-width: 1.5"/>
    <path d="M 275.887764 216.107215 
L 249.771428 216.831957 
L 275.887764 216.107215 
L 275.846155 214.607792 
L 278.88661 216.023996 
L 275.929374 217.606638 
L 275.887764 216.107215 
" clip-path="url(#pc310a8dc60)" style="fill: #444444; stroke: #444444; stroke-width: 1.5"/>
    <path d="M 221.331295 226.97021 
L 240.174292 218.932453 
L 221.331295 226.97021 
L 221.919834 228.349928 
L 218.571859 228.147288 
L 220.742756 225.590492 
L 221.331295 226.97021 
" clip-path="url(#pc310a8dc60)" style="fill: #444444; stroke: #444444; stroke-width: 1.5"/>
    <path d="M 267.295516 81.956318 
L 238.881015 92.003427 
L 267.295516 81.956318 
L 266.795468 80.542121 
L 270.123909 80.956223 
L 267.795563 83.370514 
L 267.295516 81.956318 
" clip-path="url(#pc310a8dc60)" style="fill: #444444; stroke: #444444; stroke-width: 1.5"/>
    <path d="M 195.265989 122.728669 
L 230.161232 96.662511 
L 195.265989 122.728669 
L 196.163667 123.930407 
L 192.862513 124.524025 
L 194.368311 121.526931 
L 195.265989 122.728669 
" clip-path="url(#pc310a8dc60)" style="fill: #444444; stroke: #444444; stroke-width: 1.5"/>
    <path d="M 156.785878 141.032248 
L 164.891944 151.660584 
L 156.785878 141.032248 
L 155.593179 141.941901 
L 154.966572 138.64685 
L 157.978578 140.122595 
L 156.785878 141.032248 
" clip-path="url(#pc310a8dc60)" style="fill: #444444; stroke: #444444; stroke-width: 1.5"/>
    <path d="M 184.079735 133.933483 
L 170.909737 151.625499 
L 184.079735 133.933483 
L 182.876511 133.037798 
L 185.871104 131.527034 
L 185.28296 134.829167 
L 184.079735 133.933483 
" clip-path="url(#pc310a8dc60)" style="fill: #444444; stroke: #444444; stroke-width: 1.5"/>
    <path d="M 196.852727 127.263579 
L 226.083421 126.33977 
L 196.852727 127.263579 
L 196.90011 128.76283 
L 193.854224 127.358344 
L 196.805345 125.764328 
L 196.852727 127.263579 
" clip-path="url(#pc310a8dc60)" style="fill: #444444; stroke: #444444; stroke-width: 1.5"/>
    <path d="M 157.412772 86.136082 
L 155.971144 73.423252 
L 157.412772 86.136082 
L 158.90322 85.967066 
L 157.750804 89.116977 
L 155.922325 86.305098 
L 157.412772 86.136082 
" clip-path="url(#pc310a8dc60)" style="fill: #444444; stroke: #444444; stroke-width: 1.5"/>
    <path d="M 179.498351 68.759904 
L 160.407357 68.518352 
L 179.498351 68.759904 
L 179.517328 67.260024 
L 182.498111 68.797859 
L 179.479373 70.259784 
L 179.498351 68.759904 
" clip-path="url(#pc310a8dc60)" style="fill: #444444; stroke: #444444; stroke-width: 1.5"/>
    <path d="M 153.176676 126.768229 
L 157.537765 99.024484 
L 153.176676 126.768229 
L 154.65848 127.001156 
L 152.710821 129.731838 
L 151.694871 126.535301 
L 153.176676 126.768229 
" clip-path="url(#pc310a8dc60)" style="fill: #444444; stroke: #444444; stroke-width: 1.5"/>
    <path d="M 146.413053 140.460381 
L 126.090196 161.769149 
L 146.413053 140.460381 
L 145.327579 139.42513 
L 148.483557 138.289433 
L 147.498527 141.495633 
L 146.413053 140.460381 
" clip-path="url(#pc310a8dc60)" style="fill: #444444; stroke: #444444; stroke-width: 1.5"/>
    <path d="M 323.163375 156.441223 
L 336.02159 176.686792 
L 323.163375 156.441223 
L 321.897166 157.245409 
L 321.555004 153.908805 
L 324.429584 155.637038 
L 323.163375 156.441223 
" clip-path="url(#pc310a8dc60)" style="fill: #444444; stroke: #444444; stroke-width: 1.5"/>
    <path d="M 367.60016 158.453206 
L 342.650419 177.839651 
L 367.60016 158.453206 
L 366.679808 157.268743 
L 369.969086 156.612503 
L 368.520511 159.637669 
L 367.60016 158.453206 
" clip-path="url(#pc310a8dc60)" style="fill: #444444; stroke: #444444; stroke-width: 1.5"/>
    <path d="M 365.824929 196.520194 
L 343.035556 183.401903 
L 365.824929 196.520194 
L 366.573253 195.220189 
L 368.424937 198.016842 
L 365.076605 197.820198 
L 365.824929 196.520194 
" clip-path="url(#pc310a8dc60)" style="fill: #444444; stroke: #444444; stroke-width: 1.5"/>
    <path d="M 375.428257 177.188077 
L 343.676763 180.403694 
L 375.428257 177.188077 
L 375.277118 175.695711 
L 378.41299 176.8858 
L 375.579396 178.680443 
L 375.428257 177.188077 
" clip-path="url(#pc310a8dc60)" style="fill: #444444; stroke: #444444; stroke-width: 1.5"/>
    <path d="M 310.652801 178.120535 
L 333.726708 180.41313 
L 310.652801 178.120535 
L 310.504493 179.613185 
L 307.6675 177.823919 
L 310.801108 176.627885 
L 310.652801 178.120535 
" clip-path="url(#pc310a8dc60)" style="fill: #444444; stroke: #444444; stroke-width: 1.5"/>
    <path d="M 240.677115 256.267184 
L 241.244933 272.266554 
L 240.677115 256.267184 
L 239.178059 256.320386 
L 240.570712 253.269072 
L 242.176171 256.213983 
L 240.677115 256.267184 
" clip-path="url(#pc310a8dc60)" style="fill: #444444; stroke: #444444; stroke-width: 1.5"/>
    <path d="M 232.289852 85.893605 
L 228.397659 69.769252 
L 232.289852 85.893605 
L 233.747973 85.541635 
L 232.993792 88.809847 
L 230.831731 86.245575 
L 232.289852 85.893605 
" clip-path="url(#pc310a8dc60)" style="fill: #444444; stroke: #444444; stroke-width: 1.5"/>
    <path d="M 195.458412 68.069136 
L 222.248987 65.403837 
L 195.458412 68.069136 
L 195.606908 69.561767 
L 192.473149 68.366129 
L 195.309915 66.576504 
L 195.458412 68.069136 
" clip-path="url(#pc310a8dc60)" style="fill: #444444; stroke: #444444; stroke-width: 1.5"/>
    <path d="M 164.366715 88.853793 
L 183.714883 72.130707 
L 164.366715 88.853793 
L 165.347592 89.988641 
L 162.097019 90.815546 
L 163.385839 87.718945 
L 164.366715 88.853793 
" clip-path="url(#pc310a8dc60)" style="fill: #444444; stroke: #444444; stroke-width: 1.5"/>
    <path d="M 339.571936 188.860073 
L 342.265372 213.488213 
L 339.571936 188.860073 
L 338.080827 189.023147 
L 339.245788 185.877854 
L 341.063045 188.696999 
L 339.571936 188.860073 
" clip-path="url(#pc310a8dc60)" style="fill: #444444; stroke: #444444; stroke-width: 1.5"/>
    <path d="M 232.865909 250.980959 
L 201.711447 262.191824 
L 232.865909 250.980959 
L 232.35802 249.56956 
L 235.688708 249.965181 
L 233.373798 252.392359 
L 232.865909 250.980959 
" clip-path="url(#pc310a8dc60)" style="fill: #444444; stroke: #444444; stroke-width: 1.5"/>
    <path d="M 189.096785 265.081432 
L 167.408938 268.362428 
L 189.096785 265.081432 
L 188.872414 263.598308 
L 192.063034 264.63269 
L 189.321156 266.564557 
L 189.096785 265.081432 
" clip-path="url(#pc310a8dc60)" style="fill: #444444; stroke: #444444; stroke-width: 1.5"/>
    <path d="M 344.142569 226.346636 
L 346.673187 241.314696 
L 344.142569 226.346636 
L 342.663558 226.596689 
L 343.642462 223.388614 
L 345.62158 226.096583 
L 344.142569 226.346636 
" clip-path="url(#pc310a8dc60)" style="fill: #444444; stroke: #444444; stroke-width: 1.5"/>
    <path d="M 340.651358 173.148571 
L 347.513271 145.833563 
L 340.651358 173.148571 
L 342.106155 173.514037 
L 339.920427 176.058166 
L 339.19656 172.783106 
L 340.651358 173.148571 
" clip-path="url(#pc310a8dc60)" style="fill: #444444; stroke: #444444; stroke-width: 1.5"/>
   </g>
   <g id="VertexCollection_1">
    <path d="M 127.395384 130.784061 
C 128.721399 130.784061 129.993283 130.25723 130.930918 129.319595 
C 131.868552 128.381961 132.395384 127.110077 132.395384 125.784061 
C 132.395384 124.458046 131.868552 123.186162 130.930918 122.248527 
C 129.993283 121.310893 128.721399 120.784061 127.395384 120.784061 
C 126.069368 120.784061 124.797485 121.310893 123.85985 122.248527 
C 122.922216 123.186162 122.395384 124.458046 122.395384 125.784061 
C 122.395384 127.110077 122.922216 128.381961 123.85985 129.319595 
C 124.797485 130.25723 126.069368 130.784061 127.395384 130.784061 
z
" clip-path="url(#pc310a8dc60)" style="fill: #00ff00"/>
    <path d="M 213.972799 235.109085 
C 215.298815 235.109085 216.570698 234.582253 217.508333 233.644619 
C 218.445968 232.706984 218.972799 231.4351 218.972799 230.109085 
C 218.972799 228.783069 218.445968 227.511186 217.508333 226.573551 
C 216.570698 225.635917 215.298815 225.109085 213.972799 225.109085 
C 212.646784 225.109085 211.3749 225.635917 210.437265 226.573551 
C 209.499631 227.511186 208.972799 228.783069 208.972799 230.109085 
C 208.972799 231.4351 209.499631 232.706984 210.437265 233.644619 
C 211.3749 234.582253 212.646784 235.109085 213.972799 235.109085 
z
" clip-path="url(#pc310a8dc60)" style="fill: #ff0000"/>
    <path d="M 151.934395 139.671186 
C 153.260411 139.671186 154.532295 139.144355 155.469929 138.20672 
C 156.407564 137.269086 156.934395 135.997202 156.934395 134.671186 
C 156.934395 133.345171 156.407564 132.073287 155.469929 131.135652 
C 154.532295 130.198018 153.260411 129.671186 151.934395 129.671186 
C 150.60838 129.671186 149.336496 130.198018 148.398861 131.135652 
C 147.461227 132.073287 146.934395 133.345171 146.934395 134.671186 
C 146.934395 135.997202 147.461227 137.269086 148.398861 138.20672 
C 149.336496 139.144355 150.60838 139.671186 151.934395 139.671186 
z
" clip-path="url(#pc310a8dc60)" style="fill: #00ff00"/>
    <path d="M 209.878243 160.751658 
C 211.204258 160.751658 212.476142 160.224826 213.413776 159.287192 
C 214.351411 158.349557 214.878243 157.077673 214.878243 155.751658 
C 214.878243 154.425642 214.351411 153.153758 213.413776 152.216124 
C 212.476142 151.278489 211.204258 150.751658 209.878243 150.751658 
C 208.552227 150.751658 207.280343 151.278489 206.342709 152.216124 
C 205.405074 153.153758 204.878243 154.425642 204.878243 155.751658 
C 204.878243 157.077673 205.405074 158.349557 206.342709 159.287192 
C 207.280343 160.224826 208.552227 160.751658 209.878243 160.751658 
z
" clip-path="url(#pc310a8dc60)" style="fill: #00ff00"/>
    <path d="M 88.932456 140.784482 
C 90.258472 140.784482 91.530355 140.25765 92.46799 139.320016 
C 93.405625 138.382381 93.932456 137.110497 93.932456 135.784482 
C 93.932456 134.458466 93.405625 133.186582 92.46799 132.248948 
C 91.530355 131.311313 90.258472 130.784482 88.932456 130.784482 
C 87.606441 130.784482 86.334557 131.311313 85.396922 132.248948 
C 84.459288 133.186582 83.932456 134.458466 83.932456 135.784482 
C 83.932456 137.110497 84.459288 138.382381 85.396922 139.320016 
C 86.334557 140.25765 87.606441 140.784482 88.932456 140.784482 
z
" clip-path="url(#pc310a8dc60)" style="fill: #00ff00"/>
    <path d="M 274.837899 84.289399 
C 276.163914 84.289399 277.435798 83.762568 278.373433 82.824933 
C 279.311067 81.887299 279.837899 80.615415 279.837899 79.289399 
C 279.837899 77.963384 279.311067 76.6915 278.373433 75.753865 
C 277.435798 74.816231 276.163914 74.289399 274.837899 74.289399 
C 273.511883 74.289399 272.24 74.816231 271.302365 75.753865 
C 270.36473 76.6915 269.837899 77.963384 269.837899 79.289399 
C 269.837899 80.615415 270.36473 81.887299 271.302365 82.824933 
C 272.24 83.762568 273.511883 84.289399 274.837899 84.289399 
z
" clip-path="url(#pc310a8dc60)" style="fill: #00ff00"/>
    <path d="M 283.884686 220.885297 
C 285.210701 220.885297 286.482585 220.358465 287.42022 219.420831 
C 288.357854 218.483196 288.884686 217.211312 288.884686 215.885297 
C 288.884686 214.559281 288.357854 213.287397 287.42022 212.349763 
C 286.482585 211.412128 285.210701 210.885297 283.884686 210.885297 
C 282.55867 210.885297 281.286787 211.412128 280.349152 212.349763 
C 279.411517 213.287397 278.884686 214.559281 278.884686 215.885297 
C 278.884686 217.211312 279.411517 218.483196 280.349152 219.420831 
C 281.286787 220.358465 282.55867 220.885297 283.884686 220.885297 
z
" clip-path="url(#pc310a8dc60)" style="fill: #ff0000"/>
    <path d="M 244.773352 221.970656 
C 246.099367 221.970656 247.371251 221.443824 248.308886 220.50619 
C 249.24652 219.568555 249.773352 218.296672 249.773352 216.970656 
C 249.773352 215.644641 249.24652 214.372757 248.308886 213.435122 
C 247.371251 212.497488 246.099367 211.970656 244.773352 211.970656 
C 243.447336 211.970656 242.175452 212.497488 241.237818 213.435122 
C 240.300183 214.372757 239.773352 215.644641 239.773352 216.970656 
C 239.773352 218.296672 240.300183 219.568555 241.237818 220.50619 
C 242.175452 221.443824 243.447336 221.970656 244.773352 221.970656 
z
" clip-path="url(#pc310a8dc60)" style="fill: #ff0000"/>
    <path d="M 234.167025 98.670251 
C 235.493041 98.670251 236.764925 98.143419 237.702559 97.205785 
C 238.640194 96.26815 239.167025 94.996266 239.167025 93.670251 
C 239.167025 92.344235 238.640194 91.072351 237.702559 90.134717 
C 236.764925 89.197082 235.493041 88.670251 234.167025 88.670251 
C 232.84101 88.670251 231.569126 89.197082 230.631491 90.134717 
C 229.693857 91.072351 229.167025 92.344235 229.167025 93.670251 
C 229.167025 94.996266 229.693857 96.26815 230.631491 97.205785 
C 231.569126 98.143419 232.84101 98.670251 234.167025 98.670251 
z
" clip-path="url(#pc310a8dc60)" style="fill: #00ff00"/>
    <path d="M 167.924121 160.636248 
C 169.250137 160.636248 170.522021 160.109416 171.459655 159.171782 
C 172.39729 158.234147 172.924121 156.962263 172.924121 155.636248 
C 172.924121 154.310232 172.39729 153.038348 171.459655 152.100714 
C 170.522021 151.163079 169.250137 150.636248 167.924121 150.636248 
C 166.598106 150.636248 165.326222 151.163079 164.388588 152.100714 
C 163.450953 153.038348 162.924121 154.310232 162.924121 155.636248 
C 162.924121 156.962263 163.450953 158.234147 164.388588 159.171782 
C 165.326222 160.109416 166.598106 160.636248 167.924121 160.636248 
z
" clip-path="url(#pc310a8dc60)" style="fill: #00ff00"/>
    <path d="M 231.080926 131.181828 
C 232.406941 131.181828 233.678825 130.654997 234.61646 129.717362 
C 235.554094 128.779728 236.080926 127.507844 236.080926 126.181828 
C 236.080926 124.855813 235.554094 123.583929 234.61646 122.646294 
C 233.678825 121.70866 232.406941 121.181828 231.080926 121.181828 
C 229.75491 121.181828 228.483026 121.70866 227.545392 122.646294 
C 226.607757 123.583929 226.080926 124.855813 226.080926 126.181828 
C 226.080926 127.507844 226.607757 128.779728 227.545392 129.717362 
C 228.483026 130.654997 229.75491 131.181828 231.080926 131.181828 
z
" clip-path="url(#pc310a8dc60)" style="fill: #00ff00"/>
    <path d="M 155.407757 73.455094 
C 156.733773 73.455094 158.005657 72.928262 158.943291 71.990628 
C 159.880926 71.052993 160.407757 69.781109 160.407757 68.455094 
C 160.407757 67.129078 159.880926 65.857194 158.943291 64.91956 
C 158.005657 63.981925 156.733773 63.455094 155.407757 63.455094 
C 154.081742 63.455094 152.809858 63.981925 151.872223 64.91956 
C 150.934589 65.857194 150.407757 67.129078 150.407757 68.455094 
C 150.407757 69.781109 150.934589 71.052993 151.872223 71.990628 
C 152.809858 72.928262 154.081742 73.455094 155.407757 73.455094 
z
" clip-path="url(#pc310a8dc60)" style="fill: #00ff00"/>
    <path d="M 240.393374 253.272218 
C 241.719389 253.272218 242.991273 252.745386 243.928907 251.807752 
C 244.866542 250.870117 245.393374 249.598233 245.393374 248.272218 
C 245.393374 246.946202 244.866542 245.674318 243.928907 244.736684 
C 242.991273 243.799049 241.719389 243.272218 240.393374 243.272218 
C 239.067358 243.272218 237.795474 243.799049 236.85784 244.736684 
C 235.920205 245.674318 235.393374 246.946202 235.393374 248.272218 
C 235.393374 249.598233 235.920205 250.870117 236.85784 251.807752 
C 237.795474 252.745386 239.067358 253.272218 240.393374 253.272218 
z
" clip-path="url(#pc310a8dc60)" style="fill: #ff0000"/>
    <path d="M 158.314191 99.085135 
C 159.640206 99.085135 160.91209 98.558304 161.849725 97.620669 
C 162.787359 96.683035 163.314191 95.411151 163.314191 94.085135 
C 163.314191 92.75912 162.787359 91.487236 161.849725 90.549602 
C 160.91209 89.611967 159.640206 89.085135 158.314191 89.085135 
C 156.988175 89.085135 155.716291 89.611967 154.778657 90.549602 
C 153.841022 91.487236 153.314191 92.75912 153.314191 94.085135 
C 153.314191 95.411151 153.841022 96.683035 154.778657 97.620669 
C 155.716291 98.558304 156.988175 99.085135 158.314191 99.085135 
z
" clip-path="url(#pc310a8dc60)" style="fill: #00ff00"/>
    <path d="M 122.639357 170.387396 
C 123.965372 170.387396 125.237256 169.860564 126.174891 168.92293 
C 127.112525 167.985295 127.639357 166.713411 127.639357 165.387396 
C 127.639357 164.06138 127.112525 162.789497 126.174891 161.851862 
C 125.237256 160.914227 123.965372 160.387396 122.639357 160.387396 
C 121.313341 160.387396 120.041457 160.914227 119.103823 161.851862 
C 118.166188 162.789497 117.639357 164.06138 117.639357 165.387396 
C 117.639357 166.713411 118.166188 167.985295 119.103823 168.92293 
C 120.041457 169.860564 121.313341 170.387396 122.639357 170.387396 
z
" clip-path="url(#pc310a8dc60)" style="fill: #00ff00"/>
    <path d="M 338.702208 185.90749 
C 340.028224 185.90749 341.300108 185.380658 342.237742 184.443024 
C 343.175377 183.505389 343.702208 182.233505 343.702208 180.90749 
C 343.702208 179.581474 343.175377 178.30959 342.237742 177.371956 
C 341.300108 176.434321 340.028224 175.90749 338.702208 175.90749 
C 337.376193 175.90749 336.104309 176.434321 335.166675 177.371956 
C 334.22904 178.30959 333.702208 179.581474 333.702208 180.90749 
C 333.702208 182.233505 334.22904 183.505389 335.166675 184.443024 
C 336.104309 185.380658 337.376193 185.90749 338.702208 185.90749 
z
" clip-path="url(#pc310a8dc60)" style="fill: #ff0000"/>
    <path d="M 241.422272 282.263408 
C 242.748287 282.263408 244.020171 281.736576 244.957806 280.798942 
C 245.89544 279.861307 246.422272 278.589423 246.422272 277.263408 
C 246.422272 275.937392 245.89544 274.665508 244.957806 273.727874 
C 244.020171 272.790239 242.748287 272.263408 241.422272 272.263408 
C 240.096256 272.263408 238.824372 272.790239 237.886738 273.727874 
C 236.949103 274.665508 236.422272 275.937392 236.422272 277.263408 
C 236.422272 278.589423 236.949103 279.861307 237.886738 280.798942 
C 238.824372 281.736576 240.096256 282.263408 241.422272 282.263408 
z
" clip-path="url(#pc310a8dc60)" style="fill: #ff0000"/>
    <path d="M 227.224425 69.908848 
C 228.550441 69.908848 229.822325 69.382017 230.759959 68.444382 
C 231.697594 67.506748 232.224425 66.234864 232.224425 64.908848 
C 232.224425 63.582833 231.697594 62.310949 230.759959 61.373314 
C 229.822325 60.43568 228.550441 59.908848 227.224425 59.908848 
C 225.89841 59.908848 224.626526 60.43568 223.688891 61.373314 
C 222.751257 62.310949 222.224425 63.582833 222.224425 64.908848 
C 222.224425 66.234864 222.751257 67.506748 223.688891 68.444382 
C 224.626526 69.382017 225.89841 69.908848 227.224425 69.908848 
z
" clip-path="url(#pc310a8dc60)" style="fill: #00ff00"/>
    <path d="M 187.497711 73.861118 
C 188.823726 73.861118 190.09561 73.334286 191.033244 72.396651 
C 191.970879 71.459017 192.497711 70.187133 192.497711 68.861118 
C 192.497711 67.535102 191.970879 66.263218 191.033244 65.325584 
C 190.09561 64.387949 188.823726 63.861118 187.497711 63.861118 
C 186.171695 63.861118 184.899811 64.387949 183.962177 65.325584 
C 183.024542 66.263218 182.497711 67.535102 182.497711 68.861118 
C 182.497711 70.187133 183.024542 71.459017 183.962177 72.396651 
C 184.899811 73.334286 186.171695 73.861118 187.497711 73.861118 
z
" clip-path="url(#pc310a8dc60)" style="fill: #00ff00"/>
    <path d="M 188.856719 132.516285 
C 190.182735 132.516285 191.454619 131.989454 192.392253 131.051819 
C 193.329888 130.114185 193.856719 128.842301 193.856719 127.516285 
C 193.856719 126.19027 193.329888 124.918386 192.392253 123.980752 
C 191.454619 123.043117 190.182735 122.516285 188.856719 122.516285 
C 187.530704 122.516285 186.25882 123.043117 185.321185 123.980752 
C 184.383551 124.918386 183.856719 126.19027 183.856719 127.516285 
C 183.856719 128.842301 184.383551 130.114185 185.321185 131.051819 
C 186.25882 131.989454 187.530704 132.516285 188.856719 132.516285 
z
" clip-path="url(#pc310a8dc60)" style="fill: #00ff00"/>
    <path d="M 318.874386 154.688107 
C 320.200402 154.688107 321.472286 154.161276 322.40992 153.223641 
C 323.347555 152.286006 323.874386 151.014123 323.874386 149.688107 
C 323.874386 148.362092 323.347555 147.090208 322.40992 146.152573 
C 321.472286 145.214939 320.200402 144.688107 318.874386 144.688107 
C 317.548371 144.688107 316.276487 145.214939 315.338852 146.152573 
C 314.401218 147.090208 313.874386 148.362092 313.874386 149.688107 
C 313.874386 151.014123 314.401218 152.286006 315.338852 153.223641 
C 316.276487 154.161276 317.548371 154.688107 318.874386 154.688107 
z
" clip-path="url(#pc310a8dc60)" style="fill: #ff0000"/>
    <path d="M 373.917297 158.544665 
C 375.243312 158.544665 376.515196 158.017833 377.452831 157.080198 
C 378.390465 156.142564 378.917297 154.87068 378.917297 153.544665 
C 378.917297 152.218649 378.390465 150.946765 377.452831 150.009131 
C 376.515196 149.071496 375.243312 148.544665 373.917297 148.544665 
C 372.591281 148.544665 371.319397 149.071496 370.381763 150.009131 
C 369.444128 150.946765 368.917297 152.218649 368.917297 153.544665 
C 368.917297 154.87068 369.444128 156.142564 370.381763 157.080198 
C 371.319397 158.017833 372.591281 158.544665 373.917297 158.544665 
z
" clip-path="url(#pc310a8dc60)" style="fill: #ff0000"/>
    <path d="M 372.758285 205.511255 
C 374.084301 205.511255 375.356184 204.984423 376.293819 204.046789 
C 377.231454 203.109154 377.758285 201.83727 377.758285 200.511255 
C 377.758285 199.185239 377.231454 197.913355 376.293819 196.975721 
C 375.356184 196.038086 374.084301 195.511255 372.758285 195.511255 
C 371.43227 195.511255 370.160386 196.038086 369.222751 196.975721 
C 368.285117 197.913355 367.758285 199.185239 367.758285 200.511255 
C 367.758285 201.83727 368.285117 203.109154 369.222751 204.046789 
C 370.160386 204.984423 371.43227 205.511255 372.758285 205.511255 
z
" clip-path="url(#pc310a8dc60)" style="fill: #ff0000"/>
    <path d="M 383.387544 181.382004 
C 384.713559 181.382004 385.985443 180.855173 386.923078 179.917538 
C 387.860712 178.979903 388.387544 177.70802 388.387544 176.382004 
C 388.387544 175.055989 387.860712 173.784105 386.923078 172.84647 
C 385.985443 171.908836 384.713559 171.382004 383.387544 171.382004 
C 382.061528 171.382004 380.789645 171.908836 379.85201 172.84647 
C 378.914375 173.784105 378.387544 175.055989 378.387544 176.382004 
C 378.387544 177.70802 378.914375 178.979903 379.85201 179.917538 
C 380.789645 180.855173 382.061528 181.382004 383.387544 181.382004 
z
" clip-path="url(#pc310a8dc60)" style="fill: #ff0000"/>
    <path d="M 302.691999 182.32956 
C 304.018015 182.32956 305.289899 181.802728 306.227533 180.865093 
C 307.165168 179.927459 307.691999 178.655575 307.691999 177.32956 
C 307.691999 176.003544 307.165168 174.73166 306.227533 173.794026 
C 305.289899 172.856391 304.018015 172.32956 302.691999 172.32956 
C 301.365984 172.32956 300.0941 172.856391 299.156465 173.794026 
C 298.218831 174.73166 297.691999 176.003544 297.691999 177.32956 
C 297.691999 178.655575 298.218831 179.927459 299.156465 180.865093 
C 300.0941 181.802728 301.365984 182.32956 302.691999 182.32956 
z
" clip-path="url(#pc310a8dc60)" style="fill: #ff0000"/>
    <path d="M 89.93119 215.099775 
C 91.257206 215.099775 92.52909 214.572944 93.466724 213.635309 
C 94.404359 212.697675 94.93119 211.425791 94.93119 210.099775 
C 94.93119 208.77376 94.404359 207.501876 93.466724 206.564241 
C 92.52909 205.626607 91.257206 205.099775 89.93119 205.099775 
C 88.605175 205.099775 87.333291 205.626607 86.395656 206.564241 
C 85.458022 207.501876 84.93119 208.77376 84.93119 210.099775 
C 84.93119 211.425791 85.458022 212.697675 86.395656 213.635309 
C 87.333291 214.572944 88.605175 215.099775 89.93119 215.099775 
z
" clip-path="url(#pc310a8dc60)" style="fill: #0000ff"/>
    <path d="M 342.808952 223.458577 
C 344.134967 223.458577 345.406851 222.931746 346.344486 221.994111 
C 347.28212 221.056477 347.808952 219.784593 347.808952 218.458577 
C 347.808952 217.132562 347.28212 215.860678 346.344486 214.923043 
C 345.406851 213.985409 344.134967 213.458577 342.808952 213.458577 
C 341.482936 213.458577 340.211052 213.985409 339.273418 214.923043 
C 338.335783 215.860678 337.808952 217.132562 337.808952 218.458577 
C 337.808952 219.784593 338.335783 221.056477 339.273418 221.994111 
C 340.211052 222.931746 341.482936 223.458577 342.808952 223.458577 
z
" clip-path="url(#pc310a8dc60)" style="fill: #0000ff"/>
    <path d="M 117.184467 245.715764 
C 118.510482 245.715764 119.782366 245.188932 120.720001 244.251297 
C 121.657635 243.313663 122.184467 242.041779 122.184467 240.715764 
C 122.184467 239.389748 121.657635 238.117864 120.720001 237.18023 
C 119.782366 236.242595 118.510482 235.715764 117.184467 235.715764 
C 115.858451 235.715764 114.586567 236.242595 113.648933 237.18023 
C 112.711298 238.117864 112.184467 239.389748 112.184467 240.715764 
C 112.184467 242.041779 112.711298 243.313663 113.648933 244.251297 
C 114.586567 245.188932 115.858451 245.715764 117.184467 245.715764 
z
" clip-path="url(#pc310a8dc60)" style="fill: #0000ff"/>
    <path d="M 298.172244 289.147152 
C 299.498259 289.147152 300.770143 288.62032 301.707778 287.682686 
C 302.645412 286.745051 303.172244 285.473167 303.172244 284.147152 
C 303.172244 282.821136 302.645412 281.549252 301.707778 280.611618 
C 300.770143 279.673983 299.498259 279.147152 298.172244 279.147152 
C 296.846228 279.147152 295.574345 279.673983 294.63671 280.611618 
C 293.699076 281.549252 293.172244 282.821136 293.172244 284.147152 
C 293.172244 285.473167 293.699076 286.745051 294.63671 287.682686 
C 295.574345 288.62032 296.846228 289.147152 298.172244 289.147152 
z
" clip-path="url(#pc310a8dc60)" style="fill: #0000ff"/>
    <path d="M 342.435071 83.604812 
C 343.761086 83.604812 345.03297 83.077981 345.970605 82.140346 
C 346.908239 81.202712 347.435071 79.930828 347.435071 78.604812 
C 347.435071 77.278797 346.908239 76.006913 345.970605 75.069278 
C 345.03297 74.131644 343.761086 73.604812 342.435071 73.604812 
C 341.109055 73.604812 339.837171 74.131644 338.899537 75.069278 
C 337.961902 76.006913 337.435071 77.278797 337.435071 78.604812 
C 337.435071 79.930828 337.961902 81.202712 338.899537 82.140346 
C 339.837171 83.077981 341.109055 83.604812 342.435071 83.604812 
z
" clip-path="url(#pc310a8dc60)" style="fill: #0000ff"/>
    <path d="M 197.006781 268.884787 
C 198.332797 268.884787 199.604681 268.357955 200.542315 267.420321 
C 201.47995 266.482686 202.006781 265.210802 202.006781 263.884787 
C 202.006781 262.558771 201.47995 261.286888 200.542315 260.349253 
C 199.604681 259.411618 198.332797 258.884787 197.006781 258.884787 
C 195.680766 258.884787 194.408882 259.411618 193.471248 260.349253 
C 192.533613 261.286888 192.006781 262.558771 192.006781 263.884787 
C 192.006781 265.210802 192.533613 266.482686 193.471248 267.420321 
C 194.408882 268.357955 195.680766 268.884787 197.006781 268.884787 
z
" clip-path="url(#pc310a8dc60)" style="fill: #0000ff"/>
    <path d="M 162.465191 274.110331 
C 163.791206 274.110331 165.06309 273.583499 166.000724 272.645865 
C 166.938359 271.70823 167.465191 270.436346 167.465191 269.110331 
C 167.465191 267.784315 166.938359 266.512432 166.000724 265.574797 
C 165.06309 264.637162 163.791206 264.110331 162.465191 264.110331 
C 161.139175 264.110331 159.867291 264.637162 158.929657 265.574797 
C 157.992022 266.512432 157.465191 267.784315 157.465191 269.110331 
C 157.465191 270.436346 157.992022 271.70823 158.929657 272.645865 
C 159.867291 273.583499 161.139175 274.110331 162.465191 274.110331 
z
" clip-path="url(#pc310a8dc60)" style="fill: #0000ff"/>
    <path d="M 347.506698 251.244732 
C 348.832713 251.244732 350.104597 250.717901 351.042232 249.780266 
C 351.979866 248.842632 352.506698 247.570748 352.506698 246.244732 
C 352.506698 244.918717 351.979866 243.646833 351.042232 242.709198 
C 350.104597 241.771564 348.832713 241.244732 347.506698 241.244732 
C 346.180682 241.244732 344.908798 241.771564 343.971164 242.709198 
C 343.033529 243.646833 342.506698 244.918717 342.506698 246.244732 
C 342.506698 247.570748 343.033529 248.842632 343.971164 249.780266 
C 344.908798 250.717901 346.180682 251.244732 347.506698 251.244732 
z
" clip-path="url(#pc310a8dc60)" style="fill: #0000ff"/>
    <path d="M 348.731489 145.984239 
C 350.057505 145.984239 351.329389 145.457407 352.267023 144.519773 
C 353.204658 143.582138 353.731489 142.310254 353.731489 140.984239 
C 353.731489 139.658223 353.204658 138.386339 352.267023 137.448705 
C 351.329389 136.51107 350.057505 135.984239 348.731489 135.984239 
C 347.405474 135.984239 346.13359 136.51107 345.195955 137.448705 
C 344.258321 138.386339 343.731489 139.658223 343.731489 140.984239 
C 343.731489 142.310254 344.258321 143.582138 345.195955 144.519773 
C 346.13359 145.457407 347.405474 145.984239 348.731489 145.984239 
z
" clip-path="url(#pc310a8dc60)" style="fill: #0000ff"/>
   </g>
   <g id="text_1">
    <g clip-path="url(#pc310a8dc60)">
     <!-- ECM2418 -->
     <g transform="translate(110.812493 137.715624) scale(0.07 -0.07)">
      <defs>
       <path id="DejaVuSans-45" d="M 628 4666 
L 3578 4666 
L 3578 4134 
L 1259 4134 
L 1259 2753 
L 3481 2753 
L 3481 2222 
L 1259 2222 
L 1259 531 
L 3634 531 
L 3634 0 
L 628 0 
L 628 4666 
z
" transform="scale(0.015625)"/>
       <path id="DejaVuSans-43" d="M 4122 4306 
L 4122 3641 
Q 3803 3938 3442 4084 
Q 3081 4231 2675 4231 
Q 1875 4231 1450 3742 
Q 1025 3253 1025 2328 
Q 1025 1406 1450 917 
Q 1875 428 2675 428 
Q 3081 428 3442 575 
Q 3803 722 4122 1019 
L 4122 359 
Q 3791 134 3420 21 
Q 3050 -91 2638 -91 
Q 1578 -91 968 557 
Q 359 1206 359 2328 
Q 359 3453 968 4101 
Q 1578 4750 2638 4750 
Q 3056 4750 3426 4639 
Q 3797 4528 4122 4306 
z
" transform="scale(0.015625)"/>
       <path id="DejaVuSans-4d" d="M 628 4666 
L 1569 4666 
L 2759 1491 
L 3956 4666 
L 4897 4666 
L 4897 0 
L 4281 0 
L 4281 4097 
L 3078 897 
L 2444 897 
L 1241 4097 
L 1241 0 
L 628 0 
L 628 4666 
z
" transform="scale(0.015625)"/>
       <path id="DejaVuSans-32" d="M 1228 531 
L 3431 531 
L 3431 0 
L 469 0 
L 469 531 
Q 828 903 1448 1529 
Q 2069 2156 2228 2338 
Q 2531 2678 2651 2914 
Q 2772 3150 2772 3378 
Q 2772 3750 2511 3984 
Q 2250 4219 1831 4219 
Q 1534 4219 1204 4116 
Q 875 4013 500 3803 
L 500 4441 
Q 881 4594 1212 4672 
Q 1544 4750 1819 4750 
Q 2544 4750 2975 4387 
Q 3406 4025 3406 3419 
Q 3406 3131 3298 2873 
Q 3191 2616 2906 2266 
Q 2828 2175 2409 1742 
Q 1991 1309 1228 531 
z
" transform="scale(0.015625)"/>
       <path id="DejaVuSans-34" d="M 2419 4116 
L 825 1625 
L 2419 1625 
L 2419 4116 
z
M 2253 4666 
L 3047 4666 
L 3047 1625 
L 3713 1625 
L 3713 1100 
L 3047 1100 
L 3047 0 
L 2419 0 
L 2419 1100 
L 313 1100 
L 313 1709 
L 2253 4666 
z
" transform="scale(0.015625)"/>
       <path id="DejaVuSans-31" d="M 794 531 
L 1825 531 
L 1825 4091 
L 703 3866 
L 703 4441 
L 1819 4666 
L 2450 4666 
L 2450 531 
L 3481 531 
L 3481 0 
L 794 0 
L 794 531 
z
" transform="scale(0.015625)"/>
       <path id="DejaVuSans-38" d="M 2034 2216 
Q 1584 2216 1326 1975 
Q 1069 1734 1069 1313 
Q 1069 891 1326 650 
Q 1584 409 2034 409 
Q 2484 409 2743 651 
Q 3003 894 3003 1313 
Q 3003 1734 2745 1975 
Q 2488 2216 2034 2216 
z
M 1403 2484 
Q 997 2584 770 2862 
Q 544 3141 544 3541 
Q 544 4100 942 4425 
Q 1341 4750 2034 4750 
Q 2731 4750 3128 4425 
Q 3525 4100 3525 3541 
Q 3525 3141 3298 2862 
Q 3072 2584 2669 2484 
Q 3125 2378 3379 2068 
Q 3634 1759 3634 1313 
Q 3634 634 3220 271 
Q 2806 -91 2034 -91 
Q 1263 -91 848 271 
Q 434 634 434 1313 
Q 434 1759 690 2068 
Q 947 2378 1403 2484 
z
M 1172 3481 
Q 1172 3119 1398 2916 
Q 1625 2713 2034 2713 
Q 2441 2713 2670 2916 
Q 2900 3119 2900 3481 
Q 2900 3844 2670 4047 
Q 2441 4250 2034 4250 
Q 1625 4250 1398 4047 
Q 1172 3844 1172 3481 
z
" transform="scale(0.015625)"/>
      </defs>
      <use xlink:href="#DejaVuSans-45"/>
      <use xlink:href="#DejaVuSans-43" x="63.183594"/>
      <use xlink:href="#DejaVuSans-4d" x="133.007812"/>
      <use xlink:href="#DejaVuSans-32" x="219.287109"/>
      <use xlink:href="#DejaVuSans-34" x="282.910156"/>
      <use xlink:href="#DejaVuSans-31" x="346.533203"/>
      <use xlink:href="#DejaVuSans-38" x="410.15625"/>
     </g>
    </g>
   </g>
   <g id="text_2">
    <g clip-path="url(#pc310a8dc60)">
     <!-- MTH2011 -->
     <g transform="translate(197.275612 242.040647) scale(0.07 -0.07)">
      <defs>
       <path id="DejaVuSans-54" d="M -19 4666 
L 3928 4666 
L 3928 4134 
L 2272 4134 
L 2272 0 
L 1638 0 
L 1638 4134 
L -19 4134 
L -19 4666 
z
" transform="scale(0.015625)"/>
       <path id="DejaVuSans-48" d="M 628 4666 
L 1259 4666 
L 1259 2753 
L 3553 2753 
L 3553 4666 
L 4184 4666 
L 4184 0 
L 3553 0 
L 3553 2222 
L 1259 2222 
L 1259 0 
L 628 0 
L 628 4666 
z
" transform="scale(0.015625)"/>
       <path id="DejaVuSans-30" d="M 2034 4250 
Q 1547 4250 1301 3770 
Q 1056 3291 1056 2328 
Q 1056 1369 1301 889 
Q 1547 409 2034 409 
Q 2525 409 2770 889 
Q 3016 1369 3016 2328 
Q 3016 3291 2770 3770 
Q 2525 4250 2034 4250 
z
M 2034 4750 
Q 2819 4750 3233 4129 
Q 3647 3509 3647 2328 
Q 3647 1150 3233 529 
Q 2819 -91 2034 -91 
Q 1250 -91 836 529 
Q 422 1150 422 2328 
Q 422 3509 836 4129 
Q 1250 4750 2034 4750 
z
" transform="scale(0.015625)"/>
      </defs>
      <use xlink:href="#DejaVuSans-4d"/>
      <use xlink:href="#DejaVuSans-54" x="86.279297"/>
      <use xlink:href="#DejaVuSans-48" x="147.363281"/>
      <use xlink:href="#DejaVuSans-32" x="222.558594"/>
      <use xlink:href="#DejaVuSans-30" x="286.181641"/>
      <use xlink:href="#DejaVuSans-31" x="349.804688"/>
      <use xlink:href="#DejaVuSans-31" x="413.427734"/>
     </g>
    </g>
   </g>
   <g id="text_3">
    <g clip-path="url(#pc310a8dc60)">
     <!-- ECM1410 -->
     <g transform="translate(135.351505 146.602749) scale(0.07 -0.07)">
      <use xlink:href="#DejaVuSans-45"/>
      <use xlink:href="#DejaVuSans-43" x="63.183594"/>
      <use xlink:href="#DejaVuSans-4d" x="133.007812"/>
      <use xlink:href="#DejaVuSans-31" x="219.287109"/>
      <use xlink:href="#DejaVuSans-34" x="282.910156"/>
      <use xlink:href="#DejaVuSans-31" x="346.533203"/>
      <use xlink:href="#DejaVuSans-30" x="410.15625"/>
     </g>
    </g>
   </g>
   <g id="text_4">
    <g clip-path="url(#pc310a8dc60)">
     <!-- ECM3420 -->
     <g transform="translate(193.295352 167.68322) scale(0.07 -0.07)">
      <defs>
       <path id="DejaVuSans-33" d="M 2597 2516 
Q 3050 2419 3304 2112 
Q 3559 1806 3559 1356 
Q 3559 666 3084 287 
Q 2609 -91 1734 -91 
Q 1441 -91 1130 -33 
Q 819 25 488 141 
L 488 750 
Q 750 597 1062 519 
Q 1375 441 1716 441 
Q 2309 441 2620 675 
Q 2931 909 2931 1356 
Q 2931 1769 2642 2001 
Q 2353 2234 1838 2234 
L 1294 2234 
L 1294 2753 
L 1863 2753 
Q 2328 2753 2575 2939 
Q 2822 3125 2822 3475 
Q 2822 3834 2567 4026 
Q 2313 4219 1838 4219 
Q 1578 4219 1281 4162 
Q 984 4106 628 3988 
L 628 4550 
Q 988 4650 1302 4700 
Q 1616 4750 1894 4750 
Q 2613 4750 3031 4423 
Q 3450 4097 3450 3541 
Q 3450 3153 3228 2886 
Q 3006 2619 2597 2516 
z
" transform="scale(0.015625)"/>
      </defs>
      <use xlink:href="#DejaVuSans-45"/>
      <use xlink:href="#DejaVuSans-43" x="63.183594"/>
      <use xlink:href="#DejaVuSans-4d" x="133.007812"/>
      <use xlink:href="#DejaVuSans-33" x="219.287109"/>
      <use xlink:href="#DejaVuSans-34" x="282.910156"/>
      <use xlink:href="#DejaVuSans-32" x="346.533203"/>
      <use xlink:href="#DejaVuSans-30" x="410.15625"/>
     </g>
    </g>
   </g>
   <g id="text_5">
    <g clip-path="url(#pc310a8dc60)">
     <!-- ECM2423 -->
     <g transform="translate(72.349565 147.716044) scale(0.07 -0.07)">
      <use xlink:href="#DejaVuSans-45"/>
      <use xlink:href="#DejaVuSans-43" x="63.183594"/>
      <use xlink:href="#DejaVuSans-4d" x="133.007812"/>
      <use xlink:href="#DejaVuSans-32" x="219.287109"/>
      <use xlink:href="#DejaVuSans-34" x="282.910156"/>
      <use xlink:href="#DejaVuSans-32" x="346.533203"/>
      <use xlink:href="#DejaVuSans-33" x="410.15625"/>
     </g>
    </g>
   </g>
   <g id="text_6">
    <g clip-path="url(#pc310a8dc60)">
     <!-- ECM1413 -->
     <g transform="translate(258.255008 91.220962) scale(0.07 -0.07)">
      <use xlink:href="#DejaVuSans-45"/>
      <use xlink:href="#DejaVuSans-43" x="63.183594"/>
      <use xlink:href="#DejaVuSans-4d" x="133.007812"/>
      <use xlink:href="#DejaVuSans-31" x="219.287109"/>
      <use xlink:href="#DejaVuSans-34" x="282.910156"/>
      <use xlink:href="#DejaVuSans-31" x="346.533203"/>
      <use xlink:href="#DejaVuSans-33" x="410.15625"/>
     </g>
    </g>
   </g>
   <g id="text_7">
    <g clip-path="url(#pc310a8dc60)">
     <!-- MTH2008 -->
     <g transform="translate(267.187498 227.816859) scale(0.07 -0.07)">
      <use xlink:href="#DejaVuSans-4d"/>
      <use xlink:href="#DejaVuSans-54" x="86.279297"/>
      <use xlink:href="#DejaVuSans-48" x="147.363281"/>
      <use xlink:href="#DejaVuSans-32" x="222.558594"/>
      <use xlink:href="#DejaVuSans-30" x="286.181641"/>
      <use xlink:href="#DejaVuSans-30" x="349.804688"/>
      <use xlink:href="#DejaVuSans-38" x="413.427734"/>
     </g>
    </g>
   </g>
   <g id="text_8">
    <g clip-path="url(#pc310a8dc60)">
     <!-- MTH3022 -->
     <g transform="translate(228.076164 228.902219) scale(0.07 -0.07)">
      <use xlink:href="#DejaVuSans-4d"/>
      <use xlink:href="#DejaVuSans-54" x="86.279297"/>
      <use xlink:href="#DejaVuSans-48" x="147.363281"/>
      <use xlink:href="#DejaVuSans-33" x="222.558594"/>
      <use xlink:href="#DejaVuSans-30" x="286.181641"/>
      <use xlink:href="#DejaVuSans-32" x="349.804688"/>
      <use xlink:href="#DejaVuSans-32" x="413.427734"/>
     </g>
    </g>
   </g>
   <g id="text_9">
    <g clip-path="url(#pc310a8dc60)">
     <!-- ECM2419 -->
     <g transform="translate(217.584135 105.601813) scale(0.07 -0.07)">
      <defs>
       <path id="DejaVuSans-39" d="M 703 97 
L 703 672 
Q 941 559 1184 500 
Q 1428 441 1663 441 
Q 2288 441 2617 861 
Q 2947 1281 2994 2138 
Q 2813 1869 2534 1725 
Q 2256 1581 1919 1581 
Q 1219 1581 811 2004 
Q 403 2428 403 3163 
Q 403 3881 828 4315 
Q 1253 4750 1959 4750 
Q 2769 4750 3195 4129 
Q 3622 3509 3622 2328 
Q 3622 1225 3098 567 
Q 2575 -91 1691 -91 
Q 1453 -91 1209 -44 
Q 966 3 703 97 
z
M 1959 2075 
Q 2384 2075 2632 2365 
Q 2881 2656 2881 3163 
Q 2881 3666 2632 3958 
Q 2384 4250 1959 4250 
Q 1534 4250 1286 3958 
Q 1038 3666 1038 3163 
Q 1038 2656 1286 2365 
Q 1534 2075 1959 2075 
z
" transform="scale(0.015625)"/>
      </defs>
      <use xlink:href="#DejaVuSans-45"/>
      <use xlink:href="#DejaVuSans-43" x="63.183594"/>
      <use xlink:href="#DejaVuSans-4d" x="133.007812"/>
      <use xlink:href="#DejaVuSans-32" x="219.287109"/>
      <use xlink:href="#DejaVuSans-34" x="282.910156"/>
      <use xlink:href="#DejaVuSans-31" x="346.533203"/>
      <use xlink:href="#DejaVuSans-39" x="410.15625"/>
     </g>
    </g>
   </g>
   <g id="text_10">
    <g clip-path="url(#pc310a8dc60)">
     <!-- ECM2433 -->
     <g transform="translate(151.341231 167.56781) scale(0.07 -0.07)">
      <use xlink:href="#DejaVuSans-45"/>
      <use xlink:href="#DejaVuSans-43" x="63.183594"/>
      <use xlink:href="#DejaVuSans-4d" x="133.007812"/>
      <use xlink:href="#DejaVuSans-32" x="219.287109"/>
      <use xlink:href="#DejaVuSans-34" x="282.910156"/>
      <use xlink:href="#DejaVuSans-33" x="346.533203"/>
      <use xlink:href="#DejaVuSans-33" x="410.15625"/>
     </g>
    </g>
   </g>
   <g id="text_11">
    <g clip-path="url(#pc310a8dc60)">
     <!-- ECM1414 -->
     <g transform="translate(214.498035 138.113391) scale(0.07 -0.07)">
      <use xlink:href="#DejaVuSans-45"/>
      <use xlink:href="#DejaVuSans-43" x="63.183594"/>
      <use xlink:href="#DejaVuSans-4d" x="133.007812"/>
      <use xlink:href="#DejaVuSans-31" x="219.287109"/>
      <use xlink:href="#DejaVuSans-34" x="282.910156"/>
      <use xlink:href="#DejaVuSans-31" x="346.533203"/>
      <use xlink:href="#DejaVuSans-34" x="410.15625"/>
     </g>
    </g>
   </g>
   <g id="text_12">
    <g clip-path="url(#pc310a8dc60)">
     <!-- ECM3401 -->
     <g transform="translate(138.824867 80.386656) scale(0.07 -0.07)">
      <use xlink:href="#DejaVuSans-45"/>
      <use xlink:href="#DejaVuSans-43" x="63.183594"/>
      <use xlink:href="#DejaVuSans-4d" x="133.007812"/>
      <use xlink:href="#DejaVuSans-33" x="219.287109"/>
      <use xlink:href="#DejaVuSans-34" x="282.910156"/>
      <use xlink:href="#DejaVuSans-30" x="346.533203"/>
      <use xlink:href="#DejaVuSans-31" x="410.15625"/>
     </g>
    </g>
   </g>
   <g id="text_13">
    <g clip-path="url(#pc310a8dc60)">
     <!-- MTH1001 -->
     <g transform="translate(223.696186 260.20378) scale(0.07 -0.07)">
      <use xlink:href="#DejaVuSans-4d"/>
      <use xlink:href="#DejaVuSans-54" x="86.279297"/>
      <use xlink:href="#DejaVuSans-48" x="147.363281"/>
      <use xlink:href="#DejaVuSans-31" x="222.558594"/>
      <use xlink:href="#DejaVuSans-30" x="286.181641"/>
      <use xlink:href="#DejaVuSans-30" x="349.804688"/>
      <use xlink:href="#DejaVuSans-31" x="413.427734"/>
     </g>
    </g>
   </g>
   <g id="text_14">
    <g clip-path="url(#pc310a8dc60)">
     <!-- ECM2414 -->
     <g transform="translate(141.7313 106.016698) scale(0.07 -0.07)">
      <use xlink:href="#DejaVuSans-45"/>
      <use xlink:href="#DejaVuSans-43" x="63.183594"/>
      <use xlink:href="#DejaVuSans-4d" x="133.007812"/>
      <use xlink:href="#DejaVuSans-32" x="219.287109"/>
      <use xlink:href="#DejaVuSans-34" x="282.910156"/>
      <use xlink:href="#DejaVuSans-31" x="346.533203"/>
      <use xlink:href="#DejaVuSans-34" x="410.15625"/>
     </g>
    </g>
   </g>
   <g id="text_15">
    <g clip-path="url(#pc310a8dc60)">
     <!-- ECM3423 -->
     <g transform="translate(106.056466 177.318958) scale(0.07 -0.07)">
      <use xlink:href="#DejaVuSans-45"/>
      <use xlink:href="#DejaVuSans-43" x="63.183594"/>
      <use xlink:href="#DejaVuSans-4d" x="133.007812"/>
      <use xlink:href="#DejaVuSans-33" x="219.287109"/>
      <use xlink:href="#DejaVuSans-34" x="282.910156"/>
      <use xlink:href="#DejaVuSans-32" x="346.533203"/>
      <use xlink:href="#DejaVuSans-33" x="410.15625"/>
     </g>
    </g>
   </g>
   <g id="text_16">
    <g clip-path="url(#pc310a8dc60)">
     <!-- MTH1002 -->
     <g transform="translate(322.005021 192.839052) scale(0.07 -0.07)">
      <use xlink:href="#DejaVuSans-4d"/>
      <use xlink:href="#DejaVuSans-54" x="86.279297"/>
      <use xlink:href="#DejaVuSans-48" x="147.363281"/>
      <use xlink:href="#DejaVuSans-31" x="222.558594"/>
      <use xlink:href="#DejaVuSans-30" x="286.181641"/>
      <use xlink:href="#DejaVuSans-30" x="349.804688"/>
      <use xlink:href="#DejaVuSans-32" x="413.427734"/>
     </g>
    </g>
   </g>
   <g id="text_17">
    <g clip-path="url(#pc310a8dc60)">
     <!-- MTH3019 -->
     <g transform="translate(224.725084 289.19497) scale(0.07 -0.07)">
      <use xlink:href="#DejaVuSans-4d"/>
      <use xlink:href="#DejaVuSans-54" x="86.279297"/>
      <use xlink:href="#DejaVuSans-48" x="147.363281"/>
      <use xlink:href="#DejaVuSans-33" x="222.558594"/>
      <use xlink:href="#DejaVuSans-30" x="286.181641"/>
      <use xlink:href="#DejaVuSans-31" x="349.804688"/>
      <use xlink:href="#DejaVuSans-39" x="413.427734"/>
     </g>
    </g>
   </g>
   <g id="text_18">
    <g clip-path="url(#pc310a8dc60)">
     <!-- ECM3408 -->
     <g transform="translate(210.641535 76.840411) scale(0.07 -0.07)">
      <use xlink:href="#DejaVuSans-45"/>
      <use xlink:href="#DejaVuSans-43" x="63.183594"/>
      <use xlink:href="#DejaVuSans-4d" x="133.007812"/>
      <use xlink:href="#DejaVuSans-33" x="219.287109"/>
      <use xlink:href="#DejaVuSans-34" x="282.910156"/>
      <use xlink:href="#DejaVuSans-30" x="346.533203"/>
      <use xlink:href="#DejaVuSans-38" x="410.15625"/>
     </g>
    </g>
   </g>
   <g id="text_19">
    <g clip-path="url(#pc310a8dc60)">
     <!-- ECM2434 -->
     <g transform="translate(170.91482 80.79268) scale(0.07 -0.07)">
      <use xlink:href="#DejaVuSans-45"/>
      <use xlink:href="#DejaVuSans-43" x="63.183594"/>
      <use xlink:href="#DejaVuSans-4d" x="133.007812"/>
      <use xlink:href="#DejaVuSans-32" x="219.287109"/>
      <use xlink:href="#DejaVuSans-34" x="282.910156"/>
      <use xlink:href="#DejaVuSans-33" x="346.533203"/>
      <use xlink:href="#DejaVuSans-34" x="410.15625"/>
     </g>
    </g>
   </g>
   <g id="text_20">
    <g clip-path="url(#pc310a8dc60)">
     <!-- ECM1400 -->
     <g transform="translate(172.273829 139.447848) scale(0.07 -0.07)">
      <use xlink:href="#DejaVuSans-45"/>
      <use xlink:href="#DejaVuSans-43" x="63.183594"/>
      <use xlink:href="#DejaVuSans-4d" x="133.007812"/>
      <use xlink:href="#DejaVuSans-31" x="219.287109"/>
      <use xlink:href="#DejaVuSans-34" x="282.910156"/>
      <use xlink:href="#DejaVuSans-30" x="346.533203"/>
      <use xlink:href="#DejaVuSans-30" x="410.15625"/>
     </g>
    </g>
   </g>
   <g id="text_21">
    <g clip-path="url(#pc310a8dc60)">
     <!-- 26A06 -->
     <g transform="translate(307.572668 161.61967) scale(0.07 -0.07)">
      <defs>
       <path id="DejaVuSans-36" d="M 2113 2584 
Q 1688 2584 1439 2293 
Q 1191 2003 1191 1497 
Q 1191 994 1439 701 
Q 1688 409 2113 409 
Q 2538 409 2786 701 
Q 3034 994 3034 1497 
Q 3034 2003 2786 2293 
Q 2538 2584 2113 2584 
z
M 3366 4563 
L 3366 3988 
Q 3128 4100 2886 4159 
Q 2644 4219 2406 4219 
Q 1781 4219 1451 3797 
Q 1122 3375 1075 2522 
Q 1259 2794 1537 2939 
Q 1816 3084 2150 3084 
Q 2853 3084 3261 2657 
Q 3669 2231 3669 1497 
Q 3669 778 3244 343 
Q 2819 -91 2113 -91 
Q 1303 -91 875 529 
Q 447 1150 447 2328 
Q 447 3434 972 4092 
Q 1497 4750 2381 4750 
Q 2619 4750 2861 4703 
Q 3103 4656 3366 4563 
z
" transform="scale(0.015625)"/>
       <path id="DejaVuSans-41" d="M 2188 4044 
L 1331 1722 
L 3047 1722 
L 2188 4044 
z
M 1831 4666 
L 2547 4666 
L 4325 0 
L 3669 0 
L 3244 1197 
L 1141 1197 
L 716 0 
L 50 0 
L 1831 4666 
z
" transform="scale(0.015625)"/>
      </defs>
      <use xlink:href="#DejaVuSans-32"/>
      <use xlink:href="#DejaVuSans-36" x="63.623047"/>
      <use xlink:href="#DejaVuSans-41" x="127.246094"/>
      <use xlink:href="#DejaVuSans-30" x="195.654297"/>
      <use xlink:href="#DejaVuSans-36" x="259.277344"/>
     </g>
    </g>
   </g>
   <g id="text_22">
    <g clip-path="url(#pc310a8dc60)">
     <!-- 26B12 -->
     <g transform="translate(362.608469 165.476227) scale(0.07 -0.07)">
      <defs>
       <path id="DejaVuSans-42" d="M 1259 2228 
L 1259 519 
L 2272 519 
Q 2781 519 3026 730 
Q 3272 941 3272 1375 
Q 3272 1813 3026 2020 
Q 2781 2228 2272 2228 
L 1259 2228 
z
M 1259 4147 
L 1259 2741 
L 2194 2741 
Q 2656 2741 2882 2914 
Q 3109 3088 3109 3444 
Q 3109 3797 2882 3972 
Q 2656 4147 2194 4147 
L 1259 4147 
z
M 628 4666 
L 2241 4666 
Q 2963 4666 3353 4366 
Q 3744 4066 3744 3513 
Q 3744 3084 3544 2831 
Q 3344 2578 2956 2516 
Q 3422 2416 3680 2098 
Q 3938 1781 3938 1306 
Q 3938 681 3513 340 
Q 3088 0 2303 0 
L 628 0 
L 628 4666 
z
" transform="scale(0.015625)"/>
      </defs>
      <use xlink:href="#DejaVuSans-32"/>
      <use xlink:href="#DejaVuSans-36" x="63.623047"/>
      <use xlink:href="#DejaVuSans-42" x="127.246094"/>
      <use xlink:href="#DejaVuSans-31" x="195.849609"/>
      <use xlink:href="#DejaVuSans-32" x="259.472656"/>
     </g>
    </g>
   </g>
   <g id="text_23">
    <g clip-path="url(#pc310a8dc60)">
     <!-- 40A05 -->
     <g transform="translate(361.456566 212.442817) scale(0.07 -0.07)">
      <defs>
       <path id="DejaVuSans-35" d="M 691 4666 
L 3169 4666 
L 3169 4134 
L 1269 4134 
L 1269 2991 
Q 1406 3038 1543 3061 
Q 1681 3084 1819 3084 
Q 2600 3084 3056 2656 
Q 3513 2228 3513 1497 
Q 3513 744 3044 326 
Q 2575 -91 1722 -91 
Q 1428 -91 1123 -41 
Q 819 9 494 109 
L 494 744 
Q 775 591 1075 516 
Q 1375 441 1709 441 
Q 2250 441 2565 725 
Q 2881 1009 2881 1497 
Q 2881 1984 2565 2268 
Q 2250 2553 1709 2553 
Q 1456 2553 1204 2497 
Q 953 2441 691 2322 
L 691 4666 
z
" transform="scale(0.015625)"/>
      </defs>
      <use xlink:href="#DejaVuSans-34"/>
      <use xlink:href="#DejaVuSans-30" x="63.623047"/>
      <use xlink:href="#DejaVuSans-41" x="127.246094"/>
      <use xlink:href="#DejaVuSans-30" x="195.654297"/>
      <use xlink:href="#DejaVuSans-35" x="259.277344"/>
     </g>
    </g>
   </g>
   <g id="text_24">
    <g clip-path="url(#pc310a8dc60)">
     <!-- 34A30 -->
     <g transform="translate(372.085825 188.313567) scale(0.07 -0.07)">
      <use xlink:href="#DejaVuSans-33"/>
      <use xlink:href="#DejaVuSans-34" x="63.623047"/>
      <use xlink:href="#DejaVuSans-41" x="127.246094"/>
      <use xlink:href="#DejaVuSans-33" x="195.654297"/>
      <use xlink:href="#DejaVuSans-30" x="259.277344"/>
     </g>
    </g>
   </g>
   <g id="text_25">
    <g clip-path="url(#pc310a8dc60)">
     <!-- 15A04 -->
     <g transform="translate(291.39028 189.261122) scale(0.07 -0.07)">
      <use xlink:href="#DejaVuSans-31"/>
      <use xlink:href="#DejaVuSans-35" x="63.623047"/>
      <use xlink:href="#DejaVuSans-41" x="127.246094"/>
      <use xlink:href="#DejaVuSans-30" x="195.654297"/>
      <use xlink:href="#DejaVuSans-34" x="259.277344"/>
     </g>
    </g>
   </g>
   <g id="text_26">
    <g clip-path="url(#pc310a8dc60)">
     <!-- MTH1004 -->
     <g transform="translate(73.234003 222.031338) scale(0.07 -0.07)">
      <use xlink:href="#DejaVuSans-4d"/>
      <use xlink:href="#DejaVuSans-54" x="86.279297"/>
      <use xlink:href="#DejaVuSans-48" x="147.363281"/>
      <use xlink:href="#DejaVuSans-31" x="222.558594"/>
      <use xlink:href="#DejaVuSans-30" x="286.181641"/>
      <use xlink:href="#DejaVuSans-30" x="349.804688"/>
      <use xlink:href="#DejaVuSans-34" x="413.427734"/>
     </g>
    </g>
   </g>
   <g id="text_27">
    <g clip-path="url(#pc310a8dc60)">
     <!-- MTH2003 -->
     <g transform="translate(326.111764 230.39014) scale(0.07 -0.07)">
      <use xlink:href="#DejaVuSans-4d"/>
      <use xlink:href="#DejaVuSans-54" x="86.279297"/>
      <use xlink:href="#DejaVuSans-48" x="147.363281"/>
      <use xlink:href="#DejaVuSans-32" x="222.558594"/>
      <use xlink:href="#DejaVuSans-30" x="286.181641"/>
      <use xlink:href="#DejaVuSans-30" x="349.804688"/>
      <use xlink:href="#DejaVuSans-33" x="413.427734"/>
     </g>
    </g>
   </g>
   <g id="text_28">
    <g clip-path="url(#pc310a8dc60)">
     <!-- MTH2009 -->
     <g transform="translate(100.487279 252.647326) scale(0.07 -0.07)">
      <use xlink:href="#DejaVuSans-4d"/>
      <use xlink:href="#DejaVuSans-54" x="86.279297"/>
      <use xlink:href="#DejaVuSans-48" x="147.363281"/>
      <use xlink:href="#DejaVuSans-32" x="222.558594"/>
      <use xlink:href="#DejaVuSans-30" x="286.181641"/>
      <use xlink:href="#DejaVuSans-30" x="349.804688"/>
      <use xlink:href="#DejaVuSans-39" x="413.427734"/>
     </g>
    </g>
   </g>
   <g id="text_29">
    <g clip-path="url(#pc310a8dc60)">
     <!-- MTH1003 -->
     <g transform="translate(281.475056 296.078714) scale(0.07 -0.07)">
      <use xlink:href="#DejaVuSans-4d"/>
      <use xlink:href="#DejaVuSans-54" x="86.279297"/>
      <use xlink:href="#DejaVuSans-48" x="147.363281"/>
      <use xlink:href="#DejaVuSans-31" x="222.558594"/>
      <use xlink:href="#DejaVuSans-30" x="286.181641"/>
      <use xlink:href="#DejaVuSans-30" x="349.804688"/>
      <use xlink:href="#DejaVuSans-33" x="413.427734"/>
     </g>
    </g>
   </g>
   <g id="text_30">
    <g clip-path="url(#pc310a8dc60)">
     <!-- MTH3035 -->
     <g transform="translate(325.737883 90.536375) scale(0.07 -0.07)">
      <use xlink:href="#DejaVuSans-4d"/>
      <use xlink:href="#DejaVuSans-54" x="86.279297"/>
      <use xlink:href="#DejaVuSans-48" x="147.363281"/>
      <use xlink:href="#DejaVuSans-33" x="222.558594"/>
      <use xlink:href="#DejaVuSans-30" x="286.181641"/>
      <use xlink:href="#DejaVuSans-33" x="349.804688"/>
      <use xlink:href="#DejaVuSans-35" x="413.427734"/>
     </g>
    </g>
   </g>
   <g id="text_31">
    <g clip-path="url(#pc310a8dc60)">
     <!-- MTH2010 -->
     <g transform="translate(180.309594 275.816349) scale(0.07 -0.07)">
      <use xlink:href="#DejaVuSans-4d"/>
      <use xlink:href="#DejaVuSans-54" x="86.279297"/>
      <use xlink:href="#DejaVuSans-48" x="147.363281"/>
      <use xlink:href="#DejaVuSans-32" x="222.558594"/>
      <use xlink:href="#DejaVuSans-30" x="286.181641"/>
      <use xlink:href="#DejaVuSans-31" x="349.804688"/>
      <use xlink:href="#DejaVuSans-30" x="413.427734"/>
     </g>
    </g>
   </g>
   <g id="text_32">
    <g clip-path="url(#pc310a8dc60)">
     <!-- MTH3004 -->
     <g transform="translate(145.768003 281.041893) scale(0.07 -0.07)">
      <use xlink:href="#DejaVuSans-4d"/>
      <use xlink:href="#DejaVuSans-54" x="86.279297"/>
      <use xlink:href="#DejaVuSans-48" x="147.363281"/>
      <use xlink:href="#DejaVuSans-33" x="222.558594"/>
      <use xlink:href="#DejaVuSans-30" x="286.181641"/>
      <use xlink:href="#DejaVuSans-30" x="349.804688"/>
      <use xlink:href="#DejaVuSans-34" x="413.427734"/>
     </g>
    </g>
   </g>
   <g id="text_33">
    <g clip-path="url(#pc310a8dc60)">
     <!-- MTH3042 -->
     <g transform="translate(330.80951 258.176295) scale(0.07 -0.07)">
      <use xlink:href="#DejaVuSans-4d"/>
      <use xlink:href="#DejaVuSans-54" x="86.279297"/>
      <use xlink:href="#DejaVuSans-48" x="147.363281"/>
      <use xlink:href="#DejaVuSans-33" x="222.558594"/>
      <use xlink:href="#DejaVuSans-30" x="286.181641"/>
      <use xlink:href="#DejaVuSans-34" x="349.804688"/>
      <use xlink:href="#DejaVuSans-32" x="413.427734"/>
     </g>
    </g>
   </g>
   <g id="text_34">
    <g clip-path="url(#pc310a8dc60)">
     <!-- MTH2004 -->
     <g transform="translate(332.034302 152.915801) scale(0.07 -0.07)">
      <use xlink:href="#DejaVuSans-4d"/>
      <use xlink:href="#DejaVuSans-54" x="86.279297"/>
      <use xlink:href="#DejaVuSans-48" x="147.363281"/>
      <use xlink:href="#DejaVuSans-32" x="222.558594"/>
      <use xlink:href="#DejaVuSans-30" x="286.181641"/>
      <use xlink:href="#DejaVuSans-30" x="349.804688"/>
      <use xlink:href="#DejaVuSans-34" x="413.427734"/>
     </g>
    </g>
   </g>
   <g id="matplotlib.axis_1"/>
   <g id="matplotlib.axis_2"/>
  </g>
 </g>
 <defs>
  <clipPath id="pc310a8dc60">
   <rect x="57.6" y="41.472" width="357.12" height="266.112"/>
  </clipPath>
 </defs>
</svg>
