<?xml version="1.0" encoding="utf-8" standalone="no"?>
<!DOCTYPE svg PUBLIC "-//W3C//DTD SVG 1.1//EN"
  "http://www.w3.org/Graphics/SVG/1.1/DTD/svg11.dtd">
<svg xmlns:xlink="http://www.w3.org/1999/xlink" width="460.8pt" height="345.6pt" viewBox="0 0 460.8 345.6" xmlns="http://www.w3.org/2000/svg" version="1.1">
 <metadata>
  <rdf:RDF xmlns:dc="http://purl.org/dc/elements/1.1/" xmlns:cc="http://creativecommons.org/ns#" xmlns:rdf="http://www.w3.org/1999/02/22-rdf-syntax-ns#">
   <cc:Work>
    <dc:type rdf:resource="http://purl.org/dc/dcmitype/StillImage"/>
    <dc:date>2024-05-02T17:00:17.097992</dc:date>
    <dc:format>image/svg+xml</dc:format>
    <dc:creator>
     <cc:Agent>
      <dc:title>Matplotlib v3.8.3, https://matplotlib.org/</dc:title>
     </cc:Agent>
    </dc:creator>
   </cc:Work>
  </rdf:RDF>
 </metadata>
 <defs>
  <style type="text/css">*{stroke-linejoin: round; stroke-linecap: butt}</style>
 </defs>
 <g id="figure_1">
  <g id="patch_1">
   <path d="M 0 345.6 
L 460.8 345.6 
L 460.8 0 
L 0 0 
L 0 345.6 
z
" style="fill: none"/>
  </g>
  <g id="axes_1">
   <g id="patch_2">
    <path d="M 57.6 307.584 
L 414.72 307.584 
L 414.72 41.472 
L 57.6 41.472 
L 57.6 307.584 
z
" style="fill: none"/>
   </g>
   <g id="EdgeCollection_1">
    <path d="M 217.156538 135.938238 
L 231.979728 95.814376 
L 217.156538 135.938238 
L 218.563589 136.458053 
L 216.116908 138.75234 
L 215.749487 135.418423 
L 217.156538 135.938238 
" clip-path="url(#p1b6561d5b1)" style="stroke: #000000"/>
    <path d="M 206.367152 83.60987 
L 228.891164 89.799345 
L 206.367152 83.60987 
L 205.969694 85.056254 
L 203.474384 82.814953 
L 206.76461 82.163486 
L 206.367152 83.60987 
" clip-path="url(#p1b6561d5b1)" style="fill: #0000ff; stroke: #0000ff"/>
    <path d="M 249.350307 76.993899 
L 237.422275 87.772019 
L 249.350307 76.993899 
L 248.344651 75.88095 
L 251.576205 74.982587 
L 250.355963 78.106848 
L 249.350307 76.993899 
" clip-path="url(#p1b6561d5b1)" style="fill: #0000ff; stroke: #0000ff"/>
    <path d="M 216.168449 73.939459 
L 230.140529 87.625433 
L 216.168449 73.939459 
L 215.118817 75.011033 
L 214.0253 71.840194 
L 217.218081 72.867884 
L 216.168449 73.939459 
" clip-path="url(#p1b6561d5b1)" style="fill: #0000ff; stroke: #0000ff"/>
    <path d="M 233.288828 72.805864 
L 233.596849 86.125543 
L 233.288828 72.805864 
L 231.789229 72.840543 
L 233.21947 69.806666 
L 234.788427 72.771185 
L 233.288828 72.805864 
" clip-path="url(#p1b6561d5b1)" style="fill: #0000ff; stroke: #0000ff"/>
    <path d="M 317.934984 225.161999 
L 310.580853 224.347028 
L 317.934984 225.161999 
L 318.1002 223.671126 
L 320.916731 225.492431 
L 317.769769 226.652873 
L 317.934984 225.161999 
" clip-path="url(#p1b6561d5b1)" style="stroke: #000000"/>
    <path d="M 290.934576 213.1196 
L 301.567954 220.854956 
L 290.934576 213.1196 
L 290.05217 214.332597 
L 288.508584 211.354788 
L 291.816982 211.906604 
L 290.934576 213.1196 
" clip-path="url(#p1b6561d5b1)" style="fill: #0000ff; stroke: #0000ff"/>
    <path d="M 310.53546 206.890506 
L 307.009528 218.9958 
L 310.53546 206.890506 
L 309.095307 206.47103 
L 311.374412 204.010201 
L 311.975613 207.309982 
L 310.53546 206.890506 
" clip-path="url(#p1b6561d5b1)" style="fill: #0000ff; stroke: #0000ff"/>
    <path d="M 326.669529 233.009807 
L 310.19202 225.800497 
L 326.669529 233.009807 
L 327.270785 231.635584 
L 329.417977 234.21232 
L 326.068273 234.384031 
L 326.669529 233.009807 
" clip-path="url(#p1b6561d5b1)" style="fill: #0000ff; stroke: #0000ff"/>
    <path d="M 207.778287 147.95494 
L 176.379418 169.403211 
L 207.778287 147.95494 
L 206.932206 146.716333 
L 210.255501 146.262779 
L 208.624368 149.193547 
L 207.778287 147.95494 
" clip-path="url(#p1b6561d5b1)" style="stroke: #000000"/>
    <path d="M 182.91738 169.082772 
L 177.047134 170.811218 
L 182.91738 169.082772 
L 182.493701 167.64385 
L 185.795224 168.235415 
L 183.341059 170.521694 
L 182.91738 169.082772 
" clip-path="url(#p1b6561d5b1)" style="fill: #0000ff; stroke: #0000ff"/>
    <path d="M 222.320018 142.431247 
L 281.30536 134.914741 
L 222.320018 142.431247 
L 222.50963 143.919214 
L 219.344083 142.81047 
L 222.130406 140.943279 
L 222.320018 142.431247 
" clip-path="url(#p1b6561d5b1)" style="stroke: #000000"/>
    <path d="M 296.06923 116.052287 
L 288.633429 129.879096 
L 296.06923 116.052287 
L 294.748148 115.341834 
L 297.490136 113.410124 
L 297.390311 116.76274 
L 296.06923 116.052287 
" clip-path="url(#p1b6561d5b1)" style="fill: #0000ff; stroke: #0000ff"/>
    <path d="M 316.455194 124.876794 
L 291.038931 132.795425 
L 316.455194 124.876794 
L 316.009011 123.444691 
L 319.319401 123.984429 
L 316.901377 126.308898 
L 316.455194 124.876794 
" clip-path="url(#p1b6561d5b1)" style="fill: #0000ff; stroke: #0000ff"/>
    <path d="M 303.762023 145.207915 
L 290.506362 136.930906 
L 303.762023 145.207915 
L 304.556485 143.935582 
L 306.306689 146.796837 
L 302.967562 146.480247 
L 303.762023 145.207915 
" clip-path="url(#p1b6561d5b1)" style="fill: #0000ff; stroke: #0000ff"/>
    <path d="M 320.153302 136.687393 
L 291.252711 134.636611 
L 320.153302 136.687393 
L 320.259474 135.191156 
L 323.145777 136.899739 
L 320.047129 138.183631 
L 320.153302 136.687393 
" clip-path="url(#p1b6561d5b1)" style="fill: #0000ff; stroke: #0000ff"/>
    <path d="M 241.692835 90.56442 
L 281.450454 87.77561 
L 241.692835 90.56442 
L 241.797795 92.060743 
L 238.700189 90.77434 
L 241.587875 89.068096 
L 241.692835 90.56442 
" clip-path="url(#p1b6561d5b1)" style="stroke: #000000"/>
    <path d="M 295.633696 102.212948 
L 289.078584 91.671726 
L 295.633696 102.212948 
L 296.907491 101.420832 
L 297.217928 104.760537 
L 294.359902 103.005063 
L 295.633696 102.212948 
" clip-path="url(#p1b6561d5b1)" style="fill: #0000ff; stroke: #0000ff"/>
    <path d="M 314.564933 86.541423 
L 291.435729 87.268618 
L 314.564933 86.541423 
L 314.517795 85.042164 
L 317.563451 86.447148 
L 314.61207 88.040682 
L 314.564933 86.541423 
" clip-path="url(#p1b6561d5b1)" style="fill: #0000ff; stroke: #0000ff"/>
    <path d="M 298.498072 75.842169 
L 290.044224 83.962136 
L 298.498072 75.842169 
L 297.45899 74.760361 
L 300.661687 73.764004 
L 299.537154 76.923976 
L 298.498072 75.842169 
" clip-path="url(#p1b6561d5b1)" style="fill: #0000ff; stroke: #0000ff"/>
    <path d="M 119.532425 105.265609 
L 118.392513 116.025696 
L 119.532425 105.265609 
L 118.040772 105.107585 
L 119.848473 102.282304 
L 121.024078 105.423634 
L 119.532425 105.265609 
" clip-path="url(#p1b6561d5b1)" style="fill: #0000ff; stroke: #0000ff"/>
    <path d="M 102.17258 113.870662 
L 113.313271 118.930314 
L 102.17258 113.870662 
L 101.552312 115.23641 
L 99.441083 112.630127 
L 102.792847 112.504914 
L 102.17258 113.870662 
" clip-path="url(#p1b6561d5b1)" style="fill: #0000ff; stroke: #0000ff"/>
    <path d="M 98.981106 128.709359 
L 113.236824 122.888085 
L 98.981106 128.709359 
L 99.54817 130.098042 
L 96.203741 129.843487 
L 98.414042 127.320677 
L 98.981106 128.709359 
" clip-path="url(#p1b6561d5b1)" style="fill: #0000ff; stroke: #0000ff"/>
    <path d="M 318.532195 229.192276 
L 273.354846 248.537799 
L 318.532195 229.192276 
L 317.941734 227.81338 
L 321.289988 228.011354 
L 319.122656 230.571173 
L 318.532195 229.192276 
" clip-path="url(#p1b6561d5b1)" style="stroke: #000000"/>
    <path d="M 232.72607 266.107715 
L 264.170172 252.492716 
L 232.72607 266.107715 
L 233.322084 267.484221 
L 229.973059 267.299743 
L 232.130056 264.73121 
L 232.72607 266.107715 
" clip-path="url(#p1b6561d5b1)" style="stroke: #000000"/>
    <path d="M 254.921459 240.365818 
L 264.725527 247.550511 
L 254.921459 240.365818 
L 254.034811 241.575717 
L 252.50166 238.592523 
L 255.808106 239.155919 
L 254.921459 240.365818 
" clip-path="url(#p1b6561d5b1)" style="fill: #0000ff; stroke: #0000ff"/>
    <path d="M 255.53619 266.098372 
L 265.524711 254.31946 
L 255.53619 266.098372 
L 256.680228 267.068516 
L 253.595903 268.386446 
L 254.392153 265.128228 
L 255.53619 266.098372 
" clip-path="url(#p1b6561d5b1)" style="fill: #0000ff; stroke: #0000ff"/>
    <path d="M 245.93569 251.962267 
L 263.768671 250.824392 
L 245.93569 251.962267 
L 246.031206 253.459222 
L 242.941778 252.1533 
L 245.840173 250.465311 
L 245.93569 251.962267 
" clip-path="url(#p1b6561d5b1)" style="fill: #0000ff; stroke: #0000ff"/>
    <path d="M 276.754963 250.744675 
L 291.734414 251.191772 
L 276.754963 250.744675 
L 276.710212 252.244008 
L 273.756298 250.655173 
L 276.799714 249.245343 
L 276.754963 250.744675 
" clip-path="url(#p1b6561d5b1)" style="stroke: #000000"/>
    <path d="M 303.156825 231.410485 
L 298.266219 246.582082 
L 303.156825 231.410485 
L 301.729167 230.950276 
L 304.077243 228.555169 
L 304.584483 231.870694 
L 303.156825 231.410485 
" clip-path="url(#p1b6561d5b1)" style="stroke: #000000"/>
    <path d="M 314.153532 251.087445 
L 301.731659 251.268195 
L 314.153532 251.087445 
L 314.131708 249.587604 
L 317.153214 251.043797 
L 314.175356 252.587286 
L 314.153532 251.087445 
" clip-path="url(#p1b6561d5b1)" style="fill: #0000ff; stroke: #0000ff"/>
    <path d="M 296.179929 265.962356 
L 296.54347 256.337379 
L 296.179929 265.962356 
L 297.67886 266.018971 
L 296.066697 268.960218 
L 294.680997 265.90574 
L 296.179929 265.962356 
" clip-path="url(#p1b6561d5b1)" style="fill: #0000ff; stroke: #0000ff"/>
    <path d="M 125.141716 124.323613 
L 150.503457 135.916128 
L 125.141716 124.323613 
L 124.518139 125.687853 
L 122.413234 123.07646 
L 125.765292 122.959372 
L 125.141716 124.323613 
" clip-path="url(#p1b6561d5b1)" style="stroke: #000000"/>
    <path d="M 206.417701 142.711052 
L 160.029983 138.451877 
L 206.417701 142.711052 
L 206.554849 141.217335 
L 209.405135 142.985348 
L 206.280552 144.204769 
L 206.417701 142.711052 
" clip-path="url(#p1b6561d5b1)" style="stroke: #000000"/>
    <path d="M 149.764139 123.487562 
L 153.338934 133.296942 
L 149.764139 123.487562 
L 148.354806 124.001159 
L 148.736943 120.668897 
L 151.173471 122.973964 
L 149.764139 123.487562 
" clip-path="url(#p1b6561d5b1)" style="fill: #0000ff; stroke: #0000ff"/>
    <path d="M 173.863853 125.848612 
L 159.251521 135.282705 
L 173.863853 125.848612 
L 173.050249 124.588434 
L 176.38421 124.221405 
L 174.677456 127.10879 
L 173.863853 125.848612 
" clip-path="url(#p1b6561d5b1)" style="fill: #0000ff; stroke: #0000ff"/>
    <path d="M 179.625916 175.322931 
L 191.865268 180.466565 
L 179.625916 175.322931 
L 179.044769 176.705779 
L 176.860221 174.160637 
L 180.207063 173.940083 
L 179.625916 175.322931 
" clip-path="url(#p1b6561d5b1)" style="stroke: #000000"/>
    <path d="M 211.042906 150.711335 
L 198.563064 177.860706 
L 211.042906 150.711335 
L 209.680001 150.084844 
L 212.295888 147.985525 
L 212.405811 151.337825 
L 211.042906 150.711335 
" clip-path="url(#p1b6561d5b1)" style="stroke: #000000"/>
    <path d="M 174.100318 204.652712 
L 192.929301 185.929302 
L 174.100318 204.652712 
L 175.157992 205.71635 
L 171.973042 206.768061 
L 173.042644 203.589074 
L 174.100318 204.652712 
" clip-path="url(#p1b6561d5b1)" style="fill: #0000ff; stroke: #0000ff"/>
    <path d="M 196.884848 196.041279 
L 196.625045 187.401463 
L 196.884848 196.041279 
L 198.384171 195.996194 
L 196.975019 199.039924 
L 195.385526 196.086364 
L 196.884848 196.041279 
" clip-path="url(#p1b6561d5b1)" style="fill: #0000ff; stroke: #0000ff"/>
    <path d="M 215.529328 135.524892 
L 216.770963 126.940072 
L 215.529328 135.524892 
L 217.013881 135.739606 
L 215.099901 138.493999 
L 214.044774 135.310179 
L 215.529328 135.524892 
" clip-path="url(#p1b6561d5b1)" style="stroke: #000000"/>
    <path d="M 243.38762 117.759548 
L 222.421238 121.185292 
L 243.38762 117.759548 
L 243.14574 116.279179 
L 246.348359 117.275786 
L 243.629501 119.239918 
L 243.38762 117.759548 
" clip-path="url(#p1b6561d5b1)" style="fill: #0000ff; stroke: #0000ff"/>
    <path d="M 188.584122 121.613915 
L 212.4871 121.926236 
L 188.584122 121.613915 
L 188.564524 123.113787 
L 185.584378 121.57472 
L 188.603719 120.114043 
L 188.584122 121.613915 
" clip-path="url(#p1b6561d5b1)" style="fill: #0000ff; stroke: #0000ff"/>
    <path d="M 225.021944 111.69831 
L 220.440148 117.957087 
L 225.021944 111.69831 
L 223.811601 110.812268 
L 226.794028 109.277625 
L 226.232286 112.584353 
L 225.021944 111.69831 
" clip-path="url(#p1b6561d5b1)" style="fill: #0000ff; stroke: #0000ff"/>
    <path d="M 229.259896 131.331117 
L 221.40381 125.098979 
L 229.259896 131.331117 
L 230.192121 130.155976 
L 231.610178 133.195567 
L 228.327671 132.506258 
L 229.259896 131.331117 
" clip-path="url(#p1b6561d5b1)" style="fill: #0000ff; stroke: #0000ff"/>
    <path d="M 163.721846 201.052176 
L 150.750813 218.01438 
L 163.721846 201.052176 
L 162.530307 200.141004 
L 165.54419 198.669098 
L 164.913385 201.963348 
L 163.721846 201.052176 
" clip-path="url(#p1b6561d5b1)" style="stroke: #000000"/>
    <path d="M 143.184409 208.300501 
L 146.142654 217.239366 
L 143.184409 208.300501 
L 141.760365 208.771776 
L 142.241857 205.452414 
L 144.608452 207.829225 
L 143.184409 208.300501 
" clip-path="url(#p1b6561d5b1)" style="stroke: #000000"/>
    <path d="M 161.460865 214.226177 
L 152.067771 219.528342 
L 161.460865 214.226177 
L 160.723514 212.919918 
L 164.073384 212.751476 
L 162.198216 215.532437 
L 161.460865 214.226177 
" clip-path="url(#p1b6561d5b1)" style="fill: #0000ff; stroke: #0000ff"/>
    <path d="M 137.372682 238.100884 
L 145.013216 226.194273 
L 137.372682 238.100884 
L 138.635111 238.910992 
L 135.752468 240.625742 
L 136.110253 237.290777 
L 137.372682 238.100884 
" clip-path="url(#p1b6561d5b1)" style="fill: #0000ff; stroke: #0000ff"/>
    <path d="M 323.337683 243.0593 
L 325.145686 230.987993 
L 323.337683 243.0593 
L 324.821136 243.281487 
L 322.893309 246.026206 
L 321.85423 242.837113 
L 323.337683 243.0593 
" clip-path="url(#p1b6561d5b1)" style="fill: #0000ff; stroke: #0000ff"/>
    <path d="M 346.259622 215.827432 
L 330.355893 223.801983 
L 346.259622 215.827432 
L 345.587272 214.486558 
L 348.941372 214.482732 
L 346.931972 217.168307 
L 346.259622 215.827432 
" clip-path="url(#p1b6561d5b1)" style="fill: #0000ff; stroke: #0000ff"/>
    <path d="M 329.011018 229.961685 
L 329.003625 229.952414 
L 329.011018 229.961685 
L 330.183797 229.02649 
L 330.881407 232.307243 
L 327.838239 230.89688 
L 329.011018 229.961685 
" clip-path="url(#p1b6561d5b1)" style="fill: #0000ff; stroke: #0000ff"/>
    <path d="M 353.396167 229.247331 
L 330.852735 226.621609 
L 353.396167 229.247331 
L 353.569705 227.757403 
L 356.376023 229.594406 
L 353.22263 230.737258 
L 353.396167 229.247331 
" clip-path="url(#p1b6561d5b1)" style="fill: #0000ff; stroke: #0000ff"/>
    <path d="M 170.961638 180.118938 
L 169.387112 189.762641 
L 170.961638 180.118938 
L 169.48124 179.877233 
L 171.445047 177.158141 
L 172.442036 180.360642 
L 170.961638 180.118938 
" clip-path="url(#p1b6561d5b1)" style="stroke: #000000"/>
    <path d="M 189.522027 201.549657 
L 173.333479 196.252306 
L 189.522027 201.549657 
L 189.988528 200.124043 
L 192.373255 202.48266 
L 189.055525 202.975271 
L 189.522027 201.549657 
" clip-path="url(#p1b6561d5b1)" style="fill: #0000ff; stroke: #0000ff"/>
    <path d="M 185.63388 173.101744 
L 171.680025 190.773182 
L 185.63388 173.101744 
L 184.456644 172.172166 
L 187.493037 170.747272 
L 186.811116 174.031322 
L 185.63388 173.101744 
" clip-path="url(#p1b6561d5b1)" style="fill: #0000ff; stroke: #0000ff"/>
    <path d="M 164.835978 175.227058 
L 131.797626 188.610279 
L 164.835978 175.227058 
L 164.272807 173.836792 
L 167.616509 174.100716 
L 165.399148 176.617323 
L 164.835978 175.227058 
" clip-path="url(#p1b6561d5b1)" style="stroke: #000000"/>
    <path d="M 107.020908 205.957252 
L 123.197958 193.533038 
L 107.020908 205.957252 
L 107.934565 207.146887 
L 104.641639 207.784567 
L 106.107251 204.767618 
L 107.020908 205.957252 
" clip-path="url(#p1b6561d5b1)" style="fill: #0000ff; stroke: #0000ff"/>
    <path d="M 209.780962 279.782796 
L 221.236007 272.077207 
L 209.780962 279.782796 
L 210.618188 281.027406 
L 207.291743 281.457247 
L 208.943737 278.538186 
L 209.780962 279.782796 
" clip-path="url(#p1b6561d5b1)" style="fill: #0000ff; stroke: #0000ff"/>
    <path d="M 198.507769 268.567037 
L 220.386497 269.152668 
L 198.507769 268.567037 
L 198.467633 270.066499 
L 195.508843 268.486764 
L 198.547906 267.067574 
L 198.507769 268.567037 
" clip-path="url(#p1b6561d5b1)" style="fill: #0000ff; stroke: #0000ff"/>
    <path d="M 242.415964 271.27304 
L 230.351036 269.865746 
L 242.415964 271.27304 
L 242.58975 269.783141 
L 245.395761 271.620614 
L 242.242177 272.762938 
L 242.415964 271.27304 
" clip-path="url(#p1b6561d5b1)" style="fill: #0000ff; stroke: #0000ff"/>
    <path d="M 331.348853 220.198441 
L 353.250869 196.764138 
L 331.348853 220.198441 
L 332.444736 221.222668 
L 329.300399 222.390207 
L 330.25297 219.174214 
L 331.348853 220.198441 
" clip-path="url(#p1b6561d5b1)" style="stroke: #000000"/>
    <path d="M 376.148971 184.613435 
L 361.248031 191.112333 
L 376.148971 184.613435 
L 375.549313 183.238513 
L 378.898815 183.414118 
L 376.74863 185.988357 
L 376.148971 184.613435 
" clip-path="url(#p1b6561d5b1)" style="fill: #0000ff; stroke: #0000ff"/>
    <path d="M 363.543487 176.235963 
L 358.552252 188.481063 
L 363.543487 176.235963 
L 362.154447 175.669775 
L 364.675863 173.457884 
L 364.932527 176.802151 
L 363.543487 176.235963 
" clip-path="url(#p1b6561d5b1)" style="fill: #0000ff; stroke: #0000ff"/>
    <path d="M 149.07396 143.312222 
L 124.215486 165.427972 
L 149.07396 143.312222 
L 148.076927 142.191541 
L 151.315322 141.318157 
L 150.070992 144.432903 
L 149.07396 143.312222 
" clip-path="url(#p1b6561d5b1)" style="stroke: #000000"/>
    <path d="M 136.397563 193.942596 
L 123.150742 172.978293 
L 136.397563 193.942596 
L 137.665627 193.141338 
L 138.000079 196.478724 
L 135.129499 194.743854 
L 136.397563 193.942596 
" clip-path="url(#p1b6561d5b1)" style="stroke: #000000"/>
    <path d="M 96.754169 165.287052 
L 115.532347 168.028988 
L 96.754169 165.287052 
L 96.537442 166.771313 
L 93.785648 164.853597 
L 96.970897 163.802792 
L 96.754169 165.287052 
" clip-path="url(#p1b6561d5b1)" style="fill: #0000ff; stroke: #0000ff"/>
    <path d="M 96.560022 179.477648 
L 115.917587 170.797255 
L 96.560022 179.477648 
L 97.173774 180.846337 
L 93.822645 180.705153 
L 95.946269 178.10896 
L 96.560022 179.477648 
" clip-path="url(#p1b6561d5b1)" style="fill: #0000ff; stroke: #0000ff"/>
    <path d="M 160.760593 196.380896 
L 145.558962 199.653357 
L 160.760593 196.380896 
L 160.444919 194.914489 
L 163.693408 195.749548 
L 161.076267 197.847303 
L 160.760593 196.380896 
" clip-path="url(#p1b6561d5b1)" style="stroke: #000000"/>
    <path d="M 160.866009 207.68163 
L 145.396922 202.33811 
L 160.866009 207.68163 
L 161.355761 206.263835 
L 163.701599 208.661134 
L 160.376257 209.099425 
L 160.866009 207.68163 
" clip-path="url(#p1b6561d5b1)" style="fill: #0000ff; stroke: #0000ff"/>
    <path d="M 196.297663 161.215908 
L 210.817921 146.947038 
L 196.297663 161.215908 
L 197.349021 162.285789 
L 194.157901 163.318625 
L 195.246304 160.146027 
L 196.297663 161.215908 
" clip-path="url(#p1b6561d5b1)" style="fill: #0000ff; stroke: #0000ff"/>
    <path d="M 234.865774 156.318351 
L 218.617215 146.10362 
L 234.865774 156.318351 
L 235.664107 155.048444 
L 237.405589 157.915017 
L 234.067441 157.588258 
L 234.865774 156.318351 
" clip-path="url(#p1b6561d5b1)" style="fill: #0000ff; stroke: #0000ff"/>
    <path d="M 227.947781 138.862411 
L 219.1214 141.842868 
L 227.947781 138.862411 
L 227.467888 137.441248 
L 230.790106 137.902626 
L 228.427673 140.283573 
L 227.947781 138.862411 
" clip-path="url(#p1b6561d5b1)" style="fill: #0000ff; stroke: #0000ff"/>
   </g>
   <g id="VertexCollection_1">
    <path d="M 233.712444 96.124206 
C 235.03846 96.124206 236.310344 95.597375 237.247978 94.65974 
C 238.185613 93.722106 238.712444 92.450222 238.712444 91.124206 
C 238.712444 89.798191 238.185613 88.526307 237.247978 87.588673 
C 236.310344 86.651038 235.03846 86.124206 233.712444 86.124206 
C 232.386429 86.124206 231.114545 86.651038 230.17691 87.588673 
C 229.239276 88.526307 228.712444 89.798191 228.712444 91.124206 
C 228.712444 92.450222 229.239276 93.722106 230.17691 94.65974 
C 231.114545 95.597375 232.386429 96.124206 233.712444 96.124206 
z
" clip-path="url(#p1b6561d5b1)"/>
    <path d="M 305.611275 228.796309 
C 306.93729 228.796309 308.209174 228.269477 309.146809 227.331843 
C 310.084443 226.394208 310.611275 225.122324 310.611275 223.796309 
C 310.611275 222.470293 310.084443 221.19841 309.146809 220.260775 
C 308.209174 219.323141 306.93729 218.796309 305.611275 218.796309 
C 304.285259 218.796309 303.013375 219.323141 302.075741 220.260775 
C 301.138106 221.19841 300.611275 222.470293 300.611275 223.796309 
C 300.611275 225.122324 301.138106 226.394208 302.075741 227.331843 
C 303.013375 228.269477 304.285259 228.796309 305.611275 228.796309 
z
" clip-path="url(#p1b6561d5b1)"/>
    <path d="M 172.250728 177.22348 
C 173.576743 177.22348 174.848627 176.696649 175.786262 175.759014 
C 176.723896 174.82138 177.250728 173.549496 177.250728 172.22348 
C 177.250728 170.897465 176.723896 169.625581 175.786262 168.687946 
C 174.848627 167.750312 173.576743 167.22348 172.250728 167.22348 
C 170.924712 167.22348 169.652829 167.750312 168.715194 168.687946 
C 167.777559 169.625581 167.250728 170.897465 167.250728 172.22348 
C 167.250728 173.549496 167.777559 174.82138 168.715194 175.759014 
C 169.652829 176.696649 170.924712 177.22348 172.250728 177.22348 
z
" clip-path="url(#p1b6561d5b1)"/>
    <path d="M 286.265252 139.282701 
C 287.591267 139.282701 288.863151 138.75587 289.800786 137.818235 
C 290.73842 136.880601 291.265252 135.608717 291.265252 134.282701 
C 291.265252 132.956686 290.73842 131.684802 289.800786 130.747167 
C 288.863151 129.809533 287.591267 129.282701 286.265252 129.282701 
C 284.939236 129.282701 283.667352 129.809533 282.729718 130.747167 
C 281.792083 131.684802 281.265252 132.956686 281.265252 134.282701 
C 281.265252 135.608717 281.792083 136.880601 282.729718 137.818235 
C 283.667352 138.75587 284.939236 139.282701 286.265252 139.282701 
z
" clip-path="url(#p1b6561d5b1)"/>
    <path d="M 286.438198 92.425744 
C 287.764214 92.425744 289.036097 91.898912 289.973732 90.961277 
C 290.911366 90.023643 291.438198 88.751759 291.438198 87.425744 
C 291.438198 86.099728 290.911366 84.827844 289.973732 83.89021 
C 289.036097 82.952575 287.764214 82.425744 286.438198 82.425744 
C 285.112183 82.425744 283.840299 82.952575 282.902664 83.89021 
C 281.96503 84.827844 281.438198 86.099728 281.438198 87.425744 
C 281.438198 88.751759 281.96503 90.023643 282.902664 90.961277 
C 283.840299 91.898912 285.112183 92.425744 286.438198 92.425744 
z
" clip-path="url(#p1b6561d5b1)"/>
    <path d="M 117.865765 125.997872 
C 119.191781 125.997872 120.463665 125.471041 121.401299 124.533406 
C 122.338934 123.595772 122.865765 122.323888 122.865765 120.997872 
C 122.865765 119.671857 122.338934 118.399973 121.401299 117.462339 
C 120.463665 116.524704 119.191781 115.997872 117.865765 115.997872 
C 116.53975 115.997872 115.267866 116.524704 114.330232 117.462339 
C 113.392597 118.399973 112.865765 119.671857 112.865765 120.997872 
C 112.865765 122.323888 113.392597 123.595772 114.330232 124.533406 
C 115.267866 125.471041 116.53975 125.997872 117.865765 125.997872 
z
" clip-path="url(#p1b6561d5b1)"/>
    <path d="M 268.758524 255.506003 
C 270.084539 255.506003 271.356423 254.979171 272.294058 254.041537 
C 273.231692 253.103902 273.758524 251.832019 273.758524 250.506003 
C 273.758524 249.179988 273.231692 247.908104 272.294058 246.970469 
C 271.356423 246.032835 270.084539 245.506003 268.758524 245.506003 
C 267.432508 245.506003 266.160625 246.032835 265.22299 246.970469 
C 264.285356 247.908104 263.758524 249.179988 263.758524 250.506003 
C 263.758524 251.832019 264.285356 253.103902 265.22299 254.041537 
C 266.160625 254.979171 267.432508 255.506003 268.758524 255.506003 
z
" clip-path="url(#p1b6561d5b1)"/>
    <path d="M 296.732188 256.340942 
C 298.058204 256.340942 299.330087 255.81411 300.267722 254.876476 
C 301.205357 253.938841 301.732188 252.666957 301.732188 251.340942 
C 301.732188 250.014926 301.205357 248.743043 300.267722 247.805408 
C 299.330087 246.867774 298.058204 246.340942 296.732188 246.340942 
C 295.406173 246.340942 294.134289 246.867774 293.196654 247.805408 
C 292.25902 248.743043 291.732188 250.014926 291.732188 251.340942 
C 291.732188 252.666957 292.25902 253.938841 293.196654 254.876476 
C 294.134289 255.81411 295.406173 256.340942 296.732188 256.340942 
z
" clip-path="url(#p1b6561d5b1)"/>
    <path d="M 155.050926 142.994716 
C 156.376942 142.994716 157.648826 142.467884 158.58646 141.53025 
C 159.524095 140.592615 160.050926 139.320731 160.050926 137.994716 
C 160.050926 136.6687 159.524095 135.396817 158.58646 134.459182 
C 157.648826 133.521548 156.376942 132.994716 155.050926 132.994716 
C 153.724911 132.994716 152.453027 133.521548 151.515392 134.459182 
C 150.577758 135.396817 150.050926 136.6687 150.050926 137.994716 
C 150.050926 139.320731 150.577758 140.592615 151.515392 141.53025 
C 152.453027 142.467884 153.724911 142.994716 155.050926 142.994716 
z
" clip-path="url(#p1b6561d5b1)"/>
    <path d="M 196.47476 187.403722 
C 197.800776 187.403722 199.07266 186.87689 200.010294 185.939256 
C 200.947929 185.001621 201.47476 183.729737 201.47476 182.403722 
C 201.47476 181.077706 200.947929 179.805822 200.010294 178.868188 
C 199.07266 177.930553 197.800776 177.403722 196.47476 177.403722 
C 195.148745 177.403722 193.876861 177.930553 192.939227 178.868188 
C 192.001592 179.805822 191.47476 181.077706 191.47476 182.403722 
C 191.47476 183.729737 192.001592 185.001621 192.939227 185.939256 
C 193.876861 186.87689 195.148745 187.403722 196.47476 187.403722 
z
" clip-path="url(#p1b6561d5b1)"/>
    <path d="M 217.486673 126.991561 
C 218.812688 126.991561 220.084572 126.46473 221.022207 125.527095 
C 221.959841 124.589461 222.486673 123.317577 222.486673 121.991561 
C 222.486673 120.665546 221.959841 119.393662 221.022207 118.456028 
C 220.084572 117.518393 218.812688 116.991561 217.486673 116.991561 
C 216.160657 116.991561 214.888774 117.518393 213.951139 118.456028 
C 213.013504 119.393662 212.486673 120.665546 212.486673 121.991561 
C 212.486673 123.317577 213.013504 124.589461 213.951139 125.527095 
C 214.888774 126.46473 216.160657 126.991561 217.486673 126.991561 
z
" clip-path="url(#p1b6561d5b1)"/>
    <path d="M 147.713573 226.986177 
C 149.039588 226.986177 150.311472 226.459345 151.249106 225.521711 
C 152.186741 224.584076 152.713573 223.312192 152.713573 221.986177 
C 152.713573 220.660161 152.186741 219.388278 151.249106 218.450643 
C 150.311472 217.513008 149.039588 216.986177 147.713573 216.986177 
C 146.387557 216.986177 145.115673 217.513008 144.178039 218.450643 
C 143.240404 219.388278 142.713573 220.660161 142.713573 221.986177 
C 142.713573 223.312192 143.240404 224.584076 144.178039 225.521711 
C 145.115673 226.459345 146.387557 226.986177 147.713573 226.986177 
z
" clip-path="url(#p1b6561d5b1)"/>
    <path d="M 325.88631 231.04315 
C 327.212325 231.04315 328.484209 230.516318 329.421844 229.578684 
C 330.359478 228.641049 330.88631 227.369165 330.88631 226.04315 
C 330.88631 224.717134 330.359478 223.44525 329.421844 222.507616 
C 328.484209 221.569981 327.212325 221.04315 325.88631 221.04315 
C 324.560294 221.04315 323.28841 221.569981 322.350776 222.507616 
C 321.413141 223.44525 320.88631 224.717134 320.88631 226.04315 
C 320.88631 227.369165 321.413141 228.641049 322.350776 229.578684 
C 323.28841 230.516318 324.560294 231.04315 325.88631 231.04315 
z
" clip-path="url(#p1b6561d5b1)"/>
    <path d="M 168.581431 199.697302 
C 169.907447 199.697302 171.179331 199.17047 172.116965 198.232835 
C 173.0546 197.295201 173.581431 196.023317 173.581431 194.697302 
C 173.581431 193.371286 173.0546 192.099402 172.116965 191.161768 
C 171.179331 190.224133 169.907447 189.697302 168.581431 189.697302 
C 167.255416 189.697302 165.983532 190.224133 165.045897 191.161768 
C 164.108263 192.099402 163.581431 193.371286 163.581431 194.697302 
C 163.581431 196.023317 164.108263 197.295201 165.045897 198.232835 
C 165.983532 199.17047 167.255416 199.697302 168.581431 199.697302 
z
" clip-path="url(#p1b6561d5b1)"/>
    <path d="M 127.163407 195.487515 
C 128.489423 195.487515 129.761307 194.960683 130.698941 194.023049 
C 131.636576 193.085414 132.163407 191.81353 132.163407 190.487515 
C 132.163407 189.161499 131.636576 187.889615 130.698941 186.951981 
C 129.761307 186.014346 128.489423 185.487515 127.163407 185.487515 
C 125.837392 185.487515 124.565508 186.014346 123.627874 186.951981 
C 122.690239 187.889615 122.163407 189.161499 122.163407 190.487515 
C 122.163407 191.81353 122.690239 193.085414 123.627874 194.023049 
C 124.565508 194.960683 125.837392 195.487515 127.163407 195.487515 
z
" clip-path="url(#p1b6561d5b1)"/>
    <path d="M 225.384707 274.286456 
C 226.710722 274.286456 227.982606 273.759624 228.920241 272.82199 
C 229.857875 271.884355 230.384707 270.612472 230.384707 269.286456 
C 230.384707 267.960441 229.857875 266.688557 228.920241 265.750922 
C 227.982606 264.813288 226.710722 264.286456 225.384707 264.286456 
C 224.058691 264.286456 222.786808 264.813288 221.849173 265.750922 
C 220.911539 266.688557 220.384707 267.960441 220.384707 269.286456 
C 220.384707 270.612472 220.911539 271.884355 221.849173 272.82199 
C 222.786808 273.759624 224.058691 274.286456 225.384707 274.286456 
z
" clip-path="url(#p1b6561d5b1)"/>
    <path d="M 356.664959 198.111195 
C 357.990975 198.111195 359.262859 197.584364 360.200493 196.646729 
C 361.138128 195.709094 361.664959 194.437211 361.664959 193.111195 
C 361.664959 191.78518 361.138128 190.513296 360.200493 189.575661 
C 359.262859 188.638027 357.990975 188.111195 356.664959 188.111195 
C 355.338944 188.111195 354.06706 188.638027 353.129425 189.575661 
C 352.191791 190.513296 351.664959 191.78518 351.664959 193.111195 
C 351.664959 194.437211 352.191791 195.709094 353.129425 196.646729 
C 354.06706 197.584364 355.338944 198.111195 356.664959 198.111195 
z
" clip-path="url(#p1b6561d5b1)"/>
    <path d="M 120.479882 173.751413 
C 121.805897 173.751413 123.077781 173.224582 124.015416 172.286947 
C 124.95305 171.349313 125.479882 170.077429 125.479882 168.751413 
C 125.479882 167.425398 124.95305 166.153514 124.015416 165.215879 
C 123.077781 164.278245 121.805897 163.751413 120.479882 163.751413 
C 119.153866 163.751413 117.881982 164.278245 116.944348 165.215879 
C 116.006713 166.153514 115.479882 167.425398 115.479882 168.751413 
C 115.479882 170.077429 116.006713 171.349313 116.944348 172.286947 
C 117.881982 173.224582 119.153866 173.751413 120.479882 173.751413 
z
" clip-path="url(#p1b6561d5b1)"/>
    <path d="M 140.670939 205.705603 
C 141.996954 205.705603 143.268838 205.178772 144.206472 204.241137 
C 145.144107 203.303503 145.670939 202.031619 145.670939 200.705603 
C 145.670939 199.379588 145.144107 198.107704 144.206472 197.170069 
C 143.268838 196.232435 141.996954 195.705603 140.670939 195.705603 
C 139.344923 195.705603 138.073039 196.232435 137.135405 197.170069 
C 136.19777 198.107704 135.670939 199.379588 135.670939 200.705603 
C 135.670939 202.031619 136.19777 203.303503 137.135405 204.241137 
C 138.073039 205.178772 139.344923 205.705603 140.670939 205.705603 
z
" clip-path="url(#p1b6561d5b1)"/>
    <path d="M 214.384191 148.44251 
C 215.710207 148.44251 216.98209 147.915678 217.919725 146.978044 
C 218.85736 146.040409 219.384191 144.768525 219.384191 143.44251 
C 219.384191 142.116494 218.85736 140.84461 217.919725 139.906976 
C 216.98209 138.969341 215.710207 138.44251 214.384191 138.44251 
C 213.058176 138.44251 211.786292 138.969341 210.848657 139.906976 
C 209.911023 140.84461 209.384191 142.116494 209.384191 143.44251 
C 209.384191 144.768525 209.911023 146.040409 210.848657 146.978044 
C 211.786292 147.915678 213.058176 148.44251 214.384191 148.44251 
z
" clip-path="url(#p1b6561d5b1)"/>
    <path d="M 198.653104 86.490092 
C 199.979119 86.490092 201.251003 85.96326 202.188638 85.025626 
C 203.126272 84.087991 203.653104 82.816107 203.653104 81.490092 
C 203.653104 80.164076 203.126272 78.892192 202.188638 77.954558 
C 201.251003 77.016923 199.979119 76.490092 198.653104 76.490092 
C 197.327088 76.490092 196.055204 77.016923 195.11757 77.954558 
C 194.179935 78.892192 193.653104 80.164076 193.653104 81.490092 
C 193.653104 82.816107 194.179935 84.087991 195.11757 85.025626 
C 196.055204 85.96326 197.327088 86.490092 198.653104 86.490092 
z
" clip-path="url(#p1b6561d5b1)" style="fill: #0000ff"/>
    <path d="M 255.286036 76.6304 
C 256.612051 76.6304 257.883935 76.103568 258.82157 75.165934 
C 259.759204 74.228299 260.286036 72.956415 260.286036 71.6304 
C 260.286036 70.304384 259.759204 69.032501 258.82157 68.094866 
C 257.883935 67.157231 256.612051 66.6304 255.286036 66.6304 
C 253.96002 66.6304 252.688136 67.157231 251.750502 68.094866 
C 250.812867 69.032501 250.286036 70.304384 250.286036 71.6304 
C 250.286036 72.956415 250.812867 74.228299 251.750502 75.165934 
C 252.688136 76.103568 253.96002 76.6304 255.286036 76.6304 
z
" clip-path="url(#p1b6561d5b1)" style="fill: #0000ff"/>
    <path d="M 210.453384 73.341421 
C 211.7794 73.341421 213.051283 72.814589 213.988918 71.876955 
C 214.926553 70.93932 215.453384 69.667436 215.453384 68.341421 
C 215.453384 67.015405 214.926553 65.743521 213.988918 64.805887 
C 213.051283 63.868252 211.7794 63.341421 210.453384 63.341421 
C 209.127369 63.341421 207.855485 63.868252 206.91785 64.805887 
C 205.980216 65.743521 205.453384 67.015405 205.453384 68.341421 
C 205.453384 69.667436 205.980216 70.93932 206.91785 71.876955 
C 207.855485 72.814589 209.127369 73.341421 210.453384 73.341421 
z
" clip-path="url(#p1b6561d5b1)" style="fill: #0000ff"/>
    <path d="M 233.103875 69.808002 
C 234.429891 69.808002 235.701774 69.281171 236.639409 68.343536 
C 237.577043 67.405901 238.103875 66.134018 238.103875 64.808002 
C 238.103875 63.481987 237.577043 62.210103 236.639409 61.272468 
C 235.701774 60.334834 234.429891 59.808002 233.103875 59.808002 
C 231.77786 59.808002 230.505976 60.334834 229.568341 61.272468 
C 228.630707 62.210103 228.103875 63.481987 228.103875 64.808002 
C 228.103875 66.134018 228.630707 67.405901 229.568341 68.343536 
C 230.505976 69.281171 231.77786 69.808002 233.103875 69.808002 
z
" clip-path="url(#p1b6561d5b1)" style="fill: #0000ff"/>
    <path d="M 284.465264 213.413435 
C 285.791279 213.413435 287.063163 212.886604 288.000798 211.948969 
C 288.938432 211.011335 289.465264 209.739451 289.465264 208.413435 
C 289.465264 207.08742 288.938432 205.815536 288.000798 204.877901 
C 287.063163 203.940267 285.791279 203.413435 284.465264 203.413435 
C 283.139248 203.413435 281.867364 203.940267 280.92973 204.877901 
C 279.992095 205.815536 279.465264 207.08742 279.465264 208.413435 
C 279.465264 209.739451 279.992095 211.011335 280.92973 211.948969 
C 281.867364 212.886604 283.139248 213.413435 284.465264 213.413435 
z
" clip-path="url(#p1b6561d5b1)" style="fill: #0000ff"/>
    <path d="M 312.772665 204.209692 
C 314.098681 204.209692 315.370565 203.68286 316.308199 202.745226 
C 317.245834 201.807591 317.772665 200.535707 317.772665 199.209692 
C 317.772665 197.883676 317.245834 196.611792 316.308199 195.674158 
C 315.370565 194.736523 314.098681 194.209692 312.772665 194.209692 
C 311.44665 194.209692 310.174766 194.736523 309.237131 195.674158 
C 308.299497 196.611792 307.772665 197.883676 307.772665 199.209692 
C 307.772665 200.535707 308.299497 201.807591 309.237131 202.745226 
C 310.174766 203.68286 311.44665 204.209692 312.772665 204.209692 
z
" clip-path="url(#p1b6561d5b1)" style="fill: #0000ff"/>
    <path d="M 333.998722 241.216508 
C 335.324738 241.216508 336.596622 240.689676 337.534256 239.752041 
C 338.471891 238.814407 338.998722 237.542523 338.998722 236.216508 
C 338.998722 234.890492 338.471891 233.618608 337.534256 232.680974 
C 336.596622 231.743339 335.324738 231.216508 333.998722 231.216508 
C 332.672707 231.216508 331.400823 231.743339 330.463188 232.680974 
C 329.525554 233.618608 328.998722 234.890492 328.998722 236.216508 
C 328.998722 237.542523 329.525554 238.814407 330.463188 239.752041 
C 331.400823 240.689676 332.672707 241.216508 333.998722 241.216508 
z
" clip-path="url(#p1b6561d5b1)" style="fill: #0000ff"/>
    <path d="M 190.59163 171.823152 
C 191.917646 171.823152 193.18953 171.296321 194.127164 170.358686 
C 195.064799 169.421052 195.59163 168.149168 195.59163 166.823152 
C 195.59163 165.497137 195.064799 164.225253 194.127164 163.287619 
C 193.18953 162.349984 191.917646 161.823152 190.59163 161.823152 
C 189.265615 161.823152 187.993731 162.349984 187.056096 163.287619 
C 186.118462 164.225253 185.59163 165.497137 185.59163 166.823152 
C 185.59163 168.149168 186.118462 169.421052 187.056096 170.358686 
C 187.993731 171.296321 189.265615 171.823152 190.59163 171.823152 
z
" clip-path="url(#p1b6561d5b1)" style="fill: #0000ff"/>
    <path d="M 299.858313 114.006519 
C 301.184329 114.006519 302.456213 113.479687 303.393847 112.542053 
C 304.331482 111.604418 304.858313 110.332534 304.858313 109.006519 
C 304.858313 107.680503 304.331482 106.40862 303.393847 105.470985 
C 302.456213 104.533351 301.184329 104.006519 299.858313 104.006519 
C 298.532298 104.006519 297.260414 104.533351 296.322779 105.470985 
C 295.385145 106.40862 294.858313 107.680503 294.858313 109.006519 
C 294.858313 110.332534 295.385145 111.604418 296.322779 112.542053 
C 297.260414 113.479687 298.532298 114.006519 299.858313 114.006519 
z
" clip-path="url(#p1b6561d5b1)" style="fill: #0000ff"/>
    <path d="M 324.09308 127.497153 
C 325.419096 127.497153 326.690979 126.970321 327.628614 126.032687 
C 328.566249 125.095052 329.09308 123.823168 329.09308 122.497153 
C 329.09308 121.171137 328.566249 119.899253 327.628614 118.961619 
C 326.690979 118.023984 325.419096 117.497153 324.09308 117.497153 
C 322.767065 117.497153 321.495181 118.023984 320.557546 118.961619 
C 319.619912 119.899253 319.09308 121.171137 319.09308 122.497153 
C 319.09308 123.823168 319.619912 125.095052 320.557546 126.032687 
C 321.495181 126.970321 322.767065 127.497153 324.09308 127.497153 
z
" clip-path="url(#p1b6561d5b1)" style="fill: #0000ff"/>
    <path d="M 310.547799 154.445042 
C 311.873815 154.445042 313.145699 153.91821 314.083333 152.980576 
C 315.020968 152.042941 315.547799 150.771057 315.547799 149.445042 
C 315.547799 148.119026 315.020968 146.847142 314.083333 145.909508 
C 313.145699 144.971873 311.873815 144.445042 310.547799 144.445042 
C 309.221784 144.445042 307.9499 144.971873 307.012265 145.909508 
C 306.074631 146.847142 305.547799 148.119026 305.547799 149.445042 
C 305.547799 150.771057 306.074631 152.042941 307.012265 152.980576 
C 307.9499 153.91821 309.221784 154.445042 310.547799 154.445042 
z
" clip-path="url(#p1b6561d5b1)" style="fill: #0000ff"/>
    <path d="M 328.133236 142.253649 
C 329.459252 142.253649 330.731135 141.726817 331.66877 140.789183 
C 332.606405 139.851548 333.133236 138.579664 333.133236 137.253649 
C 333.133236 135.927633 332.606405 134.655749 331.66877 133.718115 
C 330.731135 132.78048 329.459252 132.253649 328.133236 132.253649 
C 326.807221 132.253649 325.535337 132.78048 324.597702 133.718115 
C 323.660068 134.655749 323.133236 135.927633 323.133236 137.253649 
C 323.133236 138.579664 323.660068 139.851548 324.597702 140.789183 
C 325.535337 141.726817 326.807221 142.253649 328.133236 142.253649 
z
" clip-path="url(#p1b6561d5b1)" style="fill: #0000ff"/>
    <path d="M 322.560982 91.290023 
C 323.886997 91.290023 325.158881 90.763192 326.096516 89.825557 
C 327.03415 88.887922 327.560982 87.616039 327.560982 86.290023 
C 327.560982 84.964008 327.03415 83.692124 326.096516 82.754489 
C 325.158881 81.816855 323.886997 81.290023 322.560982 81.290023 
C 321.234966 81.290023 319.963082 81.816855 319.025448 82.754489 
C 318.087813 83.692124 317.560982 84.964008 317.560982 86.290023 
C 317.560982 87.616039 318.087813 88.887922 319.025448 89.825557 
C 319.963082 90.763192 321.234966 91.290023 322.560982 91.290023 
z
" clip-path="url(#p1b6561d5b1)" style="fill: #0000ff"/>
    <path d="M 304.267713 75.300396 
C 305.593729 75.300396 306.865613 74.773565 307.803247 73.83593 
C 308.740882 72.898296 309.267713 71.626412 309.267713 70.300396 
C 309.267713 68.974381 308.740882 67.702497 307.803247 66.764862 
C 306.865613 65.827228 305.593729 65.300396 304.267713 65.300396 
C 302.941698 65.300396 301.669814 65.827228 300.732179 66.764862 
C 299.794545 67.702497 299.267713 68.974381 299.267713 70.300396 
C 299.267713 71.626412 299.794545 72.898296 300.732179 73.83593 
C 301.669814 74.773565 302.941698 75.300396 304.267713 75.300396 
z
" clip-path="url(#p1b6561d5b1)" style="fill: #0000ff"/>
    <path d="M 120.37522 102.310127 
C 121.701236 102.310127 122.97312 101.783296 123.910754 100.845661 
C 124.848389 99.908027 125.37522 98.636143 125.37522 97.310127 
C 125.37522 95.984112 124.848389 94.712228 123.910754 93.774593 
C 122.97312 92.836959 121.701236 92.310127 120.37522 92.310127 
C 119.049205 92.310127 117.777321 92.836959 116.839687 93.774593 
C 115.902052 94.712228 115.37522 95.984112 115.37522 97.310127 
C 115.37522 98.636143 115.902052 99.908027 116.839687 100.845661 
C 117.777321 101.783296 119.049205 102.310127 120.37522 102.310127 
z
" clip-path="url(#p1b6561d5b1)" style="fill: #0000ff"/>
    <path d="M 94.888589 115.562568 
C 96.214605 115.562568 97.486489 115.035736 98.424123 114.098102 
C 99.361758 113.160467 99.888589 111.888583 99.888589 110.562568 
C 99.888589 109.236552 99.361758 107.964668 98.424123 107.027034 
C 97.486489 106.089399 96.214605 105.562568 94.888589 105.562568 
C 93.562574 105.562568 92.29069 106.089399 91.353055 107.027034 
C 90.415421 107.964668 89.888589 109.236552 89.888589 110.562568 
C 89.888589 111.888583 90.415421 113.160467 91.353055 114.098102 
C 92.29069 115.035736 93.562574 115.562568 94.888589 115.562568 
z
" clip-path="url(#p1b6561d5b1)" style="fill: #0000ff"/>
    <path d="M 91.5748 136.733699 
C 92.900816 136.733699 94.1727 136.206868 95.110334 135.269233 
C 96.047969 134.331599 96.5748 133.059715 96.5748 131.733699 
C 96.5748 130.407684 96.047969 129.1358 95.110334 128.198165 
C 94.1727 127.260531 92.900816 126.733699 91.5748 126.733699 
C 90.248785 126.733699 88.976901 127.260531 88.039266 128.198165 
C 87.101632 129.1358 86.5748 130.407684 86.5748 131.733699 
C 86.5748 133.059715 87.101632 134.331599 88.039266 135.269233 
C 88.976901 136.206868 90.248785 136.733699 91.5748 136.733699 
z
" clip-path="url(#p1b6561d5b1)" style="fill: #0000ff"/>
    <path d="M 248.468663 240.637031 
C 249.794679 240.637031 251.066562 240.110199 252.004197 239.172565 
C 252.941832 238.23493 253.468663 236.963046 253.468663 235.637031 
C 253.468663 234.311015 252.941832 233.039131 252.004197 232.101497 
C 251.066562 231.163862 249.794679 230.637031 248.468663 230.637031 
C 247.142648 230.637031 245.870764 231.163862 244.933129 232.101497 
C 243.995495 233.039131 243.468663 234.311015 243.468663 235.637031 
C 243.468663 236.963046 243.995495 238.23493 244.933129 239.172565 
C 245.870764 240.110199 247.142648 240.637031 248.468663 240.637031 
z
" clip-path="url(#p1b6561d5b1)" style="fill: #0000ff"/>
    <path d="M 250.36209 277.199903 
C 251.688105 277.199903 252.959989 276.673071 253.897624 275.735437 
C 254.835258 274.797802 255.36209 273.525919 255.36209 272.199903 
C 255.36209 270.873888 254.835258 269.602004 253.897624 268.664369 
C 252.959989 267.726735 251.688105 267.199903 250.36209 267.199903 
C 249.036074 267.199903 247.764191 267.726735 246.826556 268.664369 
C 245.888922 269.602004 245.36209 270.873888 245.36209 272.199903 
C 245.36209 273.525919 245.888922 274.797802 246.826556 275.735437 
C 247.764191 276.673071 249.036074 277.199903 250.36209 277.199903 
z
" clip-path="url(#p1b6561d5b1)" style="fill: #0000ff"/>
    <path d="M 237.951926 257.471689 
C 239.277941 257.471689 240.549825 256.944858 241.48746 256.007223 
C 242.425094 255.069588 242.951926 253.797705 242.951926 252.471689 
C 242.951926 251.145674 242.425094 249.87379 241.48746 248.936155 
C 240.549825 247.998521 239.277941 247.471689 237.951926 247.471689 
C 236.62591 247.471689 235.354026 247.998521 234.416392 248.936155 
C 233.478757 249.87379 232.951926 251.145674 232.951926 252.471689 
C 232.951926 253.797705 233.478757 255.069588 234.416392 256.007223 
C 235.354026 256.944858 236.62591 257.471689 237.951926 257.471689 
z
" clip-path="url(#p1b6561d5b1)" style="fill: #0000ff"/>
    <path d="M 322.152685 255.97105 
C 323.478701 255.97105 324.750584 255.444218 325.688219 254.506583 
C 326.625854 253.568949 327.152685 252.297065 327.152685 250.97105 
C 327.152685 249.645034 326.625854 248.37315 325.688219 247.435516 
C 324.750584 246.497881 323.478701 245.97105 322.152685 245.97105 
C 320.82667 245.97105 319.554786 246.497881 318.617151 247.435516 
C 317.679517 248.37315 317.152685 249.645034 317.152685 250.97105 
C 317.152685 252.297065 317.679517 253.568949 318.617151 254.506583 
C 319.554786 255.444218 320.82667 255.97105 322.152685 255.97105 
z
" clip-path="url(#p1b6561d5b1)" style="fill: #0000ff"/>
    <path d="M 295.877979 278.956655 
C 297.203995 278.956655 298.475878 278.429824 299.413513 277.492189 
C 300.351147 276.554555 300.877979 275.282671 300.877979 273.956655 
C 300.877979 272.63064 300.351147 271.358756 299.413513 270.421121 
C 298.475878 269.483487 297.203995 268.956655 295.877979 268.956655 
C 294.551964 268.956655 293.28008 269.483487 292.342445 270.421121 
C 291.404811 271.358756 290.877979 272.63064 290.877979 273.956655 
C 290.877979 275.282671 291.404811 276.554555 292.342445 277.492189 
C 293.28008 278.429824 294.551964 278.956655 295.877979 278.956655 
z
" clip-path="url(#p1b6561d5b1)" style="fill: #0000ff"/>
    <path d="M 147.024951 120.971123 
C 148.350967 120.971123 149.622851 120.444291 150.560485 119.506657 
C 151.49812 118.569022 152.024951 117.297138 152.024951 115.971123 
C 152.024951 114.645107 151.49812 113.373224 150.560485 112.435589 
C 149.622851 111.497955 148.350967 110.971123 147.024951 110.971123 
C 145.698936 110.971123 144.427052 111.497955 143.489417 112.435589 
C 142.551783 113.373224 142.024951 114.645107 142.024951 115.971123 
C 142.024951 117.297138 142.551783 118.569022 143.489417 119.506657 
C 144.427052 120.444291 145.698936 120.971123 147.024951 120.971123 
z
" clip-path="url(#p1b6561d5b1)" style="fill: #0000ff"/>
    <path d="M 180.584804 126.509395 
C 181.91082 126.509395 183.182704 125.982563 184.120338 125.044929 
C 185.057973 124.107294 185.584804 122.83541 185.584804 121.509395 
C 185.584804 120.183379 185.057973 118.911495 184.120338 117.973861 
C 183.182704 117.036226 181.91082 116.509395 180.584804 116.509395 
C 179.258789 116.509395 177.986905 117.036226 177.049271 117.973861 
C 176.111636 118.911495 175.584804 120.183379 175.584804 121.509395 
C 175.584804 122.83541 176.111636 124.107294 177.049271 125.044929 
C 177.986905 125.982563 179.258789 126.509395 180.584804 126.509395 
z
" clip-path="url(#p1b6561d5b1)" style="fill: #0000ff"/>
    <path d="M 168.427583 215.293641 
C 169.753598 215.293641 171.025482 214.766809 171.963117 213.829175 
C 172.900751 212.89154 173.427583 211.619656 173.427583 210.293641 
C 173.427583 208.967625 172.900751 207.695742 171.963117 206.758107 
C 171.025482 205.820472 169.753598 205.293641 168.427583 205.293641 
C 167.101567 205.293641 165.829683 205.820472 164.892049 206.758107 
C 163.954414 207.695742 163.427583 208.967625 163.427583 210.293641 
C 163.427583 211.619656 163.954414 212.89154 164.892049 213.829175 
C 165.829683 214.766809 167.101567 215.293641 168.427583 215.293641 
z
" clip-path="url(#p1b6561d5b1)" style="fill: #0000ff"/>
    <path d="M 197.125303 209.037665 
C 198.451319 209.037665 199.723203 208.510833 200.660837 207.573198 
C 201.598472 206.635564 202.125303 205.36368 202.125303 204.037665 
C 202.125303 202.711649 201.598472 201.439765 200.660837 200.502131 
C 199.723203 199.564496 198.451319 199.037665 197.125303 199.037665 
C 195.799288 199.037665 194.527404 199.564496 193.589769 200.502131 
C 192.652135 201.439765 192.125303 202.711649 192.125303 204.037665 
C 192.125303 205.36368 192.652135 206.635564 193.589769 207.573198 
C 194.527404 208.510833 195.799288 209.037665 197.125303 209.037665 
z
" clip-path="url(#p1b6561d5b1)" style="fill: #0000ff"/>
    <path d="M 251.282924 121.469517 
C 252.60894 121.469517 253.880823 120.942685 254.818458 120.005051 
C 255.756093 119.067416 256.282924 117.795532 256.282924 116.469517 
C 256.282924 115.143501 255.756093 113.871618 254.818458 112.933983 
C 253.880823 111.996348 252.60894 111.469517 251.282924 111.469517 
C 249.956909 111.469517 248.685025 111.996348 247.74739 112.933983 
C 246.809756 113.871618 246.282924 115.143501 246.282924 116.469517 
C 246.282924 117.795532 246.809756 119.067416 247.74739 120.005051 
C 248.685025 120.942685 249.956909 121.469517 251.282924 121.469517 
z
" clip-path="url(#p1b6561d5b1)" style="fill: #0000ff"/>
    <path d="M 229.747503 110.243151 
C 231.073519 110.243151 232.345403 109.716319 233.283037 108.778685 
C 234.220672 107.84105 234.747503 106.569166 234.747503 105.243151 
C 234.747503 103.917135 234.220672 102.645251 233.283037 101.707617 
C 232.345403 100.769982 231.073519 100.243151 229.747503 100.243151 
C 228.421488 100.243151 227.149604 100.769982 226.211969 101.707617 
C 225.274335 102.645251 224.747503 103.917135 224.747503 105.243151 
C 224.747503 106.569166 225.274335 107.84105 226.211969 108.778685 
C 227.149604 109.716319 228.421488 110.243151 229.747503 110.243151 
z
" clip-path="url(#p1b6561d5b1)" style="fill: #0000ff"/>
    <path d="M 235.527314 141.302984 
C 236.85333 141.302984 238.125214 140.776152 239.062848 139.838518 
C 240.000483 138.900883 240.527314 137.628999 240.527314 136.302984 
C 240.527314 134.976968 240.000483 133.705085 239.062848 132.76745 
C 238.125214 131.829815 236.85333 131.302984 235.527314 131.302984 
C 234.201299 131.302984 232.929415 131.829815 231.991781 132.76745 
C 231.054146 133.705085 230.527314 134.976968 230.527314 136.302984 
C 230.527314 137.628999 231.054146 138.900883 231.991781 139.838518 
C 232.929415 140.776152 234.201299 141.302984 235.527314 141.302984 
z
" clip-path="url(#p1b6561d5b1)" style="fill: #0000ff"/>
    <path d="M 133.052111 249.833838 
C 134.378126 249.833838 135.65001 249.307007 136.587645 248.369372 
C 137.525279 247.431738 138.052111 246.159854 138.052111 244.833838 
C 138.052111 243.507823 137.525279 242.235939 136.587645 241.298304 
C 135.65001 240.36067 134.378126 239.833838 133.052111 239.833838 
C 131.726095 239.833838 130.454211 240.36067 129.516577 241.298304 
C 128.578942 242.235939 128.052111 243.507823 128.052111 244.833838 
C 128.052111 246.159854 128.578942 247.431738 129.516577 248.369372 
C 130.454211 249.307007 131.726095 249.833838 133.052111 249.833838 
z
" clip-path="url(#p1b6561d5b1)" style="fill: #0000ff"/>
    <path d="M 353.410955 217.241565 
C 354.73697 217.241565 356.008854 216.714734 356.946489 215.777099 
C 357.884123 214.839465 358.410955 213.567581 358.410955 212.241565 
C 358.410955 210.91555 357.884123 209.643666 356.946489 208.706031 
C 356.008854 207.768397 354.73697 207.241565 353.410955 207.241565 
C 352.084939 207.241565 350.813055 207.768397 349.875421 208.706031 
C 348.937786 209.643666 348.410955 210.91555 348.410955 212.241565 
C 348.410955 213.567581 348.937786 214.839465 349.875421 215.777099 
C 350.813055 216.714734 352.084939 217.241565 353.410955 217.241565 
z
" clip-path="url(#p1b6561d5b1)" style="fill: #0000ff"/>
    <path d="M 361.342449 235.172865 
C 362.668464 235.172865 363.940348 234.646034 364.877982 233.708399 
C 365.815617 232.770765 366.342449 231.498881 366.342449 230.172865 
C 366.342449 228.84685 365.815617 227.574966 364.877982 226.637331 
C 363.940348 225.699697 362.668464 225.172865 361.342449 225.172865 
C 360.016433 225.172865 358.744549 225.699697 357.806915 226.637331 
C 356.86928 227.574966 356.342449 228.84685 356.342449 230.172865 
C 356.342449 231.498881 356.86928 232.770765 357.806915 233.708399 
C 358.744549 234.646034 360.016433 235.172865 361.342449 235.172865 
z
" clip-path="url(#p1b6561d5b1)" style="fill: #0000ff"/>
    <path d="M 100.676189 215.83009 
C 102.002205 215.83009 103.274089 215.303259 104.211723 214.365624 
C 105.149358 213.427989 105.676189 212.156106 105.676189 210.83009 
C 105.676189 209.504075 105.149358 208.232191 104.211723 207.294556 
C 103.274089 206.356922 102.002205 205.83009 100.676189 205.83009 
C 99.350174 205.83009 98.07829 206.356922 97.140656 207.294556 
C 96.203021 208.232191 95.676189 209.504075 95.676189 210.83009 
C 95.676189 212.156106 96.203021 213.427989 97.140656 214.365624 
C 98.07829 215.303259 99.350174 215.83009 100.676189 215.83009 
z
" clip-path="url(#p1b6561d5b1)" style="fill: #0000ff"/>
    <path d="M 203.143043 289.247998 
C 204.469058 289.247998 205.740942 288.721166 206.678577 287.783532 
C 207.616211 286.845897 208.143043 285.574013 208.143043 284.247998 
C 208.143043 282.921982 207.616211 281.650099 206.678577 280.712464 
C 205.740942 279.774829 204.469058 279.247998 203.143043 279.247998 
C 201.817027 279.247998 200.545144 279.774829 199.607509 280.712464 
C 198.669874 281.650099 198.143043 282.921982 198.143043 284.247998 
C 198.143043 285.574013 198.669874 286.845897 199.607509 287.783532 
C 200.545144 288.721166 201.817027 289.247998 203.143043 289.247998 
z
" clip-path="url(#p1b6561d5b1)" style="fill: #0000ff"/>
    <path d="M 190.510634 273.352976 
C 191.836649 273.352976 193.108533 272.826144 194.046168 271.88851 
C 194.983802 270.950875 195.510634 269.678991 195.510634 268.352976 
C 195.510634 267.02696 194.983802 265.755077 194.046168 264.817442 
C 193.108533 263.879807 191.836649 263.352976 190.510634 263.352976 
C 189.184618 263.352976 187.912734 263.879807 186.9751 264.817442 
C 186.037465 265.755077 185.510634 267.02696 185.510634 268.352976 
C 185.510634 269.678991 186.037465 270.950875 186.9751 271.88851 
C 187.912734 272.826144 189.184618 273.352976 190.510634 273.352976 
z
" clip-path="url(#p1b6561d5b1)" style="fill: #0000ff"/>
    <path d="M 383.481887 186.415256 
C 384.807902 186.415256 386.079786 185.888424 387.017421 184.95079 
C 387.955055 184.013155 388.481887 182.741271 388.481887 181.415256 
C 388.481887 180.08924 387.955055 178.817356 387.017421 177.879722 
C 386.079786 176.942087 384.807902 176.415256 383.481887 176.415256 
C 382.155871 176.415256 380.883988 176.942087 379.946353 177.879722 
C 379.008718 178.817356 378.481887 180.08924 378.481887 181.415256 
C 378.481887 182.741271 379.008718 184.013155 379.946353 184.95079 
C 380.883988 185.888424 382.155871 186.415256 383.481887 186.415256 
z
" clip-path="url(#p1b6561d5b1)" style="fill: #0000ff"/>
    <path d="M 366.563155 173.827751 
C 367.88917 173.827751 369.161054 173.30092 370.098689 172.363285 
C 371.036323 171.42565 371.563155 170.153767 371.563155 168.827751 
C 371.563155 167.501736 371.036323 166.229852 370.098689 165.292217 
C 369.161054 164.354583 367.88917 163.827751 366.563155 163.827751 
C 365.237139 163.827751 363.965256 164.354583 363.027621 165.292217 
C 362.089987 166.229852 361.563155 167.501736 361.563155 168.827751 
C 361.563155 170.153767 362.089987 171.42565 363.027621 172.363285 
C 363.965256 173.30092 365.237139 173.827751 366.563155 173.827751 
z
" clip-path="url(#p1b6561d5b1)" style="fill: #0000ff"/>
    <path d="M 88.838113 169.131172 
C 90.164129 169.131172 91.436012 168.604341 92.373647 167.666706 
C 93.311282 166.729071 93.838113 165.457188 93.838113 164.131172 
C 93.838113 162.805157 93.311282 161.533273 92.373647 160.595638 
C 91.436012 159.658004 90.164129 159.131172 88.838113 159.131172 
C 87.512098 159.131172 86.240214 159.658004 85.302579 160.595638 
C 84.364945 161.533273 83.838113 162.805157 83.838113 164.131172 
C 83.838113 165.457188 84.364945 166.729071 85.302579 167.666706 
C 86.240214 168.604341 87.512098 169.131172 88.838113 169.131172 
z
" clip-path="url(#p1b6561d5b1)" style="fill: #0000ff"/>
    <path d="M 89.26035 187.750995 
C 90.586366 187.750995 91.858249 187.224163 92.795884 186.286528 
C 93.733519 185.348894 94.26035 184.07701 94.26035 182.750995 
C 94.26035 181.424979 93.733519 180.153095 92.795884 179.215461 
C 91.858249 178.277826 90.586366 177.750995 89.26035 177.750995 
C 87.934335 177.750995 86.662451 178.277826 85.724816 179.215461 
C 84.787182 180.153095 84.26035 181.424979 84.26035 182.750995 
C 84.26035 184.07701 84.787182 185.348894 85.724816 186.286528 
C 86.662451 187.224163 87.934335 187.750995 89.26035 187.750995 
z
" clip-path="url(#p1b6561d5b1)" style="fill: #0000ff"/>
    <path d="M 241.638613 165.576127 
C 242.964629 165.576127 244.236512 165.049296 245.174147 164.111661 
C 246.111781 163.174027 246.638613 161.902143 246.638613 160.576127 
C 246.638613 159.250112 246.111781 157.978228 245.174147 157.040593 
C 244.236512 156.102959 242.964629 155.576127 241.638613 155.576127 
C 240.312598 155.576127 239.040714 156.102959 238.103079 157.040593 
C 237.165445 157.978228 236.638613 159.250112 236.638613 160.576127 
C 236.638613 161.902143 237.165445 163.174027 238.103079 164.111661 
C 239.040714 165.049296 240.312598 165.576127 241.638613 165.576127 
z
" clip-path="url(#p1b6561d5b1)" style="fill: #0000ff"/>
   </g>
   <g id="text_1">
    <g clip-path="url(#p1b6561d5b1)">
     <!-- ECM2418 -->
     <g transform="translate(217.129554 103.055769) scale(0.07 -0.07)">
      <defs>
       <path id="DejaVuSans-45" d="M 628 4666 
L 3578 4666 
L 3578 4134 
L 1259 4134 
L 1259 2753 
L 3481 2753 
L 3481 2222 
L 1259 2222 
L 1259 531 
L 3634 531 
L 3634 0 
L 628 0 
L 628 4666 
z
" transform="scale(0.015625)"/>
       <path id="DejaVuSans-43" d="M 4122 4306 
L 4122 3641 
Q 3803 3938 3442 4084 
Q 3081 4231 2675 4231 
Q 1875 4231 1450 3742 
Q 1025 3253 1025 2328 
Q 1025 1406 1450 917 
Q 1875 428 2675 428 
Q 3081 428 3442 575 
Q 3803 722 4122 1019 
L 4122 359 
Q 3791 134 3420 21 
Q 3050 -91 2638 -91 
Q 1578 -91 968 557 
Q 359 1206 359 2328 
Q 359 3453 968 4101 
Q 1578 4750 2638 4750 
Q 3056 4750 3426 4639 
Q 3797 4528 4122 4306 
z
" transform="scale(0.015625)"/>
       <path id="DejaVuSans-4d" d="M 628 4666 
L 1569 4666 
L 2759 1491 
L 3956 4666 
L 4897 4666 
L 4897 0 
L 4281 0 
L 4281 4097 
L 3078 897 
L 2444 897 
L 1241 4097 
L 1241 0 
L 628 0 
L 628 4666 
z
" transform="scale(0.015625)"/>
       <path id="DejaVuSans-32" d="M 1228 531 
L 3431 531 
L 3431 0 
L 469 0 
L 469 531 
Q 828 903 1448 1529 
Q 2069 2156 2228 2338 
Q 2531 2678 2651 2914 
Q 2772 3150 2772 3378 
Q 2772 3750 2511 3984 
Q 2250 4219 1831 4219 
Q 1534 4219 1204 4116 
Q 875 4013 500 3803 
L 500 4441 
Q 881 4594 1212 4672 
Q 1544 4750 1819 4750 
Q 2544 4750 2975 4387 
Q 3406 4025 3406 3419 
Q 3406 3131 3298 2873 
Q 3191 2616 2906 2266 
Q 2828 2175 2409 1742 
Q 1991 1309 1228 531 
z
" transform="scale(0.015625)"/>
       <path id="DejaVuSans-34" d="M 2419 4116 
L 825 1625 
L 2419 1625 
L 2419 4116 
z
M 2253 4666 
L 3047 4666 
L 3047 1625 
L 3713 1625 
L 3713 1100 
L 3047 1100 
L 3047 0 
L 2419 0 
L 2419 1100 
L 313 1100 
L 313 1709 
L 2253 4666 
z
" transform="scale(0.015625)"/>
       <path id="DejaVuSans-31" d="M 794 531 
L 1825 531 
L 1825 4091 
L 703 3866 
L 703 4441 
L 1819 4666 
L 2450 4666 
L 2450 531 
L 3481 531 
L 3481 0 
L 794 0 
L 794 531 
z
" transform="scale(0.015625)"/>
       <path id="DejaVuSans-38" d="M 2034 2216 
Q 1584 2216 1326 1975 
Q 1069 1734 1069 1313 
Q 1069 891 1326 650 
Q 1584 409 2034 409 
Q 2484 409 2743 651 
Q 3003 894 3003 1313 
Q 3003 1734 2745 1975 
Q 2488 2216 2034 2216 
z
M 1403 2484 
Q 997 2584 770 2862 
Q 544 3141 544 3541 
Q 544 4100 942 4425 
Q 1341 4750 2034 4750 
Q 2731 4750 3128 4425 
Q 3525 4100 3525 3541 
Q 3525 3141 3298 2862 
Q 3072 2584 2669 2484 
Q 3125 2378 3379 2068 
Q 3634 1759 3634 1313 
Q 3634 634 3220 271 
Q 2806 -91 2034 -91 
Q 1263 -91 848 271 
Q 434 634 434 1313 
Q 434 1759 690 2068 
Q 947 2378 1403 2484 
z
M 1172 3481 
Q 1172 3119 1398 2916 
Q 1625 2713 2034 2713 
Q 2441 2713 2670 2916 
Q 2900 3119 2900 3481 
Q 2900 3844 2670 4047 
Q 2441 4250 2034 4250 
Q 1625 4250 1398 4047 
Q 1172 3844 1172 3481 
z
" transform="scale(0.015625)"/>
      </defs>
      <use xlink:href="#DejaVuSans-45"/>
      <use xlink:href="#DejaVuSans-43" x="63.183594"/>
      <use xlink:href="#DejaVuSans-4d" x="133.007812"/>
      <use xlink:href="#DejaVuSans-32" x="219.287109"/>
      <use xlink:href="#DejaVuSans-34" x="282.910156"/>
      <use xlink:href="#DejaVuSans-31" x="346.533203"/>
      <use xlink:href="#DejaVuSans-38" x="410.15625"/>
     </g>
    </g>
   </g>
   <g id="text_2">
    <g clip-path="url(#p1b6561d5b1)">
     <!-- MTH2011 -->
     <g transform="translate(288.914087 235.727871) scale(0.07 -0.07)">
      <defs>
       <path id="DejaVuSans-54" d="M -19 4666 
L 3928 4666 
L 3928 4134 
L 2272 4134 
L 2272 0 
L 1638 0 
L 1638 4134 
L -19 4134 
L -19 4666 
z
" transform="scale(0.015625)"/>
       <path id="DejaVuSans-48" d="M 628 4666 
L 1259 4666 
L 1259 2753 
L 3553 2753 
L 3553 4666 
L 4184 4666 
L 4184 0 
L 3553 0 
L 3553 2222 
L 1259 2222 
L 1259 0 
L 628 0 
L 628 4666 
z
" transform="scale(0.015625)"/>
       <path id="DejaVuSans-30" d="M 2034 4250 
Q 1547 4250 1301 3770 
Q 1056 3291 1056 2328 
Q 1056 1369 1301 889 
Q 1547 409 2034 409 
Q 2525 409 2770 889 
Q 3016 1369 3016 2328 
Q 3016 3291 2770 3770 
Q 2525 4250 2034 4250 
z
M 2034 4750 
Q 2819 4750 3233 4129 
Q 3647 3509 3647 2328 
Q 3647 1150 3233 529 
Q 2819 -91 2034 -91 
Q 1250 -91 836 529 
Q 422 1150 422 2328 
Q 422 3509 836 4129 
Q 1250 4750 2034 4750 
z
" transform="scale(0.015625)"/>
      </defs>
      <use xlink:href="#DejaVuSans-4d"/>
      <use xlink:href="#DejaVuSans-54" x="86.279297"/>
      <use xlink:href="#DejaVuSans-48" x="147.363281"/>
      <use xlink:href="#DejaVuSans-32" x="222.558594"/>
      <use xlink:href="#DejaVuSans-30" x="286.181641"/>
      <use xlink:href="#DejaVuSans-31" x="349.804688"/>
      <use xlink:href="#DejaVuSans-31" x="413.427734"/>
     </g>
    </g>
   </g>
   <g id="text_3">
    <g clip-path="url(#p1b6561d5b1)">
     <!-- ECM1410 -->
     <g transform="translate(155.667837 184.155043) scale(0.07 -0.07)">
      <use xlink:href="#DejaVuSans-45"/>
      <use xlink:href="#DejaVuSans-43" x="63.183594"/>
      <use xlink:href="#DejaVuSans-4d" x="133.007812"/>
      <use xlink:href="#DejaVuSans-31" x="219.287109"/>
      <use xlink:href="#DejaVuSans-34" x="282.910156"/>
      <use xlink:href="#DejaVuSans-31" x="346.533203"/>
      <use xlink:href="#DejaVuSans-30" x="410.15625"/>
     </g>
    </g>
   </g>
   <g id="text_4">
    <g clip-path="url(#p1b6561d5b1)">
     <!-- ECM3420 -->
     <g transform="translate(269.682361 146.214264) scale(0.07 -0.07)">
      <defs>
       <path id="DejaVuSans-33" d="M 2597 2516 
Q 3050 2419 3304 2112 
Q 3559 1806 3559 1356 
Q 3559 666 3084 287 
Q 2609 -91 1734 -91 
Q 1441 -91 1130 -33 
Q 819 25 488 141 
L 488 750 
Q 750 597 1062 519 
Q 1375 441 1716 441 
Q 2309 441 2620 675 
Q 2931 909 2931 1356 
Q 2931 1769 2642 2001 
Q 2353 2234 1838 2234 
L 1294 2234 
L 1294 2753 
L 1863 2753 
Q 2328 2753 2575 2939 
Q 2822 3125 2822 3475 
Q 2822 3834 2567 4026 
Q 2313 4219 1838 4219 
Q 1578 4219 1281 4162 
Q 984 4106 628 3988 
L 628 4550 
Q 988 4650 1302 4700 
Q 1616 4750 1894 4750 
Q 2613 4750 3031 4423 
Q 3450 4097 3450 3541 
Q 3450 3153 3228 2886 
Q 3006 2619 2597 2516 
z
" transform="scale(0.015625)"/>
      </defs>
      <use xlink:href="#DejaVuSans-45"/>
      <use xlink:href="#DejaVuSans-43" x="63.183594"/>
      <use xlink:href="#DejaVuSans-4d" x="133.007812"/>
      <use xlink:href="#DejaVuSans-33" x="219.287109"/>
      <use xlink:href="#DejaVuSans-34" x="282.910156"/>
      <use xlink:href="#DejaVuSans-32" x="346.533203"/>
      <use xlink:href="#DejaVuSans-30" x="410.15625"/>
     </g>
    </g>
   </g>
   <g id="text_5">
    <g clip-path="url(#p1b6561d5b1)">
     <!-- ECM2423 -->
     <g transform="translate(269.855307 99.357306) scale(0.07 -0.07)">
      <use xlink:href="#DejaVuSans-45"/>
      <use xlink:href="#DejaVuSans-43" x="63.183594"/>
      <use xlink:href="#DejaVuSans-4d" x="133.007812"/>
      <use xlink:href="#DejaVuSans-32" x="219.287109"/>
      <use xlink:href="#DejaVuSans-34" x="282.910156"/>
      <use xlink:href="#DejaVuSans-32" x="346.533203"/>
      <use xlink:href="#DejaVuSans-33" x="410.15625"/>
     </g>
    </g>
   </g>
   <g id="text_6">
    <g clip-path="url(#p1b6561d5b1)">
     <!-- ECM1413 -->
     <g transform="translate(101.282875 132.929435) scale(0.07 -0.07)">
      <use xlink:href="#DejaVuSans-45"/>
      <use xlink:href="#DejaVuSans-43" x="63.183594"/>
      <use xlink:href="#DejaVuSans-4d" x="133.007812"/>
      <use xlink:href="#DejaVuSans-31" x="219.287109"/>
      <use xlink:href="#DejaVuSans-34" x="282.910156"/>
      <use xlink:href="#DejaVuSans-31" x="346.533203"/>
      <use xlink:href="#DejaVuSans-33" x="410.15625"/>
     </g>
    </g>
   </g>
   <g id="text_7">
    <g clip-path="url(#p1b6561d5b1)">
     <!-- MTH2008 -->
     <g transform="translate(252.061336 262.437566) scale(0.07 -0.07)">
      <use xlink:href="#DejaVuSans-4d"/>
      <use xlink:href="#DejaVuSans-54" x="86.279297"/>
      <use xlink:href="#DejaVuSans-48" x="147.363281"/>
      <use xlink:href="#DejaVuSans-32" x="222.558594"/>
      <use xlink:href="#DejaVuSans-30" x="286.181641"/>
      <use xlink:href="#DejaVuSans-30" x="349.804688"/>
      <use xlink:href="#DejaVuSans-38" x="413.427734"/>
     </g>
    </g>
   </g>
   <g id="text_8">
    <g clip-path="url(#p1b6561d5b1)">
     <!-- MTH3022 -->
     <g transform="translate(280.035001 263.272504) scale(0.07 -0.07)">
      <use xlink:href="#DejaVuSans-4d"/>
      <use xlink:href="#DejaVuSans-54" x="86.279297"/>
      <use xlink:href="#DejaVuSans-48" x="147.363281"/>
      <use xlink:href="#DejaVuSans-33" x="222.558594"/>
      <use xlink:href="#DejaVuSans-30" x="286.181641"/>
      <use xlink:href="#DejaVuSans-32" x="349.804688"/>
      <use xlink:href="#DejaVuSans-32" x="413.427734"/>
     </g>
    </g>
   </g>
   <g id="text_9">
    <g clip-path="url(#p1b6561d5b1)">
     <!-- ECM2419 -->
     <g transform="translate(138.468036 149.926278) scale(0.07 -0.07)">
      <defs>
       <path id="DejaVuSans-39" d="M 703 97 
L 703 672 
Q 941 559 1184 500 
Q 1428 441 1663 441 
Q 2288 441 2617 861 
Q 2947 1281 2994 2138 
Q 2813 1869 2534 1725 
Q 2256 1581 1919 1581 
Q 1219 1581 811 2004 
Q 403 2428 403 3163 
Q 403 3881 828 4315 
Q 1253 4750 1959 4750 
Q 2769 4750 3195 4129 
Q 3622 3509 3622 2328 
Q 3622 1225 3098 567 
Q 2575 -91 1691 -91 
Q 1453 -91 1209 -44 
Q 966 3 703 97 
z
M 1959 2075 
Q 2384 2075 2632 2365 
Q 2881 2656 2881 3163 
Q 2881 3666 2632 3958 
Q 2384 4250 1959 4250 
Q 1534 4250 1286 3958 
Q 1038 3666 1038 3163 
Q 1038 2656 1286 2365 
Q 1534 2075 1959 2075 
z
" transform="scale(0.015625)"/>
      </defs>
      <use xlink:href="#DejaVuSans-45"/>
      <use xlink:href="#DejaVuSans-43" x="63.183594"/>
      <use xlink:href="#DejaVuSans-4d" x="133.007812"/>
      <use xlink:href="#DejaVuSans-32" x="219.287109"/>
      <use xlink:href="#DejaVuSans-34" x="282.910156"/>
      <use xlink:href="#DejaVuSans-31" x="346.533203"/>
      <use xlink:href="#DejaVuSans-39" x="410.15625"/>
     </g>
    </g>
   </g>
   <g id="text_10">
    <g clip-path="url(#p1b6561d5b1)">
     <!-- ECM2433 -->
     <g transform="translate(179.89187 194.335284) scale(0.07 -0.07)">
      <use xlink:href="#DejaVuSans-45"/>
      <use xlink:href="#DejaVuSans-43" x="63.183594"/>
      <use xlink:href="#DejaVuSans-4d" x="133.007812"/>
      <use xlink:href="#DejaVuSans-32" x="219.287109"/>
      <use xlink:href="#DejaVuSans-34" x="282.910156"/>
      <use xlink:href="#DejaVuSans-33" x="346.533203"/>
      <use xlink:href="#DejaVuSans-33" x="410.15625"/>
     </g>
    </g>
   </g>
   <g id="text_11">
    <g clip-path="url(#p1b6561d5b1)">
     <!-- ECM1414 -->
     <g transform="translate(200.903782 133.923124) scale(0.07 -0.07)">
      <use xlink:href="#DejaVuSans-45"/>
      <use xlink:href="#DejaVuSans-43" x="63.183594"/>
      <use xlink:href="#DejaVuSans-4d" x="133.007812"/>
      <use xlink:href="#DejaVuSans-31" x="219.287109"/>
      <use xlink:href="#DejaVuSans-34" x="282.910156"/>
      <use xlink:href="#DejaVuSans-31" x="346.533203"/>
      <use xlink:href="#DejaVuSans-34" x="410.15625"/>
     </g>
    </g>
   </g>
   <g id="text_12">
    <g clip-path="url(#p1b6561d5b1)">
     <!-- ECM3401 -->
     <g transform="translate(131.130682 233.917739) scale(0.07 -0.07)">
      <use xlink:href="#DejaVuSans-45"/>
      <use xlink:href="#DejaVuSans-43" x="63.183594"/>
      <use xlink:href="#DejaVuSans-4d" x="133.007812"/>
      <use xlink:href="#DejaVuSans-33" x="219.287109"/>
      <use xlink:href="#DejaVuSans-34" x="282.910156"/>
      <use xlink:href="#DejaVuSans-30" x="346.533203"/>
      <use xlink:href="#DejaVuSans-31" x="410.15625"/>
     </g>
    </g>
   </g>
   <g id="text_13">
    <g clip-path="url(#p1b6561d5b1)">
     <!-- MTH1001 -->
     <g transform="translate(309.189122 237.974712) scale(0.07 -0.07)">
      <use xlink:href="#DejaVuSans-4d"/>
      <use xlink:href="#DejaVuSans-54" x="86.279297"/>
      <use xlink:href="#DejaVuSans-48" x="147.363281"/>
      <use xlink:href="#DejaVuSans-31" x="222.558594"/>
      <use xlink:href="#DejaVuSans-30" x="286.181641"/>
      <use xlink:href="#DejaVuSans-30" x="349.804688"/>
      <use xlink:href="#DejaVuSans-31" x="413.427734"/>
     </g>
    </g>
   </g>
   <g id="text_14">
    <g clip-path="url(#p1b6561d5b1)">
     <!-- ECM2414 -->
     <g transform="translate(151.998541 206.628864) scale(0.07 -0.07)">
      <use xlink:href="#DejaVuSans-45"/>
      <use xlink:href="#DejaVuSans-43" x="63.183594"/>
      <use xlink:href="#DejaVuSans-4d" x="133.007812"/>
      <use xlink:href="#DejaVuSans-32" x="219.287109"/>
      <use xlink:href="#DejaVuSans-34" x="282.910156"/>
      <use xlink:href="#DejaVuSans-31" x="346.533203"/>
      <use xlink:href="#DejaVuSans-34" x="410.15625"/>
     </g>
    </g>
   </g>
   <g id="text_15">
    <g clip-path="url(#p1b6561d5b1)">
     <!-- ECM3423 -->
     <g transform="translate(110.580517 202.419077) scale(0.07 -0.07)">
      <use xlink:href="#DejaVuSans-45"/>
      <use xlink:href="#DejaVuSans-43" x="63.183594"/>
      <use xlink:href="#DejaVuSans-4d" x="133.007812"/>
      <use xlink:href="#DejaVuSans-33" x="219.287109"/>
      <use xlink:href="#DejaVuSans-34" x="282.910156"/>
      <use xlink:href="#DejaVuSans-32" x="346.533203"/>
      <use xlink:href="#DejaVuSans-33" x="410.15625"/>
     </g>
    </g>
   </g>
   <g id="text_16">
    <g clip-path="url(#p1b6561d5b1)">
     <!-- MTH1002 -->
     <g transform="translate(208.687519 281.218019) scale(0.07 -0.07)">
      <use xlink:href="#DejaVuSans-4d"/>
      <use xlink:href="#DejaVuSans-54" x="86.279297"/>
      <use xlink:href="#DejaVuSans-48" x="147.363281"/>
      <use xlink:href="#DejaVuSans-31" x="222.558594"/>
      <use xlink:href="#DejaVuSans-30" x="286.181641"/>
      <use xlink:href="#DejaVuSans-30" x="349.804688"/>
      <use xlink:href="#DejaVuSans-32" x="413.427734"/>
     </g>
    </g>
   </g>
   <g id="text_17">
    <g clip-path="url(#p1b6561d5b1)">
     <!-- MTH3019 -->
     <g transform="translate(339.967772 205.042758) scale(0.07 -0.07)">
      <use xlink:href="#DejaVuSans-4d"/>
      <use xlink:href="#DejaVuSans-54" x="86.279297"/>
      <use xlink:href="#DejaVuSans-48" x="147.363281"/>
      <use xlink:href="#DejaVuSans-33" x="222.558594"/>
      <use xlink:href="#DejaVuSans-30" x="286.181641"/>
      <use xlink:href="#DejaVuSans-31" x="349.804688"/>
      <use xlink:href="#DejaVuSans-39" x="413.427734"/>
     </g>
    </g>
   </g>
   <g id="text_18">
    <g clip-path="url(#p1b6561d5b1)">
     <!-- ECM3408 -->
     <g transform="translate(103.896991 180.682976) scale(0.07 -0.07)">
      <use xlink:href="#DejaVuSans-45"/>
      <use xlink:href="#DejaVuSans-43" x="63.183594"/>
      <use xlink:href="#DejaVuSans-4d" x="133.007812"/>
      <use xlink:href="#DejaVuSans-33" x="219.287109"/>
      <use xlink:href="#DejaVuSans-34" x="282.910156"/>
      <use xlink:href="#DejaVuSans-30" x="346.533203"/>
      <use xlink:href="#DejaVuSans-38" x="410.15625"/>
     </g>
    </g>
   </g>
   <g id="text_19">
    <g clip-path="url(#p1b6561d5b1)">
     <!-- ECM2434 -->
     <g transform="translate(124.088048 212.637166) scale(0.07 -0.07)">
      <use xlink:href="#DejaVuSans-45"/>
      <use xlink:href="#DejaVuSans-43" x="63.183594"/>
      <use xlink:href="#DejaVuSans-4d" x="133.007812"/>
      <use xlink:href="#DejaVuSans-32" x="219.287109"/>
      <use xlink:href="#DejaVuSans-34" x="282.910156"/>
      <use xlink:href="#DejaVuSans-33" x="346.533203"/>
      <use xlink:href="#DejaVuSans-34" x="410.15625"/>
     </g>
    </g>
   </g>
   <g id="text_20">
    <g clip-path="url(#p1b6561d5b1)">
     <!-- ECM1400 -->
     <g transform="translate(197.8013 155.374072) scale(0.07 -0.07)">
      <use xlink:href="#DejaVuSans-45"/>
      <use xlink:href="#DejaVuSans-43" x="63.183594"/>
      <use xlink:href="#DejaVuSans-4d" x="133.007812"/>
      <use xlink:href="#DejaVuSans-31" x="219.287109"/>
      <use xlink:href="#DejaVuSans-34" x="282.910156"/>
      <use xlink:href="#DejaVuSans-30" x="346.533203"/>
      <use xlink:href="#DejaVuSans-30" x="410.15625"/>
     </g>
    </g>
   </g>
   <g id="text_21">
    <g clip-path="url(#p1b6561d5b1)">
     <!-- 68N18 -->
     <g transform="translate(187.127166 93.421654) scale(0.07 -0.07)">
      <defs>
       <path id="DejaVuSans-36" d="M 2113 2584 
Q 1688 2584 1439 2293 
Q 1191 2003 1191 1497 
Q 1191 994 1439 701 
Q 1688 409 2113 409 
Q 2538 409 2786 701 
Q 3034 994 3034 1497 
Q 3034 2003 2786 2293 
Q 2538 2584 2113 2584 
z
M 3366 4563 
L 3366 3988 
Q 3128 4100 2886 4159 
Q 2644 4219 2406 4219 
Q 1781 4219 1451 3797 
Q 1122 3375 1075 2522 
Q 1259 2794 1537 2939 
Q 1816 3084 2150 3084 
Q 2853 3084 3261 2657 
Q 3669 2231 3669 1497 
Q 3669 778 3244 343 
Q 2819 -91 2113 -91 
Q 1303 -91 875 529 
Q 447 1150 447 2328 
Q 447 3434 972 4092 
Q 1497 4750 2381 4750 
Q 2619 4750 2861 4703 
Q 3103 4656 3366 4563 
z
" transform="scale(0.015625)"/>
       <path id="DejaVuSans-4e" d="M 628 4666 
L 1478 4666 
L 3547 763 
L 3547 4666 
L 4159 4666 
L 4159 0 
L 3309 0 
L 1241 3903 
L 1241 0 
L 628 0 
L 628 4666 
z
" transform="scale(0.015625)"/>
      </defs>
      <use xlink:href="#DejaVuSans-36"/>
      <use xlink:href="#DejaVuSans-38" x="63.623047"/>
      <use xlink:href="#DejaVuSans-4e" x="127.246094"/>
      <use xlink:href="#DejaVuSans-31" x="202.050781"/>
      <use xlink:href="#DejaVuSans-38" x="265.673828"/>
     </g>
    </g>
   </g>
   <g id="text_22">
    <g clip-path="url(#p1b6561d5b1)">
     <!-- 68N17 -->
     <g transform="translate(243.760098 83.561962) scale(0.07 -0.07)">
      <defs>
       <path id="DejaVuSans-37" d="M 525 4666 
L 3525 4666 
L 3525 4397 
L 1831 0 
L 1172 0 
L 2766 4134 
L 525 4134 
L 525 4666 
z
" transform="scale(0.015625)"/>
      </defs>
      <use xlink:href="#DejaVuSans-36"/>
      <use xlink:href="#DejaVuSans-38" x="63.623047"/>
      <use xlink:href="#DejaVuSans-4e" x="127.246094"/>
      <use xlink:href="#DejaVuSans-31" x="202.050781"/>
      <use xlink:href="#DejaVuSans-37" x="265.673828"/>
     </g>
    </g>
   </g>
   <g id="text_23">
    <g clip-path="url(#p1b6561d5b1)">
     <!-- 68Q45 -->
     <g transform="translate(198.790728 80.272983) scale(0.07 -0.07)">
      <defs>
       <path id="DejaVuSans-51" d="M 2522 4238 
Q 1834 4238 1429 3725 
Q 1025 3213 1025 2328 
Q 1025 1447 1429 934 
Q 1834 422 2522 422 
Q 3209 422 3611 934 
Q 4013 1447 4013 2328 
Q 4013 3213 3611 3725 
Q 3209 4238 2522 4238 
z
M 3406 84 
L 4238 -825 
L 3475 -825 
L 2784 -78 
Q 2681 -84 2626 -87 
Q 2572 -91 2522 -91 
Q 1538 -91 948 567 
Q 359 1225 359 2328 
Q 359 3434 948 4092 
Q 1538 4750 2522 4750 
Q 3503 4750 4090 4092 
Q 4678 3434 4678 2328 
Q 4678 1516 4351 937 
Q 4025 359 3406 84 
z
" transform="scale(0.015625)"/>
       <path id="DejaVuSans-35" d="M 691 4666 
L 3169 4666 
L 3169 4134 
L 1269 4134 
L 1269 2991 
Q 1406 3038 1543 3061 
Q 1681 3084 1819 3084 
Q 2600 3084 3056 2656 
Q 3513 2228 3513 1497 
Q 3513 744 3044 326 
Q 2575 -91 1722 -91 
Q 1428 -91 1123 -41 
Q 819 9 494 109 
L 494 744 
Q 775 591 1075 516 
Q 1375 441 1709 441 
Q 2250 441 2565 725 
Q 2881 1009 2881 1497 
Q 2881 1984 2565 2268 
Q 2250 2553 1709 2553 
Q 1456 2553 1204 2497 
Q 953 2441 691 2322 
L 691 4666 
z
" transform="scale(0.015625)"/>
      </defs>
      <use xlink:href="#DejaVuSans-36"/>
      <use xlink:href="#DejaVuSans-38" x="63.623047"/>
      <use xlink:href="#DejaVuSans-51" x="127.246094"/>
      <use xlink:href="#DejaVuSans-34" x="205.957031"/>
      <use xlink:href="#DejaVuSans-35" x="269.580078"/>
     </g>
    </g>
   </g>
   <g id="text_24">
    <g clip-path="url(#p1b6561d5b1)">
     <!-- 68Q65 -->
     <g transform="translate(221.441219 76.739565) scale(0.07 -0.07)">
      <use xlink:href="#DejaVuSans-36"/>
      <use xlink:href="#DejaVuSans-38" x="63.623047"/>
      <use xlink:href="#DejaVuSans-51" x="127.246094"/>
      <use xlink:href="#DejaVuSans-36" x="205.957031"/>
      <use xlink:href="#DejaVuSans-35" x="269.580078"/>
     </g>
    </g>
   </g>
   <g id="text_25">
    <g clip-path="url(#p1b6561d5b1)">
     <!-- 08-XX -->
     <g transform="translate(274.128779 220.344998) scale(0.07 -0.07)">
      <defs>
       <path id="DejaVuSans-2d" d="M 313 2009 
L 1997 2009 
L 1997 1497 
L 313 1497 
L 313 2009 
z
" transform="scale(0.015625)"/>
       <path id="DejaVuSans-58" d="M 403 4666 
L 1081 4666 
L 2241 2931 
L 3406 4666 
L 4084 4666 
L 2584 2425 
L 4184 0 
L 3506 0 
L 2194 1984 
L 872 0 
L 191 0 
L 1856 2491 
L 403 4666 
z
" transform="scale(0.015625)"/>
      </defs>
      <use xlink:href="#DejaVuSans-30"/>
      <use xlink:href="#DejaVuSans-38" x="63.623047"/>
      <use xlink:href="#DejaVuSans-2d" x="127.246094"/>
      <use xlink:href="#DejaVuSans-58" x="158.330078"/>
      <use xlink:href="#DejaVuSans-58" x="226.835938"/>
     </g>
    </g>
   </g>
   <g id="text_26">
    <g clip-path="url(#p1b6561d5b1)">
     <!-- 13-XX -->
     <g transform="translate(302.436181 211.141254) scale(0.07 -0.07)">
      <use xlink:href="#DejaVuSans-31"/>
      <use xlink:href="#DejaVuSans-33" x="63.623047"/>
      <use xlink:href="#DejaVuSans-2d" x="127.246094"/>
      <use xlink:href="#DejaVuSans-58" x="158.330078"/>
      <use xlink:href="#DejaVuSans-58" x="226.835938"/>
     </g>
    </g>
   </g>
   <g id="text_27">
    <g clip-path="url(#p1b6561d5b1)">
     <!-- 12-XX -->
     <g transform="translate(323.662238 248.14807) scale(0.07 -0.07)">
      <use xlink:href="#DejaVuSans-31"/>
      <use xlink:href="#DejaVuSans-32" x="63.623047"/>
      <use xlink:href="#DejaVuSans-2d" x="127.246094"/>
      <use xlink:href="#DejaVuSans-58" x="158.330078"/>
      <use xlink:href="#DejaVuSans-58" x="226.835938"/>
     </g>
    </g>
   </g>
   <g id="text_28">
    <g clip-path="url(#p1b6561d5b1)">
     <!-- 68N19 -->
     <g transform="translate(179.065693 178.754715) scale(0.07 -0.07)">
      <use xlink:href="#DejaVuSans-36"/>
      <use xlink:href="#DejaVuSans-38" x="63.623047"/>
      <use xlink:href="#DejaVuSans-4e" x="127.246094"/>
      <use xlink:href="#DejaVuSans-31" x="202.050781"/>
      <use xlink:href="#DejaVuSans-39" x="265.673828"/>
     </g>
    </g>
   </g>
   <g id="text_29">
    <g clip-path="url(#p1b6561d5b1)">
     <!-- 68T01 -->
     <g transform="translate(288.813079 120.938081) scale(0.07 -0.07)">
      <use xlink:href="#DejaVuSans-36"/>
      <use xlink:href="#DejaVuSans-38" x="63.623047"/>
      <use xlink:href="#DejaVuSans-54" x="127.246094"/>
      <use xlink:href="#DejaVuSans-30" x="188.330078"/>
      <use xlink:href="#DejaVuSans-31" x="251.953125"/>
     </g>
    </g>
   </g>
   <g id="text_30">
    <g clip-path="url(#p1b6561d5b1)">
     <!-- 68T07 -->
     <g transform="translate(313.047846 134.428715) scale(0.07 -0.07)">
      <use xlink:href="#DejaVuSans-36"/>
      <use xlink:href="#DejaVuSans-38" x="63.623047"/>
      <use xlink:href="#DejaVuSans-54" x="127.246094"/>
      <use xlink:href="#DejaVuSans-30" x="188.330078"/>
      <use xlink:href="#DejaVuSans-37" x="251.953125"/>
     </g>
    </g>
   </g>
   <g id="text_31">
    <g clip-path="url(#p1b6561d5b1)">
     <!-- 68T09 -->
     <g transform="translate(299.502565 161.376604) scale(0.07 -0.07)">
      <use xlink:href="#DejaVuSans-36"/>
      <use xlink:href="#DejaVuSans-38" x="63.623047"/>
      <use xlink:href="#DejaVuSans-54" x="127.246094"/>
      <use xlink:href="#DejaVuSans-30" x="188.330078"/>
      <use xlink:href="#DejaVuSans-39" x="251.953125"/>
     </g>
    </g>
   </g>
   <g id="text_32">
    <g clip-path="url(#p1b6561d5b1)">
     <!-- 62H20 -->
     <g transform="translate(316.593627 149.185211) scale(0.07 -0.07)">
      <use xlink:href="#DejaVuSans-36"/>
      <use xlink:href="#DejaVuSans-32" x="63.623047"/>
      <use xlink:href="#DejaVuSans-48" x="127.246094"/>
      <use xlink:href="#DejaVuSans-32" x="202.441406"/>
      <use xlink:href="#DejaVuSans-30" x="266.064453"/>
     </g>
    </g>
   </g>
   <g id="text_33">
    <g clip-path="url(#p1b6561d5b1)">
     <!-- 68T27 -->
     <g transform="translate(311.515747 98.221586) scale(0.07 -0.07)">
      <use xlink:href="#DejaVuSans-36"/>
      <use xlink:href="#DejaVuSans-38" x="63.623047"/>
      <use xlink:href="#DejaVuSans-54" x="127.246094"/>
      <use xlink:href="#DejaVuSans-32" x="188.330078"/>
      <use xlink:href="#DejaVuSans-37" x="251.953125"/>
     </g>
    </g>
   </g>
   <g id="text_34">
    <g clip-path="url(#p1b6561d5b1)">
     <!-- 68T05 -->
     <g transform="translate(293.222479 82.231959) scale(0.07 -0.07)">
      <use xlink:href="#DejaVuSans-36"/>
      <use xlink:href="#DejaVuSans-38" x="63.623047"/>
      <use xlink:href="#DejaVuSans-54" x="127.246094"/>
      <use xlink:href="#DejaVuSans-30" x="188.330078"/>
      <use xlink:href="#DejaVuSans-35" x="251.953125"/>
     </g>
    </g>
   </g>
   <g id="text_35">
    <g clip-path="url(#p1b6561d5b1)">
     <!-- 68M10 -->
     <g transform="translate(108.447877 109.24169) scale(0.07 -0.07)">
      <use xlink:href="#DejaVuSans-36"/>
      <use xlink:href="#DejaVuSans-38" x="63.623047"/>
      <use xlink:href="#DejaVuSans-4d" x="127.246094"/>
      <use xlink:href="#DejaVuSans-31" x="213.525391"/>
      <use xlink:href="#DejaVuSans-30" x="277.148438"/>
     </g>
    </g>
   </g>
   <g id="text_36">
    <g clip-path="url(#p1b6561d5b1)">
     <!-- 68M12 -->
     <g transform="translate(82.961246 122.49413) scale(0.07 -0.07)">
      <use xlink:href="#DejaVuSans-36"/>
      <use xlink:href="#DejaVuSans-38" x="63.623047"/>
      <use xlink:href="#DejaVuSans-4d" x="127.246094"/>
      <use xlink:href="#DejaVuSans-31" x="213.525391"/>
      <use xlink:href="#DejaVuSans-32" x="277.148438"/>
     </g>
    </g>
   </g>
   <g id="text_37">
    <g clip-path="url(#p1b6561d5b1)">
     <!-- 68M11 -->
     <g transform="translate(79.647457 143.665262) scale(0.07 -0.07)">
      <use xlink:href="#DejaVuSans-36"/>
      <use xlink:href="#DejaVuSans-38" x="63.623047"/>
      <use xlink:href="#DejaVuSans-4d" x="127.246094"/>
      <use xlink:href="#DejaVuSans-31" x="213.525391"/>
      <use xlink:href="#DejaVuSans-31" x="277.148438"/>
     </g>
    </g>
   </g>
   <g id="text_38">
    <g clip-path="url(#p1b6561d5b1)">
     <!-- 34-XX -->
     <g transform="translate(238.132179 247.568593) scale(0.07 -0.07)">
      <use xlink:href="#DejaVuSans-33"/>
      <use xlink:href="#DejaVuSans-34" x="63.623047"/>
      <use xlink:href="#DejaVuSans-2d" x="127.246094"/>
      <use xlink:href="#DejaVuSans-58" x="158.330078"/>
      <use xlink:href="#DejaVuSans-58" x="226.835938"/>
     </g>
    </g>
   </g>
   <g id="text_39">
    <g clip-path="url(#p1b6561d5b1)">
     <!-- 26-XX -->
     <g transform="translate(240.025606 284.131466) scale(0.07 -0.07)">
      <use xlink:href="#DejaVuSans-32"/>
      <use xlink:href="#DejaVuSans-36" x="63.623047"/>
      <use xlink:href="#DejaVuSans-2d" x="127.246094"/>
      <use xlink:href="#DejaVuSans-58" x="158.330078"/>
      <use xlink:href="#DejaVuSans-58" x="226.835938"/>
     </g>
    </g>
   </g>
   <g id="text_40">
    <g clip-path="url(#p1b6561d5b1)">
     <!-- 40-XX -->
     <g transform="translate(227.615441 264.403252) scale(0.07 -0.07)">
      <use xlink:href="#DejaVuSans-34"/>
      <use xlink:href="#DejaVuSans-30" x="63.623047"/>
      <use xlink:href="#DejaVuSans-2d" x="127.246094"/>
      <use xlink:href="#DejaVuSans-58" x="158.330078"/>
      <use xlink:href="#DejaVuSans-58" x="226.835938"/>
     </g>
    </g>
   </g>
   <g id="text_41">
    <g clip-path="url(#p1b6561d5b1)">
     <!-- 03-XX -->
     <g transform="translate(311.816201 262.902612) scale(0.07 -0.07)">
      <use xlink:href="#DejaVuSans-30"/>
      <use xlink:href="#DejaVuSans-33" x="63.623047"/>
      <use xlink:href="#DejaVuSans-2d" x="127.246094"/>
      <use xlink:href="#DejaVuSans-58" x="158.330078"/>
      <use xlink:href="#DejaVuSans-58" x="226.835938"/>
     </g>
    </g>
   </g>
   <g id="text_42">
    <g clip-path="url(#p1b6561d5b1)">
     <!-- 16-XX -->
     <g transform="translate(285.541495 285.888218) scale(0.07 -0.07)">
      <use xlink:href="#DejaVuSans-31"/>
      <use xlink:href="#DejaVuSans-36" x="63.623047"/>
      <use xlink:href="#DejaVuSans-2d" x="127.246094"/>
      <use xlink:href="#DejaVuSans-58" x="158.330078"/>
      <use xlink:href="#DejaVuSans-58" x="226.835938"/>
     </g>
    </g>
   </g>
   <g id="text_43">
    <g clip-path="url(#p1b6561d5b1)">
     <!-- 68P15 -->
     <g transform="translate(136.007061 127.902685) scale(0.07 -0.07)">
      <defs>
       <path id="DejaVuSans-50" d="M 1259 4147 
L 1259 2394 
L 2053 2394 
Q 2494 2394 2734 2622 
Q 2975 2850 2975 3272 
Q 2975 3691 2734 3919 
Q 2494 4147 2053 4147 
L 1259 4147 
z
M 628 4666 
L 2053 4666 
Q 2838 4666 3239 4311 
Q 3641 3956 3641 3272 
Q 3641 2581 3239 2228 
Q 2838 1875 2053 1875 
L 1259 1875 
L 1259 0 
L 628 0 
L 628 4666 
z
" transform="scale(0.015625)"/>
      </defs>
      <use xlink:href="#DejaVuSans-36"/>
      <use xlink:href="#DejaVuSans-38" x="63.623047"/>
      <use xlink:href="#DejaVuSans-50" x="127.246094"/>
      <use xlink:href="#DejaVuSans-31" x="187.548828"/>
      <use xlink:href="#DejaVuSans-35" x="251.171875"/>
     </g>
    </g>
   </g>
   <g id="text_44">
    <g clip-path="url(#p1b6561d5b1)">
     <!-- 68P10 -->
     <g transform="translate(169.566914 133.440957) scale(0.07 -0.07)">
      <use xlink:href="#DejaVuSans-36"/>
      <use xlink:href="#DejaVuSans-38" x="63.623047"/>
      <use xlink:href="#DejaVuSans-50" x="127.246094"/>
      <use xlink:href="#DejaVuSans-31" x="187.548828"/>
      <use xlink:href="#DejaVuSans-30" x="251.171875"/>
     </g>
    </g>
   </g>
   <g id="text_45">
    <g clip-path="url(#p1b6561d5b1)">
     <!-- 68N99 -->
     <g transform="translate(156.901645 222.225203) scale(0.07 -0.07)">
      <use xlink:href="#DejaVuSans-36"/>
      <use xlink:href="#DejaVuSans-38" x="63.623047"/>
      <use xlink:href="#DejaVuSans-4e" x="127.246094"/>
      <use xlink:href="#DejaVuSans-39" x="202.050781"/>
      <use xlink:href="#DejaVuSans-39" x="265.673828"/>
     </g>
    </g>
   </g>
   <g id="text_46">
    <g clip-path="url(#p1b6561d5b1)">
     <!-- 68-04 -->
     <g transform="translate(186.955069 215.969227) scale(0.07 -0.07)">
      <use xlink:href="#DejaVuSans-36"/>
      <use xlink:href="#DejaVuSans-38" x="63.623047"/>
      <use xlink:href="#DejaVuSans-2d" x="127.246094"/>
      <use xlink:href="#DejaVuSans-30" x="163.330078"/>
      <use xlink:href="#DejaVuSans-34" x="226.953125"/>
     </g>
    </g>
   </g>
   <g id="text_47">
    <g clip-path="url(#p1b6561d5b1)">
     <!-- 68P05 -->
     <g transform="translate(240.265033 128.401079) scale(0.07 -0.07)">
      <use xlink:href="#DejaVuSans-36"/>
      <use xlink:href="#DejaVuSans-38" x="63.623047"/>
      <use xlink:href="#DejaVuSans-50" x="127.246094"/>
      <use xlink:href="#DejaVuSans-30" x="187.548828"/>
      <use xlink:href="#DejaVuSans-35" x="251.171875"/>
     </g>
    </g>
   </g>
   <g id="text_48">
    <g clip-path="url(#p1b6561d5b1)">
     <!-- 68Wxx -->
     <g transform="translate(217.690003 117.174713) scale(0.07 -0.07)">
      <defs>
       <path id="DejaVuSans-57" d="M 213 4666 
L 850 4666 
L 1831 722 
L 2809 4666 
L 3519 4666 
L 4500 722 
L 5478 4666 
L 6119 4666 
L 4947 0 
L 4153 0 
L 3169 4050 
L 2175 0 
L 1381 0 
L 213 4666 
z
" transform="scale(0.015625)"/>
       <path id="DejaVuSans-78" d="M 3513 3500 
L 2247 1797 
L 3578 0 
L 2900 0 
L 1881 1375 
L 863 0 
L 184 0 
L 1544 1831 
L 300 3500 
L 978 3500 
L 1906 2253 
L 2834 3500 
L 3513 3500 
z
" transform="scale(0.015625)"/>
      </defs>
      <use xlink:href="#DejaVuSans-36"/>
      <use xlink:href="#DejaVuSans-38" x="63.623047"/>
      <use xlink:href="#DejaVuSans-57" x="127.246094"/>
      <use xlink:href="#DejaVuSans-78" x="226.123047"/>
      <use xlink:href="#DejaVuSans-78" x="285.302734"/>
     </g>
    </g>
   </g>
   <g id="text_49">
    <g clip-path="url(#p1b6561d5b1)">
     <!-- 68W01 -->
     <g transform="translate(223.159189 148.234546) scale(0.07 -0.07)">
      <use xlink:href="#DejaVuSans-36"/>
      <use xlink:href="#DejaVuSans-38" x="63.623047"/>
      <use xlink:href="#DejaVuSans-57" x="127.246094"/>
      <use xlink:href="#DejaVuSans-30" x="226.123047"/>
      <use xlink:href="#DejaVuSans-31" x="289.746094"/>
     </g>
    </g>
   </g>
   <g id="text_50">
    <g clip-path="url(#p1b6561d5b1)">
     <!-- 68N20 -->
     <g transform="translate(121.526173 256.765401) scale(0.07 -0.07)">
      <use xlink:href="#DejaVuSans-36"/>
      <use xlink:href="#DejaVuSans-38" x="63.623047"/>
      <use xlink:href="#DejaVuSans-4e" x="127.246094"/>
      <use xlink:href="#DejaVuSans-32" x="202.050781"/>
      <use xlink:href="#DejaVuSans-30" x="265.673828"/>
     </g>
    </g>
   </g>
   <g id="text_51">
    <g clip-path="url(#p1b6561d5b1)">
     <!-- 11-XX -->
     <g transform="translate(343.07447 224.173128) scale(0.07 -0.07)">
      <use xlink:href="#DejaVuSans-31"/>
      <use xlink:href="#DejaVuSans-31" x="63.623047"/>
      <use xlink:href="#DejaVuSans-2d" x="127.246094"/>
      <use xlink:href="#DejaVuSans-58" x="158.330078"/>
      <use xlink:href="#DejaVuSans-58" x="226.835938"/>
     </g>
    </g>
   </g>
   <g id="text_52">
    <g clip-path="url(#p1b6561d5b1)">
     <!-- 22-XX -->
     <g transform="translate(351.005964 242.104428) scale(0.07 -0.07)">
      <use xlink:href="#DejaVuSans-32"/>
      <use xlink:href="#DejaVuSans-32" x="63.623047"/>
      <use xlink:href="#DejaVuSans-2d" x="127.246094"/>
      <use xlink:href="#DejaVuSans-58" x="158.330078"/>
      <use xlink:href="#DejaVuSans-58" x="226.835938"/>
     </g>
    </g>
   </g>
   <g id="text_53">
    <g clip-path="url(#p1b6561d5b1)">
     <!-- 65D18 -->
     <g transform="translate(89.073689 222.761653) scale(0.07 -0.07)">
      <defs>
       <path id="DejaVuSans-44" d="M 1259 4147 
L 1259 519 
L 2022 519 
Q 2988 519 3436 956 
Q 3884 1394 3884 2338 
Q 3884 3275 3436 3711 
Q 2988 4147 2022 4147 
L 1259 4147 
z
M 628 4666 
L 1925 4666 
Q 3281 4666 3915 4102 
Q 4550 3538 4550 2338 
Q 4550 1131 3912 565 
Q 3275 0 1925 0 
L 628 0 
L 628 4666 
z
" transform="scale(0.015625)"/>
      </defs>
      <use xlink:href="#DejaVuSans-36"/>
      <use xlink:href="#DejaVuSans-35" x="63.623047"/>
      <use xlink:href="#DejaVuSans-44" x="127.246094"/>
      <use xlink:href="#DejaVuSans-31" x="204.248047"/>
      <use xlink:href="#DejaVuSans-38" x="267.871094"/>
     </g>
    </g>
   </g>
   <g id="text_54">
    <g clip-path="url(#p1b6561d5b1)">
     <!-- 14-XX -->
     <g transform="translate(192.806559 296.17956) scale(0.07 -0.07)">
      <use xlink:href="#DejaVuSans-31"/>
      <use xlink:href="#DejaVuSans-34" x="63.623047"/>
      <use xlink:href="#DejaVuSans-2d" x="127.246094"/>
      <use xlink:href="#DejaVuSans-58" x="158.330078"/>
      <use xlink:href="#DejaVuSans-58" x="226.835938"/>
     </g>
    </g>
   </g>
   <g id="text_55">
    <g clip-path="url(#p1b6561d5b1)">
     <!-- 15-XX -->
     <g transform="translate(180.174149 280.284538) scale(0.07 -0.07)">
      <use xlink:href="#DejaVuSans-31"/>
      <use xlink:href="#DejaVuSans-35" x="63.623047"/>
      <use xlink:href="#DejaVuSans-2d" x="127.246094"/>
      <use xlink:href="#DejaVuSans-58" x="158.330078"/>
      <use xlink:href="#DejaVuSans-58" x="226.835938"/>
     </g>
    </g>
   </g>
   <g id="text_56">
    <g clip-path="url(#p1b6561d5b1)">
     <!-- 01-XX -->
     <g transform="translate(373.145403 193.346818) scale(0.07 -0.07)">
      <use xlink:href="#DejaVuSans-30"/>
      <use xlink:href="#DejaVuSans-31" x="63.623047"/>
      <use xlink:href="#DejaVuSans-2d" x="127.246094"/>
      <use xlink:href="#DejaVuSans-58" x="158.330078"/>
      <use xlink:href="#DejaVuSans-58" x="226.835938"/>
     </g>
    </g>
   </g>
   <g id="text_57">
    <g clip-path="url(#p1b6561d5b1)">
     <!-- 51-XX -->
     <g transform="translate(356.226671 180.759314) scale(0.07 -0.07)">
      <use xlink:href="#DejaVuSans-35"/>
      <use xlink:href="#DejaVuSans-31" x="63.623047"/>
      <use xlink:href="#DejaVuSans-2d" x="127.246094"/>
      <use xlink:href="#DejaVuSans-58" x="158.330078"/>
      <use xlink:href="#DejaVuSans-58" x="226.835938"/>
     </g>
    </g>
   </g>
   <g id="text_58">
    <g clip-path="url(#p1b6561d5b1)">
     <!-- 68M14 -->
     <g transform="translate(76.910769 176.062735) scale(0.07 -0.07)">
      <use xlink:href="#DejaVuSans-36"/>
      <use xlink:href="#DejaVuSans-38" x="63.623047"/>
      <use xlink:href="#DejaVuSans-4d" x="127.246094"/>
      <use xlink:href="#DejaVuSans-31" x="213.525391"/>
      <use xlink:href="#DejaVuSans-34" x="277.148438"/>
     </g>
    </g>
   </g>
   <g id="text_59">
    <g clip-path="url(#p1b6561d5b1)">
     <!-- 68M15 -->
     <g transform="translate(77.333006 194.682557) scale(0.07 -0.07)">
      <use xlink:href="#DejaVuSans-36"/>
      <use xlink:href="#DejaVuSans-38" x="63.623047"/>
      <use xlink:href="#DejaVuSans-4d" x="127.246094"/>
      <use xlink:href="#DejaVuSans-31" x="213.525391"/>
      <use xlink:href="#DejaVuSans-35" x="277.148438"/>
     </g>
    </g>
   </g>
   <g id="text_60">
    <g clip-path="url(#p1b6561d5b1)">
     <!-- 68N01 -->
     <g transform="translate(230.112676 172.50769) scale(0.07 -0.07)">
      <use xlink:href="#DejaVuSans-36"/>
      <use xlink:href="#DejaVuSans-38" x="63.623047"/>
      <use xlink:href="#DejaVuSans-4e" x="127.246094"/>
      <use xlink:href="#DejaVuSans-30" x="202.050781"/>
      <use xlink:href="#DejaVuSans-31" x="265.673828"/>
     </g>
    </g>
   </g>
   <g id="matplotlib.axis_1"/>
   <g id="matplotlib.axis_2"/>
  </g>
 </g>
 <defs>
  <clipPath id="p1b6561d5b1">
   <rect x="57.6" y="41.472" width="357.12" height="266.112"/>
  </clipPath>
 </defs>
</svg>
