<?xml version="1.0" encoding="utf-8" standalone="no"?>
<!DOCTYPE svg PUBLIC "-//W3C//DTD SVG 1.1//EN"
  "http://www.w3.org/Graphics/SVG/1.1/DTD/svg11.dtd">
<svg xmlns:xlink="http://www.w3.org/1999/xlink" width="460.8pt" height="345.6pt" viewBox="0 0 460.8 345.6" xmlns="http://www.w3.org/2000/svg" version="1.1">
 <metadata>
  <rdf:RDF xmlns:dc="http://purl.org/dc/elements/1.1/" xmlns:cc="http://creativecommons.org/ns#" xmlns:rdf="http://www.w3.org/1999/02/22-rdf-syntax-ns#">
   <cc:Work>
    <dc:type rdf:resource="http://purl.org/dc/dcmitype/StillImage"/>
    <dc:date>2024-05-02T14:10:24.316147</dc:date>
    <dc:format>image/svg+xml</dc:format>
    <dc:creator>
     <cc:Agent>
      <dc:title>Matplotlib v3.8.3, https://matplotlib.org/</dc:title>
     </cc:Agent>
    </dc:creator>
   </cc:Work>
  </rdf:RDF>
 </metadata>
 <defs>
  <style type="text/css">*{stroke-linejoin: round; stroke-linecap: butt}</style>
 </defs>
 <g id="figure_1">
  <g id="patch_1">
   <path d="M 0 345.6 
L 460.8 345.6 
L 460.8 0 
L 0 0 
L 0 345.6 
z
" style="fill: none"/>
  </g>
  <g id="axes_1">
   <g id="patch_2">
    <path d="M 57.6 307.584 
L 414.72 307.584 
L 414.72 41.472 
L 57.6 41.472 
L 57.6 307.584 
z
" style="fill: none"/>
   </g>
   <g id="EdgeCollection_1">
    <path d="M 261.349999 92.32303 
L 288.214906 115.919699 
L 261.349999 92.32303 
L 260.360108 93.450024 
L 259.09601 90.343248 
L 262.33989 91.196035 
L 261.349999 92.32303 
" clip-path="url(#p171d25a1cc)" style="fill: #444444; stroke: #444444; stroke-width: 1.5"/>
    <path d="M 336.079994 150.008565 
L 296.071495 122.081236 
L 336.079994 150.008565 
L 336.938564 148.778583 
L 338.539958 151.725706 
L 335.221423 151.238548 
L 336.079994 150.008565 
" clip-path="url(#p171d25a1cc)" style="fill: #444444; stroke: #444444; stroke-width: 1.5"/>
    <path d="M 120.789521 207.64771 
L 111.70497 184.683085 
L 120.789521 207.64771 
L 122.184348 207.095932 
L 121.893077 210.437363 
L 119.394695 208.199488 
L 120.789521 207.64771 
" clip-path="url(#p171d25a1cc)" style="fill: #444444; stroke: #444444; stroke-width: 1.5"/>
    <path d="M 271.206011 274.114953 
L 300.47383 282.695019 
L 271.206011 274.114953 
L 270.784034 275.554375 
L 268.327167 273.271 
L 271.627987 272.675531 
L 271.206011 274.114953 
" clip-path="url(#p171d25a1cc)" style="fill: #444444; stroke: #444444; stroke-width: 1.5"/>
    <path d="M 214.973769 236.739447 
L 172.866309 242.717286 
L 214.973769 236.739447 
L 214.762934 235.254338 
L 217.943987 236.317776 
L 215.184605 238.224555 
L 214.973769 236.739447 
" clip-path="url(#p171d25a1cc)" style="fill: #444444; stroke: #444444; stroke-width: 1.5"/>
    <path d="M 174.776737 247.534626 
L 196.30706 260.446796 
L 174.776737 247.534626 
L 174.005258 248.821024 
L 172.20394 245.991668 
L 175.548216 246.248227 
L 174.776737 247.534626 
" clip-path="url(#p171d25a1cc)" style="fill: #444444; stroke: #444444; stroke-width: 1.5"/>
    <path d="M 217.844969 241.82013 
L 203.750917 259.140181 
L 217.844969 241.82013 
L 216.681505 240.873371 
L 219.738487 239.493203 
L 219.008432 242.766889 
L 217.844969 241.82013 
" clip-path="url(#p171d25a1cc)" style="fill: #444444; stroke: #444444; stroke-width: 1.5"/>
    <path d="M 229.099796 230.565987 
L 247.472649 215.617083 
L 229.099796 230.565987 
L 230.046484 231.729508 
L 226.772754 232.459363 
L 228.153107 229.402466 
L 229.099796 230.565987 
" clip-path="url(#p171d25a1cc)" style="fill: #444444; stroke: #444444; stroke-width: 1.5"/>
    <path d="M 228.864157 240.940534 
L 259.797964 268.535947 
L 228.864157 240.940534 
L 227.865618 242.059872 
L 226.62548 238.943455 
L 229.862696 239.821195 
L 228.864157 240.940534 
" clip-path="url(#p171d25a1cc)" style="fill: #444444; stroke: #444444; stroke-width: 1.5"/>
    <path d="M 230.811763 236.761536 
L 268.748807 242.255318 
L 230.811763 236.761536 
L 230.596786 238.246051 
L 227.842733 236.331582 
L 231.026741 235.277021 
L 230.811763 236.761536 
" clip-path="url(#p171d25a1cc)" style="fill: #444444; stroke: #444444; stroke-width: 1.5"/>
    <path d="M 321.009171 170.786037 
L 338.637714 157.584693 
L 321.009171 170.786037 
L 321.908297 171.986693 
L 318.60786 172.584288 
L 320.110046 169.585382 
L 321.009171 170.786037 
" clip-path="url(#p171d25a1cc)" style="fill: #444444; stroke: #444444; stroke-width: 1.5"/>
    <path d="M 375.549265 146.897358 
L 347.508732 153.449861 
L 375.549265 146.897358 
L 375.20794 145.436708 
L 378.470564 146.21471 
L 375.890589 148.358008 
L 375.549265 146.897358 
" clip-path="url(#p171d25a1cc)" style="fill: #444444; stroke: #444444; stroke-width: 1.5"/>
    <path d="M 351.402857 188.868151 
L 343.878206 159.431842 
L 351.402857 188.868151 
L 352.856127 188.496659 
L 352.145841 191.774691 
L 349.949587 189.239643 
L 351.402857 188.868151 
" clip-path="url(#p171d25a1cc)" style="fill: #444444; stroke: #444444; stroke-width: 1.5"/>
    <path d="M 375.95068 175.32321 
L 346.884674 157.229935 
L 375.95068 175.32321 
L 376.743378 174.049777 
L 378.497545 176.908605 
L 375.157982 176.596642 
L 375.95068 175.32321 
" clip-path="url(#p171d25a1cc)" style="fill: #444444; stroke: #444444; stroke-width: 1.5"/>
    <path d="M 346.907206 128.400239 
L 343.444057 149.652699 
L 346.907206 128.400239 
L 345.426733 128.158992 
L 347.3897 125.439293 
L 348.387678 128.641486 
L 346.907206 128.400239 
" clip-path="url(#p171d25a1cc)" style="fill: #444444; stroke: #444444; stroke-width: 1.5"/>
    <path d="M 247.596529 89.055711 
L 219.980231 96.232245 
L 247.596529 89.055711 
L 247.21926 87.60393 
L 250.500091 88.301175 
L 247.973797 90.507493 
L 247.596529 89.055711 
" clip-path="url(#p171d25a1cc)" style="fill: #444444; stroke: #444444; stroke-width: 1.5"/>
    <path d="M 163.312517 249.962887 
L 150.934809 267.555222 
L 163.312517 249.962887 
L 162.085739 249.099744 
L 165.038803 247.509331 
L 164.539295 250.82603 
L 163.312517 249.962887 
" clip-path="url(#p171d25a1cc)" style="fill: #444444; stroke: #444444; stroke-width: 1.5"/>
    <path d="M 161.181638 239.101612 
L 127.94128 217.785821 
L 161.181638 239.101612 
L 161.991349 237.838929 
L 163.707003 240.721034 
L 160.371927 240.364295 
L 161.181638 239.101612 
" clip-path="url(#p171d25a1cc)" style="fill: #444444; stroke: #444444; stroke-width: 1.5"/>
    <path d="M 116.427386 211.825236 
L 93.546197 201.609135 
L 116.427386 211.825236 
L 117.038927 210.455558 
L 119.166743 213.048317 
L 115.815846 213.194914 
L 116.427386 211.825236 
" clip-path="url(#p171d25a1cc)" style="fill: #444444; stroke: #444444; stroke-width: 1.5"/>
    <path d="M 104.023445 185.498819 
L 92.632019 196.154944 
L 104.023445 185.498819 
L 102.998728 184.403394 
L 106.214295 183.449386 
L 105.048162 186.594244 
L 104.023445 185.498819 
" clip-path="url(#p171d25a1cc)" style="fill: #444444; stroke: #444444; stroke-width: 1.5"/>
    <path d="M 182.394671 158.328308 
L 187.239962 182.662505 
L 182.394671 158.328308 
L 180.92355 158.62123 
L 181.808828 155.386066 
L 183.865792 158.035387 
L 182.394671 158.328308 
" clip-path="url(#p171d25a1cc)" style="fill: #444444; stroke: #444444; stroke-width: 1.5"/>
    <path d="M 218.212546 229.128027 
L 191.142495 191.620595 
L 218.212546 229.128027 
L 219.428852 228.250188 
L 219.968222 231.560638 
L 216.99624 230.005865 
L 218.212546 229.128027 
" clip-path="url(#p171d25a1cc)" style="fill: #444444; stroke: #444444; stroke-width: 1.5"/>
    <path d="M 181.095574 183.920105 
L 147.681696 166.810835 
L 181.095574 183.920105 
L 181.779225 182.584957 
L 183.765871 185.287407 
L 180.411924 185.255254 
L 181.095574 183.920105 
" clip-path="url(#p171d25a1cc)" style="fill: #444444; stroke: #444444; stroke-width: 1.5"/>
    <path d="M 117.120907 176.662887 
L 138.696703 166.638735 
L 117.120907 176.662887 
L 117.752927 178.023236 
L 114.400208 177.926928 
L 116.488886 175.302537 
L 117.120907 176.662887 
" clip-path="url(#p171d25a1cc)" style="fill: #444444; stroke: #444444; stroke-width: 1.5"/>
    <path d="M 283.991549 118.654077 
L 252.476581 116.421741 
L 283.991549 118.654077 
L 284.097535 117.157826 
L 286.984051 118.866048 
L 283.885563 120.150328 
L 283.991549 118.654077 
" clip-path="url(#p171d25a1cc)" style="fill: #444444; stroke: #444444; stroke-width: 1.5"/>
    <path d="M 222.078204 101.474107 
L 243.153301 113.578268 
L 222.078204 101.474107 
L 221.331148 102.77484 
L 219.476738 99.979994 
L 222.82526 100.173374 
L 222.078204 101.474107 
" clip-path="url(#p171d25a1cc)" style="fill: #444444; stroke: #444444; stroke-width: 1.5"/>
    <path d="M 248.807024 82.425326 
L 228.177967 67.840821 
L 248.807024 82.425326 
L 249.672953 81.200513 
L 251.256651 84.157184 
L 247.941096 83.65014 
L 248.807024 82.425326 
" clip-path="url(#p171d25a1cc)" style="fill: #444444; stroke: #444444; stroke-width: 1.5"/>
   </g>
   <g id="VertexCollection_1">
    <path d="M 291.971554 124.219334 
C 293.29757 124.219334 294.569454 123.692503 295.507088 122.754868 
C 296.444723 121.817233 296.971554 120.54535 296.971554 119.219334 
C 296.971554 117.893319 296.444723 116.621435 295.507088 115.6838 
C 294.569454 114.746166 293.29757 114.219334 291.971554 114.219334 
C 290.645539 114.219334 289.373655 114.746166 288.43602 115.6838 
C 287.498386 116.621435 286.971554 117.893319 286.971554 119.219334 
C 286.971554 120.54535 287.498386 121.817233 288.43602 122.754868 
C 289.373655 123.692503 290.645539 124.219334 291.971554 124.219334 
z
" clip-path="url(#p171d25a1cc)"/>
    <path d="M 109.865711 185.033663 
C 111.191726 185.033663 112.46361 184.506832 113.401245 183.569197 
C 114.338879 182.631562 114.865711 181.359679 114.865711 180.033663 
C 114.865711 178.707648 114.338879 177.435764 113.401245 176.498129 
C 112.46361 175.560495 111.191726 175.033663 109.865711 175.033663 
C 108.539695 175.033663 107.267811 175.560495 106.330177 176.498129 
C 105.392542 177.435764 104.865711 178.707648 104.865711 180.033663 
C 104.865711 181.359679 105.392542 182.631562 106.330177 183.569197 
C 107.267811 184.506832 108.539695 185.033663 109.865711 185.033663 
z
" clip-path="url(#p171d25a1cc)"/>
    <path d="M 305.271903 289.101608 
C 306.597919 289.101608 307.869803 288.574776 308.807437 287.637142 
C 309.745072 286.699507 310.271903 285.427624 310.271903 284.101608 
C 310.271903 282.775593 309.745072 281.503709 308.807437 280.566074 
C 307.869803 279.62844 306.597919 279.101608 305.271903 279.101608 
C 303.945888 279.101608 302.674004 279.62844 301.736369 280.566074 
C 300.798735 281.503709 300.271903 282.775593 300.271903 284.101608 
C 300.271903 285.427624 300.798735 286.699507 301.736369 287.637142 
C 302.674004 288.574776 303.945888 289.101608 305.271903 289.101608 
z
" clip-path="url(#p171d25a1cc)"/>
    <path d="M 167.915946 248.420071 
C 169.241962 248.420071 170.513846 247.89324 171.45148 246.955605 
C 172.389115 246.01797 172.915946 244.746087 172.915946 243.420071 
C 172.915946 242.094056 172.389115 240.822172 171.45148 239.884537 
C 170.513846 238.946903 169.241962 238.420071 167.915946 238.420071 
C 166.589931 238.420071 165.318047 238.946903 164.380413 239.884537 
C 163.442778 240.822172 162.915946 242.094056 162.915946 243.420071 
C 162.915946 244.746087 163.442778 246.01797 164.380413 246.955605 
C 165.318047 247.89324 166.589931 248.420071 167.915946 248.420071 
z
" clip-path="url(#p171d25a1cc)"/>
    <path d="M 200.595054 268.018392 
C 201.921069 268.018392 203.192953 267.491561 204.130588 266.553926 
C 205.068222 265.616292 205.595054 264.344408 205.595054 263.018392 
C 205.595054 261.692377 205.068222 260.420493 204.130588 259.482858 
C 203.192953 258.545224 201.921069 258.018392 200.595054 258.018392 
C 199.269038 258.018392 197.997154 258.545224 197.05952 259.482858 
C 196.121885 260.420493 195.595054 261.692377 195.595054 263.018392 
C 195.595054 264.344408 196.121885 265.616292 197.05952 266.553926 
C 197.997154 267.491561 199.269038 268.018392 200.595054 268.018392 
z
" clip-path="url(#p171d25a1cc)"/>
    <path d="M 251.351052 217.461455 
C 252.677068 217.461455 253.948952 216.934624 254.886586 215.996989 
C 255.824221 215.059355 256.351052 213.787471 256.351052 212.461455 
C 256.351052 211.13544 255.824221 209.863556 254.886586 208.925921 
C 253.948952 207.988287 252.677068 207.461455 251.351052 207.461455 
C 250.025037 207.461455 248.753153 207.988287 247.815518 208.925921 
C 246.877884 209.863556 246.351052 211.13544 246.351052 212.461455 
C 246.351052 213.787471 246.877884 215.059355 247.815518 215.996989 
C 248.753153 216.934624 250.025037 217.461455 251.351052 217.461455 
z
" clip-path="url(#p171d25a1cc)"/>
    <path d="M 263.529093 276.864411 
C 264.855109 276.864411 266.126993 276.33758 267.064627 275.399945 
C 268.002262 274.46231 268.529093 273.190427 268.529093 271.864411 
C 268.529093 270.538396 268.002262 269.266512 267.064627 268.328877 
C 266.126993 267.391243 264.855109 266.864411 263.529093 266.864411 
C 262.203078 266.864411 260.931194 267.391243 259.993559 268.328877 
C 259.055925 269.266512 258.529093 270.538396 258.529093 271.864411 
C 258.529093 273.190427 259.055925 274.46231 259.993559 275.399945 
C 260.931194 276.33758 262.203078 276.864411 263.529093 276.864411 
z
" clip-path="url(#p171d25a1cc)"/>
    <path d="M 273.69719 247.971908 
C 275.023206 247.971908 276.295089 247.445077 277.232724 246.507442 
C 278.170359 245.569808 278.69719 244.297924 278.69719 242.971908 
C 278.69719 241.645893 278.170359 240.374009 277.232724 239.436374 
C 276.295089 238.49874 275.023206 237.971908 273.69719 237.971908 
C 272.371175 237.971908 271.099291 238.49874 270.161656 239.436374 
C 269.224022 240.374009 268.69719 241.645893 268.69719 242.971908 
C 268.69719 244.297924 269.224022 245.569808 270.161656 246.507442 
C 271.099291 247.445077 272.371175 247.971908 273.69719 247.971908 
z
" clip-path="url(#p171d25a1cc)"/>
    <path d="M 342.639899 159.587609 
C 343.965915 159.587609 345.237799 159.060777 346.175433 158.123142 
C 347.113068 157.185508 347.639899 155.913624 347.639899 154.587609 
C 347.639899 153.261593 347.113068 151.989709 346.175433 151.052075 
C 345.237799 150.11444 343.965915 149.587609 342.639899 149.587609 
C 341.313884 149.587609 340.042 150.11444 339.104365 151.052075 
C 338.166731 151.989709 337.639899 153.261593 337.639899 154.587609 
C 337.639899 155.913624 338.166731 157.185508 339.104365 158.123142 
C 340.042 159.060777 341.313884 159.587609 342.639899 159.587609 
z
" clip-path="url(#p171d25a1cc)"/>
    <path d="M 215.14096 102.489807 
C 216.466976 102.489807 217.73886 101.962975 218.676494 101.025341 
C 219.614129 100.087706 220.14096 98.815822 220.14096 97.489807 
C 220.14096 96.163791 219.614129 94.891907 218.676494 93.954273 
C 217.73886 93.016638 216.466976 92.489807 215.14096 92.489807 
C 213.814945 92.489807 212.543061 93.016638 211.605426 93.954273 
C 210.667792 94.891907 210.14096 96.163791 210.14096 97.489807 
C 210.14096 98.815822 210.667792 100.087706 211.605426 101.025341 
C 212.543061 101.962975 213.814945 102.489807 215.14096 102.489807 
z
" clip-path="url(#p171d25a1cc)"/>
    <path d="M 255.339361 92.043613 
C 256.665377 92.043613 257.937261 91.516782 258.874895 90.579147 
C 259.81253 89.641513 260.339361 88.369629 260.339361 87.043613 
C 260.339361 85.717598 259.81253 84.445714 258.874895 83.508079 
C 257.937261 82.570445 256.665377 82.043613 255.339361 82.043613 
C 254.013346 82.043613 252.741462 82.570445 251.803828 83.508079 
C 250.866193 84.445714 250.339361 85.717598 250.339361 87.043613 
C 250.339361 88.369629 250.866193 89.641513 251.803828 90.579147 
C 252.741462 91.516782 254.013346 92.043613 255.339361 92.043613 
z
" clip-path="url(#p171d25a1cc)"/>
    <path d="M 148.057666 276.644482 
C 149.383682 276.644482 150.655566 276.117651 151.5932 275.180016 
C 152.530835 274.242382 153.057666 272.970498 153.057666 271.644482 
C 153.057666 270.318467 152.530835 269.046583 151.5932 268.108948 
C 150.655566 267.171314 149.383682 266.644482 148.057666 266.644482 
C 146.731651 266.644482 145.459767 267.171314 144.522132 268.108948 
C 143.584498 269.046583 143.057666 270.318467 143.057666 271.644482 
C 143.057666 272.970498 143.584498 274.242382 144.522132 275.180016 
C 145.459767 276.117651 146.731651 276.644482 148.057666 276.644482 
z
" clip-path="url(#p171d25a1cc)"/>
    <path d="M 180.832423 155.482329 
C 182.158439 155.482329 183.430323 154.955498 184.367957 154.017863 
C 185.305592 153.080229 185.832423 151.808345 185.832423 150.482329 
C 185.832423 149.156314 185.305592 147.88443 184.367957 146.946795 
C 183.430323 146.009161 182.158439 145.482329 180.832423 145.482329 
C 179.506408 145.482329 178.234524 146.009161 177.296889 146.946795 
C 176.359255 147.88443 175.832423 149.156314 175.832423 150.482329 
C 175.832423 151.808345 176.359255 153.080229 177.296889 154.017863 
C 178.234524 154.955498 179.506408 155.482329 180.832423 155.482329 
z
" clip-path="url(#p171d25a1cc)"/>
    <path d="M 123.732337 220.086785 
C 125.058352 220.086785 126.330236 219.559953 127.26787 218.622319 
C 128.205505 217.684684 128.732337 216.4128 128.732337 215.086785 
C 128.732337 213.760769 128.205505 212.488885 127.26787 211.551251 
C 126.330236 210.613616 125.058352 210.086785 123.732337 210.086785 
C 122.406321 210.086785 121.134437 210.613616 120.196803 211.551251 
C 119.259168 212.488885 118.732337 213.760769 118.732337 215.086785 
C 118.732337 216.4128 119.259168 217.684684 120.196803 218.622319 
C 121.134437 219.559953 122.406321 220.086785 123.732337 220.086785 
z
" clip-path="url(#p171d25a1cc)"/>
    <path d="M 88.980603 204.570667 
C 90.306619 204.570667 91.578503 204.043835 92.516137 203.106201 
C 93.453772 202.168566 93.980603 200.896682 93.980603 199.570667 
C 93.980603 198.244651 93.453772 196.972767 92.516137 196.035133 
C 91.578503 195.097498 90.306619 194.570667 88.980603 194.570667 
C 87.654588 194.570667 86.382704 195.097498 85.445069 196.035133 
C 84.507435 196.972767 83.980603 198.244651 83.980603 199.570667 
C 83.980603 200.896682 84.507435 202.168566 85.445069 203.106201 
C 86.382704 204.043835 87.654588 204.570667 88.980603 204.570667 
z
" clip-path="url(#p171d25a1cc)"/>
    <path d="M 222.89435 240.614991 
C 224.220366 240.614991 225.492249 240.08816 226.429884 239.150525 
C 227.367519 238.21289 227.89435 236.941007 227.89435 235.614991 
C 227.89435 234.288976 227.367519 233.017092 226.429884 232.079457 
C 225.492249 231.141823 224.220366 230.614991 222.89435 230.614991 
C 221.568335 230.614991 220.296451 231.141823 219.358816 232.079457 
C 218.421182 233.017092 217.89435 234.288976 217.89435 235.614991 
C 217.89435 236.941007 218.421182 238.21289 219.358816 239.150525 
C 220.296451 240.08816 221.568335 240.614991 222.89435 240.614991 
z
" clip-path="url(#p171d25a1cc)"/>
    <path d="M 188.216367 192.566242 
C 189.542382 192.566242 190.814266 192.03941 191.751901 191.101776 
C 192.689535 190.164141 193.216367 188.892257 193.216367 187.566242 
C 193.216367 186.240226 192.689535 184.968343 191.751901 184.030708 
C 190.814266 183.093074 189.542382 182.566242 188.216367 182.566242 
C 186.890351 182.566242 185.618468 183.093074 184.680833 184.030708 
C 183.743198 184.968343 183.216367 186.240226 183.216367 187.566242 
C 183.216367 188.892257 183.743198 190.164141 184.680833 191.101776 
C 185.618468 192.03941 186.890351 192.566242 188.216367 192.566242 
z
" clip-path="url(#p171d25a1cc)"/>
    <path d="M 143.2312 169.532 
C 144.557216 169.532 145.8291 169.005168 146.766734 168.067534 
C 147.704369 167.129899 148.2312 165.858015 148.2312 164.532 
C 148.2312 163.205984 147.704369 161.9341 146.766734 160.996466 
C 145.8291 160.058831 144.557216 159.532 143.2312 159.532 
C 141.905185 159.532 140.633301 160.058831 139.695666 160.996466 
C 138.758032 161.9341 138.2312 163.205984 138.2312 164.532 
C 138.2312 165.858015 138.758032 167.129899 139.695666 168.067534 
C 140.633301 169.005168 141.905185 169.532 143.2312 169.532 
z
" clip-path="url(#p171d25a1cc)"/>
    <path d="M 247.489078 121.068455 
C 248.815094 121.068455 250.086978 120.541624 251.024612 119.603989 
C 251.962247 118.666355 252.489078 117.394471 252.489078 116.068455 
C 252.489078 114.74244 251.962247 113.470556 251.024612 112.532922 
C 250.086978 111.595287 248.815094 111.068455 247.489078 111.068455 
C 246.163063 111.068455 244.891179 111.595287 243.953544 112.532922 
C 243.01591 113.470556 242.489078 114.74244 242.489078 116.068455 
C 242.489078 117.394471 243.01591 118.666355 243.953544 119.603989 
C 244.891179 120.541624 246.163063 121.068455 247.489078 121.068455 
z
" clip-path="url(#p171d25a1cc)"/>
    <path d="M 224.095256 69.954392 
C 225.421271 69.954392 226.693155 69.42756 227.63079 68.489926 
C 228.568424 67.552291 229.095256 66.280407 229.095256 64.954392 
C 229.095256 63.628376 228.568424 62.356493 227.63079 61.418858 
C 226.693155 60.481224 225.421271 59.954392 224.095256 59.954392 
C 222.76924 59.954392 221.497357 60.481224 220.559722 61.418858 
C 219.622087 62.356493 219.095256 63.628376 219.095256 64.954392 
C 219.095256 66.280407 219.622087 67.552291 220.559722 68.489926 
C 221.497357 69.42756 222.76924 69.954392 224.095256 69.954392 
z
" clip-path="url(#p171d25a1cc)"/>
    <path d="M 314.605675 180.581372 
C 315.93169 180.581372 317.203574 180.05454 318.141209 179.116906 
C 319.078843 178.179271 319.605675 176.907387 319.605675 175.581372 
C 319.605675 174.255356 319.078843 172.983473 318.141209 172.045838 
C 317.203574 171.108203 315.93169 170.581372 314.605675 170.581372 
C 313.279659 170.581372 312.007776 171.108203 311.070141 172.045838 
C 310.132507 172.983473 309.605675 174.255356 309.605675 175.581372 
C 309.605675 176.907387 310.132507 178.179271 311.070141 179.116906 
C 312.007776 180.05454 313.279659 180.581372 314.605675 180.581372 
z
" clip-path="url(#p171d25a1cc)"/>
    <path d="M 383.339397 150.076963 
C 384.665412 150.076963 385.937296 149.550131 386.874931 148.612496 
C 387.812565 147.674862 388.339397 146.402978 388.339397 145.076963 
C 388.339397 143.750947 387.812565 142.479063 386.874931 141.541429 
C 385.937296 140.603794 384.665412 140.076963 383.339397 140.076963 
C 382.013381 140.076963 380.741497 140.603794 379.803863 141.541429 
C 378.866228 142.479063 378.339397 143.750947 378.339397 145.076963 
C 378.339397 146.402978 378.866228 147.674862 379.803863 148.612496 
C 380.741497 149.550131 382.013381 150.076963 383.339397 150.076963 
z
" clip-path="url(#p171d25a1cc)"/>
    <path d="M 353.384147 201.618924 
C 354.710162 201.618924 355.982046 201.092093 356.919681 200.154458 
C 357.857315 199.216824 358.384147 197.94494 358.384147 196.618924 
C 358.384147 195.292909 357.857315 194.021025 356.919681 193.083391 
C 355.982046 192.145756 354.710162 191.618924 353.384147 191.618924 
C 352.058131 191.618924 350.786247 192.145756 349.848613 193.083391 
C 348.910978 194.021025 348.384147 195.292909 348.384147 196.618924 
C 348.384147 197.94494 348.910978 199.216824 349.848613 200.154458 
C 350.786247 201.092093 352.058131 201.618924 353.384147 201.618924 
z
" clip-path="url(#p171d25a1cc)"/>
    <path d="M 382.74232 184.550932 
C 384.068335 184.550932 385.340219 184.0241 386.277853 183.086466 
C 387.215488 182.148831 387.74232 180.876947 387.74232 179.550932 
C 387.74232 178.224916 387.215488 176.953032 386.277853 176.015398 
C 385.340219 175.077763 384.068335 174.550932 382.74232 174.550932 
C 381.416304 174.550932 380.14442 175.077763 379.206786 176.015398 
C 378.269151 176.953032 377.74232 178.224916 377.74232 179.550932 
C 377.74232 180.876947 378.269151 182.148831 379.206786 183.086466 
C 380.14442 184.0241 381.416304 184.550932 382.74232 184.550932 
z
" clip-path="url(#p171d25a1cc)"/>
    <path d="M 348.193858 125.504384 
C 349.519873 125.504384 350.791757 124.977552 351.729391 124.039918 
C 352.667026 123.102283 353.193858 121.830399 353.193858 120.504384 
C 353.193858 119.178368 352.667026 117.906484 351.729391 116.96885 
C 350.791757 116.031215 349.519873 115.504384 348.193858 115.504384 
C 346.867842 115.504384 345.595958 116.031215 344.658324 116.96885 
C 343.720689 117.906484 343.193858 119.178368 343.193858 120.504384 
C 343.193858 121.830399 343.720689 123.102283 344.658324 124.039918 
C 345.595958 124.977552 346.867842 125.504384 348.193858 125.504384 
z
" clip-path="url(#p171d25a1cc)"/>
   </g>
   <g id="text_1">
    <g clip-path="url(#p171d25a1cc)">
     <!-- MTH2008 -->
     <g transform="translate(275.274367 131.150897) scale(0.07 -0.07)">
      <defs>
       <path id="DejaVuSans-4d" d="M 628 4666 
L 1569 4666 
L 2759 1491 
L 3956 4666 
L 4897 4666 
L 4897 0 
L 4281 0 
L 4281 4097 
L 3078 897 
L 2444 897 
L 1241 4097 
L 1241 0 
L 628 0 
L 628 4666 
z
" transform="scale(0.015625)"/>
       <path id="DejaVuSans-54" d="M -19 4666 
L 3928 4666 
L 3928 4134 
L 2272 4134 
L 2272 0 
L 1638 0 
L 1638 4134 
L -19 4134 
L -19 4666 
z
" transform="scale(0.015625)"/>
       <path id="DejaVuSans-48" d="M 628 4666 
L 1259 4666 
L 1259 2753 
L 3553 2753 
L 3553 4666 
L 4184 4666 
L 4184 0 
L 3553 0 
L 3553 2222 
L 1259 2222 
L 1259 0 
L 628 0 
L 628 4666 
z
" transform="scale(0.015625)"/>
       <path id="DejaVuSans-32" d="M 1228 531 
L 3431 531 
L 3431 0 
L 469 0 
L 469 531 
Q 828 903 1448 1529 
Q 2069 2156 2228 2338 
Q 2531 2678 2651 2914 
Q 2772 3150 2772 3378 
Q 2772 3750 2511 3984 
Q 2250 4219 1831 4219 
Q 1534 4219 1204 4116 
Q 875 4013 500 3803 
L 500 4441 
Q 881 4594 1212 4672 
Q 1544 4750 1819 4750 
Q 2544 4750 2975 4387 
Q 3406 4025 3406 3419 
Q 3406 3131 3298 2873 
Q 3191 2616 2906 2266 
Q 2828 2175 2409 1742 
Q 1991 1309 1228 531 
z
" transform="scale(0.015625)"/>
       <path id="DejaVuSans-30" d="M 2034 4250 
Q 1547 4250 1301 3770 
Q 1056 3291 1056 2328 
Q 1056 1369 1301 889 
Q 1547 409 2034 409 
Q 2525 409 2770 889 
Q 3016 1369 3016 2328 
Q 3016 3291 2770 3770 
Q 2525 4250 2034 4250 
z
M 2034 4750 
Q 2819 4750 3233 4129 
Q 3647 3509 3647 2328 
Q 3647 1150 3233 529 
Q 2819 -91 2034 -91 
Q 1250 -91 836 529 
Q 422 1150 422 2328 
Q 422 3509 836 4129 
Q 1250 4750 2034 4750 
z
" transform="scale(0.015625)"/>
       <path id="DejaVuSans-38" d="M 2034 2216 
Q 1584 2216 1326 1975 
Q 1069 1734 1069 1313 
Q 1069 891 1326 650 
Q 1584 409 2034 409 
Q 2484 409 2743 651 
Q 3003 894 3003 1313 
Q 3003 1734 2745 1975 
Q 2488 2216 2034 2216 
z
M 1403 2484 
Q 997 2584 770 2862 
Q 544 3141 544 3541 
Q 544 4100 942 4425 
Q 1341 4750 2034 4750 
Q 2731 4750 3128 4425 
Q 3525 4100 3525 3541 
Q 3525 3141 3298 2862 
Q 3072 2584 2669 2484 
Q 3125 2378 3379 2068 
Q 3634 1759 3634 1313 
Q 3634 634 3220 271 
Q 2806 -91 2034 -91 
Q 1263 -91 848 271 
Q 434 634 434 1313 
Q 434 1759 690 2068 
Q 947 2378 1403 2484 
z
M 1172 3481 
Q 1172 3119 1398 2916 
Q 1625 2713 2034 2713 
Q 2441 2713 2670 2916 
Q 2900 3119 2900 3481 
Q 2900 3844 2670 4047 
Q 2441 4250 2034 4250 
Q 1625 4250 1398 4047 
Q 1172 3844 1172 3481 
z
" transform="scale(0.015625)"/>
      </defs>
      <use xlink:href="#DejaVuSans-4d"/>
      <use xlink:href="#DejaVuSans-54" x="86.279297"/>
      <use xlink:href="#DejaVuSans-48" x="147.363281"/>
      <use xlink:href="#DejaVuSans-32" x="222.558594"/>
      <use xlink:href="#DejaVuSans-30" x="286.181641"/>
      <use xlink:href="#DejaVuSans-30" x="349.804688"/>
      <use xlink:href="#DejaVuSans-38" x="413.427734"/>
     </g>
    </g>
   </g>
   <g id="text_2">
    <g clip-path="url(#p171d25a1cc)">
     <!-- ECM2434 -->
     <g transform="translate(93.28282 191.965226) scale(0.07 -0.07)">
      <defs>
       <path id="DejaVuSans-45" d="M 628 4666 
L 3578 4666 
L 3578 4134 
L 1259 4134 
L 1259 2753 
L 3481 2753 
L 3481 2222 
L 1259 2222 
L 1259 531 
L 3634 531 
L 3634 0 
L 628 0 
L 628 4666 
z
" transform="scale(0.015625)"/>
       <path id="DejaVuSans-43" d="M 4122 4306 
L 4122 3641 
Q 3803 3938 3442 4084 
Q 3081 4231 2675 4231 
Q 1875 4231 1450 3742 
Q 1025 3253 1025 2328 
Q 1025 1406 1450 917 
Q 1875 428 2675 428 
Q 3081 428 3442 575 
Q 3803 722 4122 1019 
L 4122 359 
Q 3791 134 3420 21 
Q 3050 -91 2638 -91 
Q 1578 -91 968 557 
Q 359 1206 359 2328 
Q 359 3453 968 4101 
Q 1578 4750 2638 4750 
Q 3056 4750 3426 4639 
Q 3797 4528 4122 4306 
z
" transform="scale(0.015625)"/>
       <path id="DejaVuSans-34" d="M 2419 4116 
L 825 1625 
L 2419 1625 
L 2419 4116 
z
M 2253 4666 
L 3047 4666 
L 3047 1625 
L 3713 1625 
L 3713 1100 
L 3047 1100 
L 3047 0 
L 2419 0 
L 2419 1100 
L 313 1100 
L 313 1709 
L 2253 4666 
z
" transform="scale(0.015625)"/>
       <path id="DejaVuSans-33" d="M 2597 2516 
Q 3050 2419 3304 2112 
Q 3559 1806 3559 1356 
Q 3559 666 3084 287 
Q 2609 -91 1734 -91 
Q 1441 -91 1130 -33 
Q 819 25 488 141 
L 488 750 
Q 750 597 1062 519 
Q 1375 441 1716 441 
Q 2309 441 2620 675 
Q 2931 909 2931 1356 
Q 2931 1769 2642 2001 
Q 2353 2234 1838 2234 
L 1294 2234 
L 1294 2753 
L 1863 2753 
Q 2328 2753 2575 2939 
Q 2822 3125 2822 3475 
Q 2822 3834 2567 4026 
Q 2313 4219 1838 4219 
Q 1578 4219 1281 4162 
Q 984 4106 628 3988 
L 628 4550 
Q 988 4650 1302 4700 
Q 1616 4750 1894 4750 
Q 2613 4750 3031 4423 
Q 3450 4097 3450 3541 
Q 3450 3153 3228 2886 
Q 3006 2619 2597 2516 
z
" transform="scale(0.015625)"/>
      </defs>
      <use xlink:href="#DejaVuSans-45"/>
      <use xlink:href="#DejaVuSans-43" x="63.183594"/>
      <use xlink:href="#DejaVuSans-4d" x="133.007812"/>
      <use xlink:href="#DejaVuSans-32" x="219.287109"/>
      <use xlink:href="#DejaVuSans-34" x="282.910156"/>
      <use xlink:href="#DejaVuSans-33" x="346.533203"/>
      <use xlink:href="#DejaVuSans-34" x="410.15625"/>
     </g>
    </g>
   </g>
   <g id="text_3">
    <g clip-path="url(#p171d25a1cc)">
     <!-- ECM2423 -->
     <g transform="translate(288.689013 296.033171) scale(0.07 -0.07)">
      <use xlink:href="#DejaVuSans-45"/>
      <use xlink:href="#DejaVuSans-43" x="63.183594"/>
      <use xlink:href="#DejaVuSans-4d" x="133.007812"/>
      <use xlink:href="#DejaVuSans-32" x="219.287109"/>
      <use xlink:href="#DejaVuSans-34" x="282.910156"/>
      <use xlink:href="#DejaVuSans-32" x="346.533203"/>
      <use xlink:href="#DejaVuSans-33" x="410.15625"/>
     </g>
    </g>
   </g>
   <g id="text_4">
    <g clip-path="url(#p171d25a1cc)">
     <!-- ECM1410 -->
     <g transform="translate(151.333056 255.351634) scale(0.07 -0.07)">
      <defs>
       <path id="DejaVuSans-31" d="M 794 531 
L 1825 531 
L 1825 4091 
L 703 3866 
L 703 4441 
L 1819 4666 
L 2450 4666 
L 2450 531 
L 3481 531 
L 3481 0 
L 794 0 
L 794 531 
z
" transform="scale(0.015625)"/>
      </defs>
      <use xlink:href="#DejaVuSans-45"/>
      <use xlink:href="#DejaVuSans-43" x="63.183594"/>
      <use xlink:href="#DejaVuSans-4d" x="133.007812"/>
      <use xlink:href="#DejaVuSans-31" x="219.287109"/>
      <use xlink:href="#DejaVuSans-34" x="282.910156"/>
      <use xlink:href="#DejaVuSans-31" x="346.533203"/>
      <use xlink:href="#DejaVuSans-30" x="410.15625"/>
     </g>
    </g>
   </g>
   <g id="text_5">
    <g clip-path="url(#p171d25a1cc)">
     <!-- ECM2433 -->
     <g transform="translate(184.012163 274.949955) scale(0.07 -0.07)">
      <use xlink:href="#DejaVuSans-45"/>
      <use xlink:href="#DejaVuSans-43" x="63.183594"/>
      <use xlink:href="#DejaVuSans-4d" x="133.007812"/>
      <use xlink:href="#DejaVuSans-32" x="219.287109"/>
      <use xlink:href="#DejaVuSans-34" x="282.910156"/>
      <use xlink:href="#DejaVuSans-33" x="346.533203"/>
      <use xlink:href="#DejaVuSans-33" x="410.15625"/>
     </g>
    </g>
   </g>
   <g id="text_6">
    <g clip-path="url(#p171d25a1cc)">
     <!-- ECM3420 -->
     <g transform="translate(234.768162 224.393018) scale(0.07 -0.07)">
      <use xlink:href="#DejaVuSans-45"/>
      <use xlink:href="#DejaVuSans-43" x="63.183594"/>
      <use xlink:href="#DejaVuSans-4d" x="133.007812"/>
      <use xlink:href="#DejaVuSans-33" x="219.287109"/>
      <use xlink:href="#DejaVuSans-34" x="282.910156"/>
      <use xlink:href="#DejaVuSans-32" x="346.533203"/>
      <use xlink:href="#DejaVuSans-30" x="410.15625"/>
     </g>
    </g>
   </g>
   <g id="text_7">
    <g clip-path="url(#p171d25a1cc)">
     <!-- ECM2418 -->
     <g transform="translate(246.946203 283.795974) scale(0.07 -0.07)">
      <use xlink:href="#DejaVuSans-45"/>
      <use xlink:href="#DejaVuSans-43" x="63.183594"/>
      <use xlink:href="#DejaVuSans-4d" x="133.007812"/>
      <use xlink:href="#DejaVuSans-32" x="219.287109"/>
      <use xlink:href="#DejaVuSans-34" x="282.910156"/>
      <use xlink:href="#DejaVuSans-31" x="346.533203"/>
      <use xlink:href="#DejaVuSans-38" x="410.15625"/>
     </g>
    </g>
   </g>
   <g id="text_8">
    <g clip-path="url(#p171d25a1cc)">
     <!-- ECM1414 -->
     <g transform="translate(257.114299 254.903471) scale(0.07 -0.07)">
      <use xlink:href="#DejaVuSans-45"/>
      <use xlink:href="#DejaVuSans-43" x="63.183594"/>
      <use xlink:href="#DejaVuSans-4d" x="133.007812"/>
      <use xlink:href="#DejaVuSans-31" x="219.287109"/>
      <use xlink:href="#DejaVuSans-34" x="282.910156"/>
      <use xlink:href="#DejaVuSans-31" x="346.533203"/>
      <use xlink:href="#DejaVuSans-34" x="410.15625"/>
     </g>
    </g>
   </g>
   <g id="text_9">
    <g clip-path="url(#p171d25a1cc)">
     <!-- MTH1002 -->
     <g transform="translate(325.942712 166.519171) scale(0.07 -0.07)">
      <use xlink:href="#DejaVuSans-4d"/>
      <use xlink:href="#DejaVuSans-54" x="86.279297"/>
      <use xlink:href="#DejaVuSans-48" x="147.363281"/>
      <use xlink:href="#DejaVuSans-31" x="222.558594"/>
      <use xlink:href="#DejaVuSans-30" x="286.181641"/>
      <use xlink:href="#DejaVuSans-30" x="349.804688"/>
      <use xlink:href="#DejaVuSans-32" x="413.427734"/>
     </g>
    </g>
   </g>
   <g id="text_10">
    <g clip-path="url(#p171d25a1cc)">
     <!-- MTH2011 -->
     <g transform="translate(198.443773 109.421369) scale(0.07 -0.07)">
      <use xlink:href="#DejaVuSans-4d"/>
      <use xlink:href="#DejaVuSans-54" x="86.279297"/>
      <use xlink:href="#DejaVuSans-48" x="147.363281"/>
      <use xlink:href="#DejaVuSans-32" x="222.558594"/>
      <use xlink:href="#DejaVuSans-30" x="286.181641"/>
      <use xlink:href="#DejaVuSans-31" x="349.804688"/>
      <use xlink:href="#DejaVuSans-31" x="413.427734"/>
     </g>
    </g>
   </g>
   <g id="text_11">
    <g clip-path="url(#p171d25a1cc)">
     <!-- MTH1001 -->
     <g transform="translate(238.642174 98.975176) scale(0.07 -0.07)">
      <use xlink:href="#DejaVuSans-4d"/>
      <use xlink:href="#DejaVuSans-54" x="86.279297"/>
      <use xlink:href="#DejaVuSans-48" x="147.363281"/>
      <use xlink:href="#DejaVuSans-31" x="222.558594"/>
      <use xlink:href="#DejaVuSans-30" x="286.181641"/>
      <use xlink:href="#DejaVuSans-30" x="349.804688"/>
      <use xlink:href="#DejaVuSans-31" x="413.427734"/>
     </g>
    </g>
   </g>
   <g id="text_12">
    <g clip-path="url(#p171d25a1cc)">
     <!-- ECM3423 -->
     <g transform="translate(131.474776 283.576045) scale(0.07 -0.07)">
      <use xlink:href="#DejaVuSans-45"/>
      <use xlink:href="#DejaVuSans-43" x="63.183594"/>
      <use xlink:href="#DejaVuSans-4d" x="133.007812"/>
      <use xlink:href="#DejaVuSans-33" x="219.287109"/>
      <use xlink:href="#DejaVuSans-34" x="282.910156"/>
      <use xlink:href="#DejaVuSans-32" x="346.533203"/>
      <use xlink:href="#DejaVuSans-33" x="410.15625"/>
     </g>
    </g>
   </g>
   <g id="text_13">
    <g clip-path="url(#p171d25a1cc)">
     <!-- ECM1413 -->
     <g transform="translate(164.249533 162.413892) scale(0.07 -0.07)">
      <use xlink:href="#DejaVuSans-45"/>
      <use xlink:href="#DejaVuSans-43" x="63.183594"/>
      <use xlink:href="#DejaVuSans-4d" x="133.007812"/>
      <use xlink:href="#DejaVuSans-31" x="219.287109"/>
      <use xlink:href="#DejaVuSans-34" x="282.910156"/>
      <use xlink:href="#DejaVuSans-31" x="346.533203"/>
      <use xlink:href="#DejaVuSans-33" x="410.15625"/>
     </g>
    </g>
   </g>
   <g id="text_14">
    <g clip-path="url(#p171d25a1cc)">
     <!-- ECM2414 -->
     <g transform="translate(107.149446 227.018347) scale(0.07 -0.07)">
      <use xlink:href="#DejaVuSans-45"/>
      <use xlink:href="#DejaVuSans-43" x="63.183594"/>
      <use xlink:href="#DejaVuSans-4d" x="133.007812"/>
      <use xlink:href="#DejaVuSans-32" x="219.287109"/>
      <use xlink:href="#DejaVuSans-34" x="282.910156"/>
      <use xlink:href="#DejaVuSans-31" x="346.533203"/>
      <use xlink:href="#DejaVuSans-34" x="410.15625"/>
     </g>
    </g>
   </g>
   <g id="text_15">
    <g clip-path="url(#p171d25a1cc)">
     <!-- ECM3401 -->
     <g transform="translate(72.397713 211.502229) scale(0.07 -0.07)">
      <use xlink:href="#DejaVuSans-45"/>
      <use xlink:href="#DejaVuSans-43" x="63.183594"/>
      <use xlink:href="#DejaVuSans-4d" x="133.007812"/>
      <use xlink:href="#DejaVuSans-33" x="219.287109"/>
      <use xlink:href="#DejaVuSans-34" x="282.910156"/>
      <use xlink:href="#DejaVuSans-30" x="346.533203"/>
      <use xlink:href="#DejaVuSans-31" x="410.15625"/>
     </g>
    </g>
   </g>
   <g id="text_16">
    <g clip-path="url(#p171d25a1cc)">
     <!-- ECM1400 -->
     <g transform="translate(206.311459 247.546554) scale(0.07 -0.07)">
      <use xlink:href="#DejaVuSans-45"/>
      <use xlink:href="#DejaVuSans-43" x="63.183594"/>
      <use xlink:href="#DejaVuSans-4d" x="133.007812"/>
      <use xlink:href="#DejaVuSans-31" x="219.287109"/>
      <use xlink:href="#DejaVuSans-34" x="282.910156"/>
      <use xlink:href="#DejaVuSans-30" x="346.533203"/>
      <use xlink:href="#DejaVuSans-30" x="410.15625"/>
     </g>
    </g>
   </g>
   <g id="text_17">
    <g clip-path="url(#p171d25a1cc)">
     <!-- ECM2419 -->
     <g transform="translate(171.633476 199.497804) scale(0.07 -0.07)">
      <defs>
       <path id="DejaVuSans-39" d="M 703 97 
L 703 672 
Q 941 559 1184 500 
Q 1428 441 1663 441 
Q 2288 441 2617 861 
Q 2947 1281 2994 2138 
Q 2813 1869 2534 1725 
Q 2256 1581 1919 1581 
Q 1219 1581 811 2004 
Q 403 2428 403 3163 
Q 403 3881 828 4315 
Q 1253 4750 1959 4750 
Q 2769 4750 3195 4129 
Q 3622 3509 3622 2328 
Q 3622 1225 3098 567 
Q 2575 -91 1691 -91 
Q 1453 -91 1209 -44 
Q 966 3 703 97 
z
M 1959 2075 
Q 2384 2075 2632 2365 
Q 2881 2656 2881 3163 
Q 2881 3666 2632 3958 
Q 2384 4250 1959 4250 
Q 1534 4250 1286 3958 
Q 1038 3666 1038 3163 
Q 1038 2656 1286 2365 
Q 1534 2075 1959 2075 
z
" transform="scale(0.015625)"/>
      </defs>
      <use xlink:href="#DejaVuSans-45"/>
      <use xlink:href="#DejaVuSans-43" x="63.183594"/>
      <use xlink:href="#DejaVuSans-4d" x="133.007812"/>
      <use xlink:href="#DejaVuSans-32" x="219.287109"/>
      <use xlink:href="#DejaVuSans-34" x="282.910156"/>
      <use xlink:href="#DejaVuSans-31" x="346.533203"/>
      <use xlink:href="#DejaVuSans-39" x="410.15625"/>
     </g>
    </g>
   </g>
   <g id="text_18">
    <g clip-path="url(#p171d25a1cc)">
     <!-- ECM3408 -->
     <g transform="translate(126.64831 176.463562) scale(0.07 -0.07)">
      <use xlink:href="#DejaVuSans-45"/>
      <use xlink:href="#DejaVuSans-43" x="63.183594"/>
      <use xlink:href="#DejaVuSans-4d" x="133.007812"/>
      <use xlink:href="#DejaVuSans-33" x="219.287109"/>
      <use xlink:href="#DejaVuSans-34" x="282.910156"/>
      <use xlink:href="#DejaVuSans-30" x="346.533203"/>
      <use xlink:href="#DejaVuSans-38" x="410.15625"/>
     </g>
    </g>
   </g>
   <g id="text_19">
    <g clip-path="url(#p171d25a1cc)">
     <!-- MTH3022 -->
     <g transform="translate(230.791891 128.000018) scale(0.07 -0.07)">
      <use xlink:href="#DejaVuSans-4d"/>
      <use xlink:href="#DejaVuSans-54" x="86.279297"/>
      <use xlink:href="#DejaVuSans-48" x="147.363281"/>
      <use xlink:href="#DejaVuSans-33" x="222.558594"/>
      <use xlink:href="#DejaVuSans-30" x="286.181641"/>
      <use xlink:href="#DejaVuSans-32" x="349.804688"/>
      <use xlink:href="#DejaVuSans-32" x="413.427734"/>
     </g>
    </g>
   </g>
   <g id="text_20">
    <g clip-path="url(#p171d25a1cc)">
     <!-- MTH3019 -->
     <g transform="translate(207.398068 76.885954) scale(0.07 -0.07)">
      <use xlink:href="#DejaVuSans-4d"/>
      <use xlink:href="#DejaVuSans-54" x="86.279297"/>
      <use xlink:href="#DejaVuSans-48" x="147.363281"/>
      <use xlink:href="#DejaVuSans-33" x="222.558594"/>
      <use xlink:href="#DejaVuSans-30" x="286.181641"/>
      <use xlink:href="#DejaVuSans-31" x="349.804688"/>
      <use xlink:href="#DejaVuSans-39" x="413.427734"/>
     </g>
    </g>
   </g>
   <g id="text_21">
    <g clip-path="url(#p171d25a1cc)">
     <!-- 26A06 -->
     <g transform="translate(303.303956 187.512934) scale(0.07 -0.07)">
      <defs>
       <path id="DejaVuSans-36" d="M 2113 2584 
Q 1688 2584 1439 2293 
Q 1191 2003 1191 1497 
Q 1191 994 1439 701 
Q 1688 409 2113 409 
Q 2538 409 2786 701 
Q 3034 994 3034 1497 
Q 3034 2003 2786 2293 
Q 2538 2584 2113 2584 
z
M 3366 4563 
L 3366 3988 
Q 3128 4100 2886 4159 
Q 2644 4219 2406 4219 
Q 1781 4219 1451 3797 
Q 1122 3375 1075 2522 
Q 1259 2794 1537 2939 
Q 1816 3084 2150 3084 
Q 2853 3084 3261 2657 
Q 3669 2231 3669 1497 
Q 3669 778 3244 343 
Q 2819 -91 2113 -91 
Q 1303 -91 875 529 
Q 447 1150 447 2328 
Q 447 3434 972 4092 
Q 1497 4750 2381 4750 
Q 2619 4750 2861 4703 
Q 3103 4656 3366 4563 
z
" transform="scale(0.015625)"/>
       <path id="DejaVuSans-41" d="M 2188 4044 
L 1331 1722 
L 3047 1722 
L 2188 4044 
z
M 1831 4666 
L 2547 4666 
L 4325 0 
L 3669 0 
L 3244 1197 
L 1141 1197 
L 716 0 
L 50 0 
L 1831 4666 
z
" transform="scale(0.015625)"/>
      </defs>
      <use xlink:href="#DejaVuSans-32"/>
      <use xlink:href="#DejaVuSans-36" x="63.623047"/>
      <use xlink:href="#DejaVuSans-41" x="127.246094"/>
      <use xlink:href="#DejaVuSans-30" x="195.654297"/>
      <use xlink:href="#DejaVuSans-36" x="259.277344"/>
     </g>
    </g>
   </g>
   <g id="text_22">
    <g clip-path="url(#p171d25a1cc)">
     <!-- 26B12 -->
     <g transform="translate(372.030569 157.008525) scale(0.07 -0.07)">
      <defs>
       <path id="DejaVuSans-42" d="M 1259 2228 
L 1259 519 
L 2272 519 
Q 2781 519 3026 730 
Q 3272 941 3272 1375 
Q 3272 1813 3026 2020 
Q 2781 2228 2272 2228 
L 1259 2228 
z
M 1259 4147 
L 1259 2741 
L 2194 2741 
Q 2656 2741 2882 2914 
Q 3109 3088 3109 3444 
Q 3109 3797 2882 3972 
Q 2656 4147 2194 4147 
L 1259 4147 
z
M 628 4666 
L 2241 4666 
Q 2963 4666 3353 4366 
Q 3744 4066 3744 3513 
Q 3744 3084 3544 2831 
Q 3344 2578 2956 2516 
Q 3422 2416 3680 2098 
Q 3938 1781 3938 1306 
Q 3938 681 3513 340 
Q 3088 0 2303 0 
L 628 0 
L 628 4666 
z
" transform="scale(0.015625)"/>
      </defs>
      <use xlink:href="#DejaVuSans-32"/>
      <use xlink:href="#DejaVuSans-36" x="63.623047"/>
      <use xlink:href="#DejaVuSans-42" x="127.246094"/>
      <use xlink:href="#DejaVuSans-31" x="195.849609"/>
      <use xlink:href="#DejaVuSans-32" x="259.472656"/>
     </g>
    </g>
   </g>
   <g id="text_23">
    <g clip-path="url(#p171d25a1cc)">
     <!-- 40A05 -->
     <g transform="translate(342.082428 208.550487) scale(0.07 -0.07)">
      <defs>
       <path id="DejaVuSans-35" d="M 691 4666 
L 3169 4666 
L 3169 4134 
L 1269 4134 
L 1269 2991 
Q 1406 3038 1543 3061 
Q 1681 3084 1819 3084 
Q 2600 3084 3056 2656 
Q 3513 2228 3513 1497 
Q 3513 744 3044 326 
Q 2575 -91 1722 -91 
Q 1428 -91 1123 -41 
Q 819 9 494 109 
L 494 744 
Q 775 591 1075 516 
Q 1375 441 1709 441 
Q 2250 441 2565 725 
Q 2881 1009 2881 1497 
Q 2881 1984 2565 2268 
Q 2250 2553 1709 2553 
Q 1456 2553 1204 2497 
Q 953 2441 691 2322 
L 691 4666 
z
" transform="scale(0.015625)"/>
      </defs>
      <use xlink:href="#DejaVuSans-34"/>
      <use xlink:href="#DejaVuSans-30" x="63.623047"/>
      <use xlink:href="#DejaVuSans-41" x="127.246094"/>
      <use xlink:href="#DejaVuSans-30" x="195.654297"/>
      <use xlink:href="#DejaVuSans-35" x="259.277344"/>
     </g>
    </g>
   </g>
   <g id="text_24">
    <g clip-path="url(#p171d25a1cc)">
     <!-- 34A30 -->
     <g transform="translate(371.440601 191.482494) scale(0.07 -0.07)">
      <use xlink:href="#DejaVuSans-33"/>
      <use xlink:href="#DejaVuSans-34" x="63.623047"/>
      <use xlink:href="#DejaVuSans-41" x="127.246094"/>
      <use xlink:href="#DejaVuSans-33" x="195.654297"/>
      <use xlink:href="#DejaVuSans-30" x="259.277344"/>
     </g>
    </g>
   </g>
   <g id="text_25">
    <g clip-path="url(#p171d25a1cc)">
     <!-- 15A04 -->
     <g transform="translate(336.892139 132.435946) scale(0.07 -0.07)">
      <use xlink:href="#DejaVuSans-31"/>
      <use xlink:href="#DejaVuSans-35" x="63.623047"/>
      <use xlink:href="#DejaVuSans-41" x="127.246094"/>
      <use xlink:href="#DejaVuSans-30" x="195.654297"/>
      <use xlink:href="#DejaVuSans-34" x="259.277344"/>
     </g>
    </g>
   </g>
   <g id="matplotlib.axis_1"/>
   <g id="matplotlib.axis_2"/>
  </g>
 </g>
 <defs>
  <clipPath id="p171d25a1cc">
   <rect x="57.6" y="41.472" width="357.12" height="266.112"/>
  </clipPath>
 </defs>
</svg>
