<?xml version="1.0" encoding="utf-8" standalone="no"?>
<!DOCTYPE svg PUBLIC "-//W3C//DTD SVG 1.1//EN"
  "http://www.w3.org/Graphics/SVG/1.1/DTD/svg11.dtd">
<svg xmlns:xlink="http://www.w3.org/1999/xlink" width="460.8pt" height="345.6pt" viewBox="0 0 460.8 345.6" xmlns="http://www.w3.org/2000/svg" version="1.1">
 <metadata>
  <rdf:RDF xmlns:dc="http://purl.org/dc/elements/1.1/" xmlns:cc="http://creativecommons.org/ns#" xmlns:rdf="http://www.w3.org/1999/02/22-rdf-syntax-ns#">
   <cc:Work>
    <dc:type rdf:resource="http://purl.org/dc/dcmitype/StillImage"/>
    <dc:date>2024-05-02T17:00:16.806181</dc:date>
    <dc:format>image/svg+xml</dc:format>
    <dc:creator>
     <cc:Agent>
      <dc:title>Matplotlib v3.8.3, https://matplotlib.org/</dc:title>
     </cc:Agent>
    </dc:creator>
   </cc:Work>
  </rdf:RDF>
 </metadata>
 <defs>
  <style type="text/css">*{stroke-linejoin: round; stroke-linecap: butt}</style>
 </defs>
 <g id="figure_1">
  <g id="patch_1">
   <path d="M 0 345.6 
L 460.8 345.6 
L 460.8 0 
L 0 0 
L 0 345.6 
z
" style="fill: none"/>
  </g>
  <g id="axes_1">
   <g id="patch_2">
    <path d="M 57.6 307.584 
L 414.72 307.584 
L 414.72 41.472 
L 57.6 41.472 
L 57.6 307.584 
z
" style="fill: none"/>
   </g>
   <g id="EdgeCollection_1">
    <path d="M 327.8092 269.18681 
L 307.106557 270.789415 
L 327.8092 269.18681 
L 327.69343 267.691285 
L 330.800252 268.955271 
L 327.92497 270.682336 
L 327.8092 269.18681 
" clip-path="url(#p7fbc9b2296)" style="fill: #0000ff; stroke: #0000ff"/>
    <path d="M 279.56965 281.000508 
L 297.537612 273.172372 
L 279.56965 281.000508 
L 280.168767 282.375665 
L 276.819335 282.198743 
L 278.970532 279.62535 
L 279.56965 281.000508 
" clip-path="url(#p7fbc9b2296)" style="fill: #0000ff; stroke: #0000ff"/>
    <path d="M 300.922204 254.257671 
L 301.767916 266.18783 
L 300.922204 254.257671 
L 299.425959 254.363738 
L 300.710071 251.265181 
L 302.418449 254.151605 
L 300.922204 254.257671 
" clip-path="url(#p7fbc9b2296)" style="fill: #0000ff; stroke: #0000ff"/>
    <path d="M 253.283766 128.483064 
L 256.703605 119.034674 
L 253.283766 128.483064 
L 254.694219 128.993577 
L 252.262741 131.30397 
L 251.873313 127.972552 
L 253.283766 128.483064 
" clip-path="url(#p7fbc9b2296)" style="stroke: #000000"/>
    <path d="M 241.642832 122.165263 
L 253.875393 116.449724 
L 241.642832 122.165263 
L 242.2778 123.524239 
L 238.92488 123.435198 
L 241.007865 120.806287 
L 241.642832 122.165263 
" clip-path="url(#p7fbc9b2296)" style="fill: #0000ff; stroke: #0000ff"/>
    <path d="M 308.498885 114.698833 
L 263.40518 114.369662 
L 308.498885 114.698833 
L 308.509834 113.198873 
L 311.498805 114.720731 
L 308.487936 116.198793 
L 308.498885 114.698833 
" clip-path="url(#p7fbc9b2296)" style="fill: #0000ff; stroke: #0000ff"/>
    <path d="M 262.735862 90.434337 
L 259.296812 109.413284 
L 262.735862 90.434337 
L 261.259897 90.166887 
L 263.270761 87.482408 
L 264.211826 90.701787 
L 262.735862 90.434337 
" clip-path="url(#p7fbc9b2296)" style="fill: #0000ff; stroke: #0000ff"/>
    <path d="M 207.142123 135.221154 
L 253.774946 116.219881 
L 207.142123 135.221154 
L 207.708138 136.610264 
L 204.363903 136.353184 
L 206.576108 133.832044 
L 207.142123 135.221154 
" clip-path="url(#p7fbc9b2296)" style="fill: #0000ff; stroke: #0000ff"/>
    <path d="M 215.412408 114.149601 
L 246.314971 133.365222 
L 215.412408 114.149601 
L 214.620331 115.42342 
L 212.864771 112.565447 
L 216.204485 112.875783 
L 215.412408 114.149601 
" clip-path="url(#p7fbc9b2296)" style="fill: #0000ff; stroke: #0000ff"/>
    <path d="M 207.725816 137.888552 
L 245.565857 136.225071 
L 207.725816 137.888552 
L 207.791694 139.387104 
L 204.728711 138.020307 
L 207.659938 136.389999 
L 207.725816 137.888552 
" clip-path="url(#p7fbc9b2296)" style="fill: #0000ff; stroke: #0000ff"/>
    <path d="M 278.887672 158.27567 
L 254.491711 139.095749 
L 278.887672 158.27567 
L 279.814753 157.096467 
L 281.246079 160.129832 
L 277.960591 159.454874 
L 278.887672 158.27567 
" clip-path="url(#p7fbc9b2296)" style="fill: #0000ff; stroke: #0000ff"/>
    <path d="M 241.112787 129.895811 
L 246.362391 133.290445 
L 241.112787 129.895811 
L 240.298277 131.155404 
L 238.593602 128.266791 
L 241.927297 128.636219 
L 241.112787 129.895811 
" clip-path="url(#p7fbc9b2296)" style="fill: #0000ff; stroke: #0000ff"/>
    <path d="M 194.105124 132.554744 
L 180.153774 118.462737 
L 194.105124 132.554744 
L 195.171091 131.499417 
L 196.215778 134.686677 
L 193.039158 133.610071 
L 194.105124 132.554744 
" clip-path="url(#p7fbc9b2296)" style="fill: #0000ff; stroke: #0000ff"/>
    <path d="M 226.527394 124.102137 
L 181.553246 115.815527 
L 226.527394 124.102137 
L 226.799198 122.626968 
L 229.477731 124.645745 
L 226.25559 125.577306 
L 226.527394 124.102137 
" clip-path="url(#p7fbc9b2296)" style="fill: #0000ff; stroke: #0000ff"/>
    <path d="M 135.902418 134.754231 
L 172.141074 117.099374 
L 135.902418 134.754231 
L 136.559376 136.102714 
L 133.205452 136.068147 
L 135.24546 133.405748 
L 135.902418 134.754231 
" clip-path="url(#p7fbc9b2296)" style="fill: #0000ff; stroke: #0000ff"/>
    <path d="M 213.35893 92.916782 
L 180.925594 112.340559 
L 213.35893 92.916782 
L 212.588244 91.629909 
L 215.932676 91.375409 
L 214.129617 94.203655 
L 213.35893 92.916782 
" clip-path="url(#p7fbc9b2296)" style="fill: #0000ff; stroke: #0000ff"/>
    <path d="M 375.881546 145.644334 
L 350.466371 136.57901 
L 375.881546 145.644334 
L 376.385483 144.231518 
L 378.707178 146.652206 
L 375.37761 147.057149 
L 375.881546 145.644334 
" clip-path="url(#p7fbc9b2296)" style="fill: #0000ff; stroke: #0000ff"/>
    <path d="M 323.088178 119.293573 
L 341.638544 132.064007 
L 323.088178 119.293573 
L 322.237613 120.529105 
L 320.617113 117.592444 
L 323.938742 118.058041 
L 323.088178 119.293573 
" clip-path="url(#p7fbc9b2296)" style="fill: #0000ff; stroke: #0000ff"/>
    <path d="M 296.663526 133.060034 
L 340.76049 134.712039 
L 296.663526 133.060034 
L 296.607371 134.558983 
L 293.665629 132.947724 
L 296.719682 131.561086 
L 296.663526 133.060034 
" clip-path="url(#p7fbc9b2296)" style="fill: #0000ff; stroke: #0000ff"/>
    <path d="M 108.910452 258.321394 
L 98.097781 250.754475 
L 108.910452 258.321394 
L 109.770497 257.092442 
L 111.368356 260.041484 
L 108.050407 259.550346 
L 108.910452 258.321394 
" clip-path="url(#p7fbc9b2296)" style="fill: #0000ff; stroke: #0000ff"/>
    <path d="M 204.25957 189.317556 
L 177.85243 171.663828 
L 204.25957 189.317556 
L 205.09322 188.070549 
L 206.753584 190.984857 
L 203.425919 190.564564 
L 204.25957 189.317556 
" clip-path="url(#p7fbc9b2296)" style="stroke: #000000"/>
    <path d="M 169.03794 181.312219 
L 171.940918 173.566937 
L 169.03794 181.312219 
L 170.442523 181.838665 
L 167.985047 184.121386 
L 167.633357 180.785773 
L 169.03794 181.312219 
" clip-path="url(#p7fbc9b2296)" style="fill: #0000ff; stroke: #0000ff"/>
    <path d="M 130.339544 166.683022 
L 168.702176 168.63138 
L 130.339544 166.683022 
L 130.263461 168.181092 
L 127.343406 166.530855 
L 130.415628 165.184953 
L 130.339544 166.683022 
" clip-path="url(#p7fbc9b2296)" style="fill: #0000ff; stroke: #0000ff"/>
    <path d="M 194.553564 144.336448 
L 176.933221 165.07465 
L 194.553564 144.336448 
L 193.410461 143.365203 
L 196.496053 142.050242 
L 195.696667 145.307692 
L 194.553564 144.336448 
" clip-path="url(#p7fbc9b2296)" style="fill: #0000ff; stroke: #0000ff"/>
    <path d="M 165.868872 167.229656 
L 163.552197 166.739692 
L 165.868872 167.229656 
L 166.179247 165.762118 
L 168.803947 167.850407 
L 165.558496 168.697193 
L 165.868872 167.229656 
" clip-path="url(#p7fbc9b2296)" style="stroke: #000000"/>
    <path d="M 197.365333 162.274727 
L 163.640881 165.263692 
L 197.365333 162.274727 
L 197.232908 160.780584 
L 200.353619 162.009878 
L 197.497757 163.76887 
L 197.365333 162.274727 
" clip-path="url(#p7fbc9b2296)" style="fill: #0000ff; stroke: #0000ff"/>
    <path d="M 160.181097 196.459464 
L 158.907335 170.699005 
L 160.181097 196.459464 
L 161.679267 196.385385 
L 160.329256 199.455804 
L 158.682928 196.533544 
L 160.181097 196.459464 
" clip-path="url(#p7fbc9b2296)" style="fill: #0000ff; stroke: #0000ff"/>
    <path d="M 163.738821 181.201166 
L 160.217532 170.456459 
L 163.738821 181.201166 
L 165.164227 180.734027 
L 164.673098 184.051978 
L 162.313415 181.668304 
L 163.738821 181.201166 
" clip-path="url(#p7fbc9b2296)" style="fill: #0000ff; stroke: #0000ff"/>
    <path d="M 130.348849 166.151204 
L 153.661025 165.78388 
L 130.348849 166.151204 
L 130.372481 167.651018 
L 127.349222 166.198468 
L 130.325217 164.65139 
L 130.348849 166.151204 
" clip-path="url(#p7fbc9b2296)" style="fill: #0000ff; stroke: #0000ff"/>
    <path d="M 193.083351 142.686814 
L 162.81677 162.925785 
L 193.083351 142.686814 
L 192.249554 141.439904 
L 195.57717 141.019221 
L 193.917147 143.933723 
L 193.083351 142.686814 
" clip-path="url(#p7fbc9b2296)" style="fill: #0000ff; stroke: #0000ff"/>
    <path d="M 206.699361 169.451106 
L 210.056984 188.837041 
L 206.699361 169.451106 
L 205.221366 169.707093 
L 206.187387 166.495115 
L 208.177357 169.195118 
L 206.699361 169.451106 
" clip-path="url(#p7fbc9b2296)" style="fill: #0000ff; stroke: #0000ff"/>
    <path d="M 168.401772 202.788318 
L 206.019283 194.802058 
L 168.401772 202.788318 
L 168.713282 204.255615 
L 165.467178 203.411337 
L 168.090263 201.32102 
L 168.401772 202.788318 
" clip-path="url(#p7fbc9b2296)" style="fill: #0000ff; stroke: #0000ff"/>
    <path d="M 174.181376 189.686064 
L 205.940806 193.211984 
L 174.181376 189.686064 
L 174.015863 191.176904 
L 171.199695 189.355039 
L 174.346889 188.195223 
L 174.181376 189.686064 
" clip-path="url(#p7fbc9b2296)" style="fill: #0000ff; stroke: #0000ff"/>
    <path d="M 230.130092 219.965603 
L 213.867601 197.795345 
L 230.130092 219.965603 
L 231.339587 219.078405 
L 231.904488 222.384594 
L 228.920596 220.852801 
L 230.130092 219.965603 
" clip-path="url(#p7fbc9b2296)" style="fill: #0000ff; stroke: #0000ff"/>
    <path d="M 218.585283 196.020735 
L 283.234012 215.032433 
L 218.585283 196.020735 
L 218.162088 197.459799 
L 215.707155 195.174344 
L 219.008479 194.581671 
L 218.585283 196.020735 
" clip-path="url(#p7fbc9b2296)" style="stroke: #000000"/>
    <path d="M 329.368577 209.016964 
L 292.952113 215.559011 
L 329.368577 209.016964 
L 329.103355 207.540598 
L 332.321309 208.48652 
L 329.633799 210.49333 
L 329.368577 209.016964 
" clip-path="url(#p7fbc9b2296)" style="fill: #0000ff; stroke: #0000ff"/>
    <path d="M 325.46684 225.098392 
L 292.902385 217.569389 
L 325.46684 225.098392 
L 325.804731 223.636945 
L 328.389735 225.774175 
L 325.128948 226.55984 
L 325.46684 225.098392 
" clip-path="url(#p7fbc9b2296)" style="fill: #0000ff; stroke: #0000ff"/>
    <path d="M 297.301877 238.883835 
L 289.940042 221.064249 
L 297.301877 238.883835 
L 298.688226 238.311091 
L 298.447366 241.656533 
L 295.915528 239.45658 
L 297.301877 238.883835 
" clip-path="url(#p7fbc9b2296)" style="fill: #0000ff; stroke: #0000ff"/>
    <path d="M 250.780572 111.911736 
L 237.299094 107.630353 
L 250.780572 111.911736 
L 251.23459 110.482097 
L 253.63985 112.819772 
L 250.326554 113.341375 
L 250.780572 111.911736 
" clip-path="url(#p7fbc9b2296)" style="stroke: #000000"/>
    <path d="M 257.746032 87.340813 
L 236.543774 103.130532 
L 257.746032 87.340813 
L 256.850103 86.13777 
L 260.152117 85.548956 
L 258.64196 88.543856 
L 257.746032 87.340813 
" clip-path="url(#p7fbc9b2296)" style="fill: #0000ff; stroke: #0000ff"/>
    <path d="M 216.519167 108.667115 
L 227.595844 106.903257 
L 216.519167 108.667115 
L 216.755057 110.148451 
L 213.556495 109.138893 
L 216.283278 107.185779 
L 216.519167 108.667115 
" clip-path="url(#p7fbc9b2296)" style="fill: #0000ff; stroke: #0000ff"/>
    <path d="M 208.857173 154.38599 
L 230.331707 110.606006 
L 208.857173 154.38599 
L 210.203887 155.046567 
L 207.536019 157.079417 
L 207.51046 153.725413 
L 208.857173 154.38599 
" clip-path="url(#p7fbc9b2296)" style="fill: #0000ff; stroke: #0000ff"/>
    <path d="M 233.632266 117.588197 
L 233.010315 111.094186 
L 233.632266 117.588197 
L 235.125433 117.445192 
L 233.918276 120.574532 
L 232.139098 117.731202 
L 233.632266 117.588197 
" clip-path="url(#p7fbc9b2296)" style="fill: #0000ff; stroke: #0000ff"/>
    <path d="M 281.441878 129.330269 
L 237.050666 108.26088 
L 281.441878 129.330269 
L 282.085054 127.975159 
L 284.152099 130.616621 
L 280.798702 130.68538 
L 281.441878 129.330269 
" clip-path="url(#p7fbc9b2296)" style="fill: #0000ff; stroke: #0000ff"/>
    <path d="M 228.475179 72.801492 
L 231.929006 101.153652 
L 228.475179 72.801492 
L 226.986187 72.98288 
L 228.112404 69.823507 
L 229.964172 72.620105 
L 228.475179 72.801492 
" clip-path="url(#p7fbc9b2296)" style="fill: #0000ff; stroke: #0000ff"/>
    <path d="M 192.956171 80.82471 
L 228.320471 103.424511 
L 192.956171 80.82471 
L 192.148437 82.088658 
L 190.428275 79.209241 
L 193.763906 79.560762 
L 192.956171 80.82471 
" clip-path="url(#p7fbc9b2296)" style="fill: #0000ff; stroke: #0000ff"/>
    <path d="M 217.144827 188.750673 
L 242.186467 168.61543 
L 217.144827 188.750673 
L 218.084768 189.919652 
L 214.80687 190.630556 
L 216.204885 187.581695 
L 217.144827 188.750673 
" clip-path="url(#p7fbc9b2296)" style="stroke: #000000"/>
    <path d="M 249.359498 143.914734 
L 246.834021 160.539008 
L 249.359498 143.914734 
L 247.876513 143.689446 
L 249.810074 140.948763 
L 250.842484 144.140022 
L 249.359498 143.914734 
" clip-path="url(#p7fbc9b2296)" style="stroke: #000000"/>
    <path d="M 236.642348 133.229599 
L 244.678445 160.683642 
L 236.642348 133.229599 
L 235.202753 133.650984 
L 235.799577 130.350408 
L 238.081943 132.808214 
L 236.642348 133.229599 
" clip-path="url(#p7fbc9b2296)" style="fill: #0000ff; stroke: #0000ff"/>
    <path d="M 277.190117 163.682256 
L 251.074712 165.193447 
L 277.190117 163.682256 
L 277.103463 162.184761 
L 280.185107 163.508948 
L 277.276771 165.179751 
L 277.190117 163.682256 
" clip-path="url(#p7fbc9b2296)" style="fill: #0000ff; stroke: #0000ff"/>
    <path d="M 282.325497 137.634785 
L 250.047836 162.43589 
L 282.325497 137.634785 
L 281.411576 136.445353 
L 284.704361 135.806943 
L 283.239418 138.824217 
L 282.325497 137.634785 
" clip-path="url(#p7fbc9b2296)" style="fill: #0000ff; stroke: #0000ff"/>
    <path d="M 239.710475 170.318627 
L 199.744069 200.650245 
L 239.710475 170.318627 
L 238.803662 169.123767 
L 242.100195 168.505002 
L 240.617287 171.513487 
L 239.710475 170.318627 
" clip-path="url(#p7fbc9b2296)" style="stroke: #000000"/>
    <path d="M 149.601653 185.965467 
L 191.092911 201.882128 
L 149.601653 185.965467 
L 149.064406 187.365955 
L 146.800679 184.890972 
L 150.138901 184.56498 
L 149.601653 185.965467 
" clip-path="url(#p7fbc9b2296)" style="stroke: #000000"/>
    <path d="M 203.560477 169.369378 
L 196.869714 198.797382 
L 203.560477 169.369378 
L 202.097805 169.036825 
L 204.225584 166.444035 
L 205.023148 169.701932 
L 203.560477 169.369378 
" clip-path="url(#p7fbc9b2296)" style="fill: #0000ff; stroke: #0000ff"/>
    <path d="M 175.912766 232.240804 
L 192.908287 207.779153 
L 175.912766 232.240804 
L 177.144625 233.096678 
L 174.201017 234.704524 
L 174.680906 231.384929 
L 175.912766 232.240804 
" clip-path="url(#p7fbc9b2296)" style="fill: #0000ff; stroke: #0000ff"/>
    <path d="M 200.483255 235.578135 
L 196.493241 208.619075 
L 200.483255 235.578135 
L 201.967091 235.358523 
L 200.922478 238.545808 
L 198.999418 235.797747 
L 200.483255 235.578135 
" clip-path="url(#p7fbc9b2296)" style="fill: #0000ff; stroke: #0000ff"/>
    <path d="M 203.004729 192.537991 
L 147.073354 183.86621 
L 203.004729 192.537991 
L 203.234548 191.055701 
L 205.969308 192.997629 
L 202.77491 194.020281 
L 203.004729 192.537991 
" clip-path="url(#p7fbc9b2296)" style="stroke: #000000"/>
    <path d="M 131.004468 145.922063 
L 140.698663 178.310111 
L 131.004468 145.922063 
L 129.567457 146.35218 
L 130.144233 143.048042 
L 132.441478 145.491946 
L 131.004468 145.922063 
" clip-path="url(#p7fbc9b2296)" style="fill: #0000ff; stroke: #0000ff"/>
    <path d="M 128.44418 171.459814 
L 138.323426 179.861039 
L 128.44418 171.459814 
L 127.472448 172.602502 
L 126.158803 169.516349 
L 129.415912 170.317125 
L 128.44418 171.459814 
" clip-path="url(#p7fbc9b2296)" style="fill: #0000ff; stroke: #0000ff"/>
    <path d="M 158.44528 186.960884 
L 146.997979 184.251675 
L 158.44528 186.960884 
L 158.790739 185.501206 
L 161.364635 187.651801 
L 158.099821 188.420561 
L 158.44528 186.960884 
" clip-path="url(#p7fbc9b2296)" style="fill: #0000ff; stroke: #0000ff"/>
    <path d="M 96.8636 187.634724 
L 137.157285 183.598503 
L 96.8636 187.634724 
L 97.013107 189.127254 
L 93.878539 187.933738 
L 96.714093 186.142193 
L 96.8636 187.634724 
" clip-path="url(#p7fbc9b2296)" style="fill: #0000ff; stroke: #0000ff"/>
    <path d="M 256.114714 130.2473 
L 275.656918 109.985511 
L 256.114714 130.2473 
L 257.194372 131.288615 
L 254.032083 132.406617 
L 255.035055 129.205984 
L 256.114714 130.2473 
" clip-path="url(#p7fbc9b2296)" style="stroke: #000000"/>
    <path d="M 227.888134 91.094307 
L 274.336793 104.95674 
L 227.888134 91.094307 
L 227.459161 92.53166 
L 225.013429 90.236362 
L 228.317106 89.656955 
L 227.888134 91.094307 
" clip-path="url(#p7fbc9b2296)" style="fill: #0000ff; stroke: #0000ff"/>
    <path d="M 315.874596 88.949262 
L 283.645178 104.243096 
L 315.874596 88.949262 
L 315.23153 87.5941 
L 318.584922 87.663131 
L 316.517662 90.304425 
L 315.874596 88.949262 
" clip-path="url(#p7fbc9b2296)" style="fill: #0000ff; stroke: #0000ff"/>
    <path d="M 285.947624 125.237683 
L 280.828912 111.088435 
L 285.947624 125.237683 
L 287.358159 124.7274 
L 286.96819 128.058755 
L 284.537088 125.747967 
L 285.947624 125.237683 
" clip-path="url(#p7fbc9b2296)" style="fill: #0000ff; stroke: #0000ff"/>
    <path d="M 241.748488 122.401262 
L 274.532013 108.355709 
L 241.748488 122.401262 
L 242.339206 123.780048 
L 238.990915 123.582698 
L 241.15777 121.022475 
L 241.748488 122.401262 
" clip-path="url(#p7fbc9b2296)" style="fill: #0000ff; stroke: #0000ff"/>
    <path d="M 308.692105 113.008654 
L 284.007072 107.479509 
L 308.692105 113.008654 
L 309.019963 111.544922 
L 311.619568 113.664369 
L 308.364247 114.472385 
L 308.692105 113.008654 
" clip-path="url(#p7fbc9b2296)" style="fill: #0000ff; stroke: #0000ff"/>
   </g>
   <g id="VertexCollection_1">
    <path d="M 302.121471 276.175314 
C 303.447486 276.175314 304.71937 275.648482 305.657005 274.710848 
C 306.594639 273.773213 307.121471 272.501329 307.121471 271.175314 
C 307.121471 269.849298 306.594639 268.577415 305.657005 267.63978 
C 304.71937 266.702145 303.447486 266.175314 302.121471 266.175314 
C 300.795455 266.175314 299.523572 266.702145 298.585937 267.63978 
C 297.648303 268.577415 297.121471 269.849298 297.121471 271.175314 
C 297.121471 272.501329 297.648303 273.773213 298.585937 274.710848 
C 299.523572 275.648482 300.795455 276.175314 302.121471 276.175314 
z
" clip-path="url(#p7fbc9b2296)"/>
    <path d="M 258.405313 119.333165 
C 259.731329 119.333165 261.003213 118.806333 261.940847 117.868699 
C 262.878482 116.931064 263.405313 115.65918 263.405313 114.333165 
C 263.405313 113.007149 262.878482 111.735265 261.940847 110.797631 
C 261.003213 109.859996 259.731329 109.333165 258.405313 109.333165 
C 257.079298 109.333165 255.807414 109.859996 254.869779 110.797631 
C 253.932145 111.735265 253.405313 113.007149 253.405313 114.333165 
C 253.405313 115.65918 253.932145 116.931064 254.869779 117.868699 
C 255.807414 118.806333 257.079298 119.333165 258.405313 119.333165 
z
" clip-path="url(#p7fbc9b2296)"/>
    <path d="M 250.561033 141.005479 
C 251.887048 141.005479 253.158932 140.478647 254.096567 139.541013 
C 255.034201 138.603378 255.561033 137.331494 255.561033 136.005479 
C 255.561033 134.679463 255.034201 133.407579 254.096567 132.469945 
C 253.158932 131.53231 251.887048 131.005479 250.561033 131.005479 
C 249.235017 131.005479 247.963133 131.53231 247.025499 132.469945 
C 246.087864 133.407579 245.561033 134.679463 245.561033 136.005479 
C 245.561033 137.331494 246.087864 138.603378 247.025499 139.541013 
C 247.963133 140.478647 249.235017 141.005479 250.561033 141.005479 
z
" clip-path="url(#p7fbc9b2296)"/>
    <path d="M 176.636017 119.909514 
C 177.962032 119.909514 179.233916 119.382683 180.171551 118.445048 
C 181.109185 117.507414 181.636017 116.23553 181.636017 114.909514 
C 181.636017 113.583499 181.109185 112.311615 180.171551 111.373981 
C 179.233916 110.436346 177.962032 109.909514 176.636017 109.909514 
C 175.310001 109.909514 174.038118 110.436346 173.100483 111.373981 
C 172.162849 112.311615 171.636017 113.583499 171.636017 114.909514 
C 171.636017 116.23553 172.162849 117.507414 173.100483 118.445048 
C 174.038118 119.382683 175.310001 119.909514 176.636017 119.909514 
z
" clip-path="url(#p7fbc9b2296)"/>
    <path d="M 345.756985 139.899222 
C 347.083 139.899222 348.354884 139.372391 349.292519 138.434756 
C 350.230153 137.497122 350.756985 136.225238 350.756985 134.899222 
C 350.756985 133.573207 350.230153 132.301323 349.292519 131.363689 
C 348.354884 130.426054 347.083 129.899222 345.756985 129.899222 
C 344.430969 129.899222 343.159086 130.426054 342.221451 131.363689 
C 341.283817 132.301323 340.756985 133.573207 340.756985 134.899222 
C 340.756985 136.225238 341.283817 137.497122 342.221451 138.434756 
C 343.159086 139.372391 344.430969 139.899222 345.756985 139.899222 
z
" clip-path="url(#p7fbc9b2296)"/>
    <path d="M 94.001274 252.887659 
C 95.327289 252.887659 96.599173 252.360828 97.536808 251.423193 
C 98.474442 250.485558 99.001274 249.213675 99.001274 247.887659 
C 99.001274 246.561644 98.474442 245.28976 97.536808 244.352125 
C 96.599173 243.414491 95.327289 242.887659 94.001274 242.887659 
C 92.675258 242.887659 91.403375 243.414491 90.46574 244.352125 
C 89.528106 245.28976 89.001274 246.561644 89.001274 247.887659 
C 89.001274 249.213675 89.528106 250.485558 90.46574 251.423193 
C 91.403375 252.360828 92.675258 252.887659 94.001274 252.887659 
z
" clip-path="url(#p7fbc9b2296)"/>
    <path d="M 173.69574 173.884993 
C 175.021755 173.884993 176.293639 173.358161 177.231273 172.420527 
C 178.168908 171.482892 178.69574 170.211008 178.69574 168.884993 
C 178.69574 167.558977 178.168908 166.287093 177.231273 165.349459 
C 176.293639 164.411824 175.021755 163.884993 173.69574 163.884993 
C 172.369724 163.884993 171.09784 164.411824 170.160206 165.349459 
C 169.222571 166.287093 168.69574 167.558977 168.69574 168.884993 
C 168.69574 170.211008 169.222571 171.482892 170.160206 172.420527 
C 171.09784 173.358161 172.369724 173.884993 173.69574 173.884993 
z
" clip-path="url(#p7fbc9b2296)"/>
    <path d="M 158.660404 170.705107 
C 159.98642 170.705107 161.258304 170.178275 162.195938 169.24064 
C 163.133573 168.303006 163.660404 167.031122 163.660404 165.705107 
C 163.660404 164.379091 163.133573 163.107207 162.195938 162.169573 
C 161.258304 161.231938 159.98642 160.705107 158.660404 160.705107 
C 157.334389 160.705107 156.062505 161.231938 155.12487 162.169573 
C 154.187236 163.107207 153.660404 164.379091 153.660404 165.705107 
C 153.660404 167.031122 154.187236 168.303006 155.12487 169.24064 
C 156.062505 170.178275 157.334389 170.705107 158.660404 170.705107 
z
" clip-path="url(#p7fbc9b2296)"/>
    <path d="M 210.910274 198.763693 
C 212.23629 198.763693 213.508174 198.236861 214.445808 197.299226 
C 215.383443 196.361592 215.910274 195.089708 215.910274 193.763693 
C 215.910274 192.437677 215.383443 191.165793 214.445808 190.228159 
C 213.508174 189.290524 212.23629 188.763693 210.910274 188.763693 
C 209.584259 188.763693 208.312375 189.290524 207.374741 190.228159 
C 206.437106 191.165793 205.910274 192.437677 205.910274 193.763693 
C 205.910274 195.089708 206.437106 196.361592 207.374741 197.299226 
C 208.312375 198.236861 209.584259 198.763693 210.910274 198.763693 
z
" clip-path="url(#p7fbc9b2296)"/>
    <path d="M 288.030893 221.443085 
C 289.356908 221.443085 290.628792 220.916254 291.566427 219.978619 
C 292.504061 219.040985 293.030893 217.769101 293.030893 216.443085 
C 293.030893 215.11707 292.504061 213.845186 291.566427 212.907551 
C 290.628792 211.969917 289.356908 211.443085 288.030893 211.443085 
C 286.704877 211.443085 285.432993 211.969917 284.495359 212.907551 
C 283.557724 213.845186 283.030893 215.11707 283.030893 216.443085 
C 283.030893 217.769101 283.557724 219.040985 284.495359 219.978619 
C 285.432993 220.916254 286.704877 221.443085 288.030893 221.443085 
z
" clip-path="url(#p7fbc9b2296)"/>
    <path d="M 232.533631 111.11696 
C 233.859646 111.11696 235.13153 110.590129 236.069165 109.652494 
C 237.006799 108.71486 237.533631 107.442976 237.533631 106.11696 
C 237.533631 104.790945 237.006799 103.519061 236.069165 102.581426 
C 235.13153 101.643792 233.859646 101.11696 232.533631 101.11696 
C 231.207615 101.11696 229.935731 101.643792 228.998097 102.581426 
C 228.060462 103.519061 227.533631 104.790945 227.533631 106.11696 
C 227.533631 107.442976 228.060462 108.71486 228.998097 109.652494 
C 229.935731 110.590129 231.207615 111.11696 232.533631 111.11696 
z
" clip-path="url(#p7fbc9b2296)"/>
    <path d="M 246.083062 170.482293 
C 247.409078 170.482293 248.680962 169.955461 249.618596 169.017827 
C 250.556231 168.080192 251.083062 166.808308 251.083062 165.482293 
C 251.083062 164.156277 250.556231 162.884393 249.618596 161.946759 
C 248.680962 161.009124 247.409078 160.482293 246.083062 160.482293 
C 244.757047 160.482293 243.485163 161.009124 242.547528 161.946759 
C 241.609894 162.884393 241.083062 164.156277 241.083062 165.482293 
C 241.083062 166.808308 241.609894 168.080192 242.547528 169.017827 
C 243.485163 169.955461 244.757047 170.482293 246.083062 170.482293 
z
" clip-path="url(#p7fbc9b2296)"/>
    <path d="M 195.761202 208.672954 
C 197.087217 208.672954 198.359101 208.146122 199.296736 207.208487 
C 200.23437 206.270853 200.761202 204.998969 200.761202 203.672954 
C 200.761202 202.346938 200.23437 201.075054 199.296736 200.13742 
C 198.359101 199.199785 197.087217 198.672954 195.761202 198.672954 
C 194.435186 198.672954 193.163303 199.199785 192.225668 200.13742 
C 191.288033 201.075054 190.761202 202.346938 190.761202 203.672954 
C 190.761202 204.998969 191.288033 206.270853 192.225668 207.208487 
C 193.163303 208.146122 194.435186 208.672954 195.761202 208.672954 
z
" clip-path="url(#p7fbc9b2296)"/>
    <path d="M 142.132387 188.100146 
C 143.458403 188.100146 144.730287 187.573315 145.667921 186.63568 
C 146.605556 185.698046 147.132387 184.426162 147.132387 183.100146 
C 147.132387 181.774131 146.605556 180.502247 145.667921 179.564612 
C 144.730287 178.626978 143.458403 178.100146 142.132387 178.100146 
C 140.806372 178.100146 139.534488 178.626978 138.596854 179.564612 
C 137.659219 180.502247 137.132387 181.774131 137.132387 183.100146 
C 137.132387 184.426162 137.659219 185.698046 138.596854 186.63568 
C 139.534488 187.573315 140.806372 188.100146 142.132387 188.100146 
z
" clip-path="url(#p7fbc9b2296)"/>
    <path d="M 279.127968 111.386649 
C 280.453984 111.386649 281.725868 110.859817 282.663502 109.922183 
C 283.601137 108.984548 284.127968 107.712664 284.127968 106.386649 
C 284.127968 105.060633 283.601137 103.78875 282.663502 102.851115 
C 281.725868 101.91348 280.453984 101.386649 279.127968 101.386649 
C 277.801953 101.386649 276.530069 101.91348 275.592434 102.851115 
C 274.6548 103.78875 274.127968 105.060633 274.127968 106.386649 
C 274.127968 107.712664 274.6548 108.984548 275.592434 109.922183 
C 276.530069 110.859817 277.801953 111.386649 279.127968 111.386649 
z
" clip-path="url(#p7fbc9b2296)"/>
    <path d="M 335.785338 273.569372 
C 337.111353 273.569372 338.383237 273.042541 339.320871 272.104906 
C 340.258506 271.167272 340.785338 269.895388 340.785338 268.569372 
C 340.785338 267.243357 340.258506 265.971473 339.320871 265.033839 
C 338.383237 264.096204 337.111353 263.569372 335.785338 263.569372 
C 334.459322 263.569372 333.187438 264.096204 332.249804 265.033839 
C 331.312169 265.971473 330.785338 267.243357 330.785338 268.569372 
C 330.785338 269.895388 331.312169 271.167272 332.249804 272.104906 
C 333.187438 273.042541 334.459322 273.569372 335.785338 273.569372 
z
" clip-path="url(#p7fbc9b2296)" style="fill: #0000ff"/>
    <path d="M 272.235476 289.195801 
C 273.561492 289.195801 274.833376 288.668969 275.77101 287.731335 
C 276.708645 286.7937 277.235476 285.521816 277.235476 284.195801 
C 277.235476 282.869785 276.708645 281.597902 275.77101 280.660267 
C 274.833376 279.722633 273.561492 279.195801 272.235476 279.195801 
C 270.909461 279.195801 269.637577 279.722633 268.699942 280.660267 
C 267.762308 281.597902 267.235476 282.869785 267.235476 284.195801 
C 267.235476 285.521816 267.762308 286.7937 268.699942 287.731335 
C 269.637577 288.668969 270.909461 289.195801 272.235476 289.195801 
z
" clip-path="url(#p7fbc9b2296)" style="fill: #0000ff"/>
    <path d="M 300.356515 251.277697 
C 301.682531 251.277697 302.954415 250.750865 303.892049 249.813231 
C 304.829684 248.875596 305.356515 247.603712 305.356515 246.277697 
C 305.356515 244.951681 304.829684 243.679797 303.892049 242.742163 
C 302.954415 241.804528 301.682531 241.277697 300.356515 241.277697 
C 299.0305 241.277697 297.758616 241.804528 296.820981 242.742163 
C 295.883347 243.679797 295.356515 244.951681 295.356515 246.277697 
C 295.356515 247.603712 295.883347 248.875596 296.820981 249.813231 
C 297.758616 250.750865 299.0305 251.277697 300.356515 251.277697 
z
" clip-path="url(#p7fbc9b2296)" style="fill: #0000ff"/>
    <path d="M 234.39496 130.551758 
C 235.720976 130.551758 236.992859 130.024926 237.930494 129.087291 
C 238.868129 128.149657 239.39496 126.877773 239.39496 125.551758 
C 239.39496 124.225742 238.868129 122.953858 237.930494 122.016224 
C 236.992859 121.078589 235.720976 120.551758 234.39496 120.551758 
C 233.068945 120.551758 231.797061 121.078589 230.859426 122.016224 
C 229.921792 122.953858 229.39496 124.225742 229.39496 125.551758 
C 229.39496 126.877773 229.921792 128.149657 230.859426 129.087291 
C 231.797061 130.024926 233.068945 130.551758 234.39496 130.551758 
z
" clip-path="url(#p7fbc9b2296)" style="fill: #0000ff"/>
    <path d="M 316.498672 119.757229 
C 317.824688 119.757229 319.096571 119.230397 320.034206 118.292763 
C 320.971841 117.355128 321.498672 116.083244 321.498672 114.757229 
C 321.498672 113.431213 320.971841 112.15933 320.034206 111.221695 
C 319.096571 110.28406 317.824688 109.757229 316.498672 109.757229 
C 315.172657 109.757229 313.900773 110.28406 312.963138 111.221695 
C 312.025504 112.15933 311.498672 113.431213 311.498672 114.757229 
C 311.498672 116.083244 312.025504 117.355128 312.963138 118.292763 
C 313.900773 119.230397 315.172657 119.757229 316.498672 119.757229 
z
" clip-path="url(#p7fbc9b2296)" style="fill: #0000ff"/>
    <path d="M 264.16226 87.562527 
C 265.488276 87.562527 266.76016 87.035696 267.697794 86.098061 
C 268.635429 85.160427 269.16226 83.888543 269.16226 82.562527 
C 269.16226 81.236512 268.635429 79.964628 267.697794 79.026993 
C 266.76016 78.089359 265.488276 77.562527 264.16226 77.562527 
C 262.836245 77.562527 261.564361 78.089359 260.626726 79.026993 
C 259.689092 79.964628 259.16226 81.236512 259.16226 82.562527 
C 259.16226 83.888543 259.689092 85.160427 260.626726 86.098061 
C 261.564361 87.035696 262.836245 87.562527 264.16226 87.562527 
z
" clip-path="url(#p7fbc9b2296)" style="fill: #0000ff"/>
    <path d="M 199.733535 143.239899 
C 201.05955 143.239899 202.331434 142.713068 203.269069 141.775433 
C 204.206703 140.837799 204.733535 139.565915 204.733535 138.239899 
C 204.733535 136.913884 204.206703 135.642 203.269069 134.704365 
C 202.331434 133.766731 201.05955 133.239899 199.733535 133.239899 
C 198.407519 133.239899 197.135636 133.766731 196.198001 134.704365 
C 195.260367 135.642 194.733535 136.913884 194.733535 138.239899 
C 194.733535 139.565915 195.260367 140.837799 196.198001 141.775433 
C 197.135636 142.713068 198.407519 143.239899 199.733535 143.239899 
z
" clip-path="url(#p7fbc9b2296)" style="fill: #0000ff"/>
    <path d="M 208.618709 114.92519 
C 209.944724 114.92519 211.216608 114.398358 212.154243 113.460724 
C 213.091877 112.523089 213.618709 111.251205 213.618709 109.92519 
C 213.618709 108.599174 213.091877 107.32729 212.154243 106.389656 
C 211.216608 105.452021 209.944724 104.92519 208.618709 104.92519 
C 207.292693 104.92519 206.020809 105.452021 205.083175 106.389656 
C 204.14554 107.32729 203.618709 108.599174 203.618709 109.92519 
C 203.618709 111.251205 204.14554 112.523089 205.083175 113.460724 
C 206.020809 114.398358 207.292693 114.92519 208.618709 114.92519 
z
" clip-path="url(#p7fbc9b2296)" style="fill: #0000ff"/>
    <path d="M 285.176757 168.220102 
C 286.502772 168.220102 287.774656 167.693271 288.712291 166.755636 
C 289.649925 165.818002 290.176757 164.546118 290.176757 163.220102 
C 290.176757 161.894087 289.649925 160.622203 288.712291 159.684568 
C 287.774656 158.746934 286.502772 158.220102 285.176757 158.220102 
C 283.850741 158.220102 282.578858 158.746934 281.641223 159.684568 
C 280.703589 160.622203 280.176757 161.894087 280.176757 163.220102 
C 280.176757 164.546118 280.703589 165.818002 281.641223 166.755636 
C 282.578858 167.693271 283.850741 168.220102 285.176757 168.220102 
z
" clip-path="url(#p7fbc9b2296)" style="fill: #0000ff"/>
    <path d="M 128.710509 143.258007 
C 130.036525 143.258007 131.308408 142.731175 132.246043 141.793541 
C 133.183677 140.855906 133.710509 139.584022 133.710509 138.258007 
C 133.710509 136.931991 133.183677 135.660108 132.246043 134.722473 
C 131.308408 133.784839 130.036525 133.258007 128.710509 133.258007 
C 127.384494 133.258007 126.11261 133.784839 125.174975 134.722473 
C 124.237341 135.660108 123.710509 136.931991 123.710509 138.258007 
C 123.710509 139.584022 124.237341 140.855906 125.174975 141.793541 
C 126.11261 142.731175 127.384494 143.258007 128.710509 143.258007 
z
" clip-path="url(#p7fbc9b2296)" style="fill: #0000ff"/>
    <path d="M 220.222253 93.806453 
C 221.548269 93.806453 222.820153 93.279622 223.757787 92.341987 
C 224.695422 91.404353 225.222253 90.132469 225.222253 88.806453 
C 225.222253 87.480438 224.695422 86.208554 223.757787 85.270919 
C 222.820153 84.333285 221.548269 83.806453 220.222253 83.806453 
C 218.896238 83.806453 217.624354 84.333285 216.686719 85.270919 
C 215.749085 86.208554 215.222253 87.480438 215.222253 88.806453 
C 215.222253 90.132469 215.749085 91.404353 216.686719 92.341987 
C 217.624354 93.279622 218.896238 93.806453 220.222253 93.806453 
z
" clip-path="url(#p7fbc9b2296)" style="fill: #0000ff"/>
    <path d="M 383.416563 153.331994 
C 384.742579 153.331994 386.014463 152.805163 386.952097 151.867528 
C 387.889732 150.929894 388.416563 149.65801 388.416563 148.331994 
C 388.416563 147.005979 387.889732 145.734095 386.952097 144.79646 
C 386.014463 143.858826 384.742579 143.331994 383.416563 143.331994 
C 382.090548 143.331994 380.818664 143.858826 379.881029 144.79646 
C 378.943395 145.734095 378.416563 147.005979 378.416563 148.331994 
C 378.416563 149.65801 378.943395 150.929894 379.881029 151.867528 
C 380.818664 152.805163 382.090548 153.331994 383.416563 153.331994 
z
" clip-path="url(#p7fbc9b2296)" style="fill: #0000ff"/>
    <path d="M 288.669134 137.76054 
C 289.99515 137.76054 291.267034 137.233709 292.204668 136.296074 
C 293.142303 135.35844 293.669134 134.086556 293.669134 132.76054 
C 293.669134 131.434525 293.142303 130.162641 292.204668 129.225007 
C 291.267034 128.287372 289.99515 127.76054 288.669134 127.76054 
C 287.343119 127.76054 286.071235 128.287372 285.133601 129.225007 
C 284.195966 130.162641 283.669134 131.434525 283.669134 132.76054 
C 283.669134 134.086556 284.195966 135.35844 285.133601 136.296074 
C 286.071235 137.233709 287.343119 137.76054 288.669134 137.76054 
z
" clip-path="url(#p7fbc9b2296)" style="fill: #0000ff"/>
    <path d="M 115.464863 267.908299 
C 116.790878 267.908299 118.062762 267.381468 119.000397 266.443833 
C 119.938031 265.506199 120.464863 264.234315 120.464863 262.908299 
C 120.464863 261.582284 119.938031 260.3104 119.000397 259.372765 
C 118.062762 258.435131 116.790878 257.908299 115.464863 257.908299 
C 114.138847 257.908299 112.866963 258.435131 111.929329 259.372765 
C 110.991694 260.3104 110.464863 261.582284 110.464863 262.908299 
C 110.464863 264.234315 110.991694 265.506199 111.929329 266.443833 
C 112.866963 267.381468 114.138847 267.908299 115.464863 267.908299 
z
" clip-path="url(#p7fbc9b2296)" style="fill: #0000ff"/>
    <path d="M 166.230226 193.80333 
C 167.556242 193.80333 168.828126 193.276499 169.76576 192.338864 
C 170.703395 191.40123 171.230226 190.129346 171.230226 188.80333 
C 171.230226 187.477315 170.703395 186.205431 169.76576 185.267796 
C 168.828126 184.330162 167.556242 183.80333 166.230226 183.80333 
C 164.904211 183.80333 163.632327 184.330162 162.694692 185.267796 
C 161.757058 186.205431 161.230226 187.477315 161.230226 188.80333 
C 161.230226 190.129346 161.757058 191.40123 162.694692 192.338864 
C 163.632327 193.276499 164.904211 193.80333 166.230226 193.80333 
z
" clip-path="url(#p7fbc9b2296)" style="fill: #0000ff"/>
    <path d="M 122.349842 171.277242 
C 123.675858 171.277242 124.947742 170.750411 125.885376 169.812776 
C 126.823011 168.875142 127.349842 167.603258 127.349842 166.277242 
C 127.349842 164.951227 126.823011 163.679343 125.885376 162.741708 
C 124.947742 161.804074 123.675858 161.277242 122.349842 161.277242 
C 121.023827 161.277242 119.751943 161.804074 118.814308 162.741708 
C 117.876674 163.679343 117.349842 164.951227 117.349842 166.277242 
C 117.349842 167.603258 117.876674 168.875142 118.814308 169.812776 
C 119.751943 170.750411 121.023827 171.277242 122.349842 171.277242 
z
" clip-path="url(#p7fbc9b2296)" style="fill: #0000ff"/>
    <path d="M 205.334096 166.568463 
C 206.660112 166.568463 207.931995 166.041632 208.86963 165.103997 
C 209.807265 164.166363 210.334096 162.894479 210.334096 161.568463 
C 210.334096 160.242448 209.807265 158.970564 208.86963 158.032929 
C 207.931995 157.095295 206.660112 156.568463 205.334096 156.568463 
C 204.008081 156.568463 202.736197 157.095295 201.798562 158.032929 
C 200.860928 158.970564 200.334096 160.242448 200.334096 161.568463 
C 200.334096 162.894479 200.860928 164.166363 201.798562 165.103997 
C 202.736197 166.041632 204.008081 166.568463 205.334096 166.568463 
z
" clip-path="url(#p7fbc9b2296)" style="fill: #0000ff"/>
    <path d="M 160.576186 209.449702 
C 161.902202 209.449702 163.174085 208.922871 164.11172 207.985236 
C 165.049355 207.047602 165.576186 205.775718 165.576186 204.449702 
C 165.576186 203.123687 165.049355 201.851803 164.11172 200.914169 
C 163.174085 199.976534 161.902202 199.449702 160.576186 199.449702 
C 159.250171 199.449702 157.978287 199.976534 157.040652 200.914169 
C 156.103018 201.851803 155.576186 203.123687 155.576186 204.449702 
C 155.576186 205.775718 156.103018 207.047602 157.040652 207.985236 
C 157.978287 208.922871 159.250171 209.449702 160.576186 209.449702 
z
" clip-path="url(#p7fbc9b2296)" style="fill: #0000ff"/>
    <path d="M 234.861814 231.416246 
C 236.18783 231.416246 237.459714 230.889415 238.397348 229.95178 
C 239.334983 229.014146 239.861814 227.742262 239.861814 226.416246 
C 239.861814 225.090231 239.334983 223.818347 238.397348 222.880712 
C 237.459714 221.943078 236.18783 221.416246 234.861814 221.416246 
C 233.535799 221.416246 232.263915 221.943078 231.326281 222.880712 
C 230.388646 223.818347 229.861814 225.090231 229.861814 226.416246 
C 229.861814 227.742262 230.388646 229.014146 231.326281 229.95178 
C 232.263915 230.889415 233.535799 231.416246 234.861814 231.416246 
z
" clip-path="url(#p7fbc9b2296)" style="fill: #0000ff"/>
    <path d="M 337.24253 212.602446 
C 338.568546 212.602446 339.840429 212.075614 340.778064 211.137979 
C 341.715698 210.200345 342.24253 208.928461 342.24253 207.602446 
C 342.24253 206.27643 341.715698 205.004546 340.778064 204.066912 
C 339.840429 203.129277 338.568546 202.602446 337.24253 202.602446 
C 335.916515 202.602446 334.644631 203.129277 333.706996 204.066912 
C 332.769362 205.004546 332.24253 206.27643 332.24253 207.602446 
C 332.24253 208.928461 332.769362 210.200345 333.706996 211.137979 
C 334.644631 212.075614 335.916515 212.602446 337.24253 212.602446 
z
" clip-path="url(#p7fbc9b2296)" style="fill: #0000ff"/>
    <path d="M 333.261228 231.900479 
C 334.587243 231.900479 335.859127 231.373648 336.796761 230.436013 
C 337.734396 229.498379 338.261228 228.226495 338.261228 226.900479 
C 338.261228 225.574464 337.734396 224.30258 336.796761 223.364945 
C 335.859127 222.427311 334.587243 221.900479 333.261228 221.900479 
C 331.935212 221.900479 330.663328 222.427311 329.725694 223.364945 
C 328.788059 224.30258 328.261228 225.574464 328.261228 226.900479 
C 328.261228 228.226495 328.788059 229.498379 329.725694 230.436013 
C 330.663328 231.373648 331.935212 231.900479 333.261228 231.900479 
z
" clip-path="url(#p7fbc9b2296)" style="fill: #0000ff"/>
    <path d="M 227.50778 69.860199 
C 228.833796 69.860199 230.105679 69.333367 231.043314 68.395733 
C 231.980948 67.458098 232.50778 66.186215 232.50778 64.860199 
C 232.50778 63.534184 231.980948 62.2623 231.043314 61.324665 
C 230.105679 60.387031 228.833796 59.860199 227.50778 59.860199 
C 226.181765 59.860199 224.909881 60.387031 223.972246 61.324665 
C 223.034612 62.2623 222.50778 63.534184 222.50778 64.860199 
C 222.50778 66.186215 223.034612 67.458098 223.972246 68.395733 
C 224.909881 69.333367 226.181765 69.860199 227.50778 69.860199 
z
" clip-path="url(#p7fbc9b2296)" style="fill: #0000ff"/>
    <path d="M 186.215115 81.516791 
C 187.541131 81.516791 188.813015 80.98996 189.750649 80.052325 
C 190.688284 79.114691 191.215115 77.842807 191.215115 76.516791 
C 191.215115 75.190776 190.688284 73.918892 189.750649 72.981258 
C 188.813015 72.043623 187.541131 71.516791 186.215115 71.516791 
C 184.8891 71.516791 183.617216 72.043623 182.679581 72.981258 
C 181.741947 73.918892 181.215115 75.190776 181.215115 76.516791 
C 181.215115 77.842807 181.741947 79.114691 182.679581 80.052325 
C 183.617216 80.98996 184.8891 81.516791 186.215115 81.516791 
z
" clip-path="url(#p7fbc9b2296)" style="fill: #0000ff"/>
    <path d="M 171.348102 243.810723 
C 172.674117 243.810723 173.946001 243.283892 174.883636 242.346257 
C 175.82127 241.408623 176.348102 240.136739 176.348102 238.810723 
C 176.348102 237.484708 175.82127 236.212824 174.883636 235.275189 
C 173.946001 234.337555 172.674117 233.810723 171.348102 233.810723 
C 170.022086 233.810723 168.750202 234.337555 167.812568 235.275189 
C 166.874933 236.212824 166.348102 237.484708 166.348102 238.810723 
C 166.348102 240.136739 166.874933 241.408623 167.812568 242.346257 
C 168.750202 243.283892 170.022086 243.810723 171.348102 243.810723 
z
" clip-path="url(#p7fbc9b2296)" style="fill: #0000ff"/>
    <path d="M 201.654518 248.491929 
C 202.980533 248.491929 204.252417 247.965098 205.190052 247.027463 
C 206.127686 246.089829 206.654518 244.817945 206.654518 243.491929 
C 206.654518 242.165914 206.127686 240.89403 205.190052 239.956396 
C 204.252417 239.018761 202.980533 238.491929 201.654518 238.491929 
C 200.328502 238.491929 199.056618 239.018761 198.118984 239.956396 
C 197.181349 240.89403 196.654518 242.165914 196.654518 243.491929 
C 196.654518 244.817945 197.181349 246.089829 198.118984 247.027463 
C 199.056618 247.965098 200.328502 248.491929 201.654518 248.491929 
z
" clip-path="url(#p7fbc9b2296)" style="fill: #0000ff"/>
    <path d="M 88.903437 193.432094 
C 90.229452 193.432094 91.501336 192.905262 92.438971 191.967628 
C 93.376605 191.029993 93.903437 189.758109 93.903437 188.432094 
C 93.903437 187.106078 93.376605 185.834194 92.438971 184.89656 
C 91.501336 183.958925 90.229452 183.432094 88.903437 183.432094 
C 87.577421 183.432094 86.305537 183.958925 85.367903 184.89656 
C 84.430268 185.834194 83.903437 187.106078 83.903437 188.432094 
C 83.903437 189.758109 84.430268 191.029993 85.367903 191.967628 
C 86.305537 192.905262 87.577421 193.432094 88.903437 193.432094 
z
" clip-path="url(#p7fbc9b2296)" style="fill: #0000ff"/>
    <path d="M 323.102131 90.519578 
C 324.428147 90.519578 325.700031 89.992747 326.637665 89.055112 
C 327.5753 88.117478 328.102131 86.845594 328.102131 85.519578 
C 328.102131 84.193563 327.5753 82.921679 326.637665 81.984044 
C 325.700031 81.04641 324.428147 80.519578 323.102131 80.519578 
C 321.776116 80.519578 320.504232 81.04641 319.566597 81.984044 
C 318.628963 82.921679 318.102131 84.193563 318.102131 85.519578 
C 318.102131 86.845594 318.628963 88.117478 319.566597 89.055112 
C 320.504232 89.992747 321.776116 90.519578 323.102131 90.519578 
z
" clip-path="url(#p7fbc9b2296)" style="fill: #0000ff"/>
   </g>
   <g id="text_1">
    <g clip-path="url(#p7fbc9b2296)">
     <!-- MTH1004 -->
     <g transform="translate(285.424283 283.106876) scale(0.07 -0.07)">
      <defs>
       <path id="DejaVuSans-4d" d="M 628 4666 
L 1569 4666 
L 2759 1491 
L 3956 4666 
L 4897 4666 
L 4897 0 
L 4281 0 
L 4281 4097 
L 3078 897 
L 2444 897 
L 1241 4097 
L 1241 0 
L 628 0 
L 628 4666 
z
" transform="scale(0.015625)"/>
       <path id="DejaVuSans-54" d="M -19 4666 
L 3928 4666 
L 3928 4134 
L 2272 4134 
L 2272 0 
L 1638 0 
L 1638 4134 
L -19 4134 
L -19 4666 
z
" transform="scale(0.015625)"/>
       <path id="DejaVuSans-48" d="M 628 4666 
L 1259 4666 
L 1259 2753 
L 3553 2753 
L 3553 4666 
L 4184 4666 
L 4184 0 
L 3553 0 
L 3553 2222 
L 1259 2222 
L 1259 0 
L 628 0 
L 628 4666 
z
" transform="scale(0.015625)"/>
       <path id="DejaVuSans-31" d="M 794 531 
L 1825 531 
L 1825 4091 
L 703 3866 
L 703 4441 
L 1819 4666 
L 2450 4666 
L 2450 531 
L 3481 531 
L 3481 0 
L 794 0 
L 794 531 
z
" transform="scale(0.015625)"/>
       <path id="DejaVuSans-30" d="M 2034 4250 
Q 1547 4250 1301 3770 
Q 1056 3291 1056 2328 
Q 1056 1369 1301 889 
Q 1547 409 2034 409 
Q 2525 409 2770 889 
Q 3016 1369 3016 2328 
Q 3016 3291 2770 3770 
Q 2525 4250 2034 4250 
z
M 2034 4750 
Q 2819 4750 3233 4129 
Q 3647 3509 3647 2328 
Q 3647 1150 3233 529 
Q 2819 -91 2034 -91 
Q 1250 -91 836 529 
Q 422 1150 422 2328 
Q 422 3509 836 4129 
Q 1250 4750 2034 4750 
z
" transform="scale(0.015625)"/>
       <path id="DejaVuSans-34" d="M 2419 4116 
L 825 1625 
L 2419 1625 
L 2419 4116 
z
M 2253 4666 
L 3047 4666 
L 3047 1625 
L 3713 1625 
L 3713 1100 
L 3047 1100 
L 3047 0 
L 2419 0 
L 2419 1100 
L 313 1100 
L 313 1709 
L 2253 4666 
z
" transform="scale(0.015625)"/>
      </defs>
      <use xlink:href="#DejaVuSans-4d"/>
      <use xlink:href="#DejaVuSans-54" x="86.279297"/>
      <use xlink:href="#DejaVuSans-48" x="147.363281"/>
      <use xlink:href="#DejaVuSans-31" x="222.558594"/>
      <use xlink:href="#DejaVuSans-30" x="286.181641"/>
      <use xlink:href="#DejaVuSans-30" x="349.804688"/>
      <use xlink:href="#DejaVuSans-34" x="413.427734"/>
     </g>
    </g>
   </g>
   <g id="text_2">
    <g clip-path="url(#p7fbc9b2296)">
     <!-- MTH2003 -->
     <g transform="translate(241.708126 126.264727) scale(0.07 -0.07)">
      <defs>
       <path id="DejaVuSans-32" d="M 1228 531 
L 3431 531 
L 3431 0 
L 469 0 
L 469 531 
Q 828 903 1448 1529 
Q 2069 2156 2228 2338 
Q 2531 2678 2651 2914 
Q 2772 3150 2772 3378 
Q 2772 3750 2511 3984 
Q 2250 4219 1831 4219 
Q 1534 4219 1204 4116 
Q 875 4013 500 3803 
L 500 4441 
Q 881 4594 1212 4672 
Q 1544 4750 1819 4750 
Q 2544 4750 2975 4387 
Q 3406 4025 3406 3419 
Q 3406 3131 3298 2873 
Q 3191 2616 2906 2266 
Q 2828 2175 2409 1742 
Q 1991 1309 1228 531 
z
" transform="scale(0.015625)"/>
       <path id="DejaVuSans-33" d="M 2597 2516 
Q 3050 2419 3304 2112 
Q 3559 1806 3559 1356 
Q 3559 666 3084 287 
Q 2609 -91 1734 -91 
Q 1441 -91 1130 -33 
Q 819 25 488 141 
L 488 750 
Q 750 597 1062 519 
Q 1375 441 1716 441 
Q 2309 441 2620 675 
Q 2931 909 2931 1356 
Q 2931 1769 2642 2001 
Q 2353 2234 1838 2234 
L 1294 2234 
L 1294 2753 
L 1863 2753 
Q 2328 2753 2575 2939 
Q 2822 3125 2822 3475 
Q 2822 3834 2567 4026 
Q 2313 4219 1838 4219 
Q 1578 4219 1281 4162 
Q 984 4106 628 3988 
L 628 4550 
Q 988 4650 1302 4700 
Q 1616 4750 1894 4750 
Q 2613 4750 3031 4423 
Q 3450 4097 3450 3541 
Q 3450 3153 3228 2886 
Q 3006 2619 2597 2516 
z
" transform="scale(0.015625)"/>
      </defs>
      <use xlink:href="#DejaVuSans-4d"/>
      <use xlink:href="#DejaVuSans-54" x="86.279297"/>
      <use xlink:href="#DejaVuSans-48" x="147.363281"/>
      <use xlink:href="#DejaVuSans-32" x="222.558594"/>
      <use xlink:href="#DejaVuSans-30" x="286.181641"/>
      <use xlink:href="#DejaVuSans-30" x="349.804688"/>
      <use xlink:href="#DejaVuSans-33" x="413.427734"/>
     </g>
    </g>
   </g>
   <g id="text_3">
    <g clip-path="url(#p7fbc9b2296)">
     <!-- MTH1002 -->
     <g transform="translate(233.863845 147.937041) scale(0.07 -0.07)">
      <use xlink:href="#DejaVuSans-4d"/>
      <use xlink:href="#DejaVuSans-54" x="86.279297"/>
      <use xlink:href="#DejaVuSans-48" x="147.363281"/>
      <use xlink:href="#DejaVuSans-31" x="222.558594"/>
      <use xlink:href="#DejaVuSans-30" x="286.181641"/>
      <use xlink:href="#DejaVuSans-30" x="349.804688"/>
      <use xlink:href="#DejaVuSans-32" x="413.427734"/>
     </g>
    </g>
   </g>
   <g id="text_4">
    <g clip-path="url(#p7fbc9b2296)">
     <!-- MTH2009 -->
     <g transform="translate(159.938829 126.841077) scale(0.07 -0.07)">
      <defs>
       <path id="DejaVuSans-39" d="M 703 97 
L 703 672 
Q 941 559 1184 500 
Q 1428 441 1663 441 
Q 2288 441 2617 861 
Q 2947 1281 2994 2138 
Q 2813 1869 2534 1725 
Q 2256 1581 1919 1581 
Q 1219 1581 811 2004 
Q 403 2428 403 3163 
Q 403 3881 828 4315 
Q 1253 4750 1959 4750 
Q 2769 4750 3195 4129 
Q 3622 3509 3622 2328 
Q 3622 1225 3098 567 
Q 2575 -91 1691 -91 
Q 1453 -91 1209 -44 
Q 966 3 703 97 
z
M 1959 2075 
Q 2384 2075 2632 2365 
Q 2881 2656 2881 3163 
Q 2881 3666 2632 3958 
Q 2384 4250 1959 4250 
Q 1534 4250 1286 3958 
Q 1038 3666 1038 3163 
Q 1038 2656 1286 2365 
Q 1534 2075 1959 2075 
z
" transform="scale(0.015625)"/>
      </defs>
      <use xlink:href="#DejaVuSans-4d"/>
      <use xlink:href="#DejaVuSans-54" x="86.279297"/>
      <use xlink:href="#DejaVuSans-48" x="147.363281"/>
      <use xlink:href="#DejaVuSans-32" x="222.558594"/>
      <use xlink:href="#DejaVuSans-30" x="286.181641"/>
      <use xlink:href="#DejaVuSans-30" x="349.804688"/>
      <use xlink:href="#DejaVuSans-39" x="413.427734"/>
     </g>
    </g>
   </g>
   <g id="text_5">
    <g clip-path="url(#p7fbc9b2296)">
     <!-- MTH1003 -->
     <g transform="translate(329.059797 146.830785) scale(0.07 -0.07)">
      <use xlink:href="#DejaVuSans-4d"/>
      <use xlink:href="#DejaVuSans-54" x="86.279297"/>
      <use xlink:href="#DejaVuSans-48" x="147.363281"/>
      <use xlink:href="#DejaVuSans-31" x="222.558594"/>
      <use xlink:href="#DejaVuSans-30" x="286.181641"/>
      <use xlink:href="#DejaVuSans-30" x="349.804688"/>
      <use xlink:href="#DejaVuSans-33" x="413.427734"/>
     </g>
    </g>
   </g>
   <g id="text_6">
    <g clip-path="url(#p7fbc9b2296)">
     <!-- MTH3035 -->
     <g transform="translate(77.304086 259.819222) scale(0.07 -0.07)">
      <defs>
       <path id="DejaVuSans-35" d="M 691 4666 
L 3169 4666 
L 3169 4134 
L 1269 4134 
L 1269 2991 
Q 1406 3038 1543 3061 
Q 1681 3084 1819 3084 
Q 2600 3084 3056 2656 
Q 3513 2228 3513 1497 
Q 3513 744 3044 326 
Q 2575 -91 1722 -91 
Q 1428 -91 1123 -41 
Q 819 9 494 109 
L 494 744 
Q 775 591 1075 516 
Q 1375 441 1709 441 
Q 2250 441 2565 725 
Q 2881 1009 2881 1497 
Q 2881 1984 2565 2268 
Q 2250 2553 1709 2553 
Q 1456 2553 1204 2497 
Q 953 2441 691 2322 
L 691 4666 
z
" transform="scale(0.015625)"/>
      </defs>
      <use xlink:href="#DejaVuSans-4d"/>
      <use xlink:href="#DejaVuSans-54" x="86.279297"/>
      <use xlink:href="#DejaVuSans-48" x="147.363281"/>
      <use xlink:href="#DejaVuSans-33" x="222.558594"/>
      <use xlink:href="#DejaVuSans-30" x="286.181641"/>
      <use xlink:href="#DejaVuSans-33" x="349.804688"/>
      <use xlink:href="#DejaVuSans-35" x="413.427734"/>
     </g>
    </g>
   </g>
   <g id="text_7">
    <g clip-path="url(#p7fbc9b2296)">
     <!-- MTH2010 -->
     <g transform="translate(156.998552 180.816555) scale(0.07 -0.07)">
      <use xlink:href="#DejaVuSans-4d"/>
      <use xlink:href="#DejaVuSans-54" x="86.279297"/>
      <use xlink:href="#DejaVuSans-48" x="147.363281"/>
      <use xlink:href="#DejaVuSans-32" x="222.558594"/>
      <use xlink:href="#DejaVuSans-30" x="286.181641"/>
      <use xlink:href="#DejaVuSans-31" x="349.804688"/>
      <use xlink:href="#DejaVuSans-30" x="413.427734"/>
     </g>
    </g>
   </g>
   <g id="text_8">
    <g clip-path="url(#p7fbc9b2296)">
     <!-- MTH3004 -->
     <g transform="translate(141.963217 177.636669) scale(0.07 -0.07)">
      <use xlink:href="#DejaVuSans-4d"/>
      <use xlink:href="#DejaVuSans-54" x="86.279297"/>
      <use xlink:href="#DejaVuSans-48" x="147.363281"/>
      <use xlink:href="#DejaVuSans-33" x="222.558594"/>
      <use xlink:href="#DejaVuSans-30" x="286.181641"/>
      <use xlink:href="#DejaVuSans-30" x="349.804688"/>
      <use xlink:href="#DejaVuSans-34" x="413.427734"/>
     </g>
    </g>
   </g>
   <g id="text_9">
    <g clip-path="url(#p7fbc9b2296)">
     <!-- MTH1001 -->
     <g transform="translate(194.213087 205.695255) scale(0.07 -0.07)">
      <use xlink:href="#DejaVuSans-4d"/>
      <use xlink:href="#DejaVuSans-54" x="86.279297"/>
      <use xlink:href="#DejaVuSans-48" x="147.363281"/>
      <use xlink:href="#DejaVuSans-31" x="222.558594"/>
      <use xlink:href="#DejaVuSans-30" x="286.181641"/>
      <use xlink:href="#DejaVuSans-30" x="349.804688"/>
      <use xlink:href="#DejaVuSans-31" x="413.427734"/>
     </g>
    </g>
   </g>
   <g id="text_10">
    <g clip-path="url(#p7fbc9b2296)">
     <!-- MTH3019 -->
     <g transform="translate(271.333705 228.374648) scale(0.07 -0.07)">
      <use xlink:href="#DejaVuSans-4d"/>
      <use xlink:href="#DejaVuSans-54" x="86.279297"/>
      <use xlink:href="#DejaVuSans-48" x="147.363281"/>
      <use xlink:href="#DejaVuSans-33" x="222.558594"/>
      <use xlink:href="#DejaVuSans-30" x="286.181641"/>
      <use xlink:href="#DejaVuSans-31" x="349.804688"/>
      <use xlink:href="#DejaVuSans-39" x="413.427734"/>
     </g>
    </g>
   </g>
   <g id="text_11">
    <g clip-path="url(#p7fbc9b2296)">
     <!-- MTH3042 -->
     <g transform="translate(215.836443 118.048523) scale(0.07 -0.07)">
      <use xlink:href="#DejaVuSans-4d"/>
      <use xlink:href="#DejaVuSans-54" x="86.279297"/>
      <use xlink:href="#DejaVuSans-48" x="147.363281"/>
      <use xlink:href="#DejaVuSans-33" x="222.558594"/>
      <use xlink:href="#DejaVuSans-30" x="286.181641"/>
      <use xlink:href="#DejaVuSans-34" x="349.804688"/>
      <use xlink:href="#DejaVuSans-32" x="413.427734"/>
     </g>
    </g>
   </g>
   <g id="text_12">
    <g clip-path="url(#p7fbc9b2296)">
     <!-- MTH2008 -->
     <g transform="translate(229.385875 177.413855) scale(0.07 -0.07)">
      <defs>
       <path id="DejaVuSans-38" d="M 2034 2216 
Q 1584 2216 1326 1975 
Q 1069 1734 1069 1313 
Q 1069 891 1326 650 
Q 1584 409 2034 409 
Q 2484 409 2743 651 
Q 3003 894 3003 1313 
Q 3003 1734 2745 1975 
Q 2488 2216 2034 2216 
z
M 1403 2484 
Q 997 2584 770 2862 
Q 544 3141 544 3541 
Q 544 4100 942 4425 
Q 1341 4750 2034 4750 
Q 2731 4750 3128 4425 
Q 3525 4100 3525 3541 
Q 3525 3141 3298 2862 
Q 3072 2584 2669 2484 
Q 3125 2378 3379 2068 
Q 3634 1759 3634 1313 
Q 3634 634 3220 271 
Q 2806 -91 2034 -91 
Q 1263 -91 848 271 
Q 434 634 434 1313 
Q 434 1759 690 2068 
Q 947 2378 1403 2484 
z
M 1172 3481 
Q 1172 3119 1398 2916 
Q 1625 2713 2034 2713 
Q 2441 2713 2670 2916 
Q 2900 3119 2900 3481 
Q 2900 3844 2670 4047 
Q 2441 4250 2034 4250 
Q 1625 4250 1398 4047 
Q 1172 3844 1172 3481 
z
" transform="scale(0.015625)"/>
      </defs>
      <use xlink:href="#DejaVuSans-4d"/>
      <use xlink:href="#DejaVuSans-54" x="86.279297"/>
      <use xlink:href="#DejaVuSans-48" x="147.363281"/>
      <use xlink:href="#DejaVuSans-32" x="222.558594"/>
      <use xlink:href="#DejaVuSans-30" x="286.181641"/>
      <use xlink:href="#DejaVuSans-30" x="349.804688"/>
      <use xlink:href="#DejaVuSans-38" x="413.427734"/>
     </g>
    </g>
   </g>
   <g id="text_13">
    <g clip-path="url(#p7fbc9b2296)">
     <!-- MTH3022 -->
     <g transform="translate(179.064014 215.604516) scale(0.07 -0.07)">
      <use xlink:href="#DejaVuSans-4d"/>
      <use xlink:href="#DejaVuSans-54" x="86.279297"/>
      <use xlink:href="#DejaVuSans-48" x="147.363281"/>
      <use xlink:href="#DejaVuSans-33" x="222.558594"/>
      <use xlink:href="#DejaVuSans-30" x="286.181641"/>
      <use xlink:href="#DejaVuSans-32" x="349.804688"/>
      <use xlink:href="#DejaVuSans-32" x="413.427734"/>
     </g>
    </g>
   </g>
   <g id="text_14">
    <g clip-path="url(#p7fbc9b2296)">
     <!-- MTH2011 -->
     <g transform="translate(125.4352 195.031709) scale(0.07 -0.07)">
      <use xlink:href="#DejaVuSans-4d"/>
      <use xlink:href="#DejaVuSans-54" x="86.279297"/>
      <use xlink:href="#DejaVuSans-48" x="147.363281"/>
      <use xlink:href="#DejaVuSans-32" x="222.558594"/>
      <use xlink:href="#DejaVuSans-30" x="286.181641"/>
      <use xlink:href="#DejaVuSans-31" x="349.804688"/>
      <use xlink:href="#DejaVuSans-31" x="413.427734"/>
     </g>
    </g>
   </g>
   <g id="text_15">
    <g clip-path="url(#p7fbc9b2296)">
     <!-- MTH2004 -->
     <g transform="translate(262.430781 118.318211) scale(0.07 -0.07)">
      <use xlink:href="#DejaVuSans-4d"/>
      <use xlink:href="#DejaVuSans-54" x="86.279297"/>
      <use xlink:href="#DejaVuSans-48" x="147.363281"/>
      <use xlink:href="#DejaVuSans-32" x="222.558594"/>
      <use xlink:href="#DejaVuSans-30" x="286.181641"/>
      <use xlink:href="#DejaVuSans-30" x="349.804688"/>
      <use xlink:href="#DejaVuSans-34" x="413.427734"/>
     </g>
    </g>
   </g>
   <g id="text_16">
    <g clip-path="url(#p7fbc9b2296)">
     <!-- 62-XX -->
     <g transform="translate(325.448853 280.500935) scale(0.07 -0.07)">
      <defs>
       <path id="DejaVuSans-36" d="M 2113 2584 
Q 1688 2584 1439 2293 
Q 1191 2003 1191 1497 
Q 1191 994 1439 701 
Q 1688 409 2113 409 
Q 2538 409 2786 701 
Q 3034 994 3034 1497 
Q 3034 2003 2786 2293 
Q 2538 2584 2113 2584 
z
M 3366 4563 
L 3366 3988 
Q 3128 4100 2886 4159 
Q 2644 4219 2406 4219 
Q 1781 4219 1451 3797 
Q 1122 3375 1075 2522 
Q 1259 2794 1537 2939 
Q 1816 3084 2150 3084 
Q 2853 3084 3261 2657 
Q 3669 2231 3669 1497 
Q 3669 778 3244 343 
Q 2819 -91 2113 -91 
Q 1303 -91 875 529 
Q 447 1150 447 2328 
Q 447 3434 972 4092 
Q 1497 4750 2381 4750 
Q 2619 4750 2861 4703 
Q 3103 4656 3366 4563 
z
" transform="scale(0.015625)"/>
       <path id="DejaVuSans-2d" d="M 313 2009 
L 1997 2009 
L 1997 1497 
L 313 1497 
L 313 2009 
z
" transform="scale(0.015625)"/>
       <path id="DejaVuSans-58" d="M 403 4666 
L 1081 4666 
L 2241 2931 
L 3406 4666 
L 4084 4666 
L 2584 2425 
L 4184 0 
L 3506 0 
L 2194 1984 
L 872 0 
L 191 0 
L 1856 2491 
L 403 4666 
z
" transform="scale(0.015625)"/>
      </defs>
      <use xlink:href="#DejaVuSans-36"/>
      <use xlink:href="#DejaVuSans-32" x="63.623047"/>
      <use xlink:href="#DejaVuSans-2d" x="127.246094"/>
      <use xlink:href="#DejaVuSans-58" x="158.330078"/>
      <use xlink:href="#DejaVuSans-58" x="226.835938"/>
     </g>
    </g>
   </g>
   <g id="text_17">
    <g clip-path="url(#p7fbc9b2296)">
     <!-- 60-XX -->
     <g transform="translate(261.898992 296.127363) scale(0.07 -0.07)">
      <use xlink:href="#DejaVuSans-36"/>
      <use xlink:href="#DejaVuSans-30" x="63.623047"/>
      <use xlink:href="#DejaVuSans-2d" x="127.246094"/>
      <use xlink:href="#DejaVuSans-58" x="158.330078"/>
      <use xlink:href="#DejaVuSans-58" x="226.835938"/>
     </g>
    </g>
   </g>
   <g id="text_18">
    <g clip-path="url(#p7fbc9b2296)">
     <!-- 65-XX -->
     <g transform="translate(290.020031 258.209259) scale(0.07 -0.07)">
      <use xlink:href="#DejaVuSans-36"/>
      <use xlink:href="#DejaVuSans-35" x="63.623047"/>
      <use xlink:href="#DejaVuSans-2d" x="127.246094"/>
      <use xlink:href="#DejaVuSans-58" x="158.330078"/>
      <use xlink:href="#DejaVuSans-58" x="226.835938"/>
     </g>
    </g>
   </g>
   <g id="text_19">
    <g clip-path="url(#p7fbc9b2296)">
     <!-- 34-XX -->
     <g transform="translate(224.058476 137.48332) scale(0.07 -0.07)">
      <use xlink:href="#DejaVuSans-33"/>
      <use xlink:href="#DejaVuSans-34" x="63.623047"/>
      <use xlink:href="#DejaVuSans-2d" x="127.246094"/>
      <use xlink:href="#DejaVuSans-58" x="158.330078"/>
      <use xlink:href="#DejaVuSans-58" x="226.835938"/>
     </g>
    </g>
   </g>
   <g id="text_20">
    <g clip-path="url(#p7fbc9b2296)">
     <!-- 35-XX -->
     <g transform="translate(306.162188 126.688791) scale(0.07 -0.07)">
      <use xlink:href="#DejaVuSans-33"/>
      <use xlink:href="#DejaVuSans-35" x="63.623047"/>
      <use xlink:href="#DejaVuSans-2d" x="127.246094"/>
      <use xlink:href="#DejaVuSans-58" x="158.330078"/>
      <use xlink:href="#DejaVuSans-58" x="226.835938"/>
     </g>
    </g>
   </g>
   <g id="text_21">
    <g clip-path="url(#p7fbc9b2296)">
     <!-- 45-XX -->
     <g transform="translate(253.825776 94.49409) scale(0.07 -0.07)">
      <use xlink:href="#DejaVuSans-34"/>
      <use xlink:href="#DejaVuSans-35" x="63.623047"/>
      <use xlink:href="#DejaVuSans-2d" x="127.246094"/>
      <use xlink:href="#DejaVuSans-58" x="158.330078"/>
      <use xlink:href="#DejaVuSans-58" x="226.835938"/>
     </g>
    </g>
   </g>
   <g id="text_22">
    <g clip-path="url(#p7fbc9b2296)">
     <!-- 15-XX -->
     <g transform="translate(189.397051 150.171462) scale(0.07 -0.07)">
      <use xlink:href="#DejaVuSans-31"/>
      <use xlink:href="#DejaVuSans-35" x="63.623047"/>
      <use xlink:href="#DejaVuSans-2d" x="127.246094"/>
      <use xlink:href="#DejaVuSans-58" x="158.330078"/>
      <use xlink:href="#DejaVuSans-58" x="226.835938"/>
     </g>
    </g>
   </g>
   <g id="text_23">
    <g clip-path="url(#p7fbc9b2296)">
     <!-- 14-XX -->
     <g transform="translate(198.282224 121.856752) scale(0.07 -0.07)">
      <use xlink:href="#DejaVuSans-31"/>
      <use xlink:href="#DejaVuSans-34" x="63.623047"/>
      <use xlink:href="#DejaVuSans-2d" x="127.246094"/>
      <use xlink:href="#DejaVuSans-58" x="158.330078"/>
      <use xlink:href="#DejaVuSans-58" x="226.835938"/>
     </g>
    </g>
   </g>
   <g id="text_24">
    <g clip-path="url(#p7fbc9b2296)">
     <!-- 26-XX -->
     <g transform="translate(274.840273 175.151665) scale(0.07 -0.07)">
      <use xlink:href="#DejaVuSans-32"/>
      <use xlink:href="#DejaVuSans-36" x="63.623047"/>
      <use xlink:href="#DejaVuSans-2d" x="127.246094"/>
      <use xlink:href="#DejaVuSans-58" x="158.330078"/>
      <use xlink:href="#DejaVuSans-58" x="226.835938"/>
     </g>
    </g>
   </g>
   <g id="text_25">
    <g clip-path="url(#p7fbc9b2296)">
     <!-- 08-XX -->
     <g transform="translate(118.374025 150.189569) scale(0.07 -0.07)">
      <use xlink:href="#DejaVuSans-30"/>
      <use xlink:href="#DejaVuSans-38" x="63.623047"/>
      <use xlink:href="#DejaVuSans-2d" x="127.246094"/>
      <use xlink:href="#DejaVuSans-58" x="158.330078"/>
      <use xlink:href="#DejaVuSans-58" x="226.835938"/>
     </g>
    </g>
   </g>
   <g id="text_26">
    <g clip-path="url(#p7fbc9b2296)">
     <!-- 30-XX -->
     <g transform="translate(209.885769 100.738016) scale(0.07 -0.07)">
      <use xlink:href="#DejaVuSans-33"/>
      <use xlink:href="#DejaVuSans-30" x="63.623047"/>
      <use xlink:href="#DejaVuSans-2d" x="127.246094"/>
      <use xlink:href="#DejaVuSans-58" x="158.330078"/>
      <use xlink:href="#DejaVuSans-58" x="226.835938"/>
     </g>
    </g>
   </g>
   <g id="text_27">
    <g clip-path="url(#p7fbc9b2296)">
     <!-- 68-XX -->
     <g transform="translate(373.080079 160.263557) scale(0.07 -0.07)">
      <use xlink:href="#DejaVuSans-36"/>
      <use xlink:href="#DejaVuSans-38" x="63.623047"/>
      <use xlink:href="#DejaVuSans-2d" x="127.246094"/>
      <use xlink:href="#DejaVuSans-58" x="158.330078"/>
      <use xlink:href="#DejaVuSans-58" x="226.835938"/>
     </g>
    </g>
   </g>
   <g id="text_28">
    <g clip-path="url(#p7fbc9b2296)">
     <!-- 40-XX -->
     <g transform="translate(278.33265 144.692103) scale(0.07 -0.07)">
      <use xlink:href="#DejaVuSans-34"/>
      <use xlink:href="#DejaVuSans-30" x="63.623047"/>
      <use xlink:href="#DejaVuSans-2d" x="127.246094"/>
      <use xlink:href="#DejaVuSans-58" x="158.330078"/>
      <use xlink:href="#DejaVuSans-58" x="226.835938"/>
     </g>
    </g>
   </g>
   <g id="text_29">
    <g clip-path="url(#p7fbc9b2296)">
     <!-- 00-02 -->
     <g transform="translate(105.294628 274.839862) scale(0.07 -0.07)">
      <use xlink:href="#DejaVuSans-30"/>
      <use xlink:href="#DejaVuSans-30" x="63.623047"/>
      <use xlink:href="#DejaVuSans-2d" x="127.246094"/>
      <use xlink:href="#DejaVuSans-30" x="163.330078"/>
      <use xlink:href="#DejaVuSans-32" x="226.953125"/>
     </g>
    </g>
   </g>
   <g id="text_30">
    <g clip-path="url(#p7fbc9b2296)">
     <!-- 12-XX -->
     <g transform="translate(155.893742 200.734893) scale(0.07 -0.07)">
      <use xlink:href="#DejaVuSans-31"/>
      <use xlink:href="#DejaVuSans-32" x="63.623047"/>
      <use xlink:href="#DejaVuSans-2d" x="127.246094"/>
      <use xlink:href="#DejaVuSans-58" x="158.330078"/>
      <use xlink:href="#DejaVuSans-58" x="226.835938"/>
     </g>
    </g>
   </g>
   <g id="text_31">
    <g clip-path="url(#p7fbc9b2296)">
     <!-- 13-XX -->
     <g transform="translate(112.013358 178.208805) scale(0.07 -0.07)">
      <use xlink:href="#DejaVuSans-31"/>
      <use xlink:href="#DejaVuSans-33" x="63.623047"/>
      <use xlink:href="#DejaVuSans-2d" x="127.246094"/>
      <use xlink:href="#DejaVuSans-58" x="158.330078"/>
      <use xlink:href="#DejaVuSans-58" x="226.835938"/>
     </g>
    </g>
   </g>
   <g id="text_32">
    <g clip-path="url(#p7fbc9b2296)">
     <!-- 03-XX -->
     <g transform="translate(194.997612 173.500026) scale(0.07 -0.07)">
      <use xlink:href="#DejaVuSans-30"/>
      <use xlink:href="#DejaVuSans-33" x="63.623047"/>
      <use xlink:href="#DejaVuSans-2d" x="127.246094"/>
      <use xlink:href="#DejaVuSans-58" x="158.330078"/>
      <use xlink:href="#DejaVuSans-58" x="226.835938"/>
     </g>
    </g>
   </g>
   <g id="text_33">
    <g clip-path="url(#p7fbc9b2296)">
     <!-- 11-XX -->
     <g transform="translate(150.239702 216.381265) scale(0.07 -0.07)">
      <use xlink:href="#DejaVuSans-31"/>
      <use xlink:href="#DejaVuSans-31" x="63.623047"/>
      <use xlink:href="#DejaVuSans-2d" x="127.246094"/>
      <use xlink:href="#DejaVuSans-58" x="158.330078"/>
      <use xlink:href="#DejaVuSans-58" x="226.835938"/>
     </g>
    </g>
   </g>
   <g id="text_34">
    <g clip-path="url(#p7fbc9b2296)">
     <!-- 20-XX -->
     <g transform="translate(224.52533 238.347809) scale(0.07 -0.07)">
      <use xlink:href="#DejaVuSans-32"/>
      <use xlink:href="#DejaVuSans-30" x="63.623047"/>
      <use xlink:href="#DejaVuSans-2d" x="127.246094"/>
      <use xlink:href="#DejaVuSans-58" x="158.330078"/>
      <use xlink:href="#DejaVuSans-58" x="226.835938"/>
     </g>
    </g>
   </g>
   <g id="text_35">
    <g clip-path="url(#p7fbc9b2296)">
     <!-- 01-XX -->
     <g transform="translate(326.906046 219.534008) scale(0.07 -0.07)">
      <use xlink:href="#DejaVuSans-30"/>
      <use xlink:href="#DejaVuSans-31" x="63.623047"/>
      <use xlink:href="#DejaVuSans-2d" x="127.246094"/>
      <use xlink:href="#DejaVuSans-58" x="158.330078"/>
      <use xlink:href="#DejaVuSans-58" x="226.835938"/>
     </g>
    </g>
   </g>
   <g id="text_36">
    <g clip-path="url(#p7fbc9b2296)">
     <!-- 51-XX -->
     <g transform="translate(322.924743 238.832042) scale(0.07 -0.07)">
      <use xlink:href="#DejaVuSans-35"/>
      <use xlink:href="#DejaVuSans-31" x="63.623047"/>
      <use xlink:href="#DejaVuSans-2d" x="127.246094"/>
      <use xlink:href="#DejaVuSans-58" x="158.330078"/>
      <use xlink:href="#DejaVuSans-58" x="226.835938"/>
     </g>
    </g>
   </g>
   <g id="text_37">
    <g clip-path="url(#p7fbc9b2296)">
     <!-- 53-XX -->
     <g transform="translate(217.171296 76.791762) scale(0.07 -0.07)">
      <use xlink:href="#DejaVuSans-35"/>
      <use xlink:href="#DejaVuSans-33" x="63.623047"/>
      <use xlink:href="#DejaVuSans-2d" x="127.246094"/>
      <use xlink:href="#DejaVuSans-58" x="158.330078"/>
      <use xlink:href="#DejaVuSans-58" x="226.835938"/>
     </g>
    </g>
   </g>
   <g id="text_38">
    <g clip-path="url(#p7fbc9b2296)">
     <!-- 44-XX -->
     <g transform="translate(175.878631 88.448354) scale(0.07 -0.07)">
      <use xlink:href="#DejaVuSans-34"/>
      <use xlink:href="#DejaVuSans-34" x="63.623047"/>
      <use xlink:href="#DejaVuSans-2d" x="127.246094"/>
      <use xlink:href="#DejaVuSans-58" x="158.330078"/>
      <use xlink:href="#DejaVuSans-58" x="226.835938"/>
     </g>
    </g>
   </g>
   <g id="text_39">
    <g clip-path="url(#p7fbc9b2296)">
     <!-- 16-XX -->
     <g transform="translate(161.011617 250.742286) scale(0.07 -0.07)">
      <use xlink:href="#DejaVuSans-31"/>
      <use xlink:href="#DejaVuSans-36" x="63.623047"/>
      <use xlink:href="#DejaVuSans-2d" x="127.246094"/>
      <use xlink:href="#DejaVuSans-58" x="158.330078"/>
      <use xlink:href="#DejaVuSans-58" x="226.835938"/>
     </g>
    </g>
   </g>
   <g id="text_40">
    <g clip-path="url(#p7fbc9b2296)">
     <!-- 90-XX -->
     <g transform="translate(191.318033 255.423492) scale(0.07 -0.07)">
      <use xlink:href="#DejaVuSans-39"/>
      <use xlink:href="#DejaVuSans-30" x="63.623047"/>
      <use xlink:href="#DejaVuSans-2d" x="127.246094"/>
      <use xlink:href="#DejaVuSans-58" x="158.330078"/>
      <use xlink:href="#DejaVuSans-58" x="226.835938"/>
     </g>
    </g>
   </g>
   <g id="text_41">
    <g clip-path="url(#p7fbc9b2296)">
     <!-- 17-XX -->
     <g transform="translate(78.566952 200.363656) scale(0.07 -0.07)">
      <defs>
       <path id="DejaVuSans-37" d="M 525 4666 
L 3525 4666 
L 3525 4397 
L 1831 0 
L 1172 0 
L 2766 4134 
L 525 4134 
L 525 4666 
z
" transform="scale(0.015625)"/>
      </defs>
      <use xlink:href="#DejaVuSans-31"/>
      <use xlink:href="#DejaVuSans-37" x="63.623047"/>
      <use xlink:href="#DejaVuSans-2d" x="127.246094"/>
      <use xlink:href="#DejaVuSans-58" x="158.330078"/>
      <use xlink:href="#DejaVuSans-58" x="226.835938"/>
     </g>
    </g>
   </g>
   <g id="text_42">
    <g clip-path="url(#p7fbc9b2296)">
     <!-- 32-XX -->
     <g transform="translate(312.765647 97.451141) scale(0.07 -0.07)">
      <use xlink:href="#DejaVuSans-33"/>
      <use xlink:href="#DejaVuSans-32" x="63.623047"/>
      <use xlink:href="#DejaVuSans-2d" x="127.246094"/>
      <use xlink:href="#DejaVuSans-58" x="158.330078"/>
      <use xlink:href="#DejaVuSans-58" x="226.835938"/>
     </g>
    </g>
   </g>
   <g id="matplotlib.axis_1"/>
   <g id="matplotlib.axis_2"/>
  </g>
 </g>
 <defs>
  <clipPath id="p7fbc9b2296">
   <rect x="57.6" y="41.472" width="357.12" height="266.112"/>
  </clipPath>
 </defs>
</svg>
