<?xml version="1.0" encoding="UTF-8" standalone="no"?>
<svg
   width="357.12pt"
   height="266.112pt"
   viewBox="0 0 357.12 266.11199"
   version="1.1"
   id="svg133"
   xmlns:xlink="http://www.w3.org/1999/xlink"
   xmlns="http://www.w3.org/2000/svg"
   xmlns:svg="http://www.w3.org/2000/svg"
   xmlns:rdf="http://www.w3.org/1999/02/22-rdf-syntax-ns#"
   xmlns:cc="http://creativecommons.org/ns#"
   xmlns:dc="http://purl.org/dc/elements/1.1/">
  <metadata
     id="metadata1">
    <rdf:RDF>
      <cc:Work>
        <dc:type
           rdf:resource="http://purl.org/dc/dcmitype/StillImage" />
        <dc:date>2024-04-08T13:54:20.619127</dc:date>
        <dc:format>image/svg+xml</dc:format>
        <dc:creator>
          <cc:Agent>
            <dc:title>Matplotlib v3.8.3, https://matplotlib.org/</dc:title>
          </cc:Agent>
        </dc:creator>
      </cc:Work>
    </rdf:RDF>
  </metadata>
  <defs
     id="defs1">
    <style
       type="text/css"
       id="style1">*{stroke-linejoin: round; stroke-linecap: butt}</style>
  </defs>
  <g
     id="figure_1"
     transform="translate(-57.600003,-41.472002)">
    <g
       id="patch_1">
      <path
         d="M 0,345.6 H 460.8 V 0 H 0 Z"
         style="fill:none"
         id="path1" />
    </g>
    <g
       id="axes_1">
      <g
         id="patch_2">
        <path
           d="M 57.6,307.584 H 414.72 V 41.472 H 57.6 Z"
           style="fill:none"
           id="path2" />
      </g>
      <g
         id="EdgeCollection_1">
        <path
           d="m 138.70691,164.39272 -44.814891,15.47166 44.814891,-15.47166 -0.4895,-1.41788 3.32527,0.43887 -2.34627,2.39689 -0.4895,-1.41788"
           clip-path="url(#pe4dd20627e)"
           style="fill:#444444;stroke:#444444;stroke-width:1.5"
           id="path3" />
        <path
           d="m 107.71453,211.97455 -15.94939,-26.2073 15.94939,26.2073 1.28136,-0.77981 0.27828,3.34253 -2.841,-1.7829 1.28136,-0.77982"
           clip-path="url(#pe4dd20627e)"
           style="fill:#444444;stroke:#444444;stroke-width:1.5"
           id="path4" />
        <path
           d="m 224.67302,82.135064 34.35308,-15.026163 -34.35308,15.026163 0.60111,1.374285 -3.34968,-0.172051 2.14745,-2.576519 0.60112,1.374285"
           clip-path="url(#pe4dd20627e)"
           style="fill:#444444;stroke:#444444;stroke-width:1.5"
           id="path5" />
        <path
           d="m 205.95916,260.67273 28.08173,20.34464 -28.08173,-20.34464 -0.88003,1.21472 -1.5494,-2.97479 3.30947,0.54536 -0.88004,1.21471"
           clip-path="url(#pe4dd20627e)"
           style="fill:#444444;stroke:#444444;stroke-width:1.5"
           id="path6" />
        <path
           d="m 171.57352,108.61263 41.313,-21.005473 -41.313,21.005473 0.67984,1.33709 -3.35403,0.0226 1.99435,-2.69677 0.67984,1.33709"
           clip-path="url(#pe4dd20627e)"
           style="fill:#444444;stroke:#444444;stroke-width:1.5"
           id="path7" />
        <path
           d="m 169.53072,211.11 -52.70114,7.03674 52.70114,-7.03674 -0.19852,-1.48681 3.17213,1.08977 -2.77509,1.88385 -0.19852,-1.48681"
           clip-path="url(#pe4dd20627e)"
           style="fill:#444444;stroke:#444444;stroke-width:1.5"
           id="path8" />
        <path
           d="m 173.11842,203.33202 -24.13577,-37.35048 24.13577,37.35048 1.25985,-0.81411 0.36837,3.33381 -2.88807,-1.70559 1.25985,-0.81411"
           clip-path="url(#pe4dd20627e)"
           style="fill:#444444;stroke:#444444;stroke-width:1.5"
           id="path9" />
        <path
           d="m 161.68733,119.74909 -13.69649,37.33879 13.69649,-37.33879 -1.40825,-0.51656 2.44138,-2.29993 0.37511,3.33306 -1.40824,-0.51657"
           clip-path="url(#pe4dd20627e)"
           style="fill:#444444;stroke:#444444;stroke-width:1.5"
           id="path10" />
        <path
           d="m 180.91899,217.26495 16.40003,34.20568 -16.40003,-34.20568 -1.35257,0.64849 0.0556,-3.35364 2.64957,2.05665 -1.35258,0.6485"
           clip-path="url(#pe4dd20627e)"
           style="fill:#444444;stroke:#444444;stroke-width:1.5"
           id="path11" />
        <path
           d="m 157.61892,108.06223 -32.51142,-19.898296 32.51142,19.898296 0.78304,-1.27939 1.77575,2.84547 -3.34183,-0.28668 0.78304,-1.2794"
           clip-path="url(#pe4dd20627e)"
           style="fill:#444444;stroke:#444444;stroke-width:1.5"
           id="path12" />
        <path
           d="m 185.35896,208.78157 53.01524,-8.52189 -53.01524,8.52189 0.23806,1.48099 -3.20004,-1.00487 2.72392,-1.95711 0.23806,1.48099"
           clip-path="url(#pe4dd20627e)"
           style="fill:#444444;stroke:#444444;stroke-width:1.5"
           id="path13" />
      </g>
      <g
         id="VertexCollection_1">
        <path
           d="m 343.82092,257.26392 c 1.32601,0 2.5979,-0.52683 3.53553,-1.46447 0.93764,-0.93763 1.46447,-2.20952 1.46447,-3.53553 0,-1.32602 -0.52683,-2.5979 -1.46447,-3.53554 -0.93763,-0.93763 -2.20952,-1.46446 -3.53553,-1.46446 -1.32602,0 -2.5979,0.52683 -3.53554,1.46446 -0.93763,0.93764 -1.46446,2.20952 -1.46446,3.53554 0,1.32601 0.52683,2.5979 1.46446,3.53553 0.93764,0.93764 2.20952,1.46447 3.53554,1.46447 z"
           clip-path="url(#pe4dd20627e)"
           id="path14" />
        <path
           d="m 376.03429,150.0577 c 1.32602,0 2.5979,-0.52684 3.53553,-1.46447 0.93764,-0.93764 1.46447,-2.20952 1.46447,-3.53553 0,-1.32602 -0.52683,-2.5979 -1.46447,-3.53554 -0.93763,-0.93763 -2.20951,-1.46446 -3.53553,-1.46446 -1.32601,0 -2.5979,0.52683 -3.53553,1.46446 -0.93764,0.93764 -1.46447,2.20952 -1.46447,3.53554 0,1.32601 0.52683,2.59789 1.46447,3.53553 0.93763,0.93763 2.20952,1.46447 3.53553,1.46447 z"
           clip-path="url(#pe4dd20627e)"
           id="path15" />
        <path
           d="m 89.165747,186.49605 c 1.326016,0 2.5979,-0.52683 3.535534,-1.46447 0.937635,-0.93763 1.464466,-2.20952 1.464466,-3.53553 0,-1.32602 -0.526831,-2.5979 -1.464466,-3.53554 -0.937634,-0.93763 -2.209518,-1.46446 -3.535534,-1.46446 -1.326015,0 -2.597899,0.52683 -3.535534,1.46446 -0.937634,0.93764 -1.464466,2.20952 -1.464466,3.53554 0,1.32601 0.526832,2.5979 1.464466,3.53553 0.937635,0.93764 2.209519,1.46447 3.535534,1.46447 z"
           clip-path="url(#pe4dd20627e)"
           id="path16" />
        <path
           d="m 263.60705,70.105177 c 1.32601,0 2.5979,-0.526831 3.53553,-1.464466 0.93764,-0.937634 1.46447,-2.209518 1.46447,-3.535534 0,-1.326015 -0.52683,-2.597899 -1.46447,-3.535534 -0.93763,-0.937634 -2.20952,-1.464466 -3.53553,-1.464466 -1.32602,0 -2.5979,0.526832 -3.53554,1.464466 -0.93763,0.937635 -1.46446,2.209519 -1.46446,3.535534 0,1.326016 0.52683,2.5979 1.46446,3.535534 0.93764,0.937635 2.20952,1.464466 3.53554,1.464466 z"
           clip-path="url(#pe4dd20627e)"
           id="path17" />
        <path
           d="m 238.08995,288.95082 c 1.32601,0 2.5979,-0.52683 3.53553,-1.46446 0.93763,-0.93764 1.46447,-2.20952 1.46447,-3.53554 0,-1.32601 -0.52684,-2.5979 -1.46447,-3.53553 -0.93763,-0.93764 -2.20952,-1.46447 -3.53553,-1.46447 -1.32602,0 -2.5979,0.52683 -3.53554,1.46447 -0.93763,0.93763 -1.46446,2.20952 -1.46446,3.53553 0,1.32602 0.52683,2.5979 1.46446,3.53554 0.93764,0.93763 2.20952,1.46446 3.53554,1.46446 z"
           clip-path="url(#pe4dd20627e)"
           id="path18" />
        <path
           d="m 217.3435,90.341022 c 1.32601,0 2.5979,-0.526832 3.53553,-1.464467 0.93764,-0.937634 1.46447,-2.209518 1.46447,-3.535533 0,-1.326016 -0.52683,-2.5979 -1.46447,-3.535534 -0.93763,-0.937635 -2.20952,-1.464466 -3.53553,-1.464466 -1.32602,0 -2.5979,0.526831 -3.53554,1.464466 -0.93763,0.937634 -1.46446,2.209518 -1.46446,3.535534 0,1.326015 0.52683,2.597899 1.46446,3.535533 0.93764,0.937635 2.20952,1.464467 3.53554,1.464467 z"
           clip-path="url(#pe4dd20627e)"
           id="path19" />
        <path
           d="m 111.87356,223.80847 c 1.32601,0 2.5979,-0.52683 3.53553,-1.46446 0.93764,-0.93764 1.46447,-2.20952 1.46447,-3.53554 0,-1.32601 -0.52683,-2.59789 -1.46447,-3.53553 -0.93763,-0.93763 -2.20952,-1.46447 -3.53553,-1.46447 -1.32602,0 -2.5979,0.52684 -3.53553,1.46447 -0.93764,0.93764 -1.46447,2.20952 -1.46447,3.53553 0,1.32602 0.52683,2.5979 1.46447,3.53554 0.93763,0.93763 2.20951,1.46446 3.53553,1.46446 z"
           clip-path="url(#pe4dd20627e)"
           id="path20" />
        <path
           d="m 177.46035,215.05122 c 1.32601,0 2.5979,-0.52683 3.53553,-1.46446 0.93764,-0.93764 1.46447,-2.20952 1.46447,-3.53554 0,-1.32601 -0.52683,-2.5979 -1.46447,-3.53553 -0.93763,-0.93763 -2.20952,-1.46447 -3.53553,-1.46447 -1.32602,0 -2.5979,0.52684 -3.53553,1.46447 -0.93764,0.93763 -1.46447,2.20952 -1.46447,3.53553 0,1.32602 0.52683,2.5979 1.46447,3.53554 0.93763,0.93763 2.20951,1.46446 3.53553,1.46446 z"
           clip-path="url(#pe4dd20627e)"
           id="path21" />
        <path
           d="m 146.26895,166.78204 c 1.32601,0 2.5979,-0.52683 3.53553,-1.46447 0.93764,-0.93763 1.46447,-2.20952 1.46447,-3.53553 0,-1.32602 -0.52683,-2.5979 -1.46447,-3.53553 -0.93763,-0.93764 -2.20952,-1.46447 -3.53553,-1.46447 -1.32602,0 -2.5979,0.52683 -3.53554,1.46447 -0.93763,0.93763 -1.46446,2.20951 -1.46446,3.53553 0,1.32601 0.52683,2.5979 1.46446,3.53553 0.93764,0.93764 2.20952,1.46447 3.53554,1.46447 z"
           clip-path="url(#pe4dd20627e)"
           id="path22" />
        <path
           d="m 383.15425,203.97528 c 1.32602,0 2.5979,-0.52683 3.53554,-1.46446 0.93763,-0.93764 1.46446,-2.20952 1.46446,-3.53554 0,-1.32601 -0.52683,-2.5979 -1.46446,-3.53553 -0.93764,-0.93764 -2.20952,-1.46447 -3.53554,-1.46447 -1.32601,0 -2.5979,0.52683 -3.53553,1.46447 -0.93764,0.93763 -1.46447,2.20952 -1.46447,3.53553 0,1.32602 0.52683,2.5979 1.46447,3.53554 0.93763,0.93763 2.20952,1.46446 3.53553,1.46446 z"
           clip-path="url(#pe4dd20627e)"
           id="path23" />
        <path
           d="m 199.48068,260.97921 c 1.32601,0 2.5979,-0.52683 3.53553,-1.46447 0.93763,-0.93763 1.46447,-2.20952 1.46447,-3.53553 0,-1.32602 -0.52684,-2.5979 -1.46447,-3.53554 -0.93763,-0.93763 -2.20952,-1.46446 -3.53553,-1.46446 -1.32602,0 -2.5979,0.52683 -3.53554,1.46446 -0.93763,0.93764 -1.46446,2.20952 -1.46446,3.53554 0,1.32601 0.52683,2.5979 1.46446,3.53553 0.93764,0.93764 2.20952,1.46447 3.53554,1.46447 z"
           clip-path="url(#pe4dd20627e)"
           id="path24" />
        <path
           d="m 120.84285,90.5538 c 1.32601,0 2.5979,-0.526832 3.53553,-1.464466 0.93764,-0.937635 1.46447,-2.209518 1.46447,-3.535534 0,-1.326015 -0.52683,-2.597899 -1.46447,-3.535534 -0.93763,-0.937634 -2.20952,-1.464466 -3.53553,-1.464466 -1.32602,0 -2.5979,0.526832 -3.53553,1.464466 -0.93764,0.937635 -1.46447,2.209519 -1.46447,3.535534 0,1.326016 0.52683,2.597899 1.46447,3.535534 0.93763,0.937634 2.20951,1.464466 3.53553,1.464466 z"
           clip-path="url(#pe4dd20627e)"
           id="path25" />
        <path
           d="m 350.04233,98.371812 c 1.32601,0 2.59789,-0.526831 3.53553,-1.464466 0.93763,-0.937634 1.46447,-2.209518 1.46447,-3.535534 0,-1.326015 -0.52684,-2.597899 -1.46447,-3.535533 -0.93764,-0.937635 -2.20952,-1.464467 -3.53553,-1.464467 -1.32602,0 -2.5979,0.526832 -3.53554,1.464467 -0.93763,0.937634 -1.46446,2.209518 -1.46446,3.535533 0,1.326016 0.52683,2.5979 1.46446,3.535534 0.93764,0.937635 2.20952,1.464466 3.53554,1.464466 z"
           clip-path="url(#pe4dd20627e)"
           id="path26" />
        <path
           d="m 164.44236,117.23845 c 1.32601,0 2.5979,-0.52683 3.53553,-1.46447 0.93763,-0.93763 1.46447,-2.20952 1.46447,-3.53553 0,-1.32602 -0.52684,-2.5979 -1.46447,-3.53554 -0.93763,-0.93763 -2.20952,-1.46446 -3.53553,-1.46446 -1.32602,0 -2.5979,0.52683 -3.53554,1.46446 -0.93763,0.93764 -1.46446,2.20952 -1.46446,3.53554 0,1.32601 0.52683,2.5979 1.46446,3.53553 0.93764,0.93764 2.20952,1.46447 3.53554,1.46447 z"
           clip-path="url(#pe4dd20627e)"
           id="path27" />
        <path
           d="m 243.31083,204.46615 c 1.32602,0 2.5979,-0.52683 3.53554,-1.46447 0.93763,-0.93763 1.46446,-2.20952 1.46446,-3.53553 0,-1.32602 -0.52683,-2.5979 -1.46446,-3.53554 -0.93764,-0.93763 -2.20952,-1.46446 -3.53554,-1.46446 -1.32601,0 -2.5979,0.52683 -3.53553,1.46446 -0.93764,0.93764 -1.46447,2.20952 -1.46447,3.53554 0,1.32601 0.52683,2.5979 1.46447,3.53553 0.93763,0.93764 2.20952,1.46447 3.53553,1.46447 z"
           clip-path="url(#pe4dd20627e)"
           id="path28" />
      </g>
      <g
         id="text_1">
        <g
           clip-path="url(#pe4dd20627e)"
           id="g35">
          <!-- MTH3035 -->
          <g
             transform="matrix(0.07,0,0,-0.07,327.12373,264.19548)"
             id="g34">
            <defs
               id="defs28">
              <path
                 id="DejaVuSans-4d"
                 d="m 628,4666 h 941 L 2759,1491 3956,4666 h 941 V 0 H 4281 V 4097 L 3078,897 H 2444 L 1241,4097 V 0 H 628 Z"
                 transform="scale(0.015625)" />
              <path
                 id="DejaVuSans-54"
                 d="M -19,4666 H 3928 V 4134 H 2272 V 0 H 1638 V 4134 H -19 Z"
                 transform="scale(0.015625)" />
              <path
                 id="DejaVuSans-48"
                 d="m 628,4666 h 631 V 2753 h 2294 v 1913 h 631 V 0 H 3553 V 2222 H 1259 V 0 H 628 Z"
                 transform="scale(0.015625)" />
              <path
                 id="DejaVuSans-33"
                 d="m 2597,2516 q 453,-97 707,-404 255,-306 255,-756 0,-690 -475,-1069 -475,-378 -1350,-378 -293,0 -604,58 -311,58 -642,174 v 609 q 262,-153 574,-231 313,-78 654,-78 593,0 904,234 311,234 311,681 0,413 -289,645 -289,233 -804,233 h -544 v 519 h 569 q 465,0 712,186 247,186 247,536 0,359 -255,551 -254,193 -729,193 -260,0 -557,-57 -297,-56 -653,-174 v 562 q 360,100 674,150 314,50 592,50 719,0 1137,-327 419,-326 419,-882 0,-388 -222,-655 -222,-267 -631,-370 z"
                 transform="scale(0.015625)" />
              <path
                 id="DejaVuSans-30"
                 d="m 2034,4250 q -487,0 -733,-480 -245,-479 -245,-1442 0,-959 245,-1439 246,-480 733,-480 491,0 736,480 246,480 246,1439 0,963 -246,1442 -245,480 -736,480 z m 0,500 q 785,0 1199,-621 414,-620 414,-1801 0,-1178 -414,-1799 -414,-620 -1199,-620 -784,0 -1198,620 -414,621 -414,1799 0,1181 414,1801 414,621 1198,621 z"
                 transform="scale(0.015625)" />
              <path
                 id="DejaVuSans-35"
                 d="M 691,4666 H 3169 V 4134 H 1269 V 2991 q 137,47 274,70 138,23 276,23 781,0 1237,-428 457,-428 457,-1159 Q 3513,744 3044,326 2575,-91 1722,-91 1428,-91 1123,-41 819,9 494,109 v 635 q 281,-153 581,-228 300,-75 634,-75 541,0 856,284 316,284 316,772 0,487 -316,771 -315,285 -856,285 -253,0 -505,-56 -251,-56 -513,-175 z"
                 transform="scale(0.015625)" />
            </defs>
            <use
               xlink:href="#DejaVuSans-4d"
               id="use28" />
            <use
               xlink:href="#DejaVuSans-54"
               x="86.279297"
               id="use29" />
            <use
               xlink:href="#DejaVuSans-48"
               x="147.36328"
               id="use30" />
            <use
               xlink:href="#DejaVuSans-33"
               x="222.55859"
               id="use31" />
            <use
               xlink:href="#DejaVuSans-30"
               x="286.18164"
               id="use32" />
            <use
               xlink:href="#DejaVuSans-33"
               x="349.80469"
               id="use33" />
            <use
               xlink:href="#DejaVuSans-35"
               x="413.42773"
               id="use34" />
          </g>
        </g>
      </g>
      <g
         id="text_2">
        <g
           clip-path="url(#pe4dd20627e)"
           id="g42">
          <!-- MTH1004 -->
          <g
             transform="matrix(0.07,0,0,-0.07,359.3371,156.98926)"
             id="g41">
            <defs
               id="defs35">
              <path
                 id="DejaVuSans-31"
                 d="M 794,531 H 1825 V 4091 L 703,3866 v 575 l 1116,225 h 631 V 531 H 3481 V 0 H 794 Z"
                 transform="scale(0.015625)" />
              <path
                 id="DejaVuSans-34"
                 d="M 2419,4116 825,1625 h 1594 z m -166,550 h 794 V 1625 h 666 V 1100 H 3047 V 0 H 2419 V 1100 H 313 v 609 z"
                 transform="scale(0.015625)" />
            </defs>
            <use
               xlink:href="#DejaVuSans-4d"
               id="use35" />
            <use
               xlink:href="#DejaVuSans-54"
               x="86.279297"
               id="use36" />
            <use
               xlink:href="#DejaVuSans-48"
               x="147.36328"
               id="use37" />
            <use
               xlink:href="#DejaVuSans-31"
               x="222.55859"
               id="use38" />
            <use
               xlink:href="#DejaVuSans-30"
               x="286.18164"
               id="use39" />
            <use
               xlink:href="#DejaVuSans-30"
               x="349.80469"
               id="use40" />
            <use
               xlink:href="#DejaVuSans-34"
               x="413.42773"
               id="use41" />
          </g>
        </g>
      </g>
      <g
         id="text_3">
        <g
           clip-path="url(#pe4dd20627e)"
           id="g49">
          <!-- MTH3022 -->
          <g
             transform="matrix(0.07,0,0,-0.07,72.46856,193.42761)"
             id="g48">
            <defs
               id="defs42">
              <path
                 id="DejaVuSans-32"
                 d="M 1228,531 H 3431 V 0 H 469 v 531 q 359,372 979,998 621,627 780,809 303,340 423,576 121,236 121,464 0,372 -261,606 -261,235 -680,235 -297,0 -627,-103 -329,-103 -704,-313 v 638 q 381,153 712,231 332,78 607,78 725,0 1156,-363 431,-362 431,-968 0,-288 -108,-546 -107,-257 -392,-607 -78,-91 -497,-524 Q 1991,1309 1228,531 Z"
                 transform="scale(0.015625)" />
            </defs>
            <use
               xlink:href="#DejaVuSans-4d"
               id="use42" />
            <use
               xlink:href="#DejaVuSans-54"
               x="86.279297"
               id="use43" />
            <use
               xlink:href="#DejaVuSans-48"
               x="147.36328"
               id="use44" />
            <use
               xlink:href="#DejaVuSans-33"
               x="222.55859"
               id="use45" />
            <use
               xlink:href="#DejaVuSans-30"
               x="286.18164"
               id="use46" />
            <use
               xlink:href="#DejaVuSans-32"
               x="349.80469"
               id="use47" />
            <use
               xlink:href="#DejaVuSans-32"
               x="413.42773"
               id="use48" />
          </g>
        </g>
      </g>
      <g
         id="text_4">
        <g
           clip-path="url(#pe4dd20627e)"
           id="g56">
          <!-- MTH3042 -->
          <g
             transform="matrix(0.07,0,0,-0.07,246.90986,77.03674)"
             id="g55">
            <use
               xlink:href="#DejaVuSans-4d"
               id="use49" />
            <use
               xlink:href="#DejaVuSans-54"
               x="86.279297"
               id="use50" />
            <use
               xlink:href="#DejaVuSans-48"
               x="147.36328"
               id="use51" />
            <use
               xlink:href="#DejaVuSans-33"
               x="222.55859"
               id="use52" />
            <use
               xlink:href="#DejaVuSans-30"
               x="286.18164"
               id="use53" />
            <use
               xlink:href="#DejaVuSans-34"
               x="349.80469"
               id="use54" />
            <use
               xlink:href="#DejaVuSans-32"
               x="413.42773"
               id="use55" />
          </g>
        </g>
      </g>
      <g
         id="text_5">
        <g
           clip-path="url(#pe4dd20627e)"
           id="g63">
          <!-- MTH3004 -->
          <g
             transform="matrix(0.07,0,0,-0.07,221.39276,295.88238)"
             id="g62">
            <use
               xlink:href="#DejaVuSans-4d"
               id="use56" />
            <use
               xlink:href="#DejaVuSans-54"
               x="86.279297"
               id="use57" />
            <use
               xlink:href="#DejaVuSans-48"
               x="147.36328"
               id="use58" />
            <use
               xlink:href="#DejaVuSans-33"
               x="222.55859"
               id="use59" />
            <use
               xlink:href="#DejaVuSans-30"
               x="286.18164"
               id="use60" />
            <use
               xlink:href="#DejaVuSans-30"
               x="349.80469"
               id="use61" />
            <use
               xlink:href="#DejaVuSans-34"
               x="413.42773"
               id="use62" />
          </g>
        </g>
      </g>
      <g
         id="text_6">
        <g
           clip-path="url(#pe4dd20627e)"
           id="g70">
          <!-- MTH2003 -->
          <g
             transform="matrix(0.07,0,0,-0.07,200.64631,97.272584)"
             id="g69">
            <use
               xlink:href="#DejaVuSans-4d"
               id="use63" />
            <use
               xlink:href="#DejaVuSans-54"
               x="86.279297"
               id="use64" />
            <use
               xlink:href="#DejaVuSans-48"
               x="147.36328"
               id="use65" />
            <use
               xlink:href="#DejaVuSans-32"
               x="222.55859"
               id="use66" />
            <use
               xlink:href="#DejaVuSans-30"
               x="286.18164"
               id="use67" />
            <use
               xlink:href="#DejaVuSans-30"
               x="349.80469"
               id="use68" />
            <use
               xlink:href="#DejaVuSans-33"
               x="413.42773"
               id="use69" />
          </g>
        </g>
      </g>
      <g
         id="text_7">
        <g
           clip-path="url(#pe4dd20627e)"
           id="g77">
          <!-- MTH2011 -->
          <g
             transform="matrix(0.07,0,0,-0.07,95.176372,230.74004)"
             id="g76">
            <use
               xlink:href="#DejaVuSans-4d"
               id="use70" />
            <use
               xlink:href="#DejaVuSans-54"
               x="86.279297"
               id="use71" />
            <use
               xlink:href="#DejaVuSans-48"
               x="147.36328"
               id="use72" />
            <use
               xlink:href="#DejaVuSans-32"
               x="222.55859"
               id="use73" />
            <use
               xlink:href="#DejaVuSans-30"
               x="286.18164"
               id="use74" />
            <use
               xlink:href="#DejaVuSans-31"
               x="349.80469"
               id="use75" />
            <use
               xlink:href="#DejaVuSans-31"
               x="413.42773"
               id="use76" />
          </g>
        </g>
      </g>
      <g
         id="text_8">
        <g
           clip-path="url(#pe4dd20627e)"
           id="g84">
          <!-- MTH1001 -->
          <g
             transform="matrix(0.07,0,0,-0.07,160.76316,221.98279)"
             id="g83">
            <use
               xlink:href="#DejaVuSans-4d"
               id="use77" />
            <use
               xlink:href="#DejaVuSans-54"
               x="86.279297"
               id="use78" />
            <use
               xlink:href="#DejaVuSans-48"
               x="147.36328"
               id="use79" />
            <use
               xlink:href="#DejaVuSans-31"
               x="222.55859"
               id="use80" />
            <use
               xlink:href="#DejaVuSans-30"
               x="286.18164"
               id="use81" />
            <use
               xlink:href="#DejaVuSans-30"
               x="349.80469"
               id="use82" />
            <use
               xlink:href="#DejaVuSans-31"
               x="413.42773"
               id="use83" />
          </g>
        </g>
      </g>
      <g
         id="text_9">
        <g
           clip-path="url(#pe4dd20627e)"
           id="g91">
          <!-- MTH2008 -->
          <g
             transform="matrix(0.07,0,0,-0.07,129.57176,173.7136)"
             id="g90">
            <defs
               id="defs84">
              <path
                 id="DejaVuSans-38"
                 d="m 2034,2216 q -450,0 -708,-241 -257,-241 -257,-662 0,-422 257,-663 258,-241 708,-241 450,0 709,242 260,243 260,662 0,421 -258,662 -257,241 -711,241 z m -631,268 q -406,100 -633,378 -226,279 -226,679 0,559 398,884 399,325 1092,325 697,0 1094,-325 397,-325 397,-884 0,-400 -227,-679 -226,-278 -629,-378 456,-106 710,-416 255,-309 255,-755 Q 3634,634 3220,271 2806,-91 2034,-91 1263,-91 848,271 434,634 434,1313 q 0,446 256,755 257,310 713,416 z m -231,997 q 0,-362 226,-565 227,-203 636,-203 407,0 636,203 230,203 230,565 0,363 -230,566 -229,203 -636,203 -409,0 -636,-203 -226,-203 -226,-566 z"
                 transform="scale(0.015625)" />
            </defs>
            <use
               xlink:href="#DejaVuSans-4d"
               id="use84" />
            <use
               xlink:href="#DejaVuSans-54"
               x="86.279297"
               id="use85" />
            <use
               xlink:href="#DejaVuSans-48"
               x="147.36328"
               id="use86" />
            <use
               xlink:href="#DejaVuSans-32"
               x="222.55859"
               id="use87" />
            <use
               xlink:href="#DejaVuSans-30"
               x="286.18164"
               id="use88" />
            <use
               xlink:href="#DejaVuSans-30"
               x="349.80469"
               id="use89" />
            <use
               xlink:href="#DejaVuSans-38"
               x="413.42773"
               id="use90" />
          </g>
        </g>
      </g>
      <g
         id="text_10">
        <g
           clip-path="url(#pe4dd20627e)"
           id="g98">
          <!-- MTH2009 -->
          <g
             transform="matrix(0.07,0,0,-0.07,366.45706,210.90685)"
             id="g97">
            <defs
               id="defs91">
              <path
                 id="DejaVuSans-39"
                 d="m 703,97 v 575 q 238,-113 481,-172 244,-59 479,-59 625,0 954,420 330,420 377,1277 -181,-269 -460,-413 -278,-144 -615,-144 -700,0 -1108,423 -408,424 -408,1159 0,718 425,1152 425,435 1131,435 810,0 1236,-621 427,-620 427,-1801 Q 3622,1225 3098,567 2575,-91 1691,-91 1453,-91 1209,-44 966,3 703,97 Z m 1256,1978 q 425,0 673,290 249,291 249,798 0,503 -249,795 -248,292 -673,292 -425,0 -673,-292 -248,-292 -248,-795 0,-507 248,-798 248,-290 673,-290 z"
                 transform="scale(0.015625)" />
            </defs>
            <use
               xlink:href="#DejaVuSans-4d"
               id="use91" />
            <use
               xlink:href="#DejaVuSans-54"
               x="86.279297"
               id="use92" />
            <use
               xlink:href="#DejaVuSans-48"
               x="147.36328"
               id="use93" />
            <use
               xlink:href="#DejaVuSans-32"
               x="222.55859"
               id="use94" />
            <use
               xlink:href="#DejaVuSans-30"
               x="286.18164"
               id="use95" />
            <use
               xlink:href="#DejaVuSans-30"
               x="349.80469"
               id="use96" />
            <use
               xlink:href="#DejaVuSans-39"
               x="413.42773"
               id="use97" />
          </g>
        </g>
      </g>
      <g
         id="text_11">
        <g
           clip-path="url(#pe4dd20627e)"
           id="g105">
          <!-- MTH2010 -->
          <g
             transform="matrix(0.07,0,0,-0.07,182.78349,267.91077)"
             id="g104">
            <use
               xlink:href="#DejaVuSans-4d"
               id="use98" />
            <use
               xlink:href="#DejaVuSans-54"
               x="86.279297"
               id="use99" />
            <use
               xlink:href="#DejaVuSans-48"
               x="147.36328"
               id="use100" />
            <use
               xlink:href="#DejaVuSans-32"
               x="222.55859"
               id="use101" />
            <use
               xlink:href="#DejaVuSans-30"
               x="286.18164"
               id="use102" />
            <use
               xlink:href="#DejaVuSans-31"
               x="349.80469"
               id="use103" />
            <use
               xlink:href="#DejaVuSans-30"
               x="413.42773"
               id="use104" />
          </g>
        </g>
      </g>
      <g
         id="text_12">
        <g
           clip-path="url(#pe4dd20627e)"
           id="g112">
          <!-- MTH2004 -->
          <g
             transform="matrix(0.07,0,0,-0.07,104.14566,97.485363)"
             id="g111">
            <use
               xlink:href="#DejaVuSans-4d"
               id="use105" />
            <use
               xlink:href="#DejaVuSans-54"
               x="86.279297"
               id="use106" />
            <use
               xlink:href="#DejaVuSans-48"
               x="147.36328"
               id="use107" />
            <use
               xlink:href="#DejaVuSans-32"
               x="222.55859"
               id="use108" />
            <use
               xlink:href="#DejaVuSans-30"
               x="286.18164"
               id="use109" />
            <use
               xlink:href="#DejaVuSans-30"
               x="349.80469"
               id="use110" />
            <use
               xlink:href="#DejaVuSans-34"
               x="413.42773"
               id="use111" />
          </g>
        </g>
      </g>
      <g
         id="text_13">
        <g
           clip-path="url(#pe4dd20627e)"
           id="g119">
          <!-- MTH1003 -->
          <g
             transform="matrix(0.07,0,0,-0.07,333.34514,105.30338)"
             id="g118">
            <use
               xlink:href="#DejaVuSans-4d"
               id="use112" />
            <use
               xlink:href="#DejaVuSans-54"
               x="86.279297"
               id="use113" />
            <use
               xlink:href="#DejaVuSans-48"
               x="147.36328"
               id="use114" />
            <use
               xlink:href="#DejaVuSans-31"
               x="222.55859"
               id="use115" />
            <use
               xlink:href="#DejaVuSans-30"
               x="286.18164"
               id="use116" />
            <use
               xlink:href="#DejaVuSans-30"
               x="349.80469"
               id="use117" />
            <use
               xlink:href="#DejaVuSans-33"
               x="413.42773"
               id="use118" />
          </g>
        </g>
      </g>
      <g
         id="text_14">
        <g
           clip-path="url(#pe4dd20627e)"
           id="g126">
          <!-- MTH1002 -->
          <g
             transform="matrix(0.07,0,0,-0.07,147.74517,124.17001)"
             id="g125">
            <use
               xlink:href="#DejaVuSans-4d"
               id="use119" />
            <use
               xlink:href="#DejaVuSans-54"
               x="86.279297"
               id="use120" />
            <use
               xlink:href="#DejaVuSans-48"
               x="147.36328"
               id="use121" />
            <use
               xlink:href="#DejaVuSans-31"
               x="222.55859"
               id="use122" />
            <use
               xlink:href="#DejaVuSans-30"
               x="286.18164"
               id="use123" />
            <use
               xlink:href="#DejaVuSans-30"
               x="349.80469"
               id="use124" />
            <use
               xlink:href="#DejaVuSans-32"
               x="413.42773"
               id="use125" />
          </g>
        </g>
      </g>
      <g
         id="text_15">
        <g
           clip-path="url(#pe4dd20627e)"
           id="g133">
          <!-- MTH3019 -->
          <g
             transform="matrix(0.07,0,0,-0.07,226.61364,211.39771)"
             id="g132">
            <use
               xlink:href="#DejaVuSans-4d"
               id="use126" />
            <use
               xlink:href="#DejaVuSans-54"
               x="86.279297"
               id="use127" />
            <use
               xlink:href="#DejaVuSans-48"
               x="147.36328"
               id="use128" />
            <use
               xlink:href="#DejaVuSans-33"
               x="222.55859"
               id="use129" />
            <use
               xlink:href="#DejaVuSans-30"
               x="286.18164"
               id="use130" />
            <use
               xlink:href="#DejaVuSans-31"
               x="349.80469"
               id="use131" />
            <use
               xlink:href="#DejaVuSans-39"
               x="413.42773"
               id="use132" />
          </g>
        </g>
      </g>
      <g
         id="matplotlib.axis_1" />
      <g
         id="matplotlib.axis_2" />
    </g>
  </g>
  <defs
     id="defs133">
    <clipPath
       id="pe4dd20627e">
      <rect
         x="57.599998"
         y="41.472"
         width="357.12"
         height="266.112"
         id="rect133" />
    </clipPath>
  </defs>
</svg>
