<?xml version="1.0" encoding="utf-8" standalone="no"?>
<!DOCTYPE svg PUBLIC "-//W3C//DTD SVG 1.1//EN"
  "http://www.w3.org/Graphics/SVG/1.1/DTD/svg11.dtd">
<svg xmlns:xlink="http://www.w3.org/1999/xlink" width="460.8pt" height="345.6pt" viewBox="0 0 460.8 345.6" xmlns="http://www.w3.org/2000/svg" version="1.1">
 <metadata>
  <rdf:RDF xmlns:dc="http://purl.org/dc/elements/1.1/" xmlns:cc="http://creativecommons.org/ns#" xmlns:rdf="http://www.w3.org/1999/02/22-rdf-syntax-ns#">
   <cc:Work>
    <dc:type rdf:resource="http://purl.org/dc/dcmitype/StillImage"/>
    <dc:date>2024-05-02T14:47:51.481280</dc:date>
    <dc:format>image/svg+xml</dc:format>
    <dc:creator>
     <cc:Agent>
      <dc:title>Matplotlib v3.8.3, https://matplotlib.org/</dc:title>
     </cc:Agent>
    </dc:creator>
   </cc:Work>
  </rdf:RDF>
 </metadata>
 <defs>
  <style type="text/css">*{stroke-linejoin: round; stroke-linecap: butt}</style>
 </defs>
 <g id="figure_1">
  <g id="patch_1">
   <path d="M 0 345.6 
L 460.8 345.6 
L 460.8 0 
L 0 0 
L 0 345.6 
z
" style="fill: none"/>
  </g>
  <g id="axes_1">
   <g id="patch_2">
    <path d="M 57.6 307.584 
L 414.72 307.584 
L 414.72 41.472 
L 57.6 41.472 
L 57.6 307.584 
z
" style="fill: none"/>
   </g>
   <g id="EdgeCollection_1">
    <path d="M 174.451012 208.23339 
L 127.752415 180.785524 
L 174.451012 208.23339 
L 175.211092 206.940224 
L 177.037345 209.753549 
L 173.690933 209.526556 
L 174.451012 208.23339 
" clip-path="url(#pa3f5c26a37)" style="stroke: #000000; stroke-width: 1.5"/>
    <path d="M 174.758097 181.459011 
L 180.302715 207.397609 
L 174.758097 181.459011 
L 173.291236 181.772567 
L 174.130987 178.525288 
L 176.224959 181.145456 
L 174.758097 181.459011 
" clip-path="url(#pa3f5c26a37)" style="fill: #0000ff; stroke: #0000ff; stroke-width: 1.5"/>
    <path d="M 146.595119 241.581492 
L 177.524907 215.509683 
L 146.595119 241.581492 
L 147.56188 242.72839 
L 144.301324 243.515013 
L 145.628359 240.434594 
L 146.595119 241.581492 
" clip-path="url(#pa3f5c26a37)" style="fill: #0000ff; stroke: #0000ff; stroke-width: 1.5"/>
    <path d="M 215.384437 244.296759 
L 184.990222 215.712565 
L 215.384437 244.296759 
L 216.412062 243.204062 
L 217.569831 246.35201 
L 214.356812 245.389456 
L 215.384437 244.296759 
" clip-path="url(#pa3f5c26a37)" style="fill: #0000ff; stroke: #0000ff; stroke-width: 1.5"/>
    <path d="M 180.621028 252.183266 
L 181.256819 217.286318 
L 180.621028 252.183266 
L 182.120779 252.21059 
L 180.56638 255.182768 
L 179.121277 252.155942 
L 180.621028 252.183266 
" clip-path="url(#pa3f5c26a37)" style="fill: #0000ff; stroke: #0000ff; stroke-width: 1.5"/>
    <path d="M 129.086991 216.602971 
L 176.364862 212.698658 
L 129.086991 216.602971 
L 129.210444 218.097882 
L 126.097168 216.849878 
L 128.963538 215.10806 
L 129.086991 216.602971 
" clip-path="url(#pa3f5c26a37)" style="fill: #0000ff; stroke: #0000ff; stroke-width: 1.5"/>
    <path d="M 289.207062 127.191436 
L 267.623136 92.593556 
L 289.207062 127.191436 
L 290.479716 126.397489 
L 290.794955 129.736745 
L 287.934408 127.985383 
L 289.207062 127.191436 
" clip-path="url(#pa3f5c26a37)" style="stroke: #000000; stroke-width: 1.5"/>
    <path d="M 258.287223 83.96371 
L 233.572593 67.753117 
L 258.287223 83.96371 
L 259.109911 82.709443 
L 260.795757 85.609085 
L 257.464536 85.217977 
L 258.287223 83.96371 
" clip-path="url(#pa3f5c26a37)" style="stroke: #000000; stroke-width: 1.5"/>
    <path d="M 301.334584 135.282134 
L 342.085439 142.010366 
L 301.334584 135.282134 
L 301.090232 136.762097 
L 298.374657 134.793431 
L 301.578935 133.80217 
L 301.334584 135.282134 
" clip-path="url(#pa3f5c26a37)" style="stroke: #000000; stroke-width: 1.5"/>
    <path d="M 117.178257 173.275253 
L 92.950685 154.025523 
L 117.178257 173.275253 
L 118.111383 172.100827 
L 119.527108 175.141505 
L 116.245131 174.449679 
L 117.178257 173.275253 
" clip-path="url(#pa3f5c26a37)" style="stroke: #000000; stroke-width: 1.5"/>
    <path d="M 286.631283 138.176746 
L 244.655907 164.050598 
L 286.631283 138.176746 
L 285.844192 136.899841 
L 289.185094 136.602563 
L 287.418374 139.453651 
L 286.631283 138.176746 
" clip-path="url(#pa3f5c26a37)" style="stroke: #000000; stroke-width: 1.5"/>
    <path d="M 187.679108 207.396771 
L 236.442551 169.730722 
L 187.679108 207.396771 
L 188.596054 208.583872 
L 185.304905 209.230662 
L 186.762163 206.209669 
L 187.679108 207.396771 
" clip-path="url(#pa3f5c26a37)" style="stroke: #000000; stroke-width: 1.5"/>
    <path d="M 243.207647 159.183267 
L 252.557197 134.242056 
L 243.207647 159.183267 
L 244.612204 159.709784 
L 242.154613 161.99238 
L 241.803091 158.65675 
L 243.207647 159.183267 
" clip-path="url(#pa3f5c26a37)" style="stroke: #000000; stroke-width: 1.5"/>
    <path d="M 296.528277 111.455533 
L 258.907503 127.589493 
L 296.528277 111.455533 
L 295.937065 110.076959 
L 299.285426 110.273109 
L 297.119489 112.834108 
L 296.528277 111.455533 
" clip-path="url(#pa3f5c26a37)" style="stroke: #000000; stroke-width: 1.5"/>
    <path d="M 296.454478 126.568012 
L 301.997529 112.934221 
L 296.454478 126.568012 
L 297.844024 127.132956 
L 295.32459 129.347105 
L 295.064932 126.003068 
L 296.454478 126.568012 
" clip-path="url(#pa3f5c26a37)" style="stroke: #000000; stroke-width: 1.5"/>
    <path d="M 189.302868 213.134778 
L 233.882096 217.884856 
L 189.302868 213.134778 
L 189.143937 214.626335 
L 186.319754 212.816917 
L 189.461798 211.643222 
L 189.302868 213.134778 
" clip-path="url(#pa3f5c26a37)" style="stroke: #000000; stroke-width: 1.5"/>
   </g>
   <g id="VertexCollection_1">
    <path d="M 383.284067 199.821558 
C 384.610082 199.821558 385.881966 199.294727 386.819601 198.357092 
C 387.757235 197.419457 388.284067 196.147574 388.284067 194.821558 
C 388.284067 193.495543 387.757235 192.223659 386.819601 191.286024 
C 385.881966 190.34839 384.610082 189.821558 383.284067 189.821558 
C 381.958051 189.821558 380.686168 190.34839 379.748533 191.286024 
C 378.810898 192.223659 378.284067 193.495543 378.284067 194.821558 
C 378.284067 196.147574 378.810898 197.419457 379.748533 198.357092 
C 380.686168 199.294727 381.958051 199.821558 383.284067 199.821558 
z
" clip-path="url(#pa3f5c26a37)"/>
    <path d="M 123.441861 183.251925 
C 124.767876 183.251925 126.03976 182.725094 126.977395 181.787459 
C 127.915029 180.849825 128.441861 179.577941 128.441861 178.251925 
C 128.441861 176.92591 127.915029 175.654026 126.977395 174.716392 
C 126.03976 173.778757 124.767876 173.251925 123.441861 173.251925 
C 122.115845 173.251925 120.843961 173.778757 119.906327 174.716392 
C 118.968692 175.654026 118.441861 176.92591 118.441861 178.251925 
C 118.441861 179.577941 118.968692 180.849825 119.906327 181.787459 
C 120.843961 182.725094 122.115845 183.251925 123.441861 183.251925 
z
" clip-path="url(#pa3f5c26a37)"/>
    <path d="M 181.347899 217.287148 
C 182.673915 217.287148 183.945799 216.760316 184.883433 215.822682 
C 185.821068 214.885047 186.347899 213.613163 186.347899 212.287148 
C 186.347899 210.961132 185.821068 209.689248 184.883433 208.751614 
C 183.945799 207.813979 182.673915 207.287148 181.347899 207.287148 
C 180.021884 207.287148 178.75 207.813979 177.812365 208.751614 
C 176.874731 209.689248 176.347899 210.961132 176.347899 212.287148 
C 176.347899 213.613163 176.874731 214.885047 177.812365 215.822682 
C 178.75 216.760316 180.021884 217.287148 181.347899 217.287148 
z
" clip-path="url(#pa3f5c26a37)"/>
    <path d="M 299.272896 289.045174 
C 300.598912 289.045174 301.870795 288.518342 302.80843 287.580708 
C 303.746064 286.643073 304.272896 285.371189 304.272896 284.045174 
C 304.272896 282.719158 303.746064 281.447275 302.80843 280.50964 
C 301.870795 279.572005 300.598912 279.045174 299.272896 279.045174 
C 297.946881 279.045174 296.674997 279.572005 295.737362 280.50964 
C 294.799728 281.447275 294.272896 282.719158 294.272896 284.045174 
C 294.272896 285.371189 294.799728 286.643073 295.737362 287.580708 
C 296.674997 288.518342 297.946881 289.045174 299.272896 289.045174 
z
" clip-path="url(#pa3f5c26a37)"/>
    <path d="M 132.515723 90.687779 
C 133.841738 90.687779 135.113622 90.160947 136.051257 89.223312 
C 136.988891 88.285678 137.515723 87.013794 137.515723 85.687779 
C 137.515723 84.361763 136.988891 83.089879 136.051257 82.152245 
C 135.113622 81.21461 133.841738 80.687779 132.515723 80.687779 
C 131.189707 80.687779 129.917824 81.21461 128.980189 82.152245 
C 128.042555 83.089879 127.515723 84.361763 127.515723 85.687779 
C 127.515723 87.013794 128.042555 88.285678 128.980189 89.223312 
C 129.917824 90.160947 131.189707 90.687779 132.515723 90.687779 
z
" clip-path="url(#pa3f5c26a37)"/>
    <path d="M 351.271493 247.172098 
C 352.597508 247.172098 353.869392 246.645267 354.807027 245.707632 
C 355.744661 244.769998 356.271493 243.498114 356.271493 242.172098 
C 356.271493 240.846083 355.744661 239.574199 354.807027 238.636564 
C 353.869392 237.69893 352.597508 237.172098 351.271493 237.172098 
C 349.945477 237.172098 348.673593 237.69893 347.735959 238.636564 
C 346.798324 239.574199 346.271493 240.846083 346.271493 242.172098 
C 346.271493 243.498114 346.798324 244.769998 347.735959 245.707632 
C 348.673593 246.645267 349.945477 247.172098 351.271493 247.172098 
z
" clip-path="url(#pa3f5c26a37)"/>
    <path d="M 264.976647 93.351376 
C 266.302663 93.351376 267.574547 92.824544 268.512181 91.88691 
C 269.449816 90.949275 269.976647 89.677391 269.976647 88.351376 
C 269.976647 87.02536 269.449816 85.753477 268.512181 84.815842 
C 267.574547 83.878207 266.302663 83.351376 264.976647 83.351376 
C 263.650632 83.351376 262.378748 83.878207 261.441113 84.815842 
C 260.503479 85.753477 259.976647 87.02536 259.976647 88.351376 
C 259.976647 89.677391 260.503479 90.949275 261.441113 91.88691 
C 262.378748 92.824544 263.650632 93.351376 264.976647 93.351376 
z
" clip-path="url(#pa3f5c26a37)"/>
    <path d="M 229.391703 70.010826 
C 230.717718 70.010826 231.989602 69.483995 232.927237 68.54636 
C 233.864871 67.608725 234.391703 66.336842 234.391703 65.010826 
C 234.391703 63.684811 233.864871 62.412927 232.927237 61.475292 
C 231.989602 60.537658 230.717718 60.010826 229.391703 60.010826 
C 228.065687 60.010826 226.793804 60.537658 225.856169 61.475292 
C 224.918534 62.412927 224.391703 63.684811 224.391703 65.010826 
C 224.391703 66.336842 224.918534 67.608725 225.856169 68.54636 
C 226.793804 69.483995 228.065687 70.010826 229.391703 70.010826 
z
" clip-path="url(#pa3f5c26a37)"/>
    <path d="M 293.441445 138.978925 
C 294.76746 138.978925 296.039344 138.452094 296.976978 137.514459 
C 297.914613 136.576824 298.441445 135.304941 298.441445 133.978925 
C 298.441445 132.65291 297.914613 131.381026 296.976978 130.443391 
C 296.039344 129.505757 294.76746 128.978925 293.441445 128.978925 
C 292.115429 128.978925 290.843545 129.505757 289.905911 130.443391 
C 288.968276 131.381026 288.441445 132.65291 288.441445 133.978925 
C 288.441445 135.304941 288.968276 136.576824 289.905911 137.514459 
C 290.843545 138.452094 292.115429 138.978925 293.441445 138.978925 
z
" clip-path="url(#pa3f5c26a37)"/>
    <path d="M 347.018651 147.824872 
C 348.344667 147.824872 349.616551 147.29804 350.554185 146.360406 
C 351.49182 145.422771 352.018651 144.150887 352.018651 142.824872 
C 352.018651 141.498856 351.49182 140.226972 350.554185 139.289338 
C 349.616551 138.351703 348.344667 137.824872 347.018651 137.824872 
C 345.692636 137.824872 344.420752 138.351703 343.483117 139.289338 
C 342.545483 140.226972 342.018651 141.498856 342.018651 142.824872 
C 342.018651 144.150887 342.545483 145.422771 343.483117 146.360406 
C 344.420752 147.29804 345.692636 147.824872 347.018651 147.824872 
z
" clip-path="url(#pa3f5c26a37)"/>
    <path d="M 89.035933 155.915102 
C 90.361949 155.915102 91.633832 155.388271 92.571467 154.450636 
C 93.509102 153.513002 94.035933 152.241118 94.035933 150.915102 
C 94.035933 149.589087 93.509102 148.317203 92.571467 147.379568 
C 91.633832 146.441934 90.361949 145.915102 89.035933 145.915102 
C 87.709918 145.915102 86.438034 146.441934 85.500399 147.379568 
C 84.562765 148.317203 84.035933 149.589087 84.035933 150.915102 
C 84.035933 152.241118 84.562765 153.513002 85.500399 154.450636 
C 86.438034 155.388271 87.709918 155.915102 89.035933 155.915102 
z
" clip-path="url(#pa3f5c26a37)"/>
    <path d="M 240.399556 171.674236 
C 241.725572 171.674236 242.997456 171.147405 243.93509 170.20977 
C 244.872725 169.272136 245.399556 168.000252 245.399556 166.674236 
C 245.399556 165.348221 244.872725 164.076337 243.93509 163.138702 
C 242.997456 162.201068 241.725572 161.674236 240.399556 161.674236 
C 239.073541 161.674236 237.801657 162.201068 236.864022 163.138702 
C 235.926388 164.076337 235.399556 165.348221 235.399556 166.674236 
C 235.399556 168.000252 235.926388 169.272136 236.864022 170.20977 
C 237.801657 171.147405 239.073541 171.674236 240.399556 171.674236 
z
" clip-path="url(#pa3f5c26a37)"/>
    <path d="M 254.312254 134.5602 
C 255.63827 134.5602 256.910154 134.033369 257.847788 133.095734 
C 258.785423 132.1581 259.312254 130.886216 259.312254 129.5602 
C 259.312254 128.234185 258.785423 126.962301 257.847788 126.024666 
C 256.910154 125.087032 255.63827 124.5602 254.312254 124.5602 
C 252.986239 124.5602 251.714355 125.087032 250.77672 126.024666 
C 249.839086 126.962301 249.312254 128.234185 249.312254 129.5602 
C 249.312254 130.886216 249.839086 132.1581 250.77672 133.095734 
C 251.714355 134.033369 252.986239 134.5602 254.312254 134.5602 
z
" clip-path="url(#pa3f5c26a37)"/>
    <path d="M 303.880675 113.302401 
C 305.20669 113.302401 306.478574 112.775569 307.416209 111.837935 
C 308.353843 110.9003 308.880675 109.628416 308.880675 108.302401 
C 308.880675 106.976385 308.353843 105.704501 307.416209 104.766867 
C 306.478574 103.829232 305.20669 103.302401 303.880675 103.302401 
C 302.554659 103.302401 301.282776 103.829232 300.345141 104.766867 
C 299.407506 105.704501 298.880675 106.976385 298.880675 108.302401 
C 298.880675 109.628416 299.407506 110.9003 300.345141 111.837935 
C 301.282776 112.775569 302.554659 113.302401 303.880675 113.302401 
z
" clip-path="url(#pa3f5c26a37)"/>
    <path d="M 238.853951 223.414625 
C 240.179967 223.414625 241.451851 222.887794 242.389485 221.950159 
C 243.32712 221.012525 243.853951 219.740641 243.853951 218.414625 
C 243.853951 217.08861 243.32712 215.816726 242.389485 214.879091 
C 241.451851 213.941457 240.179967 213.414625 238.853951 213.414625 
C 237.527936 213.414625 236.256052 213.941457 235.318417 214.879091 
C 234.380783 215.816726 233.853951 217.08861 233.853951 218.414625 
C 233.853951 219.740641 234.380783 221.012525 235.318417 221.950159 
C 236.256052 222.887794 237.527936 223.414625 238.853951 223.414625 
z
" clip-path="url(#pa3f5c26a37)"/>
    <path d="M 173.085802 178.635749 
C 174.411818 178.635749 175.683701 178.108918 176.621336 177.171283 
C 177.55897 176.233649 178.085802 174.961765 178.085802 173.635749 
C 178.085802 172.309734 177.55897 171.03785 176.621336 170.100215 
C 175.683701 169.162581 174.411818 168.635749 173.085802 168.635749 
C 171.759787 168.635749 170.487903 169.162581 169.550268 170.100215 
C 168.612634 171.03785 168.085802 172.309734 168.085802 173.635749 
C 168.085802 174.961765 168.612634 176.233649 169.550268 177.171283 
C 170.487903 178.108918 171.759787 178.635749 173.085802 178.635749 
z
" clip-path="url(#pa3f5c26a37)" style="fill: #0000ff"/>
    <path d="M 140.478332 251.737548 
C 141.804347 251.737548 143.076231 251.210716 144.013866 250.273082 
C 144.9515 249.335447 145.478332 248.063563 145.478332 246.737548 
C 145.478332 245.411532 144.9515 244.139648 144.013866 243.202014 
C 143.076231 242.264379 141.804347 241.737548 140.478332 241.737548 
C 139.152316 241.737548 137.880433 242.264379 136.942798 243.202014 
C 136.005163 244.139648 135.478332 245.411532 135.478332 246.737548 
C 135.478332 248.063563 136.005163 249.335447 136.942798 250.273082 
C 137.880433 251.210716 139.152316 251.737548 140.478332 251.737548 
z
" clip-path="url(#pa3f5c26a37)" style="fill: #0000ff"/>
    <path d="M 221.212154 254.777427 
C 222.538169 254.777427 223.810053 254.250595 224.747688 253.312961 
C 225.685322 252.375326 226.212154 251.103442 226.212154 249.777427 
C 226.212154 248.451411 225.685322 247.179528 224.747688 246.241893 
C 223.810053 245.304258 222.538169 244.777427 221.212154 244.777427 
C 219.886138 244.777427 218.614254 245.304258 217.67662 246.241893 
C 216.738985 247.179528 216.212154 248.451411 216.212154 249.777427 
C 216.212154 251.103442 216.738985 252.375326 217.67662 253.312961 
C 218.614254 254.250595 219.886138 254.777427 221.212154 254.777427 
z
" clip-path="url(#pa3f5c26a37)" style="fill: #0000ff"/>
    <path d="M 180.4753 265.181939 
C 181.801315 265.181939 183.073199 264.655107 184.010834 263.717472 
C 184.948468 262.779838 185.4753 261.507954 185.4753 260.181939 
C 185.4753 258.855923 184.948468 257.584039 184.010834 256.646405 
C 183.073199 255.70877 181.801315 255.181939 180.4753 255.181939 
C 179.149284 255.181939 177.8774 255.70877 176.939766 256.646405 
C 176.002131 257.584039 175.4753 258.855923 175.4753 260.181939 
C 175.4753 261.507954 176.002131 262.779838 176.939766 263.717472 
C 177.8774 264.655107 179.149284 265.181939 180.4753 265.181939 
z
" clip-path="url(#pa3f5c26a37)" style="fill: #0000ff"/>
    <path d="M 121.114131 222.261388 
C 122.440147 222.261388 123.712031 221.734556 124.649665 220.796922 
C 125.5873 219.859287 126.114131 218.587403 126.114131 217.261388 
C 126.114131 215.935372 125.5873 214.663489 124.649665 213.725854 
C 123.712031 212.788219 122.440147 212.261388 121.114131 212.261388 
C 119.788116 212.261388 118.516232 212.788219 117.578597 213.725854 
C 116.640963 214.663489 116.114131 215.935372 116.114131 217.261388 
C 116.114131 218.587403 116.640963 219.859287 117.578597 220.796922 
C 118.516232 221.734556 119.788116 222.261388 121.114131 222.261388 
z
" clip-path="url(#pa3f5c26a37)" style="fill: #0000ff"/>
   </g>
   <g id="text_1">
    <g clip-path="url(#pa3f5c26a37)">
     <!-- MTH1004 -->
     <g transform="translate(366.586879 206.753121) scale(0.07 -0.07)">
      <defs>
       <path id="DejaVuSans-4d" d="M 628 4666 
L 1569 4666 
L 2759 1491 
L 3956 4666 
L 4897 4666 
L 4897 0 
L 4281 0 
L 4281 4097 
L 3078 897 
L 2444 897 
L 1241 4097 
L 1241 0 
L 628 0 
L 628 4666 
z
" transform="scale(0.015625)"/>
       <path id="DejaVuSans-54" d="M -19 4666 
L 3928 4666 
L 3928 4134 
L 2272 4134 
L 2272 0 
L 1638 0 
L 1638 4134 
L -19 4134 
L -19 4666 
z
" transform="scale(0.015625)"/>
       <path id="DejaVuSans-48" d="M 628 4666 
L 1259 4666 
L 1259 2753 
L 3553 2753 
L 3553 4666 
L 4184 4666 
L 4184 0 
L 3553 0 
L 3553 2222 
L 1259 2222 
L 1259 0 
L 628 0 
L 628 4666 
z
" transform="scale(0.015625)"/>
       <path id="DejaVuSans-31" d="M 794 531 
L 1825 531 
L 1825 4091 
L 703 3866 
L 703 4441 
L 1819 4666 
L 2450 4666 
L 2450 531 
L 3481 531 
L 3481 0 
L 794 0 
L 794 531 
z
" transform="scale(0.015625)"/>
       <path id="DejaVuSans-30" d="M 2034 4250 
Q 1547 4250 1301 3770 
Q 1056 3291 1056 2328 
Q 1056 1369 1301 889 
Q 1547 409 2034 409 
Q 2525 409 2770 889 
Q 3016 1369 3016 2328 
Q 3016 3291 2770 3770 
Q 2525 4250 2034 4250 
z
M 2034 4750 
Q 2819 4750 3233 4129 
Q 3647 3509 3647 2328 
Q 3647 1150 3233 529 
Q 2819 -91 2034 -91 
Q 1250 -91 836 529 
Q 422 1150 422 2328 
Q 422 3509 836 4129 
Q 1250 4750 2034 4750 
z
" transform="scale(0.015625)"/>
       <path id="DejaVuSans-34" d="M 2419 4116 
L 825 1625 
L 2419 1625 
L 2419 4116 
z
M 2253 4666 
L 3047 4666 
L 3047 1625 
L 3713 1625 
L 3713 1100 
L 3047 1100 
L 3047 0 
L 2419 0 
L 2419 1100 
L 313 1100 
L 313 1709 
L 2253 4666 
z
" transform="scale(0.015625)"/>
      </defs>
      <use xlink:href="#DejaVuSans-4d"/>
      <use xlink:href="#DejaVuSans-54" x="86.279297"/>
      <use xlink:href="#DejaVuSans-48" x="147.363281"/>
      <use xlink:href="#DejaVuSans-31" x="222.558594"/>
      <use xlink:href="#DejaVuSans-30" x="286.181641"/>
      <use xlink:href="#DejaVuSans-30" x="349.804688"/>
      <use xlink:href="#DejaVuSans-34" x="413.427734"/>
     </g>
    </g>
   </g>
   <g id="text_2">
    <g clip-path="url(#pa3f5c26a37)">
     <!-- MTH2003 -->
     <g transform="translate(106.744673 190.183488) scale(0.07 -0.07)">
      <defs>
       <path id="DejaVuSans-32" d="M 1228 531 
L 3431 531 
L 3431 0 
L 469 0 
L 469 531 
Q 828 903 1448 1529 
Q 2069 2156 2228 2338 
Q 2531 2678 2651 2914 
Q 2772 3150 2772 3378 
Q 2772 3750 2511 3984 
Q 2250 4219 1831 4219 
Q 1534 4219 1204 4116 
Q 875 4013 500 3803 
L 500 4441 
Q 881 4594 1212 4672 
Q 1544 4750 1819 4750 
Q 2544 4750 2975 4387 
Q 3406 4025 3406 3419 
Q 3406 3131 3298 2873 
Q 3191 2616 2906 2266 
Q 2828 2175 2409 1742 
Q 1991 1309 1228 531 
z
" transform="scale(0.015625)"/>
       <path id="DejaVuSans-33" d="M 2597 2516 
Q 3050 2419 3304 2112 
Q 3559 1806 3559 1356 
Q 3559 666 3084 287 
Q 2609 -91 1734 -91 
Q 1441 -91 1130 -33 
Q 819 25 488 141 
L 488 750 
Q 750 597 1062 519 
Q 1375 441 1716 441 
Q 2309 441 2620 675 
Q 2931 909 2931 1356 
Q 2931 1769 2642 2001 
Q 2353 2234 1838 2234 
L 1294 2234 
L 1294 2753 
L 1863 2753 
Q 2328 2753 2575 2939 
Q 2822 3125 2822 3475 
Q 2822 3834 2567 4026 
Q 2313 4219 1838 4219 
Q 1578 4219 1281 4162 
Q 984 4106 628 3988 
L 628 4550 
Q 988 4650 1302 4700 
Q 1616 4750 1894 4750 
Q 2613 4750 3031 4423 
Q 3450 4097 3450 3541 
Q 3450 3153 3228 2886 
Q 3006 2619 2597 2516 
z
" transform="scale(0.015625)"/>
      </defs>
      <use xlink:href="#DejaVuSans-4d"/>
      <use xlink:href="#DejaVuSans-54" x="86.279297"/>
      <use xlink:href="#DejaVuSans-48" x="147.363281"/>
      <use xlink:href="#DejaVuSans-32" x="222.558594"/>
      <use xlink:href="#DejaVuSans-30" x="286.181641"/>
      <use xlink:href="#DejaVuSans-30" x="349.804688"/>
      <use xlink:href="#DejaVuSans-33" x="413.427734"/>
     </g>
    </g>
   </g>
   <g id="text_3">
    <g clip-path="url(#pa3f5c26a37)">
     <!-- MTH1002 -->
     <g transform="translate(164.650712 224.21871) scale(0.07 -0.07)">
      <use xlink:href="#DejaVuSans-4d"/>
      <use xlink:href="#DejaVuSans-54" x="86.279297"/>
      <use xlink:href="#DejaVuSans-48" x="147.363281"/>
      <use xlink:href="#DejaVuSans-31" x="222.558594"/>
      <use xlink:href="#DejaVuSans-30" x="286.181641"/>
      <use xlink:href="#DejaVuSans-30" x="349.804688"/>
      <use xlink:href="#DejaVuSans-32" x="413.427734"/>
     </g>
    </g>
   </g>
   <g id="text_4">
    <g clip-path="url(#pa3f5c26a37)">
     <!-- MTH2009 -->
     <g transform="translate(282.575709 295.976736) scale(0.07 -0.07)">
      <defs>
       <path id="DejaVuSans-39" d="M 703 97 
L 703 672 
Q 941 559 1184 500 
Q 1428 441 1663 441 
Q 2288 441 2617 861 
Q 2947 1281 2994 2138 
Q 2813 1869 2534 1725 
Q 2256 1581 1919 1581 
Q 1219 1581 811 2004 
Q 403 2428 403 3163 
Q 403 3881 828 4315 
Q 1253 4750 1959 4750 
Q 2769 4750 3195 4129 
Q 3622 3509 3622 2328 
Q 3622 1225 3098 567 
Q 2575 -91 1691 -91 
Q 1453 -91 1209 -44 
Q 966 3 703 97 
z
M 1959 2075 
Q 2384 2075 2632 2365 
Q 2881 2656 2881 3163 
Q 2881 3666 2632 3958 
Q 2384 4250 1959 4250 
Q 1534 4250 1286 3958 
Q 1038 3666 1038 3163 
Q 1038 2656 1286 2365 
Q 1534 2075 1959 2075 
z
" transform="scale(0.015625)"/>
      </defs>
      <use xlink:href="#DejaVuSans-4d"/>
      <use xlink:href="#DejaVuSans-54" x="86.279297"/>
      <use xlink:href="#DejaVuSans-48" x="147.363281"/>
      <use xlink:href="#DejaVuSans-32" x="222.558594"/>
      <use xlink:href="#DejaVuSans-30" x="286.181641"/>
      <use xlink:href="#DejaVuSans-30" x="349.804688"/>
      <use xlink:href="#DejaVuSans-39" x="413.427734"/>
     </g>
    </g>
   </g>
   <g id="text_5">
    <g clip-path="url(#pa3f5c26a37)">
     <!-- MTH1003 -->
     <g transform="translate(115.818535 97.619341) scale(0.07 -0.07)">
      <use xlink:href="#DejaVuSans-4d"/>
      <use xlink:href="#DejaVuSans-54" x="86.279297"/>
      <use xlink:href="#DejaVuSans-48" x="147.363281"/>
      <use xlink:href="#DejaVuSans-31" x="222.558594"/>
      <use xlink:href="#DejaVuSans-30" x="286.181641"/>
      <use xlink:href="#DejaVuSans-30" x="349.804688"/>
      <use xlink:href="#DejaVuSans-33" x="413.427734"/>
     </g>
    </g>
   </g>
   <g id="text_6">
    <g clip-path="url(#pa3f5c26a37)">
     <!-- MTH3035 -->
     <g transform="translate(334.574305 254.103661) scale(0.07 -0.07)">
      <defs>
       <path id="DejaVuSans-35" d="M 691 4666 
L 3169 4666 
L 3169 4134 
L 1269 4134 
L 1269 2991 
Q 1406 3038 1543 3061 
Q 1681 3084 1819 3084 
Q 2600 3084 3056 2656 
Q 3513 2228 3513 1497 
Q 3513 744 3044 326 
Q 2575 -91 1722 -91 
Q 1428 -91 1123 -41 
Q 819 9 494 109 
L 494 744 
Q 775 591 1075 516 
Q 1375 441 1709 441 
Q 2250 441 2565 725 
Q 2881 1009 2881 1497 
Q 2881 1984 2565 2268 
Q 2250 2553 1709 2553 
Q 1456 2553 1204 2497 
Q 953 2441 691 2322 
L 691 4666 
z
" transform="scale(0.015625)"/>
      </defs>
      <use xlink:href="#DejaVuSans-4d"/>
      <use xlink:href="#DejaVuSans-54" x="86.279297"/>
      <use xlink:href="#DejaVuSans-48" x="147.363281"/>
      <use xlink:href="#DejaVuSans-33" x="222.558594"/>
      <use xlink:href="#DejaVuSans-30" x="286.181641"/>
      <use xlink:href="#DejaVuSans-33" x="349.804688"/>
      <use xlink:href="#DejaVuSans-35" x="413.427734"/>
     </g>
    </g>
   </g>
   <g id="text_7">
    <g clip-path="url(#pa3f5c26a37)">
     <!-- MTH2010 -->
     <g transform="translate(248.27946 100.282938) scale(0.07 -0.07)">
      <use xlink:href="#DejaVuSans-4d"/>
      <use xlink:href="#DejaVuSans-54" x="86.279297"/>
      <use xlink:href="#DejaVuSans-48" x="147.363281"/>
      <use xlink:href="#DejaVuSans-32" x="222.558594"/>
      <use xlink:href="#DejaVuSans-30" x="286.181641"/>
      <use xlink:href="#DejaVuSans-31" x="349.804688"/>
      <use xlink:href="#DejaVuSans-30" x="413.427734"/>
     </g>
    </g>
   </g>
   <g id="text_8">
    <g clip-path="url(#pa3f5c26a37)">
     <!-- MTH3004 -->
     <g transform="translate(212.694515 76.942389) scale(0.07 -0.07)">
      <use xlink:href="#DejaVuSans-4d"/>
      <use xlink:href="#DejaVuSans-54" x="86.279297"/>
      <use xlink:href="#DejaVuSans-48" x="147.363281"/>
      <use xlink:href="#DejaVuSans-33" x="222.558594"/>
      <use xlink:href="#DejaVuSans-30" x="286.181641"/>
      <use xlink:href="#DejaVuSans-30" x="349.804688"/>
      <use xlink:href="#DejaVuSans-34" x="413.427734"/>
     </g>
    </g>
   </g>
   <g id="text_9">
    <g clip-path="url(#pa3f5c26a37)">
     <!-- MTH1001 -->
     <g transform="translate(276.744257 145.910488) scale(0.07 -0.07)">
      <use xlink:href="#DejaVuSans-4d"/>
      <use xlink:href="#DejaVuSans-54" x="86.279297"/>
      <use xlink:href="#DejaVuSans-48" x="147.363281"/>
      <use xlink:href="#DejaVuSans-31" x="222.558594"/>
      <use xlink:href="#DejaVuSans-30" x="286.181641"/>
      <use xlink:href="#DejaVuSans-30" x="349.804688"/>
      <use xlink:href="#DejaVuSans-31" x="413.427734"/>
     </g>
    </g>
   </g>
   <g id="text_10">
    <g clip-path="url(#pa3f5c26a37)">
     <!-- MTH3019 -->
     <g transform="translate(330.321464 154.756434) scale(0.07 -0.07)">
      <use xlink:href="#DejaVuSans-4d"/>
      <use xlink:href="#DejaVuSans-54" x="86.279297"/>
      <use xlink:href="#DejaVuSans-48" x="147.363281"/>
      <use xlink:href="#DejaVuSans-33" x="222.558594"/>
      <use xlink:href="#DejaVuSans-30" x="286.181641"/>
      <use xlink:href="#DejaVuSans-31" x="349.804688"/>
      <use xlink:href="#DejaVuSans-39" x="413.427734"/>
     </g>
    </g>
   </g>
   <g id="text_11">
    <g clip-path="url(#pa3f5c26a37)">
     <!-- MTH3042 -->
     <g transform="translate(72.338746 162.846665) scale(0.07 -0.07)">
      <use xlink:href="#DejaVuSans-4d"/>
      <use xlink:href="#DejaVuSans-54" x="86.279297"/>
      <use xlink:href="#DejaVuSans-48" x="147.363281"/>
      <use xlink:href="#DejaVuSans-33" x="222.558594"/>
      <use xlink:href="#DejaVuSans-30" x="286.181641"/>
      <use xlink:href="#DejaVuSans-34" x="349.804688"/>
      <use xlink:href="#DejaVuSans-32" x="413.427734"/>
     </g>
    </g>
   </g>
   <g id="text_12">
    <g clip-path="url(#pa3f5c26a37)">
     <!-- MTH2008 -->
     <g transform="translate(223.702369 178.605799) scale(0.07 -0.07)">
      <defs>
       <path id="DejaVuSans-38" d="M 2034 2216 
Q 1584 2216 1326 1975 
Q 1069 1734 1069 1313 
Q 1069 891 1326 650 
Q 1584 409 2034 409 
Q 2484 409 2743 651 
Q 3003 894 3003 1313 
Q 3003 1734 2745 1975 
Q 2488 2216 2034 2216 
z
M 1403 2484 
Q 997 2584 770 2862 
Q 544 3141 544 3541 
Q 544 4100 942 4425 
Q 1341 4750 2034 4750 
Q 2731 4750 3128 4425 
Q 3525 4100 3525 3541 
Q 3525 3141 3298 2862 
Q 3072 2584 2669 2484 
Q 3125 2378 3379 2068 
Q 3634 1759 3634 1313 
Q 3634 634 3220 271 
Q 2806 -91 2034 -91 
Q 1263 -91 848 271 
Q 434 634 434 1313 
Q 434 1759 690 2068 
Q 947 2378 1403 2484 
z
M 1172 3481 
Q 1172 3119 1398 2916 
Q 1625 2713 2034 2713 
Q 2441 2713 2670 2916 
Q 2900 3119 2900 3481 
Q 2900 3844 2670 4047 
Q 2441 4250 2034 4250 
Q 1625 4250 1398 4047 
Q 1172 3844 1172 3481 
z
" transform="scale(0.015625)"/>
      </defs>
      <use xlink:href="#DejaVuSans-4d"/>
      <use xlink:href="#DejaVuSans-54" x="86.279297"/>
      <use xlink:href="#DejaVuSans-48" x="147.363281"/>
      <use xlink:href="#DejaVuSans-32" x="222.558594"/>
      <use xlink:href="#DejaVuSans-30" x="286.181641"/>
      <use xlink:href="#DejaVuSans-30" x="349.804688"/>
      <use xlink:href="#DejaVuSans-38" x="413.427734"/>
     </g>
    </g>
   </g>
   <g id="text_13">
    <g clip-path="url(#pa3f5c26a37)">
     <!-- MTH3022 -->
     <g transform="translate(237.615067 141.491763) scale(0.07 -0.07)">
      <use xlink:href="#DejaVuSans-4d"/>
      <use xlink:href="#DejaVuSans-54" x="86.279297"/>
      <use xlink:href="#DejaVuSans-48" x="147.363281"/>
      <use xlink:href="#DejaVuSans-33" x="222.558594"/>
      <use xlink:href="#DejaVuSans-30" x="286.181641"/>
      <use xlink:href="#DejaVuSans-32" x="349.804688"/>
      <use xlink:href="#DejaVuSans-32" x="413.427734"/>
     </g>
    </g>
   </g>
   <g id="text_14">
    <g clip-path="url(#pa3f5c26a37)">
     <!-- MTH2011 -->
     <g transform="translate(287.183487 120.233963) scale(0.07 -0.07)">
      <use xlink:href="#DejaVuSans-4d"/>
      <use xlink:href="#DejaVuSans-54" x="86.279297"/>
      <use xlink:href="#DejaVuSans-48" x="147.363281"/>
      <use xlink:href="#DejaVuSans-32" x="222.558594"/>
      <use xlink:href="#DejaVuSans-30" x="286.181641"/>
      <use xlink:href="#DejaVuSans-31" x="349.804688"/>
      <use xlink:href="#DejaVuSans-31" x="413.427734"/>
     </g>
    </g>
   </g>
   <g id="text_15">
    <g clip-path="url(#pa3f5c26a37)">
     <!-- MTH2004 -->
     <g transform="translate(222.156764 230.346188) scale(0.07 -0.07)">
      <use xlink:href="#DejaVuSans-4d"/>
      <use xlink:href="#DejaVuSans-54" x="86.279297"/>
      <use xlink:href="#DejaVuSans-48" x="147.363281"/>
      <use xlink:href="#DejaVuSans-32" x="222.558594"/>
      <use xlink:href="#DejaVuSans-30" x="286.181641"/>
      <use xlink:href="#DejaVuSans-30" x="349.804688"/>
      <use xlink:href="#DejaVuSans-34" x="413.427734"/>
     </g>
    </g>
   </g>
   <g id="text_16">
    <g clip-path="url(#pa3f5c26a37)">
     <!-- 26A06 -->
     <g transform="translate(161.784083 185.567312) scale(0.07 -0.07)">
      <defs>
       <path id="DejaVuSans-36" d="M 2113 2584 
Q 1688 2584 1439 2293 
Q 1191 2003 1191 1497 
Q 1191 994 1439 701 
Q 1688 409 2113 409 
Q 2538 409 2786 701 
Q 3034 994 3034 1497 
Q 3034 2003 2786 2293 
Q 2538 2584 2113 2584 
z
M 3366 4563 
L 3366 3988 
Q 3128 4100 2886 4159 
Q 2644 4219 2406 4219 
Q 1781 4219 1451 3797 
Q 1122 3375 1075 2522 
Q 1259 2794 1537 2939 
Q 1816 3084 2150 3084 
Q 2853 3084 3261 2657 
Q 3669 2231 3669 1497 
Q 3669 778 3244 343 
Q 2819 -91 2113 -91 
Q 1303 -91 875 529 
Q 447 1150 447 2328 
Q 447 3434 972 4092 
Q 1497 4750 2381 4750 
Q 2619 4750 2861 4703 
Q 3103 4656 3366 4563 
z
" transform="scale(0.015625)"/>
       <path id="DejaVuSans-41" d="M 2188 4044 
L 1331 1722 
L 3047 1722 
L 2188 4044 
z
M 1831 4666 
L 2547 4666 
L 4325 0 
L 3669 0 
L 3244 1197 
L 1141 1197 
L 716 0 
L 50 0 
L 1831 4666 
z
" transform="scale(0.015625)"/>
      </defs>
      <use xlink:href="#DejaVuSans-32"/>
      <use xlink:href="#DejaVuSans-36" x="63.623047"/>
      <use xlink:href="#DejaVuSans-41" x="127.246094"/>
      <use xlink:href="#DejaVuSans-30" x="195.654297"/>
      <use xlink:href="#DejaVuSans-36" x="259.277344"/>
     </g>
    </g>
   </g>
   <g id="text_17">
    <g clip-path="url(#pa3f5c26a37)">
     <!-- 26B12 -->
     <g transform="translate(129.169504 258.66911) scale(0.07 -0.07)">
      <defs>
       <path id="DejaVuSans-42" d="M 1259 2228 
L 1259 519 
L 2272 519 
Q 2781 519 3026 730 
Q 3272 941 3272 1375 
Q 3272 1813 3026 2020 
Q 2781 2228 2272 2228 
L 1259 2228 
z
M 1259 4147 
L 1259 2741 
L 2194 2741 
Q 2656 2741 2882 2914 
Q 3109 3088 3109 3444 
Q 3109 3797 2882 3972 
Q 2656 4147 2194 4147 
L 1259 4147 
z
M 628 4666 
L 2241 4666 
Q 2963 4666 3353 4366 
Q 3744 4066 3744 3513 
Q 3744 3084 3544 2831 
Q 3344 2578 2956 2516 
Q 3422 2416 3680 2098 
Q 3938 1781 3938 1306 
Q 3938 681 3513 340 
Q 3088 0 2303 0 
L 628 0 
L 628 4666 
z
" transform="scale(0.015625)"/>
      </defs>
      <use xlink:href="#DejaVuSans-32"/>
      <use xlink:href="#DejaVuSans-36" x="63.623047"/>
      <use xlink:href="#DejaVuSans-42" x="127.246094"/>
      <use xlink:href="#DejaVuSans-31" x="195.849609"/>
      <use xlink:href="#DejaVuSans-32" x="259.472656"/>
     </g>
    </g>
   </g>
   <g id="text_18">
    <g clip-path="url(#pa3f5c26a37)">
     <!-- 40A05 -->
     <g transform="translate(209.910435 261.708989) scale(0.07 -0.07)">
      <use xlink:href="#DejaVuSans-34"/>
      <use xlink:href="#DejaVuSans-30" x="63.623047"/>
      <use xlink:href="#DejaVuSans-41" x="127.246094"/>
      <use xlink:href="#DejaVuSans-30" x="195.654297"/>
      <use xlink:href="#DejaVuSans-35" x="259.277344"/>
     </g>
    </g>
   </g>
   <g id="text_19">
    <g clip-path="url(#pa3f5c26a37)">
     <!-- 34A30 -->
     <g transform="translate(169.173581 272.113501) scale(0.07 -0.07)">
      <use xlink:href="#DejaVuSans-33"/>
      <use xlink:href="#DejaVuSans-34" x="63.623047"/>
      <use xlink:href="#DejaVuSans-41" x="127.246094"/>
      <use xlink:href="#DejaVuSans-33" x="195.654297"/>
      <use xlink:href="#DejaVuSans-30" x="259.277344"/>
     </g>
    </g>
   </g>
   <g id="text_20">
    <g clip-path="url(#pa3f5c26a37)">
     <!-- 15A04 -->
     <g transform="translate(109.812413 229.19295) scale(0.07 -0.07)">
      <use xlink:href="#DejaVuSans-31"/>
      <use xlink:href="#DejaVuSans-35" x="63.623047"/>
      <use xlink:href="#DejaVuSans-41" x="127.246094"/>
      <use xlink:href="#DejaVuSans-30" x="195.654297"/>
      <use xlink:href="#DejaVuSans-34" x="259.277344"/>
     </g>
    </g>
   </g>
   <g id="matplotlib.axis_1"/>
   <g id="matplotlib.axis_2"/>
  </g>
 </g>
 <defs>
  <clipPath id="pa3f5c26a37">
   <rect x="57.6" y="41.472" width="357.12" height="266.112"/>
  </clipPath>
 </defs>
</svg>
